<?xml version="1.0" encoding="UTF-8" standalone="no"?>
<!-- Created with Inkscape (http://www.inkscape.org/) -->
<svg
   xmlns:dc="http://purl.org/dc/elements/1.1/"
   xmlns:cc="http://web.resource.org/cc/"
   xmlns:rdf="http://www.w3.org/1999/02/22-rdf-syntax-ns#"
   xmlns:svg="http://www.w3.org/2000/svg"
   xmlns="http://www.w3.org/2000/svg"
   xmlns:sodipodi="http://sodipodi.sourceforge.net/DTD/sodipodi-0.dtd"
   xmlns:inkscape="http://www.inkscape.org/namespaces/inkscape"
   width="219.5"
   height="82.50766"
   id="svg4359"
   sodipodi:version="0.32"
   inkscape:version="0.45.1"
   version="1.0"
   sodipodi:docbase="/home/florian/git/drbd-howto-collection/users-guide"
   sodipodi:docname="gi-changes-synccomplete.svg"
   inkscape:output_extension="org.inkscape.output.svg.inkscape">
  <defs
     id="defs4361" />
  <sodipodi:namedview
     id="base"
     pagecolor="#ffffff"
     bordercolor="#666666"
     borderopacity="1.0"
     inkscape:pageopacity="0.0"
     inkscape:pageshadow="2"
     inkscape:zoom="0.5"
     inkscape:cx="512"
     inkscape:cy="382"
     inkscape:current-layer="layer1"
     inkscape:document-units="px"
     inkscape:window-width="748"
     inkscape:window-height="572"
     inkscape:window-x="266"
     inkscape:window-y="89" />
  <metadata
     id="metadata4364">
    <rdf:RDF>
      <cc:Work
         rdf:about="">
        <dc:format>image/svg+xml</dc:format>
        <dc:type
           rdf:resource="http://purl.org/dc/dcmitype/StillImage" />
      </cc:Work>
    </rdf:RDF>
  </metadata>
  <g
     id="layer1"
     inkscape:label="Layer 1"
     inkscape:groupmode="layer"
     transform="translate(-228.25,-236.74617)">
    <g
       transform="matrix(2.6574803e-2,0,0,2.6574803e-2,177.71408,-58.596069)"
       id="g4096">
      <desc
         id="desc4098">Drawing</desc>
      <g
         id="g4100">
        <g
           style="fill:#999999;stroke:none"
           id="g4102">
          <path
             d="M 1904,13581 L 5079,13581 L 5079,14216 L 1904,14216 L 1904,13581 z "
             id="path4104" />
        </g>
        <g
           style="fill:none;stroke:#000000"
           id="g4106">
          <path
             style="fill:none"
             d="M 3491,14216 L 1904,14216 L 1904,13581 L 5079,13581 L 5079,14216 L 3491,14216"
             id="path4108" />
        </g>
        <g
           id="g4110">
          <g
             style="font-size:423px;font-weight:400;font-family:sans-serif"
             id="g4112">
            <g
               style="fill:#000000;stroke:none"
               id="g4114">
              <text
                 id="text4116">
                <tspan
                   x="2292 2597 2690 2902 3020 3257 3397 3490 3702 3939 4032 4150 4290 4527"
                   y="14089"
                   id="tspan4118">Historical (2)</tspan>
              </text>
            </g>
          </g>
        </g>
      </g>
    </g>
    <g
       transform="matrix(2.6574803e-2,0,0,2.6574803e-2,177.71408,-58.596069)"
       id="g4120">
      <desc
         id="desc4122">Drawing</desc>
      <g
         id="g4124">
        <g
           style="fill:#ff0000;stroke:none"
           id="g4126">
          <path
             d="M 1904,12946 L 5079,12946 L 5079,13581 L 1904,13581 L 1904,12946 z "
             id="path4128" />
        </g>
        <g
           style="fill:none;stroke:#000000"
           id="g4130">
          <path
             style="fill:none"
             d="M 3491,13581 L 1904,13581 L 1904,12946 L 5079,12946 L 5079,13581 L 3491,13581"
             id="path4132" />
        </g>
        <g
           id="g4134">
          <g
             style="font-size:423px;font-weight:400;font-family:sans-serif"
             id="g4136">
            <g
               style="fill:#000000;stroke:none"
               id="g4138">
              <text
                 id="text4140">
                <tspan
                   x="2292 2597 2690 2902 3020 3257 3397 3490 3702 3939 4032 4150 4290 4527"
                   y="13454"
                   id="tspan4142">Historical (1)</tspan>
              </text>
            </g>
          </g>
        </g>
      </g>
    </g>
    <g
       transform="matrix(2.6574803e-2,0,0,2.6574803e-2,177.71408,-58.596069)"
       id="g4144">
      <desc
         id="desc4146">Drawing</desc>
      <g
         id="g4148">
        <g
           style="fill:#ffff00;stroke:none"
           id="g4150">
          <path
             d="M 1904,12311 L 5079,12311 L 5079,12946 L 1904,12946 L 1904,12311 z "
             id="path4152" />
        </g>
        <g
           style="fill:none;stroke:#000000"
           id="g4154">
          <path
             style="fill:none"
             d="M 3491,12946 L 1904,12946 L 1904,12311 L 5079,12311 L 5079,12946 L 3491,12946"
             id="path4156" />
        </g>
        <g
           id="g4158">
          <g
             style="font-size:423px;font-weight:400;font-family:sans-serif"
             id="g4160">
            <g
               style="fill:#000000;stroke:none"
               id="g4162">
              <text
                 id="text4164">
                <tspan
                   x="2819 3103 3196 3314 3666 3903"
                   y="12819"
                   id="tspan4166">Bitmap</tspan>
              </text>
            </g>
          </g>
        </g>
      </g>
    </g>
    <g
       transform="matrix(2.6574803e-2,0,0,2.6574803e-2,177.71408,-58.596069)"
       id="g4168">
      <desc
         id="desc4170">Drawing</desc>
      <g
         id="g4172">
        <g
           style="fill:#00ae00;stroke:none"
           id="g4174">
          <path
             d="M 1904,11676 L 5079,11676 L 5079,12311 L 1904,12311 L 1904,11676 z "
             id="path4176" />
        </g>
        <g
           style="fill:none;stroke:#000000"
           id="g4178">
          <path
             style="fill:none"
             d="M 3491,12311 L 1904,12311 L 1904,11676 L 5079,11676 L 5079,12311 L 3491,12311"
             id="path4180" />
        </g>
        <g
           id="g4182">
          <g
             style="font-size:423px;font-weight:400;font-family:sans-serif"
             id="g4184">
            <g
               style="fill:#000000;stroke:none"
               id="g4186">
              <text
                 id="text4188">
                <tspan
                   x="2773 3078 3315 3455 3594 3831 4068"
                   y="12184"
                   id="tspan4190">Current</tspan>
              </text>
            </g>
          </g>
        </g>
      </g>
    </g>
    <g
       transform="matrix(2.6574803e-2,0,0,2.6574803e-2,177.71408,-58.596069)"
       id="g4192">
      <desc
         id="desc4194">Drawing</desc>
      <g
         id="g4196">
        <g
           style="fill:#ff0000;stroke:none"
           id="g4198">
          <path
             d="M 6984,13581 L 10159,13581 L 10159,14216 L 6984,14216 L 6984,13581 z "
             id="path4200" />
        </g>
        <g
           style="fill:none;stroke:#000000"
           id="g4202">
          <path
             style="fill:none"
             d="M 8571,14216 L 6984,14216 L 6984,13581 L 10159,13581 L 10159,14216 L 8571,14216"
             id="path4204" />
        </g>
        <g
           id="g4206">
          <g
             style="font-size:423px;font-weight:400;font-family:sans-serif"
             id="g4208">
            <g
               style="fill:#000000;stroke:none"
               id="g4210">
              <text
                 id="text4212">
                <tspan
                   x="7372 7677 7770 7982 8100 8337 8477 8570 8782 9019 9112 9230 9370 9607"
                   y="14089"
                   id="tspan4214">Historical (2)</tspan>
              </text>
            </g>
          </g>
        </g>
      </g>
    </g>
    <g
       transform="matrix(2.6574803e-2,0,0,2.6574803e-2,177.71408,-58.596069)"
       id="g4216">
      <desc
         id="desc4218">Drawing</desc>
      <g
         id="g4220">
        <g
           style="fill:#ffff00;stroke:none"
           id="g4222">
          <path
             d="M 6984,12946 L 10159,12946 L 10159,13581 L 6984,13581 L 6984,12946 z "
             id="path4224" />
        </g>
        <g
           style="fill:none;stroke:#000000"
           id="g4226">
          <path
             style="fill:none"
             d="M 8571,13581 L 6984,13581 L 6984,12946 L 10159,12946 L 10159,13581 L 8571,13581"
             id="path4228" />
        </g>
        <g
           id="g4230">
          <g
             style="font-size:423px;font-weight:400;font-family:sans-serif"
             id="g4232">
            <g
               style="fill:#000000;stroke:none"
               id="g4234">
              <text
                 id="text4236">
                <tspan
                   x="7372 7677 7770 7982 8100 8337 8477 8570 8782 9019 9112 9230 9370 9607"
                   y="13454"
                   id="tspan4238">Historical (1)</tspan>
              </text>
            </g>
          </g>
        </g>
      </g>
    </g>
    <g
       transform="matrix(2.6574803e-2,0,0,2.6574803e-2,177.71408,-58.596069)"
       id="g4240">
      <desc
         id="desc4242">Drawing</desc>
      <g
         id="g4244">
        <g
           style="fill:#ffffff;stroke:none"
           id="g4246">
          <path
             d="M 6984,12311 L 10159,12311 L 10159,12946 L 6984,12946 L 6984,12311 z "
             id="path4248" />
        </g>
        <g
           style="fill:none;stroke:#000000"
           id="g4250">
          <path
             style="fill:none"
             d="M 8571,12946 L 6984,12946 L 6984,12311 L 10159,12311 L 10159,12946 L 8571,12946"
             id="path4252" />
        </g>
        <g
           id="g4254">
          <g
             style="font-size:423px;font-weight:400;font-family:sans-serif"
             id="g4256">
            <g
               style="fill:#000000;stroke:none"
               id="g4258">
              <text
                 id="text4260">
                <tspan
                   x="7143 7427 7520 7638 7990 8227 8464 8582 8722 8959 9315 9552 9670 9882"
                   y="12819"
                   id="tspan4262">Bitmap (empty)</tspan>
              </text>
            </g>
          </g>
        </g>
      </g>
    </g>
    <g
       transform="matrix(2.6574803e-2,0,0,2.6574803e-2,177.71408,-58.596069)"
       id="g4264">
      <desc
         id="desc4266">Drawing</desc>
      <g
         id="g4268">
        <g
           style="fill:#00ae00;stroke:none"
           id="g4270">
          <path
             d="M 6984,11676 L 10159,11676 L 10159,12311 L 6984,12311 L 6984,11676 z "
             id="path4272" />
        </g>
        <g
           style="fill:none;stroke:#000000"
           id="g4274">
          <path
             style="fill:none"
             d="M 8571,12311 L 6984,12311 L 6984,11676 L 10159,11676 L 10159,12311 L 8571,12311"
             id="path4276" />
        </g>
        <g
           id="g4278">
          <g
             style="font-size:423px;font-weight:400;font-family:sans-serif"
             id="g4280">
            <g
               style="fill:#000000;stroke:none"
               id="g4282">
              <text
                 id="text4284">
                <tspan
                   x="7853 8158 8395 8535 8674 8911 9148"
                   y="12184"
                   id="tspan4286">Current</tspan>
              </text>
            </g>
          </g>
        </g>
      </g>
    </g>
    <g
       transform="matrix(2.6574803e-2,0,0,2.6574803e-2,177.71408,-58.596069)"
       id="g4288">
      <desc
         id="desc4290">Drawing</desc>
      <g
         id="g4292">
        <g
           id="g4294">
          <g
             style="font-size:423px;font-weight:400;font-family:sans-serif"
             id="g4296">
            <g
               style="fill:#000000;stroke:none"
               id="g4298">
              <g
                 transform="matrix(1,0,-0.176327,1,2016.299,0)"
                 id="g4300">
                <text
                   id="text4302">
                  <tspan
                     x="2858 3142 3379 3493 3730 3866"
                     y="11435"
                     id="tspan4304">Before</tspan>
                </text>
              </g>
            </g>
          </g>
        </g>
      </g>
    </g>
    <g
       transform="matrix(2.6574803e-2,0,0,2.6574803e-2,177.71408,-58.596069)"
       id="g4306">
      <desc
         id="desc4308">Drawing</desc>
      <g
         id="g4310">
        <g
           id="g4312">
          <g
             style="font-size:423px;font-weight:400;font-family:sans-serif"
             id="g4314">
            <g
               style="fill:#000000;stroke:none"
               id="g4316">
              <g
                 transform="matrix(1,0,-0.176327,1,2016.299,0)"
                 id="g4318">
                <text
                   id="text4320">
                  <tspan
                     x="8123 8407 8534 8648 8885"
                     y="11435"
                     id="tspan4322">After</tspan>
                </text>
              </g>
            </g>
          </g>
        </g>
      </g>
    </g>
    <g
       transform="matrix(2.6574803e-2,0,0,2.6574803e-2,177.71408,-58.596069)"
       id="g4324">
      <desc
         id="desc4326">Drawing</desc>
      <g
         id="g4328">
        <g
           style="fill:#000000;stroke:none"
           id="g4330">
          <path
             d="M 6985,13264 L 6535,13414 L 6535,13114 L 6985,13264 z "
             id="path4332" />
        </g>
        <g
           style="fill:none;stroke:#000000"
           id="g4334">
          <path
             style="fill:none"
             d="M 5080,12629 L 6350,12629 L 6350,13264 L 6625,13264"
             id="path4336" />
        </g>
        <g
           id="g4338" />
      </g>
    </g>
    <g
       transform="matrix(2.6574803e-2,0,0,2.6574803e-2,177.71408,-58.596069)"
       id="g4340">
      <desc
         id="desc4342">Drawing</desc>
      <g
         id="g4344">
        <g
           style="fill:#000000;stroke:none"
           id="g4346">
          <path
             d="M 6985,13899 L 6535,14049 L 6535,13749 L 6985,13899 z "
             id="path4348" />
        </g>
        <g
           style="fill:none;stroke:#000000"
           id="g4350">
          <path
             style="fill:none"
             d="M 5080,13264 L 5715,13264 L 5715,13899 L 6625,13899"
             id="path4352" />
        </g>
        <g
           id="g4354" />
      </g>
    </g>
  </g>
</svg>
