<?xml version="1.0" encoding="UTF-8" standalone="no"?>
<!-- Created with Inkscape (http://www.inkscape.org/) -->
<svg
   xmlns:dc="http://purl.org/dc/elements/1.1/"
   xmlns:cc="http://web.resource.org/cc/"
   xmlns:rdf="http://www.w3.org/1999/02/22-rdf-syntax-ns#"
   xmlns:svg="http://www.w3.org/2000/svg"
   xmlns="http://www.w3.org/2000/svg"
   xmlns:sodipodi="http://sodipodi.sourceforge.net/DTD/sodipodi-0.dtd"
   xmlns:inkscape="http://www.inkscape.org/namespaces/inkscape"
   width="219.5"
   height="82.50766"
   id="svg4497"
   sodipodi:version="0.32"
   inkscape:version="0.45.1"
   version="1.0"
   sodipodi:docbase="/home/florian/git/drbd-howto-collection/users-guide"
   sodipodi:docname="gi-changes-syncstart.svg"
   inkscape:output_extension="org.inkscape.output.svg.inkscape">
  <defs
     id="defs4499" />
  <sodipodi:namedview
     id="base"
     pagecolor="#ffffff"
     bordercolor="#666666"
     borderopacity="1.0"
     inkscape:pageopacity="0.0"
     inkscape:pageshadow="2"
     inkscape:zoom="0.5"
     inkscape:cx="512"
     inkscape:cy="382"
     inkscape:current-layer="layer1"
     inkscape:document-units="px"
     inkscape:window-width="748"
     inkscape:window-height="572"
     inkscape:window-x="266"
     inkscape:window-y="89" />
  <metadata
     id="metadata4502">
    <rdf:RDF>
      <cc:Work
         rdf:about="">
        <dc:format>image/svg+xml</dc:format>
        <dc:type
           rdf:resource="http://purl.org/dc/dcmitype/StillImage" />
      </cc:Work>
    </rdf:RDF>
  </metadata>
  <g
     id="layer1"
     inkscape:label="Layer 1"
     inkscape:groupmode="layer"
     transform="translate(-176.25,-142.74617)">
    <g
       transform="matrix(2.6574803e-2,0,0,2.6574803e-2,125.71408,-34.47107)"
       id="g3852">
      <desc
         id="desc3854">Drawing</desc>
      <g
         id="g3856">
        <g
           style="fill:#999999;stroke:none"
           id="g3858">
          <path
             d="M 1904,9136 L 5079,9136 L 5079,9771 L 1904,9771 L 1904,9136 z "
             id="path3860" />
        </g>
        <g
           style="fill:none;stroke:#000000"
           id="g3862">
          <path
             style="fill:none"
             d="M 3491,9771 L 1904,9771 L 1904,9136 L 5079,9136 L 5079,9771 L 3491,9771"
             id="path3864" />
        </g>
        <g
           id="g3866">
          <g
             style="font-size:423px;font-weight:400;font-family:sans-serif"
             id="g3868">
            <g
               style="fill:#000000;stroke:none"
               id="g3870">
              <text
                 id="text3872">
                <tspan
                   x="2292 2597 2690 2902 3020 3257 3397 3490 3702 3939 4032 4150 4290 4527"
                   y="9644"
                   id="tspan3874">Historical (2)</tspan>
              </text>
            </g>
          </g>
        </g>
      </g>
    </g>
    <g
       transform="matrix(2.6574803e-2,0,0,2.6574803e-2,125.71408,-34.47107)"
       id="g3876">
      <desc
         id="desc3878">Drawing</desc>
      <g
         id="g3880">
        <g
           style="fill:#999999;stroke:none"
           id="g3882">
          <path
             d="M 1904,8501 L 5079,8501 L 5079,9136 L 1904,9136 L 1904,8501 z "
             id="path3884" />
        </g>
        <g
           style="fill:none;stroke:#000000"
           id="g3886">
          <path
             style="fill:none"
             d="M 3491,9136 L 1904,9136 L 1904,8501 L 5079,8501 L 5079,9136 L 3491,9136"
             id="path3888" />
        </g>
        <g
           id="g3890">
          <g
             style="font-size:423px;font-weight:400;font-family:sans-serif"
             id="g3892">
            <g
               style="fill:#000000;stroke:none"
               id="g3894">
              <text
                 id="text3896">
                <tspan
                   x="2292 2597 2690 2902 3020 3257 3397 3490 3702 3939 4032 4150 4290 4527"
                   y="9009"
                   id="tspan3898">Historical (1)</tspan>
              </text>
            </g>
          </g>
        </g>
      </g>
    </g>
    <g
       transform="matrix(2.6574803e-2,0,0,2.6574803e-2,125.71408,-34.47107)"
       id="g3900">
      <desc
         id="desc3902">Drawing</desc>
      <g
         id="g3904">
        <g
           style="fill:#ff0000;stroke:none"
           id="g3906">
          <path
             d="M 1904,7866 L 5079,7866 L 5079,8501 L 1904,8501 L 1904,7866 z "
             id="path3908" />
        </g>
        <g
           style="fill:none;stroke:#000000"
           id="g3910">
          <path
             style="fill:none"
             d="M 3491,8501 L 1904,8501 L 1904,7866 L 5079,7866 L 5079,8501 L 3491,8501"
             id="path3912" />
        </g>
        <g
           id="g3914">
          <g
             style="font-size:423px;font-weight:400;font-family:sans-serif"
             id="g3916">
            <g
               style="fill:#000000;stroke:none"
               id="g3918">
              <text
                 id="text3920">
                <tspan
                   x="2819 3103 3196 3314 3666 3903"
                   y="8374"
                   id="tspan3922">Bitmap</tspan>
              </text>
            </g>
          </g>
        </g>
      </g>
    </g>
    <g
       transform="matrix(2.6574803e-2,0,0,2.6574803e-2,125.71408,-34.47107)"
       id="g3924">
      <desc
         id="desc3926">Drawing</desc>
      <g
         id="g3928">
        <g
           style="fill:#00ae00;stroke:none"
           id="g3930">
          <path
             d="M 1904,7231 L 5079,7231 L 5079,7866 L 1904,7866 L 1904,7231 z "
             id="path3932" />
        </g>
        <g
           style="fill:none;stroke:#000000"
           id="g3934">
          <path
             style="fill:none"
             d="M 3491,7866 L 1904,7866 L 1904,7231 L 5079,7231 L 5079,7866 L 3491,7866"
             id="path3936" />
        </g>
        <g
           id="g3938">
          <g
             style="font-size:423px;font-weight:400;font-family:sans-serif"
             id="g3940">
            <g
               style="fill:#000000;stroke:none"
               id="g3942">
              <text
                 id="text3944">
                <tspan
                   x="2773 3078 3315 3455 3594 3831 4068"
                   y="7739"
                   id="tspan3946">Current</tspan>
              </text>
            </g>
          </g>
        </g>
      </g>
    </g>
    <g
       transform="matrix(2.6574803e-2,0,0,2.6574803e-2,125.71408,-34.47107)"
       id="g3948">
      <desc
         id="desc3950">Drawing</desc>
      <g
         id="g3952">
        <g
           style="fill:#999999;stroke:none"
           id="g3954">
          <path
             d="M 6984,9136 L 10159,9136 L 10159,9771 L 6984,9771 L 6984,9136 z "
             id="path3956" />
        </g>
        <g
           style="fill:none;stroke:#000000"
           id="g3958">
          <path
             style="fill:none"
             d="M 8571,9771 L 6984,9771 L 6984,9136 L 10159,9136 L 10159,9771 L 8571,9771"
             id="path3960" />
        </g>
        <g
           id="g3962">
          <g
             style="font-size:423px;font-weight:400;font-family:sans-serif"
             id="g3964">
            <g
               style="fill:#000000;stroke:none"
               id="g3966">
              <text
                 id="text3968">
                <tspan
                   x="7372 7677 7770 7982 8100 8337 8477 8570 8782 9019 9112 9230 9370 9607"
                   y="9644"
                   id="tspan3970">Historical (2)</tspan>
              </text>
            </g>
          </g>
        </g>
      </g>
    </g>
    <g
       transform="matrix(2.6574803e-2,0,0,2.6574803e-2,125.71408,-34.47107)"
       id="g3972">
      <desc
         id="desc3974">Drawing</desc>
      <g
         id="g3976">
        <g
           style="fill:#ff0000;stroke:none"
           id="g3978">
          <path
             d="M 6984,8501 L 10159,8501 L 10159,9136 L 6984,9136 L 6984,8501 z "
             id="path3980" />
        </g>
        <g
           style="fill:none;stroke:#000000"
           id="g3982">
          <path
             style="fill:none"
             d="M 8571,9136 L 6984,9136 L 6984,8501 L 10159,8501 L 10159,9136 L 8571,9136"
             id="path3984" />
        </g>
        <g
           id="g3986">
          <g
             style="font-size:423px;font-weight:400;font-family:sans-serif"
             id="g3988">
            <g
               style="fill:#000000;stroke:none"
               id="g3990">
              <text
                 id="text3992">
                <tspan
                   x="7372 7677 7770 7982 8100 8337 8477 8570 8782 9019 9112 9230 9370 9607"
                   y="9009"
                   id="tspan3994">Historical (1)</tspan>
              </text>
            </g>
          </g>
        </g>
      </g>
    </g>
    <g
       transform="matrix(2.6574803e-2,0,0,2.6574803e-2,125.71408,-34.47107)"
       id="g3996">
      <desc
         id="desc3998">Drawing</desc>
      <g
         id="g4000">
        <g
           style="fill:#ffff00;stroke:none"
           id="g4002">
          <path
             d="M 6984,7866 L 10159,7866 L 10159,8501 L 6984,8501 L 6984,7866 z "
             id="path4004" />
        </g>
        <g
           style="fill:none;stroke:#000000"
           id="g4006">
          <path
             style="fill:none"
             d="M 8571,8501 L 6984,8501 L 6984,7866 L 10159,7866 L 10159,8501 L 8571,8501"
             id="path4008" />
        </g>
        <g
           id="g4010">
          <g
             style="font-size:423px;font-weight:400;font-family:sans-serif"
             id="g4012">
            <g
               style="fill:#000000;stroke:none"
               id="g4014">
              <text
                 id="text4016">
                <tspan
                   x="7899 8183 8276 8394 8746 8983"
                   y="8374"
                   id="tspan4018">Bitmap</tspan>
              </text>
            </g>
          </g>
        </g>
      </g>
    </g>
    <g
       transform="matrix(2.6574803e-2,0,0,2.6574803e-2,125.71408,-34.47107)"
       id="g4020">
      <desc
         id="desc4022">Drawing</desc>
      <g
         id="g4024">
        <g
           style="fill:#00ae00;stroke:none"
           id="g4026">
          <path
             d="M 6984,7231 L 10159,7231 L 10159,7866 L 6984,7866 L 6984,7231 z "
             id="path4028" />
        </g>
        <g
           style="fill:none;stroke:#000000"
           id="g4030">
          <path
             style="fill:none"
             d="M 8571,7866 L 6984,7866 L 6984,7231 L 10159,7231 L 10159,7866 L 8571,7866"
             id="path4032" />
        </g>
        <g
           id="g4034">
          <g
             style="font-size:423px;font-weight:400;font-family:sans-serif"
             id="g4036">
            <g
               style="fill:#000000;stroke:none"
               id="g4038">
              <text
                 id="text4040">
                <tspan
                   x="7853 8158 8395 8535 8674 8911 9148"
                   y="7739"
                   id="tspan4042">Current</tspan>
              </text>
            </g>
          </g>
        </g>
      </g>
    </g>
    <g
       transform="matrix(2.6574803e-2,0,0,2.6574803e-2,125.71408,-34.47107)"
       id="g4044">
      <desc
         id="desc4046">Drawing</desc>
      <g
         id="g4048">
        <g
           id="g4050">
          <g
             style="font-size:423px;font-weight:400;font-family:sans-serif"
             id="g4052">
            <g
               style="fill:#000000;stroke:none"
               id="g4054">
              <g
                 transform="matrix(1,0,-0.176327,1,1232.5256,0)"
                 id="g4056">
                <text
                   id="text4058">
                  <tspan
                     x="2858 3142 3379 3493 3730 3866"
                     y="6990"
                     id="tspan4060">Before</tspan>
                </text>
              </g>
            </g>
          </g>
        </g>
      </g>
    </g>
    <g
       transform="matrix(2.6574803e-2,0,0,2.6574803e-2,125.71408,-34.47107)"
       id="g4062">
      <desc
         id="desc4064">Drawing</desc>
      <g
         id="g4066">
        <g
           id="g4068">
          <g
             style="font-size:423px;font-weight:400;font-family:sans-serif"
             id="g4070">
            <g
               style="fill:#000000;stroke:none"
               id="g4072">
              <g
                 transform="matrix(1,0,-0.176327,1,1232.5256,0)"
                 id="g4074">
                <text
                   id="text4076">
                  <tspan
                     x="8123 8407 8534 8648 8885"
                     y="6990"
                     id="tspan4078">After</tspan>
                </text>
              </g>
            </g>
          </g>
        </g>
      </g>
    </g>
    <g
       transform="matrix(2.6574803e-2,0,0,2.6574803e-2,125.71408,-34.47107)"
       id="g4080">
      <desc
         id="desc4082">Drawing</desc>
      <g
         id="g4084">
        <g
           style="fill:#000000;stroke:none"
           id="g4086">
          <path
             d="M 6985,8819 L 6535,8969 L 6535,8669 L 6985,8819 z "
             id="path4088" />
        </g>
        <g
           style="fill:none;stroke:#000000"
           id="g4090">
          <path
             style="fill:none"
             d="M 5080,8184 L 6032,8184 L 6032,8819 L 6625,8819"
             id="path4092" />
        </g>
        <g
           id="g4094" />
      </g>
    </g>
  </g>
</svg>
