<?xml version="1.0" encoding="UTF-8" standalone="no"?>
<!-- Created with Inkscape (http://www.inkscape.org/) -->
<svg
   xmlns:dc="http://purl.org/dc/elements/1.1/"
   xmlns:cc="http://web.resource.org/cc/"
   xmlns:rdf="http://www.w3.org/1999/02/22-rdf-syntax-ns#"
   xmlns:svg="http://www.w3.org/2000/svg"
   xmlns="http://www.w3.org/2000/svg"
   xmlns:sodipodi="http://sodipodi.sourceforge.net/DTD/sodipodi-0.dtd"
   xmlns:inkscape="http://www.inkscape.org/namespaces/inkscape"
   width="230.31496"
   height="283.46457"
   id="svg2290"
   sodipodi:version="0.32"
   inkscape:version="0.44"
   version="1.0"
   sodipodi:docbase="/home/phil/src/book"
   sodipodi:docname="LVM.svg">
  <defs
     id="defs2292">
    <marker
       inkscape:stockid="Arrow1Mend"
       orient="auto"
       refY="0"
       refX="0"
       id="Arrow1Mend"
       style="overflow:visible">
      <path
         id="path6080"
         d="M 0,0 L 5,-5 L -12.5,0 L 5,5 L 0,0 z "
         style="fill-rule:evenodd;stroke:black;stroke-width:1pt;marker-start:none"
         transform="matrix(-0.4,0,0,-0.4,-4,0)" />
    </marker>
    <marker
       inkscape:stockid="Arrow2Mend"
       orient="auto"
       refY="0"
       refX="0"
       id="Arrow2Mend"
       style="overflow:visible">
      <path
         id="path6062"
         style="font-size:12px;fill-rule:evenodd;stroke-width:0.625;stroke-linejoin:round"
         d="M 8.7185878,4.0337352 L -2.2072895,0.016013256 L 8.7185884,-4.0017078 C 6.97309,-1.6296469 6.9831476,1.6157441 8.7185878,4.0337352 z "
         transform="scale(-0.6,-0.6)" />
    </marker>
    <marker
       inkscape:stockid="TriangleOutS"
       orient="auto"
       refY="0"
       refX="0"
       id="TriangleOutS"
       style="overflow:visible">
      <path
         id="path5985"
         d="M 5.77,0 L -2.88,5 L -2.88,-5 L 5.77,0 z "
         style="fill-rule:evenodd;stroke:black;stroke-width:1pt;marker-start:none"
         transform="scale(0.2,0.2)" />
    </marker>
    <marker
       inkscape:stockid="TriangleOutM"
       orient="auto"
       refY="0"
       refX="0"
       id="TriangleOutM"
       style="overflow:visible">
      <path
         id="path5988"
         d="M 5.77,0 L -2.88,5 L -2.88,-5 L 5.77,0 z "
         style="fill-rule:evenodd;stroke:black;stroke-width:1pt;marker-start:none"
         transform="scale(0.4,0.4)" />
    </marker>
    <marker
       inkscape:stockid="TriangleOutL"
       orient="auto"
       refY="0"
       refX="0"
       id="TriangleOutL"
       style="overflow:visible">
      <path
         id="path5991"
         d="M 5.77,0 L -2.88,5 L -2.88,-5 L 5.77,0 z "
         style="fill-rule:evenodd;stroke:black;stroke-width:1pt;marker-start:none"
         transform="scale(0.8,0.8)" />
    </marker>
  </defs>
  <sodipodi:namedview
     id="base"
     pagecolor="#ffffff"
     bordercolor="#666666"
     borderopacity="1.0"
     inkscape:pageopacity="0.0"
     inkscape:pageshadow="2"
     inkscape:zoom="1.4"
     inkscape:cx="227.62018"
     inkscape:cy="196.03329"
     inkscape:document-units="mm"
     inkscape:current-layer="layer1"
     showgrid="true"
     inkscape:object-paths="false"
     inkscape:object-nodes="true"
     inkscape:grid-points="true"
     inkscape:grid-bbox="true"
     inkscape:guide-points="true"
     inkscape:guide-bbox="false"
     gridtolerance="2.3"
     width="65mm"
     height="80mm"
     units="mm"
     inkscape:window-width="1280"
     inkscape:window-height="954"
     inkscape:window-x="0"
     inkscape:window-y="0" />
  <metadata
     id="metadata2295">
    <rdf:RDF>
      <cc:Work
         rdf:about="">
        <dc:format>image/svg+xml</dc:format>
        <dc:type
           rdf:resource="http://purl.org/dc/dcmitype/StillImage" />
      </cc:Work>
    </rdf:RDF>
  </metadata>
  <g
     inkscape:label="Layer 1"
     inkscape:groupmode="layer"
     id="layer1">
    <path
       style="fill:#fbfca0;fill-opacity:0.85542166;stroke:black;stroke-width:0.99999982;stroke-opacity:1"
       d="M 108.23361,116.47544 C 100.22071,116.37174 92.982106,121.83665 89.707866,128.85627 C 80.049943,124.29866 66.376003,123.02331 58.796583,131.84761 C 55.823313,135.1121 54.627293,139.76255 54.233493,143.77143 C 44.774353,145.69129 36.167803,155.36524 39.156353,165.23015 C 40.505743,170.65967 45.040843,174.43342 49.607313,177.25783 C 47.537733,188.21982 57.946123,198.43442 68.869033,197.96872 C 73.302783,198.42613 78.211853,196.29895 81.990553,196.45228 C 86.568556,208.36512 102.99625,212.72363 113.58106,205.88464 C 116.58647,204.19016 119.32441,201.94191 121.43925,199.21511 C 129.77812,206.67865 143.78249,210.45971 153.33885,203.0166 C 156.79824,200.37181 159.08979,196.46968 160.36223,192.38073 C 170.71669,194.07025 183.75823,190.02228 186.96276,179.18974 C 188.24768,174.92894 186.35038,170.54022 185.51181,166.49731 C 192.67459,159.20567 191.1447,145.48127 181.78984,140.59313 C 177.48677,137.80357 171.96196,137.75645 167.17533,136.89549 C 165.40636,124.91718 150.9264,118.27921 139.9019,122.29193 C 136.0675,123.1911 132.2979,125.62056 129.17758,127.23596 C 124.89262,120.26123 116.4788,116.09994 108.23361,116.47544 z "
       id="path5767" />
    <path
       style="fill:none;fill-opacity:1;fill-rule:evenodd;stroke:#3927cb;stroke-width:7.08661413;stroke-linecap:butt;stroke-linejoin:miter;marker-end:url(#TriangleOutS);stroke-miterlimit:4;stroke-dasharray:none;stroke-opacity:0.66666667"
       d="M 152.54219,127.93188 L 166.71542,71.238963"
       id="path7006"
       sodipodi:nodetypes="cc" />
    <path
       sodipodi:nodetypes="cscsc"
       id="path5791"
       d="M 21.896752,232.25485 C 21.896752,236.84373 32.029612,240.56803 44.699793,240.56803 C 57.369973,240.56803 67.502813,236.84373 67.502813,232.25485 C 67.502813,227.66598 57.369983,223.94167 44.699793,223.94167 C 32.029622,223.94167 21.896752,227.66598 21.896752,232.25485 z "
       style="fill:#52da6f;fill-opacity:0.65243895;stroke:black;stroke-width:0.7133289;stroke-linecap:butt;stroke-linejoin:miter;stroke-miterlimit:4;stroke-opacity:1" />
    <path
       style="fill:#52da6f;fill-opacity:0.65243895;stroke:black;stroke-width:0.7133289;stroke-linecap:butt;stroke-linejoin:miter;stroke-miterlimit:4;stroke-opacity:1"
       d="M 67.502813,232.25485 C 67.502813,236.94777 57.369973,240.56803 44.699783,240.56803 C 32.029612,240.56803 21.896742,236.92096 21.896742,232.25485 M 21.896742,232.25485 C 21.896742,240.56803 21.896732,256.7621 21.896732,261.35098 C 21.896732,265.93987 32.029572,269.66417 44.699773,269.66417 C 57.369943,269.66417 67.502803,265.93987 67.502803,261.35098 C 67.502803,256.7621 67.502813,236.84373 67.502813,232.25485"
       id="path1399"
       sodipodi:nodetypes="cscccscc" />
    <path
       sodipodi:nodetypes="cscsc"
       id="path5832"
       d="M 81.534613,231.91436 C 81.534613,236.50324 91.667476,240.22754 104.33766,240.22754 C 117.00784,240.22754 127.14068,236.50324 127.14068,231.91436 C 127.14068,227.32549 117.00785,223.60118 104.33766,223.60118 C 91.667486,223.60118 81.534613,227.32549 81.534613,231.91436 z "
       style="fill:#52da6f;fill-opacity:0.65243895;stroke:black;stroke-width:0.7133289;stroke-linecap:butt;stroke-linejoin:miter;stroke-miterlimit:4;stroke-opacity:1" />
    <path
       style="fill:#52da6f;fill-opacity:0.65243895;stroke:black;stroke-width:0.7133289;stroke-linecap:butt;stroke-linejoin:miter;stroke-miterlimit:4;stroke-opacity:1"
       d="M 127.14068,231.91436 C 127.14068,236.60728 117.00784,240.22754 104.33765,240.22754 C 91.667476,240.22754 81.534603,236.58047 81.534603,231.91436 M 81.534603,231.91436 C 81.534603,240.22754 81.534593,256.42161 81.534593,261.01049 C 81.534593,265.59938 91.667436,269.32368 104.33764,269.32368 C 117.00781,269.32368 127.14067,265.59938 127.14067,261.01049 C 127.14067,256.42161 127.14068,236.50324 127.14068,231.91436"
       id="path5834"
       sodipodi:nodetypes="cscccscc" />
    <path
       sodipodi:nodetypes="cscsc"
       id="path5838"
       d="M 160.52091,232.27102 C 160.52091,236.8599 170.65377,240.5842 183.32395,240.5842 C 195.99413,240.5842 206.12697,236.8599 206.12697,232.27102 C 206.12697,227.68215 195.99414,223.95784 183.32395,223.95784 C 170.65378,223.95784 160.52091,227.68215 160.52091,232.27102 z "
       style="fill:#52da6f;fill-opacity:0.65243895;stroke:black;stroke-width:0.7133289;stroke-linecap:butt;stroke-linejoin:miter;stroke-miterlimit:4;stroke-opacity:1" />
    <path
       style="fill:#52da6f;fill-opacity:0.65243895;stroke:black;stroke-width:0.7133289;stroke-linecap:butt;stroke-linejoin:miter;stroke-miterlimit:4;stroke-opacity:1"
       d="M 206.12697,232.27102 C 206.12697,236.96394 195.99413,240.5842 183.32394,240.5842 C 170.65377,240.5842 160.5209,236.93713 160.5209,232.27102 M 160.5209,232.27102 C 160.5209,240.5842 160.52089,256.77827 160.52089,261.36715 C 160.52089,265.95604 170.65373,269.68034 183.32393,269.68034 C 195.9941,269.68034 206.12696,265.95604 206.12696,261.36715 C 206.12696,256.77827 206.12697,236.8599 206.12697,232.27102"
       id="path5840"
       sodipodi:nodetypes="cscccscc" />
    <g
       id="g5842"
       transform="translate(-67.2645,-290.1782)">
      <path
         style="fill:#ffc74c;fill-opacity:1;stroke:black;stroke-width:0.7133289;stroke-linecap:butt;stroke-linejoin:miter;stroke-miterlimit:4;stroke-opacity:1"
         d="M 89.16126,352.35441 C 89.16126,356.94329 99.29412,360.66759 111.9643,360.66759 C 124.63448,360.66759 134.76732,356.94329 134.76732,352.35441 C 134.76732,347.76554 124.63449,344.04123 111.9643,344.04123 C 99.29413,344.04123 89.16126,347.76554 89.16126,352.35441 z "
         id="path5844"
         sodipodi:nodetypes="cscsc" />
      <path
         sodipodi:nodetypes="cscccscc"
         id="path5846"
         d="M 134.76732,352.35441 C 134.76732,357.04733 124.63448,360.66759 111.96429,360.66759 C 99.29412,360.66759 89.16125,357.02052 89.16125,352.35441 M 89.16125,352.35441 C 89.16125,360.66759 89.16124,376.86166 89.16124,381.45054 C 89.16124,386.03943 99.29408,389.76373 111.96428,389.76373 C 124.63445,389.76373 134.76731,386.03943 134.76731,381.45054 C 134.76731,376.86166 134.76732,356.94329 134.76732,352.35441"
         style="fill:#ffc74c;fill-opacity:1;stroke:black;stroke-width:0.7133289;stroke-linecap:butt;stroke-linejoin:miter;stroke-miterlimit:4;stroke-opacity:1" />
    </g>
    <g
       id="g5848"
       transform="translate(3.640506,-290.1782)">
      <path
         style="fill:#ffc74c;fill-opacity:1;stroke:black;stroke-width:0.7133289;stroke-linecap:butt;stroke-linejoin:miter;stroke-miterlimit:4;stroke-opacity:1"
         d="M 89.16126,352.35441 C 89.16126,356.94329 99.29412,360.66759 111.9643,360.66759 C 124.63448,360.66759 134.76732,356.94329 134.76732,352.35441 C 134.76732,347.76554 124.63449,344.04123 111.9643,344.04123 C 99.29413,344.04123 89.16126,347.76554 89.16126,352.35441 z "
         id="path5850"
         sodipodi:nodetypes="cscsc" />
      <path
         sodipodi:nodetypes="cscccscc"
         id="path5852"
         d="M 134.76732,352.35441 C 134.76732,357.04733 124.63448,360.66759 111.96429,360.66759 C 99.29412,360.66759 89.16125,357.02052 89.16125,352.35441 M 89.16125,352.35441 C 89.16125,360.66759 89.16124,376.86166 89.16124,381.45054 C 89.16124,386.03943 99.29408,389.76373 111.96428,389.76373 C 124.63445,389.76373 134.76731,386.03943 134.76731,381.45054 C 134.76731,376.86166 134.76732,356.94329 134.76732,352.35441"
         style="fill:#ffc74c;fill-opacity:1;stroke:black;stroke-width:0.7133289;stroke-linecap:butt;stroke-linejoin:miter;stroke-miterlimit:4;stroke-opacity:1" />
    </g>
    <g
       id="g5854"
       transform="translate(74.36755,-325.968)">
      <path
         style="fill:#ffc74c;fill-opacity:1;stroke:black;stroke-width:0.7133289;stroke-linecap:butt;stroke-linejoin:miter;stroke-miterlimit:4;stroke-opacity:1"
         d="M 89.16126,352.35441 C 89.16126,356.94329 99.29412,360.66759 111.9643,360.66759 C 124.63448,360.66759 134.76732,356.94329 134.76732,352.35441 C 134.76732,347.76554 124.63449,344.04123 111.9643,344.04123 C 99.29413,344.04123 89.16126,347.76554 89.16126,352.35441 z "
         id="path5856"
         sodipodi:nodetypes="cscsc" />
      <path
         sodipodi:nodetypes="cscccscc"
         id="path5858"
         d="M 134.76732,352.35441 C 134.76732,357.04733 124.63448,360.66759 111.96429,360.66759 C 99.29412,360.66759 89.16125,357.02052 89.16125,352.35441 M 89.16125,352.35441 C 89.16125,360.66759 89.16124,376.86166 89.16124,381.45054 C 89.16124,386.03943 99.29408,389.76373 111.96428,389.76373 C 124.63445,389.76373 134.76731,386.03943 134.76731,381.45054 C 134.76731,376.86166 134.76732,356.94329 134.76732,352.35441"
         style="fill:#ffc74c;fill-opacity:1;stroke:black;stroke-width:0.7133289;stroke-linecap:butt;stroke-linejoin:miter;stroke-miterlimit:4;stroke-opacity:1" />
    </g>
    <g
       id="g5860"
       transform="translate(74.01085,-272.4384)">
      <path
         style="fill:#ffc74c;fill-opacity:1;stroke:black;stroke-width:0.7133289;stroke-linecap:butt;stroke-linejoin:miter;stroke-miterlimit:4;stroke-opacity:1"
         d="M 89.16126,352.35441 C 89.16126,356.94329 99.29412,360.66759 111.9643,360.66759 C 124.63448,360.66759 134.76732,356.94329 134.76732,352.35441 C 134.76732,347.76554 124.63449,344.04123 111.9643,344.04123 C 99.29413,344.04123 89.16126,347.76554 89.16126,352.35441 z "
         id="path5862"
         sodipodi:nodetypes="cscsc" />
      <path
         sodipodi:nodetypes="cscccscc"
         id="path5864"
         d="M 134.76732,352.35441 C 134.76732,357.04733 124.63448,360.66759 111.96429,360.66759 C 99.29412,360.66759 89.16125,357.02052 89.16125,352.35441 M 89.16125,352.35441 C 89.16125,360.66759 89.16124,376.86166 89.16124,381.45054 C 89.16124,386.03943 99.29408,389.76373 111.96428,389.76373 C 124.63445,389.76373 134.76731,386.03943 134.76731,381.45054 C 134.76731,376.86166 134.76732,356.94329 134.76732,352.35441"
         style="fill:#ffc74c;fill-opacity:1;stroke:black;stroke-width:0.7133289;stroke-linecap:butt;stroke-linejoin:miter;stroke-miterlimit:4;stroke-opacity:1" />
    </g>
    <text
       xml:space="preserve"
       style="font-size:11px;font-style:normal;font-weight:normal;fill:black;fill-opacity:1;stroke:none;stroke-width:1px;stroke-linecap:butt;stroke-linejoin:miter;stroke-opacity:1;font-family:Bitstream Vera Sans"
       x="38.076763"
       y="85.412186"
       id="text5868"><tspan
         sodipodi:role="line"
         id="tspan5870"
         x="38.076763"
         y="85.412186">LV</tspan></text>
    <text
       xml:space="preserve"
       style="font-size:11px;font-style:normal;font-weight:normal;fill:black;fill-opacity:1;stroke:none;stroke-width:1px;stroke-linecap:butt;stroke-linejoin:miter;stroke-opacity:1;font-family:Bitstream Vera Sans"
       x="176.97202"
       y="104.06113"
       id="text5872"><tspan
         sodipodi:role="line"
         id="tspan5874"
         x="176.97202"
         y="104.06113">sLV</tspan></text>
    <text
       xml:space="preserve"
       style="font-size:11px;font-style:normal;font-weight:normal;fill:black;fill-opacity:1;stroke:none;stroke-width:1px;stroke-linecap:butt;stroke-linejoin:miter;stroke-opacity:1;font-family:Bitstream Vera Sans"
       x="65.141052"
       y="164.63576"
       id="text5876"><tspan
         sodipodi:role="line"
         x="65.141052"
         y="164.63576"
         id="tspan5884">Volume Group (VG)</tspan></text>
    <text
       xml:space="preserve"
       style="font-size:11px;font-style:normal;font-weight:normal;fill:black;fill-opacity:1;stroke:none;stroke-width:1px;stroke-linecap:butt;stroke-linejoin:miter;stroke-opacity:1;font-family:Bitstream Vera Sans"
       x="38.076763"
       y="255.49094"
       id="text5888"><tspan
         sodipodi:role="line"
         id="tspan5890"
         x="38.076763"
         y="255.49094">PV</tspan></text>
    <text
       xml:space="preserve"
       style="font-size:11px;font-style:normal;font-weight:normal;fill:black;fill-opacity:1;stroke:none;stroke-width:1px;stroke-linecap:butt;stroke-linejoin:miter;stroke-opacity:1;font-family:Bitstream Vera Sans"
       x="108.2989"
       y="86.34462"
       id="text5892"><tspan
         sodipodi:role="line"
         id="tspan5894"
         x="108.2989"
         y="86.34462">LV</tspan></text>
    <text
       xml:space="preserve"
       style="font-size:11px;font-style:normal;font-weight:normal;fill:black;fill-opacity:1;stroke:none;stroke-width:1px;stroke-linecap:butt;stroke-linejoin:miter;stroke-opacity:1;font-family:Bitstream Vera Sans"
       x="176.97202"
       y="50.911549"
       id="text5896"><tspan
         sodipodi:role="line"
         id="tspan5898"
         x="176.97202"
         y="50.911549">sLV</tspan></text>
    <text
       xml:space="preserve"
       style="font-size:11px;font-style:normal;font-weight:normal;fill:black;fill-opacity:1;stroke:none;stroke-width:1px;stroke-linecap:butt;stroke-linejoin:miter;stroke-opacity:1;font-family:Bitstream Vera Sans"
       x="98.312988"
       y="255.49094"
       id="text5904"><tspan
         sodipodi:role="line"
         id="tspan5906"
         x="98.312988"
         y="255.49094">PV</tspan></text>
    <text
       xml:space="preserve"
       style="font-size:11px;font-style:normal;font-weight:normal;fill:black;fill-opacity:1;stroke:none;stroke-width:1px;stroke-linecap:butt;stroke-linejoin:miter;stroke-opacity:1;font-family:Bitstream Vera Sans"
       x="177.44629"
       y="256.42337"
       id="text5908"><tspan
         sodipodi:role="line"
         id="tspan5910"
         x="177.44629"
         y="256.42337">PV</tspan></text>
    <path
       style="fill:none;fill-opacity:1;fill-rule:evenodd;stroke:#3927cb;stroke-width:7.08661413;stroke-linecap:butt;stroke-linejoin:miter;marker-end:url(#TriangleOutS);stroke-miterlimit:4;stroke-dasharray:none;stroke-opacity:0.66666667"
       d="M 46.242973,220.05787 L 56.872893,202.34133"
       id="path6100"
       sodipodi:nodetypes="cc" />
    <path
       style="fill:none;fill-opacity:1;fill-rule:evenodd;stroke:#3927cb;stroke-width:7.08661413;stroke-linecap:butt;stroke-linejoin:miter;marker-end:url(#TriangleOutS);stroke-miterlimit:4;stroke-dasharray:none;stroke-opacity:0.66666667"
       d="M 106.4792,220.05787 L 106.4792,209.42795"
       id="path6998"
       sodipodi:nodetypes="cc" />
    <path
       style="fill:none;fill-opacity:1;fill-rule:evenodd;stroke:#3927cb;stroke-width:7.08661413;stroke-linecap:butt;stroke-linejoin:miter;marker-end:url(#TriangleOutS);stroke-miterlimit:4;stroke-dasharray:none;stroke-opacity:0.66666667"
       d="M 180.88865,220.05787 L 170.25872,198.79803"
       id="path7000"
       sodipodi:nodetypes="cc" />
    <path
       style="fill:none;fill-opacity:1;fill-rule:evenodd;stroke:#3927cb;stroke-width:7.08661413;stroke-linecap:butt;stroke-linejoin:miter;marker-end:url(#TriangleOutS);stroke-miterlimit:4;stroke-dasharray:none;stroke-opacity:0.66666667"
       d="M 63.959503,131.47519 L 51.474083,111.32915"
       id="path7002"
       sodipodi:nodetypes="cc" />
    <path
       style="fill:none;fill-opacity:1;fill-rule:evenodd;stroke:#3927cb;stroke-width:7.08661413;stroke-linecap:butt;stroke-linejoin:miter;marker-end:url(#TriangleOutS);stroke-miterlimit:4;stroke-dasharray:none;stroke-opacity:0.66666667"
       d="M 113.56581,124.38858 L 113.56581,110.21535"
       id="path7004"
       sodipodi:nodetypes="cc" />
    <path
       style="fill:none;fill-opacity:1;fill-rule:evenodd;stroke:#3927cb;stroke-width:7.08661413;stroke-linecap:butt;stroke-linejoin:miter;marker-end:url(#TriangleOutS);stroke-miterlimit:4;stroke-dasharray:none;stroke-opacity:0.66666667"
       d="M 170.25872,142.10511 L 173.80203,127.93188"
       id="path7008"
       sodipodi:nodetypes="cc" />
    <path
       style="fill:none;fill-opacity:1;fill-rule:evenodd;stroke:black;stroke-width:1.0629921;stroke-linecap:butt;stroke-linejoin:miter;marker-end:url(#Arrow1Mend);stroke-miterlimit:4;stroke-dasharray:none;stroke-opacity:1"
       d="M 141.91227,57.065733 L 159.6288,49.979123"
       id="path9671"
       sodipodi:nodetypes="cc" />
    <path
       style="fill:none;fill-opacity:1;fill-rule:evenodd;stroke:black;stroke-width:1.0629921;stroke-linecap:butt;stroke-linejoin:miter;marker-end:url(#Arrow1Mend);stroke-miterlimit:4;stroke-dasharray:none;stroke-opacity:1"
       d="M 141.91227,85.412198 L 159.6288,88.955508"
       id="path11447"
       sodipodi:nodetypes="cc" />
    <text
       xml:space="preserve"
       style="font-size:11px;font-style:normal;font-weight:normal;fill:black;fill-opacity:1;stroke:none;stroke-width:1px;stroke-linecap:butt;stroke-linejoin:miter;stroke-opacity:1;font-family:Bitstream Vera Sans"
       x="138.18898"
       y="251.5748"
       id="text11467"><tspan
         sodipodi:role="line"
         id="tspan11469"
         x="138.18898"
         y="251.5748">...</tspan></text>
    <text
       xml:space="preserve"
       style="font-size:11px;font-style:normal;font-weight:normal;fill:black;fill-opacity:1;stroke:none;stroke-width:1px;stroke-linecap:butt;stroke-linejoin:miter;stroke-opacity:1;font-family:Bitstream Vera Sans"
       x="73.751411"
       y="84.409447"
       id="text11475"><tspan
         sodipodi:role="line"
         id="tspan11477"
         x="73.751411"
         y="84.409447">...</tspan></text>
  </g>
</svg>
