<?xml version="1.0" encoding="UTF-8" standalone="no"?>
<!-- Created with Inkscape (http://www.inkscape.org/) -->

<svg
   xmlns:dc="http://purl.org/dc/elements/1.1/"
   xmlns:cc="http://creativecommons.org/ns#"
   xmlns:rdf="http://www.w3.org/1999/02/22-rdf-syntax-ns#"
   xmlns:svg="http://www.w3.org/2000/svg"
   xmlns="http://www.w3.org/2000/svg"
   xmlns:xlink="http://www.w3.org/1999/xlink"
   xmlns:sodipodi="http://sodipodi.sourceforge.net/DTD/sodipodi-0.dtd"
   xmlns:inkscape="http://www.inkscape.org/namespaces/inkscape"
   width="135.06209mm"
   height="124.00002mm"
   viewBox="0 0 478.56645 439.37013"
   id="svg4217"
   version="1.1"
   inkscape:version="0.91 r13725"
   sodipodi:docname="satellitecluster.svg">
  <defs
     id="defs4219">
    <linearGradient
       inkscape:collect="always"
       id="linearGradient7975">
      <stop
         style="stop-color:#afd2ad;stop-opacity:1;"
         offset="0"
         id="stop7963" />
      <stop
         id="stop7979"
         offset="0.60000002"
         style="stop-color:#afd2ad;stop-opacity:1" />
      <stop
         style="stop-color:#afd2ad;stop-opacity:0;"
         offset="1"
         id="stop7965" />
    </linearGradient>
    <radialGradient
       inkscape:collect="always"
       xlink:href="#linearGradient7975"
       id="radialGradient7987"
       cx="247.60991"
       cy="478.34659"
       fx="247.60991"
       fy="478.34659"
       r="125.53691"
       gradientTransform="matrix(1.1869644,0,0,1.1039402,-46.561895,-49.719423)"
       gradientUnits="userSpaceOnUse"
       spreadMethod="reflect" />
  </defs>
  <sodipodi:namedview
     id="base"
     pagecolor="#ffffff"
     bordercolor="#666666"
     borderopacity="1.0"
     inkscape:pageopacity="0.0"
     inkscape:pageshadow="2"
     inkscape:zoom="1.4"
     inkscape:cx="243.65539"
     inkscape:cy="244.08986"
     inkscape:document-units="px"
     inkscape:current-layer="layer1"
     showgrid="true"
     inkscape:snap-bbox="true"
     inkscape:bbox-nodes="true"
     inkscape:bbox-paths="true"
     inkscape:snap-bbox-edge-midpoints="true"
     inkscape:snap-bbox-midpoints="true"
     inkscape:snap-object-midpoints="true"
     inkscape:object-nodes="true"
     inkscape:snap-intersection-paths="true"
     inkscape:object-paths="true"
     inkscape:snap-smooth-nodes="true"
     inkscape:snap-center="false"
     inkscape:window-width="1680"
     inkscape:window-height="984"
     inkscape:window-x="0"
     inkscape:window-y="0"
     inkscape:window-maximized="1"
     inkscape:snap-global="true"
     showguides="false"
     fit-margin-top="0"
     fit-margin-left="0"
     fit-margin-right="0"
     fit-margin-bottom="0">
    <inkscape:grid
       type="xygrid"
       id="grid4264"
       originx="-14.173224"
       originy="-368.5039" />
  </sodipodi:namedview>
  <metadata
     id="metadata4222">
    <rdf:RDF>
      <cc:Work
         rdf:about="">
        <dc:format>image/svg+xml</dc:format>
        <dc:type
           rdf:resource="http://purl.org/dc/dcmitype/StillImage" />
        <dc:title />
      </cc:Work>
    </rdf:RDF>
  </metadata>
  <g
     inkscape:label="Ebene 1"
     inkscape:groupmode="layer"
     id="layer1"
     transform="translate(-14.173225,-244.48817)">
    <ellipse
       style="opacity:0.88800001;fill:url(#radialGradient7987);fill-opacity:1;stroke:none;stroke-width:2;stroke-linecap:round;stroke-linejoin:round;stroke-miterlimit:4;stroke-dasharray:none;stroke-dashoffset:0;stroke-opacity:1"
       id="path7955"
       cx="247.34225"
       cy="478.34659"
       inkscape:transform-center-x="1.6992137"
       inkscape:transform-center-y="5.9028679e-05"
       rx="149.00784"
       ry="138.58524" />
    <g
       style="font-style:normal;font-variant:normal;font-weight:normal;font-stretch:normal;font-size:12.49999809px;line-height:110.00000238%;font-family:FoundrySterling-Medium;-inkscape-font-specification:'FoundrySterling-Medium, Normal';text-align:center;letter-spacing:0px;word-spacing:0px;writing-mode:lr-tb;text-anchor:middle;fill:#000000;fill-opacity:1;stroke:none;stroke-width:1px;stroke-linecap:butt;stroke-linejoin:miter;stroke-opacity:1"
       id="text4231">
      <path
         d="m 216.98467,562.26315 q -0.2,0.2125 -0.8,0.475 -0.925,0.4 -2,0.4 -1.725,0 -2.8375,-1.125 -1.1625,-1.175 -1.1625,-3.1375 0,-2.025 1.225,-3.25 1.15,-1.1625 2.9375,-1.1625 1.05,0 1.8625,0.35 0.4875,0.2125 0.7,0.425 l -0.4875,0.775 q -0.9,-0.5625 -2.0125,-0.5625 -1.3125,0 -2.175,0.8875 -0.9,0.9125 -0.9,2.4375 0,1.5375 0.8,2.45 0.8125,0.9125 2.1875,0.9125 0.9875,0 2.175,-0.65 l 0.4875,0.775 z"
         style=""
         id="path4183" />
      <path
         d="m 223.40127,559.95065 q 0,1.425 -0.7875,2.3 -0.7875,0.8625 -2.1,0.8625 -1.2625,0 -2.0375,-0.8625 -0.775,-0.875 -0.775,-2.3 0,-1.425 0.7875,-2.3 0.8,-0.8875 2.1125,-0.8875 1.2625,0 2.025,0.875 0.775,0.8625 0.775,2.3125 z m -1.0625,0.0125 q 0,-1.0375 -0.5125,-1.675 -0.5,-0.65 -1.2875,-0.65 -0.8125,0 -1.3,0.625 -0.475,0.625 -0.475,1.65 0,1.0375 0.5125,1.675 0.5125,0.6375 1.3,0.6375 0.8375,0 1.3,-0.6 0.4625,-0.6125 0.4625,-1.6625 z"
         style=""
         id="path4185" />
      <path
         d="m 229.63955,562.97565 -1.0625,0 0,-3.4375 q 0,-0.6875 -0.05,-0.9625 -0.0625,-0.4 -0.275,-0.6125 -0.3,-0.3 -0.85,-0.3 -0.4875,0 -1.0625,0.25 -0.375,0.1625 -0.525,0.275 l 0,4.7875 -1.0625,0 0,-6.05 0.95,0 0,0.45 q 0.9125,-0.6125 1.8875,-0.6125 0.925,0 1.45,0.525 0.3875,0.3875 0.5125,0.9375 0.0875,0.3875 0.0875,1.2375 l 0,3.5125 z"
         style=""
         id="path4187" />
      <path
         d="m 234.77178,562.80065 q -0.5875,0.325 -1.3,0.325 -0.9,0 -1.3625,-0.4625 -0.2875,-0.2875 -0.3625,-0.7875 -0.0375,-0.225 -0.0375,-0.9875 l 0,-3.0875 -1.0625,0 0,-0.875 1.0625,0 0,-1.7 1.0625,0 0,1.7 1.8625,0 0,0.875 -1.8625,0 0,3.2625 q 0,0.5875 0.125,0.8 0.1875,0.35 0.7625,0.35 0.3,0 0.8375,-0.1625 l 0.275,0.75 z"
         style=""
         id="path4189" />
      <path
         d="m 239.41045,556.87565 -0.25,0.85 q -0.2125,-0.0375 -0.45,-0.0375 -1.0375,0 -1.7875,0.9875 l 0,4.3 -1.0625,0 0,-6.05 0.95,0 0,0.7875 q 0.2,-0.2625 0.5375,-0.5 0.6375,-0.45 1.4125,-0.45 0.35,0 0.65,0.1125 z"
         style=""
         id="path4191" />
      <path
         d="m 245.43496,559.95065 q 0,1.425 -0.7875,2.3 -0.7875,0.8625 -2.1,0.8625 -1.2625,0 -2.0375,-0.8625 -0.775,-0.875 -0.775,-2.3 0,-1.425 0.7875,-2.3 0.8,-0.8875 2.1125,-0.8875 1.2625,0 2.025,0.875 0.775,0.8625 0.775,2.3125 z m -1.0625,0.0125 q 0,-1.0375 -0.5125,-1.675 -0.5,-0.65 -1.2875,-0.65 -0.8125,0 -1.3,0.625 -0.475,0.625 -0.475,1.65 0,1.0375 0.5125,1.675 0.5125,0.6375 1.3,0.6375 0.8375,0 1.3,-0.6 0.4625,-0.6125 0.4625,-1.6625 z"
         style=""
         id="path4193" />
      <path
         d="m 247.86045,562.97565 -1.0625,0 0,-9.0125 1.0625,0 0,9.0125 z"
         style=""
         id="path4195" />
      <path
         d="m 257.39834,562.97565 -1.0625,0 0,-3.4375 q 0,-0.6875 -0.05,-0.9625 -0.0625,-0.4 -0.275,-0.6125 -0.3,-0.3 -0.85,-0.3 -0.4875,0 -1.0625,0.25 -0.375,0.1625 -0.525,0.275 l 0,4.7875 -1.0625,0 0,-6.05 0.95,0 0,0.45 q 0.9125,-0.6125 1.8875,-0.6125 0.925,0 1.45,0.525 0.3875,0.3875 0.5125,0.9375 0.0875,0.3875 0.0875,1.2375 l 0,3.5125 z"
         style=""
         id="path4197" />
      <path
         d="m 264.36806,559.95065 q 0,1.425 -0.7875,2.3 -0.7875,0.8625 -2.1,0.8625 -1.2625,0 -2.0375,-0.8625 -0.775,-0.875 -0.775,-2.3 0,-1.425 0.7875,-2.3 0.8,-0.8875 2.1125,-0.8875 1.2625,0 2.025,0.875 0.775,0.8625 0.775,2.3125 z m -1.0625,0.0125 q 0,-1.0375 -0.5125,-1.675 -0.5,-0.65 -1.2875,-0.65 -0.8125,0 -1.3,0.625 -0.475,0.625 -0.475,1.65 0,1.0375 0.5125,1.675 0.5125,0.6375 1.3,0.6375 0.8375,0 1.3,-0.6 0.4625,-0.6125 0.4625,-1.6625 z"
         style=""
         id="path4199" />
      <path
         d="m 270.73134,562.97565 -0.95,0 0,-0.475 q -0.7125,0.6125 -1.69999,0.6125 -1.2,0 -1.9375,-0.85 -0.7375,-0.8625 -0.7375,-2.2375 0,-1.45 0.8375,-2.35 0.8375,-0.9125 2.1125,-0.9125 0.71249,0 1.31249,0.3625 l 0,-3.1625 1.0625,0 0,9.0125 z m -1.0625,-1.2875 0,-3.625 q -0.5625,-0.4 -1.21249,-0.4 -0.8875,0 -1.4375,0.6375 -0.5375,0.6375 -0.5375,1.725 0,0.975 0.5,1.5875 0.5125,0.6 1.2875,0.6 0.6375,0 1.39999,-0.525 z"
         style=""
         id="path4201" />
      <path
         d="m 277.3958,559.78815 q 0,0.0625 -0.0125,0.2375 -0.0125,0.1625 -0.0125,0.2125 l -4.2125,0 q -0.0125,0.8375 0.45,1.375 0.525,0.6 1.45,0.6 0.7625,0 1.7125,-0.475 l 0.4,0.725 q -0.975,0.65 -2.2,0.65 -1.35,0 -2.125,-0.8875 -0.75,-0.85 -0.75,-2.2375 0,-1.45 0.775,-2.3375 0.775,-0.8875 2.0375,-0.8875 1.15,0 1.8125,0.8125 0.675,0.8 0.675,2.2125 z m -1.025,-0.3875 q 0,-0.675 -0.3,-1.1625 -0.3875,-0.625 -1.15,-0.625 -0.7125,0 -1.2,0.4875 -0.4875,0.4875 -0.55,1.3 l 3.2,0 z"
         style=""
         id="path4203" />
      <path
         d="m 282.58095,561.28815 q 0,0.85 -0.65,1.35 -0.6375,0.5 -1.5625,0.5 -0.7625,0 -1.4625,-0.275 -0.425,-0.175 -0.6125,-0.325 l 0.4,-0.7375 q 0.85,0.4625 1.6125,0.4625 0.5,0 0.825,-0.25 0.3375,-0.25 0.3375,-0.65 0,-0.5 -0.775,-0.875 -0.7125,-0.3375 -1.4375,-0.6875 -0.775,-0.5 -0.775,-1.325 0,-0.7625 0.5875,-1.2375 0.6,-0.475 1.525,-0.475 1.2375,0 1.9125,0.5375 l -0.4,0.7125 q -0.725,-0.4125 -1.4375,-0.4125 -0.5375,0 -0.825,0.2375 -0.2875,0.225 -0.2875,0.575 0,0.4625 0.7875,0.8375 1.4,0.6625 1.45,0.7 0.7875,0.5125 0.7875,1.3375 z"
         style=""
         id="path4205" />
    </g>
    <rect
       style="opacity:1;fill:#85ff80;fill-opacity:0.76862745;stroke:#000000;stroke-width:0.31450194;stroke-linecap:round;stroke-linejoin:round;stroke-miterlimit:4;stroke-dasharray:none;stroke-dashoffset:0;stroke-opacity:1"
       id="rect4193-1"
       width="56.378414"
       height="42.20517"
       x="283.62183"
       y="499.76358"
       ry="1.5847715" />
    <rect
       style="opacity:1;fill:#85ff80;fill-opacity:0.76862745;stroke:#000000;stroke-width:0.315;stroke-linecap:round;stroke-linejoin:round;stroke-miterlimit:4;stroke-dasharray:none;stroke-dashoffset:0;stroke-opacity:1"
       id="rect4193-1-4"
       width="56.378422"
       height="42.20517"
       x="219.84229"
       y="379.29114"
       ry="1.5847714" />
    <rect
       style="opacity:1;fill:#85ff80;fill-opacity:0.76862745;stroke:#000000;stroke-width:0.31450194;stroke-linecap:round;stroke-linejoin:round;stroke-miterlimit:4;stroke-dasharray:none;stroke-dashoffset:0;stroke-opacity:1"
       id="rect4193-1-8"
       width="56.37841"
       height="42.20517"
       x="156.06276"
       y="499.76355"
       ry="1.5847716" />
    <g
       id="g7814">
      <path
         inkscape:connector-curvature="0"
         id="path4293"
         d="m 255.11811,421.65352 42.51969,77.95276"
         style="fill:none;fill-rule:evenodd;stroke:#097800;stroke-width:2;stroke-linecap:butt;stroke-linejoin:round;stroke-miterlimit:4;stroke-dasharray:none;stroke-opacity:1"
         sodipodi:nodetypes="cc" />
      <path
         sodipodi:nodetypes="cc"
         inkscape:connector-curvature="0"
         id="path4293-0"
         d="M 240.94488,421.65352 198.4252,499.60628"
         style="fill:none;fill-rule:evenodd;stroke:#097800;stroke-width:2;stroke-linecap:butt;stroke-linejoin:round;stroke-miterlimit:4;stroke-dasharray:none;stroke-opacity:1" />
      <path
         sodipodi:nodetypes="cc"
         inkscape:connector-curvature="0"
         id="path4293-0-2"
         d="m 283.46457,513.27953 -70.86614,0"
         style="fill:none;fill-rule:evenodd;stroke:#097800;stroke-width:2;stroke-linecap:butt;stroke-linejoin:round;stroke-miterlimit:4;stroke-dasharray:none;stroke-opacity:1" />
    </g>
    <g
       style="font-style:normal;font-variant:normal;font-weight:normal;font-stretch:normal;font-size:9.99999905px;line-height:110.00000238%;font-family:FoundrySterling-Medium;-inkscape-font-specification:'FoundrySterling-Medium, Normal';text-align:center;letter-spacing:0px;word-spacing:0px;writing-mode:lr-tb;text-anchor:middle;fill:#000000;fill-opacity:1;stroke:none;stroke-width:1px;stroke-linecap:butt;stroke-linejoin:miter;stroke-opacity:1"
       id="text4231-8">
      <path
         d="m 142.04923,446.39853 q 0,1.53 -0.95,2.48 -0.57,0.57 -1.39,0.77 -0.57,0.13 -1.68,0.13 l -1.46,0 0,-6.67 1.47,0 q 1.15,0 1.71,0.13 0.8,0.17 1.35,0.72 0.95,0.95 0.95,2.44 z m -0.91,-0.02 q 0,-1.21 -0.71,-1.92 -0.4,-0.4 -0.98,-0.53 -0.44,-0.1 -1.41,-0.1 l -0.58,0 0,5.22 0.83,0 q 0.73,0 1.17,-0.11 0.6,-0.15 1.01,-0.57 0.67,-0.69 0.67,-1.99 z"
         style=""
         id="path4237" />
      <path
         d="m 147.97564,449.77853 -0.94,0 -0.77,-1.74 q -0.33,-0.75 -0.62,-0.95 -0.26,-0.17 -0.96,-0.17 l -0.42,0 0,2.86 -0.88,0 0,-6.67 1.48,0 q 0.85,0 1.19,0.06 0.57,0.11 0.93,0.47 0.52,0.52 0.52,1.33 0,0.71 -0.42,1.16 -0.42,0.45 -1.06,0.52 0.31,0.01 0.57,0.27 0.19,0.19 0.52,0.93 l 0.86,1.93 z m -1.36,-4.81 q 0,-0.51 -0.29,-0.8 -0.24,-0.24 -0.62,-0.31 -0.21,-0.04 -0.75,-0.04 l -0.69,0 0,2.39 0.31,0 q 0.67,0 0.94,-0.04 0.49,-0.08 0.77,-0.36 0.33,-0.33 0.33,-0.84 z"
         style=""
         id="path4239" />
      <path
         d="m 153.4097,447.84853 q 0,0.81 -0.5,1.31 -0.43,0.43 -1.13,0.55 -0.41,0.07 -1.55,0.07 l -1.18,0 0,-6.67 1.84,0 q 0.63,0 0.97,0.08 0.5,0.11 0.82,0.43 0.52,0.52 0.52,1.28 0,0.68 -0.42,1.1 -0.3,0.3 -0.65,0.36 0.55,0.08 0.89,0.43 0.39,0.4 0.39,1.06 z m -1.11,-2.93 q 0,-0.46 -0.25,-0.73 -0.25,-0.27 -0.71,-0.34 -0.22,-0.03 -0.84,-0.03 l -0.58,0 0,2.24 0.51,0 q 1.16,0 1.56,-0.37 0.31,-0.29 0.31,-0.77 z m 0.2,2.95 q 0,-0.45 -0.3,-0.75 -0.26,-0.26 -0.76,-0.33 -0.25,-0.04 -0.97,-0.04 l -0.55,0 0,2.3 0.74,0 q 0.56,0 0.82,-0.05 0.45,-0.09 0.73,-0.37 0.29,-0.29 0.29,-0.76 z"
         style=""
         id="path4241" />
      <path
         d="m 160.23283,446.39853 q 0,1.53 -0.95,2.48 -0.57,0.57 -1.39,0.77 -0.57,0.13 -1.68,0.13 l -1.46,0 0,-6.67 1.47,0 q 1.15,0 1.71,0.13 0.8,0.17 1.35,0.72 0.95,0.95 0.95,2.44 z m -0.91,-0.02 q 0,-1.21 -0.71,-1.92 -0.4,-0.4 -0.98,-0.53 -0.44,-0.1 -1.41,-0.1 l -0.58,0 0,5.22 0.83,0 q 0.73,0 1.17,-0.11 0.6,-0.15 1.01,-0.57 0.67,-0.69 0.67,-1.99 z"
         style=""
         id="path4243" />
      <path
         d="m 168.51205,446.25853 q 0,1.56 -0.6,2.53 -0.7,1.12 -2.06,1.12 -0.77,0 -1.38,-0.3 -0.39,-0.19 -0.51,-0.35 l 0.42,-0.58 q 0.66,0.5 1.38,0.5 1.01,0 1.5,-0.82 0.41,-0.67 0.43,-1.78 0,-0.07 0,-0.24 -0.17,0.55 -0.7,0.87 -0.49,0.31 -1.11,0.31 -0.95,0 -1.52,-0.62 -0.57,-0.62 -0.57,-1.58 0,-1.02 0.63,-1.68 0.64,-0.67 1.65,-0.67 1.23,0 1.88,1.01 0.56,0.88 0.56,2.28 z m -1.04,-1.04 q 0,-0.65 -0.41,-1.08 -0.4,-0.43 -1.03,-0.43 -0.64,0 -1.02,0.46 -0.38,0.45 -0.38,1.12 0,0.66 0.35,1.08 0.36,0.41 1,0.41 0.66,0 1.07,-0.45 0.42,-0.45 0.42,-1.11 z"
         style=""
         id="path4245" />
      <path
         d="m 176.54861,447.27853 q 0,1.16 -0.67,1.89 -0.67,0.72 -1.69,0.72 -0.57,0 -1.05,-0.29 l 0,2.32 -0.85,0 0,-6.98 0.76,0 0,0.36 q 0.57,-0.49 1.36,-0.49 0.96,0 1.55,0.69 0.59,0.68 0.59,1.78 z m -0.86,0 q 0,-0.78 -0.41,-1.26 -0.4,-0.49 -1.02,-0.49 -0.51,0 -1.12,0.42 l 0,2.9 q 0.45,0.32 0.97,0.32 0.71,0 1.14,-0.51 0.44,-0.51 0.44,-1.38 z"
         style=""
         id="path4247" />
      <path
         d="m 180.48017,444.89853 -0.2,0.68 q -0.17,-0.03 -0.36,-0.03 -0.83,0 -1.43,0.79 l 0,3.44 -0.85,0 0,-4.84 0.76,0 0,0.63 q 0.16,-0.21 0.43,-0.4 0.51,-0.36 1.13,-0.36 0.28,0 0.52,0.09 z"
         style=""
         id="path4249" />
      <path
         d="m 185.29978,447.35853 q 0,1.14 -0.63,1.84 -0.63,0.69 -1.68,0.69 -1.01,0 -1.63,-0.69 -0.62,-0.7 -0.62,-1.84 0,-1.14 0.63,-1.84 0.64,-0.71 1.69,-0.71 1.01,0 1.62,0.7 0.62,0.69 0.62,1.85 z m -0.85,0.01 q 0,-0.83 -0.41,-1.34 -0.4,-0.52 -1.03,-0.52 -0.65,0 -1.04,0.5 -0.38,0.5 -0.38,1.32 0,0.83 0.41,1.34 0.41,0.51 1.04,0.51 0.67,0 1.04,-0.48 0.37,-0.49 0.37,-1.33 z"
         style=""
         id="path4251" />
      <path
         d="m 189.11298,449.63853 q -0.47,0.26 -1.04,0.26 -0.72,0 -1.09,-0.37 -0.23,-0.23 -0.29,-0.63 -0.03,-0.18 -0.03,-0.79 l 0,-2.47 -0.85,0 0,-0.7 0.85,0 0,-1.36 0.85,0 0,1.36 1.49,0 0,0.7 -1.49,0 0,2.61 q 0,0.47 0.1,0.64 0.15,0.28 0.61,0.28 0.24,0 0.67,-0.13 l 0.22,0.6 z"
         style=""
         id="path4253" />
      <path
         d="m 194.09861,447.35853 q 0,1.14 -0.63,1.84 -0.63,0.69 -1.68,0.69 -1.01,0 -1.63,-0.69 -0.62,-0.7 -0.62,-1.84 0,-1.14 0.63,-1.84 0.64,-0.71 1.69,-0.71 1.01,0 1.62,0.7 0.62,0.69 0.62,1.85 z m -0.85,0.01 q 0,-0.83 -0.41,-1.34 -0.4,-0.52 -1.03,-0.52 -0.65,0 -1.04,0.5 -0.38,0.5 -0.38,1.32 0,0.83 0.41,1.34 0.41,0.51 1.04,0.51 0.67,0 1.04,-0.48 0.37,-0.49 0.37,-1.33 z"
         style=""
         id="path4255" />
      <path
         d="m 198.99923,449.34853 q -0.09,0.11 -0.5,0.29 -0.59,0.25 -1.22,0.25 -1.05,0 -1.7,-0.67 -0.65,-0.67 -0.65,-1.78 0,-1.16 0.69,-1.89 0.69,-0.74 1.77,-0.74 0.58,0 1.09,0.24 0.35,0.16 0.45,0.28 l -0.36,0.55 q -0.56,-0.35 -1.16,-0.35 -0.72,0 -1.17,0.53 -0.45,0.53 -0.45,1.3 0,0.81 0.43,1.3 0.43,0.49 1.14,0.49 0.55,0 1.29,-0.38 l 0.35,0.58 z"
         style=""
         id="path4257" />
      <path
         d="m 204.06931,447.35853 q 0,1.14 -0.63,1.84 -0.63,0.69 -1.68,0.69 -1.01,0 -1.63,-0.69 -0.62,-0.7 -0.62,-1.84 0,-1.14 0.63,-1.84 0.64,-0.71 1.69,-0.71 1.01,0 1.62,0.7 0.62,0.69 0.62,1.85 z m -0.85,0.01 q 0,-0.83 -0.41,-1.34 -0.4,-0.52 -1.03,-0.52 -0.65,0 -1.04,0.5 -0.38,0.5 -0.38,1.32 0,0.83 0.41,1.34 0.41,0.51 1.04,0.51 0.67,0 1.04,-0.48 0.37,-0.49 0.37,-1.33 z"
         style=""
         id="path4259" />
      <path
         d="m 206.0097,449.77853 -0.85,0 0,-7.21 0.85,0 0,7.21 z"
         style=""
         id="path4261" />
      <path
         d="m 144.17502,460.34853 q -0.09,0.11 -0.5,0.29 -0.59,0.25 -1.22,0.25 -1.05,0 -1.7,-0.67 -0.65,-0.67 -0.65,-1.78 0,-1.16 0.69,-1.89 0.69,-0.74 1.77,-0.74 0.58,0 1.09,0.24 0.35,0.16 0.45,0.28 l -0.36,0.55 q -0.56,-0.35 -1.16,-0.35 -0.72,0 -1.17,0.53 -0.45,0.53 -0.45,1.3 0,0.81 0.43,1.3 0.43,0.49 1.14,0.49 0.55,0 1.29,-0.38 l 0.35,0.58 z"
         style=""
         id="path4263" />
      <path
         d="m 149.24509,458.35853 q 0,1.14 -0.63,1.84 -0.63,0.69 -1.68,0.69 -1.01,0 -1.63,-0.69 -0.62,-0.7 -0.62,-1.84 0,-1.14 0.63,-1.84 0.64,-0.71 1.69,-0.71 1.01,0 1.62,0.7 0.62,0.69 0.62,1.85 z m -0.85,0.01 q 0,-0.83 -0.41,-1.34 -0.4,-0.52 -1.03,-0.52 -0.65,0 -1.04,0.5 -0.38,0.5 -0.38,1.32 0,0.83 0.41,1.34 0.41,0.51 1.04,0.51 0.67,0 1.04,-0.48 0.37,-0.49 0.37,-1.33 z"
         style=""
         id="path4265" />
      <path
         d="m 154.24548,460.77853 -0.85,0 0,-2.75 q 0,-0.55 -0.04,-0.77 -0.05,-0.32 -0.22,-0.49 -0.24,-0.24 -0.68,-0.24 -0.39,0 -0.85,0.2 -0.3,0.13 -0.42,0.22 l 0,3.83 -0.85,0 0,-4.84 0.76,0 0,0.36 q 0.73,-0.49 1.51,-0.49 0.74,0 1.16,0.42 0.31,0.31 0.41,0.75 0.07,0.31 0.07,0.99 l 0,2.81 z"
         style=""
         id="path4267" />
      <path
         d="m 158.35126,460.63853 q -0.47,0.26 -1.04,0.26 -0.72,0 -1.09,-0.37 -0.23,-0.23 -0.29,-0.63 -0.03,-0.18 -0.03,-0.79 l 0,-2.47 -0.85,0 0,-0.7 0.85,0 0,-1.36 0.85,0 0,1.36 1.49,0 0,0.7 -1.49,0 0,2.61 q 0,0.47 0.1,0.64 0.15,0.28 0.61,0.28 0.24,0 0.67,-0.13 l 0.22,0.6 z"
         style=""
         id="path4269" />
      <path
         d="m 162.0622,455.89853 -0.2,0.68 q -0.17,-0.03 -0.36,-0.03 -0.83,0 -1.43,0.79 l 0,3.44 -0.85,0 0,-4.84 0.76,0 0,0.63 q 0.16,-0.21 0.43,-0.4 0.51,-0.36 1.13,-0.36 0.28,0 0.52,0.09 z"
         style=""
         id="path4271" />
      <path
         d="m 166.88181,458.35853 q 0,1.14 -0.63,1.84 -0.63,0.69 -1.68,0.69 -1.01,0 -1.63,-0.69 -0.62,-0.7 -0.62,-1.84 0,-1.14 0.63,-1.84 0.64,-0.71 1.69,-0.71 1.01,0 1.62,0.7 0.62,0.69 0.62,1.85 z m -0.85,0.01 q 0,-0.83 -0.41,-1.34 -0.4,-0.52 -1.03,-0.52 -0.65,0 -1.04,0.5 -0.38,0.5 -0.38,1.32 0,0.83 0.41,1.34 0.41,0.51 1.04,0.51 0.67,0 1.04,-0.48 0.37,-0.49 0.37,-1.33 z"
         style=""
         id="path4273" />
      <path
         d="m 168.8222,460.77853 -0.85,0 0,-7.21 0.85,0 0,7.21 z"
         style=""
         id="path4275" />
      <path
         d="m 176.70251,455.93853 -1.88,4.84 -0.9,0 -1.87,-4.84 0.9,0 1.46,3.93 1.45,-3.93 0.84,0 z"
         style=""
         id="path4277" />
      <path
         d="m 181.86228,458.35853 q 0,1.14 -0.63,1.84 -0.63,0.69 -1.68,0.69 -1.01,0 -1.63,-0.69 -0.62,-0.7 -0.62,-1.84 0,-1.14 0.63,-1.84 0.64,-0.71 1.69,-0.71 1.01,0 1.62,0.7 0.62,0.69 0.62,1.85 z m -0.85,0.01 q 0,-0.83 -0.41,-1.34 -0.4,-0.52 -1.03,-0.52 -0.65,0 -1.04,0.5 -0.38,0.5 -0.38,1.32 0,0.83 0.41,1.34 0.41,0.51 1.04,0.51 0.67,0 1.04,-0.48 0.37,-0.49 0.37,-1.33 z"
         style=""
         id="path4279" />
      <path
         d="m 183.80267,460.77853 -0.85,0 0,-7.21 0.85,0 0,7.21 z"
         style=""
         id="path4281" />
      <path
         d="m 188.98017,460.77853 -0.76,0 0,-0.36 q -0.73,0.49 -1.51,0.49 -0.78,0 -1.18,-0.4 -0.31,-0.31 -0.4,-0.76 -0.06,-0.29 -0.06,-1 l 0,-2.81 0.85,0 0,2.75 q 0,0.55 0.04,0.77 0.05,0.32 0.22,0.49 0.24,0.24 0.68,0.24 0.39,0 0.85,-0.2 0.3,-0.13 0.42,-0.22 l 0,-3.83 0.85,0 0,4.84 z"
         style=""
         id="path4283" />
      <path
         d="m 197.06595,460.77853 -0.85,0 0,-2.83 q 0,-0.91 -0.24,-1.16 -0.23,-0.26 -0.66,-0.26 -0.62,0 -1.28,0.41 0.08,0.19 0.08,1.13 l 0,2.71 -0.84,0 0,-2.68 q 0,-0.62 -0.03,-0.82 -0.04,-0.36 -0.21,-0.53 -0.22,-0.22 -0.63,-0.22 -0.64,0 -1.24,0.4 l 0,3.85 -0.85,0 0,-4.84 0.76,0 0,0.36 q 0.72,-0.49 1.48,-0.49 0.77,0 1.19,0.56 0.89,-0.56 1.68,-0.56 0.74,0 1.16,0.42 0.31,0.31 0.41,0.75 0.07,0.31 0.07,0.99 l 0,2.81 z"
         style=""
         id="path4285" />
      <path
         d="m 202.33329,458.22853 q 0,0.05 -0.01,0.19 -0.01,0.13 -0.01,0.17 l -3.37,0 q -0.01,0.67 0.36,1.1 0.42,0.48 1.16,0.48 0.61,0 1.37,-0.38 l 0.32,0.58 q -0.78,0.52 -1.76,0.52 -1.08,0 -1.7,-0.71 -0.6,-0.68 -0.6,-1.79 0,-1.16 0.62,-1.87 0.62,-0.71 1.63,-0.71 0.92,0 1.45,0.65 0.54,0.64 0.54,1.77 z m -0.82,-0.31 q 0,-0.54 -0.24,-0.93 -0.31,-0.5 -0.92,-0.5 -0.57,0 -0.96,0.39 -0.39,0.39 -0.44,1.04 l 2.56,0 z"
         style=""
         id="path4287" />
    </g>
    <rect
       style="opacity:1;fill:#9ad0ff;fill-opacity:0.76862745;stroke:#0012df;stroke-width:0.35157299;stroke-linecap:round;stroke-linejoin:round;stroke-miterlimit:4;stroke-dasharray:none;stroke-dashoffset:0;stroke-opacity:1"
       id="rect4193-1-4-9-5"
       width="70.514572"
       height="42.168098"
       x="212.7742"
       y="244.66396"
       ry="1.5833794"
       inkscape:transform-center-y="-211.42856" />
    <rect
       style="opacity:1;fill:#9ad0ff;fill-opacity:0.76862745;stroke:#0012df;stroke-width:0.35157299;stroke-linecap:round;stroke-linejoin:round;stroke-miterlimit:4;stroke-dasharray:none;stroke-dashoffset:0;stroke-opacity:1"
       id="rect4193-1-4-9-5-5"
       width="70.514572"
       height="42.168098"
       x="297.63779"
       y="272.83466"
       ry="1.5833794"
       inkscape:transform-center-x="-57.142853"
       inkscape:transform-center-y="-155.71427" />
    <rect
       style="opacity:1;fill:#9ad0ff;fill-opacity:0.76862745;stroke:#0012df;stroke-width:0.35157299;stroke-linecap:round;stroke-linejoin:round;stroke-miterlimit:4;stroke-dasharray:none;stroke-dashoffset:0;stroke-opacity:1"
       id="rect4193-1-4-9-5-5-3"
       width="70.514572"
       height="42.168098"
       x="14.349011"
       y="535.21515"
       ry="1.5833794"
       inkscape:transform-center-x="-57.142853"
       inkscape:transform-center-y="-155.71427" />
    <rect
       style="opacity:1;fill:#9ad0ff;fill-opacity:0.76862745;stroke:#0012df;stroke-width:0.35157299;stroke-linecap:round;stroke-linejoin:round;stroke-miterlimit:4;stroke-dasharray:none;stroke-dashoffset:0;stroke-opacity:1"
       id="rect4193-1-4-9-5-5-2"
       width="70.514572"
       height="42.168098"
       x="127.91062"
       y="272.83466"
       ry="1.5833794"
       inkscape:transform-center-x="-57.142853"
       inkscape:transform-center-y="-155.71427" />
    <rect
       style="opacity:1;fill:#9ad0ff;fill-opacity:0.76862745;stroke:#0012df;stroke-width:0.35157299;stroke-linecap:round;stroke-linejoin:round;stroke-miterlimit:4;stroke-dasharray:none;stroke-dashoffset:0;stroke-opacity:1"
       id="rect4193-1-4-9-5-5-3-7"
       width="70.514572"
       height="42.168098"
       x="42.695469"
       y="591.90808"
       ry="1.5833794"
       inkscape:transform-center-x="-57.142853"
       inkscape:transform-center-y="-155.71427" />
    <rect
       style="opacity:1;fill:#9ad0ff;fill-opacity:0.76862745;stroke:#0012df;stroke-width:0.35157299;stroke-linecap:round;stroke-linejoin:round;stroke-miterlimit:4;stroke-dasharray:none;stroke-dashoffset:0;stroke-opacity:1"
       id="rect4193-1-4-9-5-5-3-5"
       width="70.514572"
       height="42.168098"
       x="113.56161"
       y="641.5144"
       ry="1.5833794"
       inkscape:transform-center-x="-57.142853"
       inkscape:transform-center-y="-155.71427" />
    <rect
       style="opacity:1;fill:#9ad0ff;fill-opacity:0.76862745;stroke:#0012df;stroke-width:0.35157299;stroke-linecap:round;stroke-linejoin:round;stroke-miterlimit:4;stroke-dasharray:none;stroke-dashoffset:0;stroke-opacity:1"
       id="rect4193-1-4-9-5-5-3-2"
       width="70.514572"
       height="42.168098"
       x="411.1994"
       y="535.21515"
       ry="1.5833794"
       inkscape:transform-center-x="-57.142853"
       inkscape:transform-center-y="-155.71427" />
    <rect
       style="opacity:1;fill:#9ad0ff;fill-opacity:0.76862745;stroke:#0012df;stroke-width:0.35157299;stroke-linecap:round;stroke-linejoin:round;stroke-miterlimit:4;stroke-dasharray:none;stroke-dashoffset:0;stroke-opacity:1"
       id="rect4193-1-4-9-5-5-3-4"
       width="70.514572"
       height="42.168098"
       x="382.85294"
       y="591.90808"
       ry="1.5833794"
       inkscape:transform-center-x="-57.142853"
       inkscape:transform-center-y="-155.71427" />
    <rect
       style="opacity:1;fill:#9ad0ff;fill-opacity:0.76862745;stroke:#0012df;stroke-width:0.35157299;stroke-linecap:round;stroke-linejoin:round;stroke-miterlimit:4;stroke-dasharray:none;stroke-dashoffset:0;stroke-opacity:1"
       id="rect4193-1-4-9-5-5-3-1"
       width="70.514572"
       height="42.168098"
       x="311.98682"
       y="641.51434"
       ry="1.5833794"
       inkscape:transform-center-x="-57.142853"
       inkscape:transform-center-y="-155.71427" />
    <g
       id="g7819"
       style="stroke:#00009f;stroke-width:2;stroke-miterlimit:4;stroke-dasharray:none;stroke-opacity:1">
      <path
         inkscape:connector-curvature="0"
         id="path7722"
         d="m 198.4252,315.35433 35.43307,63.77953"
         style="fill:none;fill-rule:evenodd;stroke:#00009f;stroke-width:2;stroke-linecap:butt;stroke-linejoin:miter;stroke-miterlimit:4;stroke-dasharray:none;stroke-opacity:1"
         sodipodi:nodetypes="cc" />
      <path
         sodipodi:nodetypes="cc"
         inkscape:connector-curvature="0"
         id="path7722-0"
         d="m 297.6378,315.35433 -35.43308,63.77953"
         style="fill:none;fill-rule:evenodd;stroke:#00009f;stroke-width:2;stroke-linecap:butt;stroke-linejoin:miter;stroke-miterlimit:4;stroke-dasharray:none;stroke-opacity:1" />
      <path
         sodipodi:nodetypes="cc"
         inkscape:connector-curvature="0"
         id="path7722-0-6"
         d="m 248.0315,287.00785 0,92.12599"
         style="fill:none;fill-rule:evenodd;stroke:#00009f;stroke-width:2;stroke-linecap:butt;stroke-linejoin:miter;stroke-miterlimit:4;stroke-dasharray:none;stroke-opacity:1" />
      <path
         sodipodi:nodetypes="cc"
         inkscape:connector-curvature="0"
         id="path7722-0-6-0"
         d="m 382.67717,591.73226 -42.51969,-49.6063"
         style="fill:none;fill-rule:evenodd;stroke:#00009f;stroke-width:2;stroke-linecap:butt;stroke-linejoin:miter;stroke-miterlimit:4;stroke-dasharray:none;stroke-opacity:1" />
      <path
         sodipodi:nodetypes="cc"
         inkscape:connector-curvature="0"
         id="path7722-0-6-0-6"
         d="M 411.02362,556.29921 340.15748,527.95273"
         style="fill:none;fill-rule:evenodd;stroke:#00009f;stroke-width:2;stroke-linecap:butt;stroke-linejoin:miter;stroke-miterlimit:4;stroke-dasharray:none;stroke-opacity:1" />
      <path
         sodipodi:nodetypes="cc"
         inkscape:connector-curvature="0"
         id="path7722-0-6-0-8"
         d="M 347.24409,641.33858 325.98425,542.12596"
         style="fill:none;fill-rule:evenodd;stroke:#00009f;stroke-width:2;stroke-linecap:butt;stroke-linejoin:miter;stroke-miterlimit:4;stroke-dasharray:none;stroke-opacity:1" />
      <path
         sodipodi:nodetypes="cc"
         inkscape:connector-curvature="0"
         id="path7722-0-6-0-4"
         d="m 113.38582,591.73226 42.51969,-49.6063"
         style="fill:none;fill-rule:evenodd;stroke:#00009f;stroke-width:2;stroke-linecap:butt;stroke-linejoin:miter;stroke-miterlimit:4;stroke-dasharray:none;stroke-opacity:1" />
      <path
         sodipodi:nodetypes="cc"
         inkscape:connector-curvature="0"
         id="path7722-0-6-0-6-3"
         d="m 85.03937,556.29921 70.86614,-28.34648"
         style="fill:none;fill-rule:evenodd;stroke:#00009f;stroke-width:2;stroke-linecap:butt;stroke-linejoin:miter;stroke-miterlimit:4;stroke-dasharray:none;stroke-opacity:1" />
      <path
         sodipodi:nodetypes="cc"
         inkscape:connector-curvature="0"
         id="path7722-0-6-0-8-5"
         d="m 148.8189,641.33858 21.25984,-99.21262"
         style="fill:none;fill-rule:evenodd;stroke:#00009f;stroke-width:2;stroke-linecap:butt;stroke-linejoin:miter;stroke-miterlimit:4;stroke-dasharray:none;stroke-opacity:1" />
    </g>
    <g
       style="font-style:normal;font-variant:normal;font-weight:normal;font-stretch:normal;font-size:12.49999809px;line-height:110.00000238%;font-family:FoundrySterling-Medium;-inkscape-font-specification:'FoundrySterling-Medium, Normal';text-align:center;letter-spacing:0px;word-spacing:0px;writing-mode:lr-tb;text-anchor:middle;fill:#000000;fill-opacity:1;stroke:none;stroke-width:1px;stroke-linecap:butt;stroke-linejoin:miter;stroke-opacity:1"
       id="text4231-7">
      <path
         d="m 123.24815,261.05894 q 0,1.0625 -0.7375,1.75 -0.7375,0.6875 -2,0.6875 -0.9375,0 -1.8,-0.4125 -0.525,-0.25 -0.7625,-0.4875 l 0.5375,-0.775 q 1.0625,0.7125 1.975,0.7125 0.75,0 1.1875,-0.3875 0.4375,-0.4 0.4375,-0.9875 0,-0.6 -0.65,-1.075 -0.3,-0.225 -1.3125,-0.725 -0.9625,-0.475 -1.3625,-0.875 -0.575,-0.575 -0.575,-1.4125 0,-0.9875 0.725,-1.6125 0.7375,-0.6375 1.8875,-0.6375 0.975,0 1.7375,0.3875 0.4375,0.2375 0.6375,0.4625 l -0.5625,0.725 q -0.775,-0.625 -1.7375,-0.625 -0.7,0 -1.1375,0.325 -0.425,0.325 -0.425,0.875 0,0.5125 0.475,0.8625 0.1375,0.1125 1.0875,0.6 1.1625,0.6 1.4625,0.8375 0.9125,0.7375 0.9125,1.7875 z"
         style=""
         id="path4355" />
      <path
         d="m 129.19112,263.32144 -0.95,0 0,-0.45 q -0.975,0.575 -1.85,0.575 -0.875,0 -1.4125,-0.5125 -0.5375,-0.525 -0.5375,-1.3625 0,-2.05 3.45,-2.05 l 0.275,0 0,-0.3875 q 0,-0.6 -0.25,-0.85 -0.3125,-0.3125 -1.0625,-0.3125 -0.825,0 -1.6625,0.475 l -0.3875,-0.7125 q 0.175,-0.15 0.6125,-0.3375 0.7125,-0.2875 1.5375,-0.2875 1.1375,0 1.75,0.6125 0.3125,0.3125 0.4125,0.7625 0.075,0.325 0.075,1.0375 l 0,3.8 z m -1.025,-1.1875 0,-1.8125 -0.3125,0 q -1.6,0 -2.125,0.525 -0.275,0.275 -0.275,0.7 0,0.4625 0.3125,0.75 0.325,0.2875 0.8875,0.2875 0.6,0 1.5125,-0.45 z"
         style=""
         id="path4357" />
      <path
         d="m 134.32256,263.14644 q -0.5875,0.325 -1.3,0.325 -0.9,0 -1.3625,-0.4625 -0.2875,-0.2875 -0.3625,-0.7875 -0.0375,-0.225 -0.0375,-0.9875 l 0,-3.0875 -1.0625,0 0,-0.875 1.0625,0 0,-1.7 1.0625,0 0,1.7 1.8625,0 0,0.875 -1.8625,0 0,3.2625 q 0,0.5875 0.125,0.8 0.1875,0.35 0.7625,0.35 0.3,0 0.8375,-0.1625 l 0.275,0.75 z"
         style=""
         id="path4359" />
      <path
         d="m 140.15459,260.13394 q 0,0.0625 -0.0125,0.2375 -0.0125,0.1625 -0.0125,0.2125 l -4.2125,0 q -0.0125,0.8375 0.45,1.375 0.525,0.6 1.45,0.6 0.7625,0 1.7125,-0.475 l 0.4,0.725 q -0.975,0.65 -2.2,0.65 -1.35,0 -2.125,-0.8875 -0.75,-0.85 -0.75,-2.2375 0,-1.45 0.775,-2.3375 0.775,-0.8875 2.0375,-0.8875 1.15,0 1.8125,0.8125 0.675,0.8 0.675,2.2125 z m -1.025,-0.3875 q 0,-0.675 -0.3,-1.1625 -0.3875,-0.625 -1.15,-0.625 -0.7125,0 -1.2,0.4875 -0.4875,0.4875 -0.55,1.3 l 3.2,0 z"
         style=""
         id="path4361" />
      <path
         d="m 142.57725,263.32144 -1.0625,0 0,-9.0125 1.0625,0 0,9.0125 z"
         style=""
         id="path4363" />
      <path
         d="m 145.31162,263.32144 -1.0625,0 0,-9.0125 1.0625,0 0,9.0125 z"
         style=""
         id="path4365" />
      <path
         d="m 148.1585,255.34644 q 0,0.275 -0.1875,0.4625 -0.1875,0.1875 -0.4625,0.1875 -0.275,0 -0.4625,-0.1875 -0.1875,-0.1875 -0.1875,-0.4625 0,-0.275 0.1875,-0.4625 0.1875,-0.1875 0.4625,-0.1875 0.275,0 0.4625,0.1875 0.1875,0.1875 0.1875,0.4625 z m -0.1125,7.975 -1.0625,0 0,-6.05 1.0625,0 0,6.05 z"
         style=""
         id="path4367" />
      <path
         d="m 153.26787,263.14644 q -0.5875,0.325 -1.3,0.325 -0.9,0 -1.3625,-0.4625 -0.2875,-0.2875 -0.3625,-0.7875 -0.0375,-0.225 -0.0375,-0.9875 l 0,-3.0875 -1.0625,0 0,-0.875 1.0625,0 0,-1.7 1.0625,0 0,1.7 1.8625,0 0,0.875 -1.8625,0 0,3.2625 q 0,0.5875 0.125,0.8 0.1875,0.35 0.7625,0.35 0.3,0 0.8375,-0.1625 l 0.275,0.75 z"
         style=""
         id="path4369" />
      <path
         d="m 159.0999,260.13394 q 0,0.0625 -0.0125,0.2375 -0.0125,0.1625 -0.0125,0.2125 l -4.2125,0 q -0.0125,0.8375 0.45,1.375 0.525,0.6 1.45,0.6 0.7625,0 1.7125,-0.475 l 0.4,0.725 q -0.975,0.65 -2.2,0.65 -1.35,0 -2.125,-0.8875 -0.75,-0.85 -0.75,-2.2375 0,-1.45 0.775,-2.3375 0.775,-0.8875 2.0375,-0.8875 1.15,0 1.8125,0.8125 0.675,0.8 0.675,2.2125 z m -1.025,-0.3875 q 0,-0.675 -0.3,-1.1625 -0.3875,-0.625 -1.15,-0.625 -0.7125,0 -1.2,0.4875 -0.4875,0.4875 -0.55,1.3 l 3.2,0 z"
         style=""
         id="path4371" />
      <path
         d="m 168.32607,263.32144 -1.0625,0 0,-3.4375 q 0,-0.6875 -0.05,-0.9625 -0.0625,-0.4 -0.275,-0.6125 -0.3,-0.3 -0.85,-0.3 -0.4875,0 -1.0625,0.25 -0.375,0.1625 -0.525,0.275 l 0,4.7875 -1.0625,0 0,-6.05 0.95,0 0,0.45 q 0.9125,-0.6125 1.8875,-0.6125 0.925,0 1.45,0.525 0.3875,0.3875 0.5125,0.9375 0.0875,0.3875 0.0875,1.2375 l 0,3.5125 z"
         style=""
         id="path4373" />
      <path
         d="m 175.2958,260.29644 q 0,1.425 -0.7875,2.3 -0.7875,0.8625 -2.1,0.8625 -1.2625,0 -2.0375,-0.8625 -0.775,-0.875 -0.775,-2.3 0,-1.425 0.7875,-2.3 0.8,-0.8875 2.1125,-0.8875 1.2625,0 2.025,0.875 0.775,0.8625 0.775,2.3125 z m -1.0625,0.0125 q 0,-1.0375 -0.5125,-1.675 -0.5,-0.65 -1.2875,-0.65 -0.8125,0 -1.3,0.625 -0.475,0.625 -0.475,1.65 0,1.0375 0.5125,1.675 0.5125,0.6375 1.3,0.6375 0.8375,0 1.3,-0.6 0.4625,-0.6125 0.4625,-1.6625 z"
         style=""
         id="path4375" />
      <path
         d="m 181.65908,263.32144 -0.95,0 0,-0.475 q -0.7125,0.6125 -1.7,0.6125 -1.2,0 -1.9375,-0.85 -0.7375,-0.8625 -0.7375,-2.2375 0,-1.45 0.8375,-2.35 0.8375,-0.9125 2.1125,-0.9125 0.7125,0 1.3125,0.3625 l 0,-3.1625 1.0625,0 0,9.0125 z m -1.0625,-1.2875 0,-3.625 q -0.5625,-0.4 -1.2125,-0.4 -0.8875,0 -1.4375,0.6375 -0.5375,0.6375 -0.5375,1.725 0,0.975 0.5,1.5875 0.5125,0.6 1.2875,0.6 0.6375,0 1.4,-0.525 z"
         style=""
         id="path4377" />
      <path
         d="m 188.32353,260.13394 q 0,0.0625 -0.0125,0.2375 -0.0125,0.1625 -0.0125,0.2125 l -4.2125,0 q -0.0125,0.8375 0.45,1.375 0.525,0.6 1.45,0.6 0.7625,0 1.7125,-0.475 l 0.4,0.725 q -0.975,0.65 -2.2,0.65 -1.35,0 -2.125,-0.8875 -0.75,-0.85 -0.75,-2.2375 0,-1.45 0.775,-2.3375 0.775,-0.8875 2.0375,-0.8875 1.15,0 1.8125,0.8125 0.675,0.8 0.675,2.2125 z m -1.025,-0.3875 q 0,-0.675 -0.3,-1.1625 -0.3875,-0.625 -1.15,-0.625 -0.7125,0 -1.2,0.4875 -0.4875,0.4875 -0.55,1.3 l 3.2,0 z"
         style=""
         id="path4379" />
      <path
         d="m 193.50869,261.63394 q 0,0.85 -0.65,1.35 -0.6375,0.5 -1.5625,0.5 -0.7625,0 -1.4625,-0.275 -0.425,-0.175 -0.6125,-0.325 l 0.4,-0.7375 q 0.85,0.4625 1.6125,0.4625 0.5,0 0.825,-0.25 0.3375,-0.25 0.3375,-0.65 0,-0.5 -0.775,-0.875 -0.7125,-0.3375 -1.4375,-0.6875 -0.775,-0.5 -0.775,-1.325 0,-0.7625 0.5875,-1.2375 0.6,-0.475 1.525,-0.475 1.2375,0 1.9125,0.5375 l -0.4,0.7125 q -0.725,-0.4125 -1.4375,-0.4125 -0.5375,0 -0.825,0.2375 -0.2875,0.225 -0.2875,0.575 0,0.4625 0.7875,0.8375 1.4,0.6625 1.45,0.7 0.7875,0.5125 0.7875,1.3375 z"
         style=""
         id="path4381" />
    </g>
    <g
       style="font-style:normal;font-variant:normal;font-weight:normal;font-stretch:normal;font-size:12.49999809px;line-height:110.00000238%;font-family:FoundrySterling-Medium;-inkscape-font-specification:'FoundrySterling-Medium, Normal';text-align:center;letter-spacing:0px;word-spacing:0px;writing-mode:lr-tb;text-anchor:middle;fill:#000000;fill-opacity:1;stroke:none;stroke-width:1px;stroke-linecap:butt;stroke-linejoin:miter;stroke-opacity:1"
       id="text4231-7-7">
      <path
         d="m 413.79933,518.42665 q 0,1.0625 -0.7375,1.75 -0.7375,0.6875 -2,0.6875 -0.9375,0 -1.8,-0.4125 -0.525,-0.25 -0.7625,-0.4875 l 0.5375,-0.775 q 1.0625,0.7125 1.975,0.7125 0.75,0 1.1875,-0.3875 0.4375,-0.4 0.4375,-0.9875 0,-0.6 -0.65,-1.075 -0.3,-0.225 -1.3125,-0.725 -0.9625,-0.475 -1.3625,-0.875 -0.575,-0.575 -0.575,-1.4125 0,-0.9875 0.725,-1.6125 0.7375,-0.6375 1.8875,-0.6375 0.975,0 1.7375,0.3875 0.4375,0.2375 0.6375,0.4625 l -0.5625,0.725 q -0.775,-0.625 -1.7375,-0.625 -0.7,0 -1.1375,0.325 -0.425,0.325 -0.425,0.875 0,0.5125 0.475,0.8625 0.1375,0.1125 1.0875,0.6 1.1625,0.6 1.4625,0.8375 0.9125,0.7375 0.9125,1.7875 z"
         style=""
         id="path4384" />
      <path
         d="m 419.7423,520.68915 -0.95,0 0,-0.45 q -0.975,0.575 -1.85,0.575 -0.875,0 -1.4125,-0.5125 -0.5375,-0.525 -0.5375,-1.3625 0,-2.05 3.45,-2.05 l 0.275,0 0,-0.3875 q 0,-0.6 -0.25,-0.85 -0.3125,-0.3125 -1.0625,-0.3125 -0.825,0 -1.6625,0.475 l -0.3875,-0.7125 q 0.175,-0.15 0.6125,-0.3375 0.7125,-0.2875 1.5375,-0.2875 1.1375,0 1.75,0.6125 0.3125,0.3125 0.4125,0.7625 0.075,0.325 0.075,1.0375 l 0,3.8 z m -1.025,-1.1875 0,-1.8125 -0.3125,0 q -1.6,0 -2.125,0.525 -0.275,0.275 -0.275,0.7 0,0.4625 0.3125,0.75 0.325,0.2875 0.8875,0.2875 0.6,0 1.5125,-0.45 z"
         style=""
         id="path4386" />
      <path
         d="m 424.87374,520.51415 q -0.5875,0.325 -1.3,0.325 -0.9,0 -1.3625,-0.4625 -0.2875,-0.2875 -0.3625,-0.7875 -0.0375,-0.225 -0.0375,-0.9875 l 0,-3.0875 -1.0625,0 0,-0.875 1.0625,0 0,-1.7 1.0625,0 0,1.7 1.8625,0 0,0.875 -1.8625,0 0,3.2625 q 0,0.5875 0.125,0.8 0.1875,0.35 0.7625,0.35 0.3,0 0.8375,-0.1625 l 0.275,0.75 z"
         style=""
         id="path4388" />
      <path
         d="m 430.70577,517.50165 q 0,0.0625 -0.0125,0.2375 -0.0125,0.1625 -0.0125,0.2125 l -4.2125,0 q -0.0125,0.8375 0.45,1.375 0.525,0.6 1.45,0.6 0.7625,0 1.7125,-0.475 l 0.4,0.725 q -0.975,0.65 -2.2,0.65 -1.35,0 -2.125,-0.8875 -0.75,-0.85 -0.75,-2.2375 0,-1.45 0.775,-2.3375 0.775,-0.8875 2.0375,-0.8875 1.15,0 1.8125,0.8125 0.675,0.8 0.675,2.2125 z m -1.025,-0.3875 q 0,-0.675 -0.3,-1.1625 -0.3875,-0.625 -1.15,-0.625 -0.7125,0 -1.2,0.4875 -0.4875,0.4875 -0.55,1.3 l 3.2,0 z"
         style=""
         id="path4390" />
      <path
         d="m 433.12843,520.68915 -1.0625,0 0,-9.0125 1.0625,0 0,9.0125 z"
         style=""
         id="path4392" />
      <path
         d="m 435.8628,520.68915 -1.0625,0 0,-9.0125 1.0625,0 0,9.0125 z"
         style=""
         id="path4394" />
      <path
         d="m 438.70968,512.71415 q 0,0.275 -0.1875,0.4625 -0.1875,0.1875 -0.4625,0.1875 -0.275,0 -0.4625,-0.1875 -0.1875,-0.1875 -0.1875,-0.4625 0,-0.275 0.1875,-0.4625 0.1875,-0.1875 0.4625,-0.1875 0.275,0 0.4625,0.1875 0.1875,0.1875 0.1875,0.4625 z m -0.1125,7.975 -1.0625,0 0,-6.05 1.0625,0 0,6.05 z"
         style=""
         id="path4396" />
      <path
         d="m 443.81905,520.51415 q -0.5875,0.325 -1.3,0.325 -0.9,0 -1.3625,-0.4625 -0.2875,-0.2875 -0.3625,-0.7875 -0.0375,-0.225 -0.0375,-0.9875 l 0,-3.0875 -1.0625,0 0,-0.875 1.0625,0 0,-1.7 1.0625,0 0,1.7 1.8625,0 0,0.875 -1.8625,0 0,3.2625 q 0,0.5875 0.125,0.8 0.1875,0.35 0.7625,0.35 0.3,0 0.8375,-0.1625 l 0.275,0.75 z"
         style=""
         id="path4398" />
      <path
         d="m 449.65108,517.50165 q 0,0.0625 -0.0125,0.2375 -0.0125,0.1625 -0.0125,0.2125 l -4.2125,0 q -0.0125,0.8375 0.45,1.375 0.525,0.6 1.45,0.6 0.7625,0 1.7125,-0.475 l 0.4,0.725 q -0.975,0.65 -2.2,0.65 -1.35,0 -2.125,-0.8875 -0.75,-0.85 -0.75,-2.2375 0,-1.45 0.775,-2.3375 0.775,-0.8875 2.0375,-0.8875 1.15,0 1.8125,0.8125 0.675,0.8 0.675,2.2125 z m -1.025,-0.3875 q 0,-0.675 -0.3,-1.1625 -0.3875,-0.625 -1.15,-0.625 -0.7125,0 -1.2,0.4875 -0.4875,0.4875 -0.55,1.3 l 3.2,0 z"
         style=""
         id="path4400" />
      <path
         d="m 458.87725,520.68915 -1.0625,0 0,-3.4375 q 0,-0.6875 -0.05,-0.9625 -0.0625,-0.4 -0.275,-0.6125 -0.3,-0.3 -0.85,-0.3 -0.4875,0 -1.0625,0.25 -0.375,0.1625 -0.525,0.275 l 0,4.7875 -1.0625,0 0,-6.05 0.95,0 0,0.45 q 0.9125,-0.6125 1.8875,-0.6125 0.925,0 1.45,0.525 0.3875,0.3875 0.5125,0.9375 0.0875,0.3875 0.0875,1.2375 l 0,3.5125 z"
         style=""
         id="path4402" />
      <path
         d="m 465.84698,517.66415 q 0,1.425 -0.7875,2.3 -0.7875,0.8625 -2.1,0.8625 -1.2625,0 -2.0375,-0.8625 -0.775,-0.875 -0.775,-2.3 0,-1.425 0.7875,-2.3 0.8,-0.8875 2.1125,-0.8875 1.2625,0 2.025,0.875 0.775,0.8625 0.775,2.3125 z m -1.0625,0.0125 q 0,-1.0375 -0.5125,-1.675 -0.5,-0.65 -1.2875,-0.65 -0.8125,0 -1.3,0.625 -0.475,0.625 -0.475,1.65 0,1.0375 0.5125,1.675 0.5125,0.6375 1.3,0.6375 0.8375,0 1.3,-0.6 0.4625,-0.6125 0.4625,-1.6625 z"
         style=""
         id="path4404" />
      <path
         d="m 472.21026,520.68915 -0.95,0 0,-0.475 q -0.7125,0.6125 -1.7,0.6125 -1.2,0 -1.9375,-0.85 -0.7375,-0.8625 -0.7375,-2.2375 0,-1.45 0.8375,-2.35 0.8375,-0.9125 2.1125,-0.9125 0.7125,0 1.3125,0.3625 l 0,-3.1625 1.0625,0 0,9.0125 z m -1.0625,-1.2875 0,-3.625 q -0.5625,-0.4 -1.2125,-0.4 -0.8875,0 -1.4375,0.6375 -0.5375,0.6375 -0.5375,1.725 0,0.975 0.5,1.5875 0.5125,0.6 1.2875,0.6 0.6375,0 1.4,-0.525 z"
         style=""
         id="path4406" />
      <path
         d="m 478.87471,517.50165 q 0,0.0625 -0.0125,0.2375 -0.0125,0.1625 -0.0125,0.2125 l -4.2125,0 q -0.0125,0.8375 0.45,1.375 0.525,0.6 1.45,0.6 0.7625,0 1.7125,-0.475 l 0.4,0.725 q -0.975,0.65 -2.2,0.65 -1.35,0 -2.125,-0.8875 -0.75,-0.85 -0.75,-2.2375 0,-1.45 0.775,-2.3375 0.775,-0.8875 2.0375,-0.8875 1.15,0 1.8125,0.8125 0.675,0.8 0.675,2.2125 z m -1.025,-0.3875 q 0,-0.675 -0.3,-1.1625 -0.3875,-0.625 -1.15,-0.625 -0.7125,0 -1.2,0.4875 -0.4875,0.4875 -0.55,1.3 l 3.2,0 z"
         style=""
         id="path4408" />
      <path
         d="m 484.05987,519.00165 q 0,0.85 -0.65,1.35 -0.6375,0.5 -1.5625,0.5 -0.7625,0 -1.4625,-0.275 -0.425,-0.175 -0.6125,-0.325 l 0.4,-0.7375 q 0.85,0.4625 1.6125,0.4625 0.5,0 0.825,-0.25 0.3375,-0.25 0.3375,-0.65 0,-0.5 -0.775,-0.875 -0.7125,-0.3375 -1.4375,-0.6875 -0.775,-0.5 -0.775,-1.325 0,-0.7625 0.5875,-1.2375 0.6,-0.475 1.525,-0.475 1.2375,0 1.9125,0.5375 l -0.4,0.7125 q -0.725,-0.4125 -1.4375,-0.4125 -0.5375,0 -0.825,0.2375 -0.2875,0.225 -0.2875,0.575 0,0.4625 0.7875,0.8375 1.4,0.6625 1.45,0.7 0.7875,0.5125 0.7875,1.3375 z"
         style=""
         id="path4410" />
    </g>
    <g
       style="font-style:normal;font-variant:normal;font-weight:normal;font-stretch:normal;font-size:12.49999809px;line-height:110.00000238%;font-family:FoundrySterling-Medium;-inkscape-font-specification:'FoundrySterling-Medium, Normal';text-align:center;letter-spacing:0px;word-spacing:0px;writing-mode:lr-tb;text-anchor:middle;fill:#000000;fill-opacity:1;stroke:none;stroke-width:1px;stroke-linecap:butt;stroke-linejoin:miter;stroke-opacity:1"
       id="text4231-7-8">
      <path
         d="m 179.94105,629.56288 q 0,1.0625 -0.7375,1.75 -0.7375,0.6875 -2,0.6875 -0.9375,0 -1.8,-0.4125 -0.525,-0.25 -0.7625,-0.4875 l 0.5375,-0.775 q 1.0625,0.7125 1.975,0.7125 0.75,0 1.1875,-0.3875 0.4375,-0.4 0.4375,-0.9875 0,-0.6 -0.65,-1.075 -0.3,-0.225 -1.3125,-0.725 -0.9625,-0.475 -1.3625,-0.875 -0.575,-0.575 -0.575,-1.4125 0,-0.9875 0.725,-1.6125 0.7375,-0.6375 1.8875,-0.6375 0.975,0 1.7375,0.3875 0.4375,0.2375 0.6375,0.4625 l -0.5625,0.725 q -0.775,-0.625 -1.7375,-0.625 -0.7,0 -1.1375,0.325 -0.425,0.325 -0.425,0.875 0,0.5125 0.475,0.8625 0.1375,0.1125 1.0875,0.6 1.1625,0.6 1.4625,0.8375 0.9125,0.7375 0.9125,1.7875 z"
         style=""
         id="path4208" />
      <path
         d="m 185.88402,631.82538 -0.95,0 0,-0.45 q -0.975,0.575 -1.85,0.575 -0.875,0 -1.4125,-0.5125 -0.5375,-0.525 -0.5375,-1.3625 0,-2.05 3.45,-2.05 l 0.275,0 0,-0.3875 q 0,-0.6 -0.25,-0.85 -0.3125,-0.3125 -1.0625,-0.3125 -0.825,0 -1.6625,0.475 l -0.3875,-0.7125 q 0.175,-0.15 0.6125,-0.3375 0.7125,-0.2875 1.5375,-0.2875 1.1375,0 1.75,0.6125 0.3125,0.3125 0.4125,0.7625 0.075,0.325 0.075,1.0375 l 0,3.8 z m -1.025,-1.1875 0,-1.8125 -0.3125,0 q -1.6,0 -2.125,0.525 -0.275,0.275 -0.275,0.7 0,0.4625 0.3125,0.75 0.325,0.2875 0.8875,0.2875 0.6,0 1.5125,-0.45 z"
         style=""
         id="path4210" />
      <path
         d="m 191.01546,631.65038 q -0.5875,0.325 -1.3,0.325 -0.9,0 -1.3625,-0.4625 -0.2875,-0.2875 -0.3625,-0.7875 -0.0375,-0.225 -0.0375,-0.9875 l 0,-3.0875 -1.0625,0 0,-0.875 1.0625,0 0,-1.7 1.0625,0 0,1.7 1.8625,0 0,0.875 -1.8625,0 0,3.2625 q 0,0.5875 0.125,0.8 0.1875,0.35 0.7625,0.35 0.3,0 0.8375,-0.1625 l 0.275,0.75 z"
         style=""
         id="path4212" />
      <path
         d="m 196.84749,628.63788 q 0,0.0625 -0.0125,0.2375 -0.0125,0.1625 -0.0125,0.2125 l -4.21249,0 q -0.0125,0.8375 0.45,1.375 0.52499,0.6 1.44999,0.6 0.7625,0 1.7125,-0.475 l 0.4,0.725 q -0.975,0.65 -2.2,0.65 -1.34999,0 -2.12499,-0.8875 -0.75,-0.85 -0.75,-2.2375 0,-1.45 0.775,-2.3375 0.775,-0.8875 2.03749,-0.8875 1.15,0 1.8125,0.8125 0.675,0.8 0.675,2.2125 z m -1.025,-0.3875 q 0,-0.675 -0.3,-1.1625 -0.3875,-0.625 -1.15,-0.625 -0.7125,0 -1.19999,0.4875 -0.4875,0.4875 -0.55,1.3 l 3.19999,0 z"
         style=""
         id="path4214" />
      <path
         d="m 199.27015,631.82538 -1.0625,0 0,-9.0125 1.0625,0 0,9.0125 z"
         style=""
         id="path4216" />
      <path
         d="m 202.00452,631.82538 -1.0625,0 0,-9.0125 1.0625,0 0,9.0125 z"
         style=""
         id="path4218" />
      <path
         d="m 204.8514,623.85038 q 0,0.275 -0.1875,0.4625 -0.1875,0.1875 -0.4625,0.1875 -0.275,0 -0.4625,-0.1875 -0.1875,-0.1875 -0.1875,-0.4625 0,-0.275 0.1875,-0.4625 0.1875,-0.1875 0.4625,-0.1875 0.275,0 0.4625,0.1875 0.1875,0.1875 0.1875,0.4625 z m -0.1125,7.975 -1.0625,0 0,-6.05 1.0625,0 0,6.05 z"
         style=""
         id="path4220" />
      <path
         d="m 209.96077,631.65038 q -0.5875,0.325 -1.3,0.325 -0.9,0 -1.3625,-0.4625 -0.2875,-0.2875 -0.3625,-0.7875 -0.0375,-0.225 -0.0375,-0.9875 l 0,-3.0875 -1.0625,0 0,-0.875 1.0625,0 0,-1.7 1.0625,0 0,1.7 1.8625,0 0,0.875 -1.8625,0 0,3.2625 q 0,0.5875 0.125,0.8 0.1875,0.35 0.7625,0.35 0.3,0 0.8375,-0.1625 l 0.275,0.75 z"
         style=""
         id="path4222" />
      <path
         d="m 215.79281,628.63788 q 0,0.0625 -0.0125,0.2375 -0.0125,0.1625 -0.0125,0.2125 l -4.2125,0 q -0.0125,0.8375 0.45,1.375 0.525,0.6 1.45,0.6 0.7625,0 1.7125,-0.475 l 0.4,0.725 q -0.975,0.65 -2.2,0.65 -1.35,0 -2.125,-0.8875 -0.75,-0.85 -0.75,-2.2375 0,-1.45 0.775,-2.3375 0.775,-0.8875 2.0375,-0.8875 1.15,0 1.8125,0.8125 0.675,0.8 0.675,2.2125 z m -1.025,-0.3875 q 0,-0.675 -0.3,-1.1625 -0.3875,-0.625 -1.15,-0.625 -0.7125,0 -1.2,0.4875 -0.4875,0.4875 -0.55,1.3 l 3.2,0 z"
         style=""
         id="path4224" />
      <path
         d="m 225.01897,631.82538 -1.0625,0 0,-3.4375 q 0,-0.6875 -0.05,-0.9625 -0.0625,-0.4 -0.275,-0.6125 -0.3,-0.3 -0.85,-0.3 -0.4875,0 -1.0625,0.25 -0.375,0.1625 -0.525,0.275 l 0,4.7875 -1.0625,0 0,-6.05 0.95,0 0,0.45 q 0.9125,-0.6125 1.8875,-0.6125 0.925,0 1.45,0.525 0.3875,0.3875 0.5125,0.9375 0.0875,0.3875 0.0875,1.2375 l 0,3.5125 z"
         style=""
         id="path4226" />
      <path
         d="m 231.9887,628.80038 q 0,1.425 -0.7875,2.3 -0.7875,0.8625 -2.1,0.8625 -1.2625,0 -2.0375,-0.8625 -0.775,-0.875 -0.775,-2.3 0,-1.425 0.7875,-2.3 0.8,-0.8875 2.1125,-0.8875 1.2625,0 2.025,0.875 0.775,0.8625 0.775,2.3125 z m -1.0625,0.0125 q 0,-1.0375 -0.5125,-1.675 -0.5,-0.65 -1.2875,-0.65 -0.8125,0 -1.3,0.625 -0.475,0.625 -0.475,1.65 0,1.0375 0.5125,1.675 0.5125,0.6375 1.3,0.6375 0.8375,0 1.3,-0.6 0.4625,-0.6125 0.4625,-1.6625 z"
         style=""
         id="path4228" />
      <path
         d="m 238.35198,631.82538 -0.95,0 0,-0.475 q -0.7125,0.6125 -1.7,0.6125 -1.2,0 -1.9375,-0.85 -0.7375,-0.8625 -0.7375,-2.2375 0,-1.45 0.8375,-2.35 0.8375,-0.9125 2.1125,-0.9125 0.7125,0 1.3125,0.3625 l 0,-3.1625 1.0625,0 0,9.0125 z m -1.0625,-1.2875 0,-3.625 q -0.5625,-0.4 -1.2125,-0.4 -0.8875,0 -1.4375,0.6375 -0.5375,0.6375 -0.5375,1.725 0,0.975 0.5,1.5875 0.5125,0.6 1.2875,0.6 0.6375,0 1.4,-0.525 z"
         style=""
         id="path4230" />
      <path
         d="m 245.01643,628.63788 q 0,0.0625 -0.0125,0.2375 -0.0125,0.1625 -0.0125,0.2125 l -4.2125,0 q -0.0125,0.8375 0.45,1.375 0.525,0.6 1.45,0.6 0.7625,0 1.7125,-0.475 l 0.4,0.725 q -0.975,0.65 -2.2,0.65 -1.35,0 -2.125,-0.8875 -0.75,-0.85 -0.75,-2.2375 0,-1.45 0.775,-2.3375 0.775,-0.8875 2.0375,-0.8875 1.15,0 1.8125,0.8125 0.675,0.8 0.675,2.2125 z m -1.025,-0.3875 q 0,-0.675 -0.3,-1.1625 -0.3875,-0.625 -1.15,-0.625 -0.7125,0 -1.2,0.4875 -0.4875,0.4875 -0.55,1.3 l 3.2,0 z"
         style=""
         id="path4232" />
      <path
         d="m 250.20159,630.13788 q 0,0.85 -0.65,1.35 -0.6375,0.5 -1.5625,0.5 -0.7625,0 -1.4625,-0.275 -0.425,-0.175 -0.6125,-0.325 l 0.4,-0.7375 q 0.85,0.4625 1.6125,0.4625 0.5,0 0.825,-0.25 0.3375,-0.25 0.3375,-0.65 0,-0.5 -0.775,-0.875 -0.7125,-0.3375 -1.4375,-0.6875 -0.775,-0.5 -0.775,-1.325 0,-0.7625 0.5875,-1.2375 0.6,-0.475 1.525,-0.475 1.2375,0 1.9125,0.5375 l -0.4,0.7125 q -0.725,-0.4125 -1.4375,-0.4125 -0.5375,0 -0.825,0.2375 -0.2875,0.225 -0.2875,0.575 0,0.4625 0.7875,0.8375 1.4,0.6625 1.45,0.7 0.7875,0.5125 0.7875,1.3375 z"
         style=""
         id="path4234" />
    </g>
    <g
       style="font-style:normal;font-variant:normal;font-weight:normal;font-stretch:normal;font-size:9.99999905px;line-height:110.00000238%;font-family:FoundrySterling-Medium;-inkscape-font-specification:'FoundrySterling-Medium, Normal';text-align:center;letter-spacing:0px;word-spacing:0px;writing-mode:lr-tb;text-anchor:middle;fill:#000000;fill-opacity:1;stroke:none;stroke-width:1px;stroke-linecap:butt;stroke-linejoin:miter;stroke-opacity:1"
       id="text4231-8-3">
      <path
         d="m 104.76544,331.01943 -1.95,0 0,5.93 -0.9,0 0,-5.93 -1.959995,0 0,-0.74 4.809995,0 0,0.74 z"
         style=""
         id="path4290" />
      <path
         d="m 110.59591,336.37943 q -0.16,0.17 -0.64,0.38 -0.74,0.32 -1.6,0.32 -1.38,0 -2.27,-0.9 -0.93,-0.94 -0.93,-2.51 0,-1.62 0.98,-2.6 0.92,-0.93 2.35,-0.93 0.84,0 1.49,0.28 0.39,0.17 0.56,0.34 l -0.39,0.62 q -0.72,-0.45 -1.61,-0.45 -1.05,0 -1.74,0.71 -0.72,0.73 -0.72,1.95 0,1.23 0.64,1.96 0.65,0.73 1.75,0.73 0.79,0 1.74,-0.52 l 0.39,0.62 z"
         style=""
         id="path4292" />
      <path
         d="m 115.88732,332.24943 q 0,0.9 -0.55,1.45 -0.43,0.43 -1.05,0.54 -0.33,0.06 -1.29,0.06 l -0.47,0 0,2.65 -0.89,0 0,-6.67 1.67,0 q 0.75,0 1.13,0.08 0.55,0.12 0.89,0.46 0.56,0.56 0.56,1.43 z m -0.9,-0.01 q 0,-0.58 -0.37,-0.95 -0.3,-0.3 -1.38,-0.3 l -0.71,0 0,2.58 0.45,0 q 0.71,0 0.94,-0.03 0.45,-0.07 0.69,-0.31 0.38,-0.38 0.38,-0.99 z"
         style=""
         id="path4294" />
      <path
         d="m 123.28607,336.51943 q -0.09,0.11 -0.5,0.29 -0.59,0.25 -1.22,0.25 -1.05,0 -1.7,-0.67 -0.65,-0.67 -0.65,-1.78 0,-1.16 0.69,-1.89 0.69,-0.74 1.77,-0.74 0.58,0 1.09,0.24 0.35,0.16 0.45,0.28 l -0.36,0.55 q -0.56,-0.35 -1.16,-0.35 -0.72,0 -1.17,0.53 -0.45,0.53 -0.45,1.3 0,0.81 0.43,1.3 0.43,0.49 1.14,0.49 0.55,0 1.29,-0.38 l 0.35,0.58 z"
         style=""
         id="path4296" />
      <path
         d="m 128.35615,334.52943 q 0,1.14 -0.63,1.84 -0.63,0.69 -1.68,0.69 -1.01,0 -1.63,-0.69 -0.62,-0.7 -0.62,-1.84 0,-1.14 0.63,-1.84 0.64,-0.71 1.69,-0.71 1.01,0 1.62,0.7 0.62,0.69 0.62,1.85 z m -0.85,0.01 q 0,-0.83 -0.41,-1.34 -0.4,-0.52 -1.03,-0.52 -0.65,0 -1.04,0.5 -0.38,0.5 -0.38,1.32 0,0.83 0.41,1.34 0.41,0.51 1.04,0.51 0.67,0 1.04,-0.48 0.37,-0.49 0.37,-1.33 z"
         style=""
         id="path4298" />
      <path
         d="m 133.35654,336.94943 -0.85,0 0,-2.75 q 0,-0.55 -0.04,-0.77 -0.05,-0.32 -0.22,-0.49 -0.24,-0.24 -0.68,-0.24 -0.39,0 -0.85,0.2 -0.3,0.13 -0.42,0.22 l 0,3.83 -0.85,0 0,-4.84 0.76,0 0,0.36 q 0.73,-0.49 1.51,-0.49 0.74,0 1.16,0.42 0.31,0.31 0.41,0.75 0.07,0.31 0.07,0.99 l 0,2.81 z"
         style=""
         id="path4300" />
      <path
         d="m 138.53232,336.94943 -0.85,0 0,-2.75 q 0,-0.55 -0.04,-0.77 -0.05,-0.32 -0.22,-0.49 -0.24,-0.24 -0.68,-0.24 -0.39,0 -0.85,0.2 -0.3,0.13 -0.42,0.22 l 0,3.83 -0.85,0 0,-4.84 0.76,0 0,0.36 q 0.73,-0.49 1.51,-0.49 0.74,0 1.16,0.42 0.31,0.31 0.41,0.75 0.07,0.31 0.07,0.99 l 0,2.81 z"
         style=""
         id="path4302" />
      <path
         d="m 143.7881,334.39943 q 0,0.05 -0.01,0.19 -0.01,0.13 -0.01,0.17 l -3.37,0 q -0.01,0.67 0.36,1.1 0.42,0.48 1.16,0.48 0.61,0 1.37,-0.38 l 0.32,0.58 q -0.78,0.52 -1.76,0.52 -1.08,0 -1.7,-0.71 -0.6,-0.68 -0.6,-1.79 0,-1.16 0.62,-1.87 0.62,-0.71 1.63,-0.71 0.92,0 1.45,0.65 0.54,0.64 0.54,1.77 z m -0.82,-0.31 q 0,-0.54 -0.24,-0.93 -0.31,-0.5 -0.92,-0.5 -0.57,0 -0.96,0.39 -0.39,0.39 -0.44,1.04 l 2.56,0 z"
         style=""
         id="path4304" />
      <path
         d="m 148.69622,336.51943 q -0.09,0.11 -0.5,0.29 -0.59,0.25 -1.22,0.25 -1.05,0 -1.7,-0.67 -0.65,-0.67 -0.65,-1.78 0,-1.16 0.69,-1.89 0.69,-0.74 1.77,-0.74 0.58,0 1.09,0.24 0.35,0.16 0.45,0.28 l -0.36,0.55 q -0.56,-0.35 -1.16,-0.35 -0.72,0 -1.17,0.53 -0.45,0.53 -0.45,1.3 0,0.81 0.43,1.3 0.43,0.49 1.14,0.49 0.55,0 1.29,-0.38 l 0.35,0.58 z"
         style=""
         id="path4306" />
      <path
         d="m 152.68692,336.80943 q -0.47,0.26 -1.04,0.26 -0.71999,0 -1.08999,-0.37 -0.23,-0.23 -0.29,-0.63 -0.03,-0.18 -0.03,-0.79 l 0,-2.47 -0.85,0 0,-0.7 0.85,0 0,-1.36 0.85,0 0,1.36 1.48999,0 0,0.7 -1.48999,0 0,2.61 q 0,0.47 0.1,0.64 0.15,0.28 0.61,0.28 0.24,0 0.67,-0.13 l 0.22,0.6 z"
         style=""
         id="path4308" />
      <path
         d="m 154.50763,330.56943 q 0,0.22 -0.15,0.37 -0.15,0.15 -0.37,0.15 -0.22,0 -0.37,-0.15 -0.15,-0.15 -0.15,-0.37 0,-0.22 0.15,-0.37 0.15,-0.15 0.37,-0.15 0.22,0 0.37,0.15 0.15,0.15 0.15,0.37 z m -0.09,6.38 -0.85,0 0,-4.84 0.85,0 0,4.84 z"
         style=""
         id="path4310" />
      <path
         d="m 160.06513,334.52943 q 0,1.14 -0.63,1.84 -0.63,0.69 -1.68,0.69 -1.01,0 -1.63,-0.69 -0.62,-0.7 -0.62,-1.84 0,-1.14 0.63,-1.84 0.64,-0.71 1.69,-0.71 1.01,0 1.62,0.7 0.62,0.69 0.62,1.85 z m -0.85,0.01 q 0,-0.83 -0.41,-1.34 -0.4,-0.52 -1.03,-0.52 -0.65,0 -1.04,0.5 -0.38,0.5 -0.38,1.32 0,0.83 0.41,1.34 0.41,0.51 1.04,0.51 0.67,0 1.04,-0.48 0.37,-0.49 0.37,-1.33 z"
         style=""
         id="path4312" />
      <path
         d="m 165.05575,336.94943 -0.85,0 0,-2.75 q 0,-0.55 -0.04,-0.77 -0.05,-0.32 -0.22,-0.49 -0.24,-0.24 -0.68,-0.24 -0.39,0 -0.85,0.2 -0.3,0.13 -0.42,0.22 l 0,3.83 -0.85,0 0,-4.84 0.76,0 0,0.36 q 0.73,-0.49 1.51,-0.49 0.74,0 1.16,0.42 0.31,0.31 0.41,0.75 0.07,0.31 0.07,0.99 l 0,2.81 z"
         style=""
         id="path4314" />
      <path
         d="m 169.38153,335.59943 q 0,0.68 -0.52,1.08 -0.51,0.4 -1.25,0.4 -0.61,0 -1.17,-0.22 -0.34,-0.14 -0.49,-0.26 l 0.32,-0.59 q 0.68,0.37 1.29,0.37 0.4,0 0.66,-0.2 0.27,-0.2 0.27,-0.52 0,-0.4 -0.62,-0.7 -0.57,-0.27 -1.15,-0.55 -0.62,-0.4 -0.62,-1.06 0,-0.61 0.47,-0.99 0.48,-0.38 1.22,-0.38 0.99,0 1.53,0.43 l -0.32,0.57 q -0.58,-0.33 -1.15,-0.33 -0.43,0 -0.66,0.19 -0.23,0.18 -0.23,0.46 0,0.37 0.63,0.67 1.12,0.53 1.16,0.56 0.63,0.41 0.63,1.07 z"
         style=""
         id="path4316" />
      <path
         d="m 93.740289,340.97943 -0.33,0.57 q -0.32,-0.21 -0.71,-0.21 -0.41,0 -0.64,0.24 -0.23,0.24 -0.23,0.93 l 0,0.6 1.51,0 0,0.7 -1.51,0 0,4.14 -0.85,0 0,-4.14 -0.83,0 0,-0.7 0.83,0 0,-0.59 q 0,-1.02 0.47,-1.49 0.41,-0.41 1.14,-0.41 0.43,0 0.81,0.16 0.25,0.11 0.34,0.2 z"
         style=""
         id="path4318" />
      <path
         d="m 97.208413,343.06943 -0.199999,0.68 q -0.17,-0.03 -0.36,-0.03 -0.83,0 -1.43,0.79 l 0,3.44 -0.85,0 0,-4.84 0.76,0 0,0.63 q 0.16,-0.21 0.43,-0.4 0.51,-0.36 1.13,-0.36 0.28,0 0.519999,0.09 z"
         style=""
         id="path4320" />
      <path
         d="m 102.02802,345.52943 q 0,1.14 -0.63,1.84 -0.63,0.69 -1.679997,0.69 -1.01,0 -1.63,-0.69 -0.62,-0.7 -0.62,-1.84 0,-1.14 0.63,-1.84 0.64,-0.71 1.69,-0.71 1.009997,0 1.619997,0.7 0.62,0.69 0.62,1.85 z m -0.85,0.01 q 0,-0.83 -0.41,-1.34 -0.4,-0.52 -1.029997,-0.52 -0.65,0 -1.04,0.5 -0.38,0.5 -0.38,1.32 0,0.83 0.41,1.34 0.41,0.51 1.04,0.51 0.669997,0 1.039997,-0.48 0.37,-0.49 0.37,-1.33 z"
         style=""
         id="path4322" />
      <path
         d="m 109.86841,347.94943 -0.85,0 0,-2.83 q 0,-0.91 -0.24,-1.16 -0.23,-0.26 -0.66,-0.26 -0.62,0 -1.28,0.41 0.08,0.19 0.08,1.13 l 0,2.71 -0.84,0 0,-2.68 q 0,-0.62 -0.03,-0.82 -0.04,-0.36 -0.21,-0.53 -0.22,-0.22 -0.63,-0.22 -0.64,0 -1.24,0.4 l 0,3.85 -0.85,0 0,-4.84 0.76,0 0,0.36 q 0.72,-0.49 1.48,-0.49 0.77,0 1.19,0.56 0.89,-0.56 1.68,-0.56 0.74,0 1.16,0.42 0.31,0.31 0.41,0.75 0.07,0.31 0.07,0.99 l 0,2.81 z"
         style=""
         id="path4324" />
      <path
         d="m 114.61576,341.27943 -3.05,8.16 -0.71,-0.26 3.05,-8.16 0.71,0.26 z"
         style=""
         id="path4326" />
      <path
         d="m 118.59513,347.80943 q -0.47,0.26 -1.04,0.26 -0.72,0 -1.09,-0.37 -0.23,-0.23 -0.29,-0.63 -0.03,-0.18 -0.03,-0.79 l 0,-2.47 -0.85,0 0,-0.7 0.85,0 0,-1.36 0.85,0 0,1.36 1.49,0 0,0.7 -1.49,0 0,2.61 q 0,0.47 0.1,0.64 0.15,0.28 0.61,0.28 0.24,0 0.67,-0.13 l 0.22,0.6 z"
         style=""
         id="path4328" />
      <path
         d="m 123.58076,345.52943 q 0,1.14 -0.63,1.84 -0.63,0.69 -1.68,0.69 -1.01,0 -1.63,-0.69 -0.62,-0.7 -0.62,-1.84 0,-1.14 0.63,-1.84 0.64,-0.71 1.69,-0.71 1.01,0 1.62,0.7 0.62,0.69 0.62,1.85 z m -0.85,0.01 q 0,-0.83 -0.41,-1.34 -0.4,-0.52 -1.03,-0.52 -0.65,0 -1.04,0.5 -0.38,0.5 -0.38,1.32 0,0.83 0.41,1.34 0.41,0.51 1.04,0.51 0.67,0 1.04,-0.48 0.37,-0.49 0.37,-1.33 z"
         style=""
         id="path4330" />
      <path
         d="m 130.86419,347.51943 q -0.09,0.11 -0.5,0.29 -0.59,0.25 -1.22,0.25 -1.05,0 -1.7,-0.67 -0.65,-0.67 -0.65,-1.78 0,-1.16 0.69,-1.89 0.69,-0.74 1.77,-0.74 0.58,0 1.09,0.24 0.35,0.16 0.45,0.28 l -0.36,0.55 q -0.56,-0.35 -1.16,-0.35 -0.72,0 -1.17,0.53 -0.45,0.53 -0.45,1.3 0,0.81 0.43,1.3 0.43,0.49 1.14,0.49 0.55,0 1.29,-0.38 l 0.35,0.58 z"
         style=""
         id="path4332" />
      <path
         d="m 135.93427,345.52943 q 0,1.14 -0.63,1.84 -0.63,0.69 -1.68,0.69 -1.01,0 -1.63,-0.69 -0.62,-0.7 -0.62,-1.84 0,-1.14 0.63,-1.84 0.64,-0.71 1.69,-0.71 1.01,0 1.62,0.7 0.62,0.69 0.62,1.85 z m -0.85,0.01 q 0,-0.83 -0.41,-1.34 -0.4,-0.52 -1.03,-0.52 -0.65,0 -1.04,0.5 -0.38,0.5 -0.38,1.32 0,0.83 0.41,1.34 0.41,0.51 1.04,0.51 0.67,0 1.04,-0.48 0.37,-0.49 0.37,-1.33 z"
         style=""
         id="path4334" />
      <path
         d="m 140.93466,347.94943 -0.85,0 0,-2.75 q 0,-0.55 -0.04,-0.77 -0.05,-0.32 -0.22,-0.49 -0.24,-0.24 -0.68,-0.24 -0.39,0 -0.85,0.2 -0.3,0.13 -0.42,0.22 l 0,3.83 -0.85,0 0,-4.84 0.76,0 0,0.36 q 0.73,-0.49 1.51,-0.49 0.74,0 1.16,0.42 0.31,0.31 0.41,0.75 0.07,0.31 0.07,0.99 l 0,2.81 z"
         style=""
         id="path4336" />
      <path
         d="m 145.04044,347.80943 q -0.47,0.26 -1.04,0.26 -0.72,0 -1.09,-0.37 -0.23,-0.23 -0.29,-0.63 -0.03,-0.18 -0.03,-0.79 l 0,-2.47 -0.85,0 0,-0.7 0.85,0 0,-1.36 0.85,0 0,1.36 1.49,0 0,0.7 -1.49,0 0,2.61 q 0,0.47 0.1,0.64 0.15,0.28 0.61,0.28 0.24,0 0.67,-0.13 l 0.22,0.6 z"
         style=""
         id="path4338" />
      <path
         d="m 148.75138,343.06943 -0.2,0.68 q -0.17,-0.03 -0.36,-0.03 -0.83,0 -1.43,0.79 l 0,3.44 -0.85,0 0,-4.84 0.76,0 0,0.63 q 0.16,-0.21 0.43,-0.4 0.51,-0.36 1.13,-0.36 0.28,0 0.52,0.09 z"
         style=""
         id="path4340" />
      <path
         d="m 153.57099,345.52943 q 0,1.14 -0.63,1.84 -0.63,0.69 -1.68,0.69 -1.01,0 -1.63,-0.69 -0.62,-0.7 -0.62,-1.84 0,-1.14 0.63,-1.84 0.64,-0.71 1.69,-0.71 1.01,0 1.62,0.7 0.62,0.69 0.62,1.85 z m -0.85,0.01 q 0,-0.83 -0.41,-1.34 -0.4,-0.52 -1.03,-0.52 -0.65,0 -1.04,0.5 -0.38,0.5 -0.38,1.32 0,0.83 0.41,1.34 0.41,0.51 1.04,0.51 0.67,0 1.04,-0.48 0.37,-0.49 0.37,-1.33 z"
         style=""
         id="path4342" />
      <path
         d="m 155.51138,347.94943 -0.85,0 0,-7.21 0.85,0 0,7.21 z"
         style=""
         id="path4344" />
      <path
         d="m 163.14169,347.94943 -0.85,0 0,-2.75 q 0,-0.55 -0.04,-0.77 -0.05,-0.32 -0.22,-0.49 -0.24,-0.24 -0.68,-0.24 -0.39,0 -0.85,0.2 -0.3,0.13 -0.42,0.22 l 0,3.83 -0.85,0 0,-4.84 0.76,0 0,0.36 q 0.73,-0.49 1.51,-0.49 0.74,0 1.16,0.42 0.31,0.31 0.41,0.75 0.07,0.31 0.07,0.99 l 0,2.81 z"
         style=""
         id="path4346" />
      <path
         d="m 168.71747,345.52943 q 0,1.14 -0.63,1.84 -0.63,0.69 -1.68,0.69 -1.01,0 -1.63,-0.69 -0.62,-0.7 -0.62,-1.84 0,-1.14 0.63,-1.84 0.64,-0.71 1.69,-0.71 1.01,0 1.62,0.7 0.62,0.69 0.62,1.85 z m -0.85,0.01 q 0,-0.83 -0.41,-1.34 -0.4,-0.52 -1.03,-0.52 -0.65,0 -1.04,0.5 -0.38,0.5 -0.38,1.32 0,0.83 0.41,1.34 0.41,0.51 1.04,0.51 0.67,0 1.04,-0.48 0.37,-0.49 0.37,-1.33 z"
         style=""
         id="path4348" />
      <path
         d="m 173.80809,347.94943 -0.76,0 0,-0.38 q -0.57,0.49 -1.36,0.49 -0.96,0 -1.55,-0.68 -0.59,-0.69 -0.59,-1.79 0,-1.16 0.67,-1.88 0.67,-0.73 1.69,-0.73 0.57,0 1.05,0.29 l 0,-2.53 0.85,0 0,7.21 z m -0.85,-1.03 0,-2.9 q -0.45,-0.32 -0.97,-0.32 -0.71,0 -1.15,0.51 -0.43,0.51 -0.43,1.38 0,0.78 0.4,1.27 0.41,0.48 1.03,0.48 0.51,0 1.12,-0.42 z"
         style=""
         id="path4350" />
      <path
         d="m 179.13966,345.39943 q 0,0.05 -0.01,0.19 -0.01,0.13 -0.01,0.17 l -3.37,0 q -0.01,0.67 0.36,1.1 0.42,0.48 1.16,0.48 0.61,0 1.37,-0.38 l 0.32,0.58 q -0.78,0.52 -1.76,0.52 -1.08,0 -1.7,-0.71 -0.6,-0.68 -0.6,-1.79 0,-1.16 0.62,-1.87 0.62,-0.71 1.63,-0.71 0.92,0 1.45,0.65 0.54,0.64 0.54,1.77 z m -0.82,-0.31 q 0,-0.54 -0.24,-0.93 -0.31,-0.5 -0.92,-0.5 -0.57,0 -0.96,0.39 -0.39,0.39 -0.44,1.04 l 2.56,0 z"
         style=""
         id="path4352" />
    </g>
    <text
       xml:space="preserve"
       style="font-style:normal;font-variant:normal;font-weight:normal;font-stretch:normal;font-size:12.5px;line-height:110.00000238%;font-family:'DejaVu Serif';-inkscape-font-specification:'DejaVu Serif, Normal';text-align:center;letter-spacing:0px;word-spacing:0px;writing-mode:lr-tb;text-anchor:middle;fill:#000000;fill-opacity:1;stroke:none;stroke-width:1px;stroke-linecap:butt;stroke-linejoin:miter;stroke-opacity:1"
       x="538.5827"
       y="386.22046"
       id="text7909"
       sodipodi:linespacing="110%"><tspan
         sodipodi:role="line"
         id="tspan7911"
         x="538.5827"
         y="386.22046" /></text>
  </g>
</svg>
