<?xml version="1.0" encoding="UTF-8" standalone="no"?>
<!-- Created with Inkscape (http://www.inkscape.org/) -->
<svg
   xmlns:svg="http://www.w3.org/2000/svg"
   xmlns="http://www.w3.org/2000/svg"
   version="1.0"
   width="507"
   height="338"
   viewBox="0 0 28000 21000"
   id="svg2"
   style="fill-rule:evenodd">
  <g
     transform="matrix(1.6510972,0,0,1.6510972,-3841.3592,-8360.3914)"
     id="Default"
     style="visibility:visible">
    <desc
       id="desc261">Master slide</desc>
    <g
       id="g263">
      <desc
         id="desc265">Date/Time</desc>
      <g
         id="g267">
        <g
           id="g269">
          <g
             id="g271"
             style="font-size:494px;font-weight:400;font-family:Liberation Serif embedded">
            <g
               id="g273"
               style="fill:#1a1a1a;stroke:none" />
          </g>
        </g>
      </g>
    </g>
    <g
       id="g275">
      <desc
         id="desc277">Footer</desc>
      <g
         id="g279">
        <g
           id="g281">
          <g
             id="g283"
             style="font-size:494px;font-weight:400;font-family:Liberation Serif embedded">
            <g
               id="g285"
               style="fill:#1a1a1a;stroke:none" />
          </g>
        </g>
      </g>
    </g>
  </g>
  <g
     transform="matrix(1.6510972,0,0,1.6510972,-3841.3592,-8360.3914)"
     id="Stacking_with_3_nodes"
     style="visibility:visible">
    <desc
       id="desc288">Slide</desc>
    <g
       id="g290">
      <desc
         id="desc292">Drawing</desc>
      <g
         id="g294">
        <g
           id="g296"
           style="fill:none;stroke:#000000">
          <path
             d="M 7301,17780 L 1269,17780 L 1269,5080 L 13334,5080 L 13334,17780 L 7301,17780"
             id="path298"
             style="fill:none;stroke-width:50" />
        </g>
        <g
           id="g300">
          <g
             id="g302"
             style="font-size:635px;font-weight:400;font-family:Helvetica embedded">
            <g
               id="g304"
               style="fill:#1a1a1a;stroke:none">
              <text
                 id="text306">
                <tspan
                   x="4608 5019 5370 5688 6039 6568 6919 7228 7580 7791 7969 8426 8566 8918 9235 9409 9760"
                   y="16692"
                   id="tspan308">Pacemaker Cluster</tspan>
              </text>
              <text
                 id="text310">
                <tspan
                   x="6428 6640 6779 7131 7448 7800 7939"
                   y="17479"
                   id="tspan312">(local)</tspan>
              </text>
            </g>
          </g>
        </g>
      </g>
    </g>
    <g
       id="g314">
      <desc
         id="desc316">Drawing</desc>
      <g
         id="g318">
        <g
           id="g320"
           style="fill:none;stroke:#000000">
          <path
             d="M 17145,17780 L 13970,17780 L 13970,5080 L 20320,5080 L 20320,17780 L 17145,17780"
             id="path322"
             style="fill:none;stroke-width:50" />
        </g>
        <g
           id="g324">
          <g
             id="g326"
             style="font-size:635px;font-weight:400;font-family:Helvetica embedded">
            <g
               id="g328"
               style="fill:#1a1a1a;stroke:none">
              <text
                 id="text330">
                <tspan
                   x="14547 14970 15148 15500 15851 16202 16414 16837 16977 17328 17680 18031 18209 18666 19017 19369"
                   y="16692"
                   id="tspan332">Stand-Alone Node</tspan>
              </text>
              <text
                 id="text334">
                <tspan
                   x="15942 16154 16361 16712 17242 17589 17762 18114"
                   y="17479"
                   id="tspan336">(remote)</tspan>
              </text>
            </g>
          </g>
        </g>
      </g>
    </g>
    <g
       id="g338">
      <desc
         id="desc340">Drawing</desc>
      <g
         id="g342">
        <g
           id="g344"
           style="fill:#c0c0c0;stroke:none">
          <path
             d="M 2540,8890 L 6350,8890 L 6350,11430 L 2540,11430 L 2540,8890 z"
             id="path346" />
        </g>
        <g
           id="g348"
           style="fill:none;stroke:#000000">
          <path
             d="M 4445,11430 L 2540,11430 L 2540,8890 L 6350,8890 L 6350,11430 L 4445,11430"
             id="path350"
             style="fill:none" />
        </g>
        <g
           id="g352">
          <g
             id="g354"
             style="font-size:635px;font-weight:400;font-family:Helvetica embedded">
            <g
               id="g356"
               style="fill:#1a1a1a;stroke:none">
              <text
                 id="text358">
                <tspan
                   x="4001 4141 4492 4687"
                   y="10368"
                   id="tspan360">left</tspan>
              </text>
            </g>
          </g>
        </g>
      </g>
    </g>
    <g
       id="g362">
      <desc
         id="desc364">Drawing</desc>
      <g
         id="g366">
        <g
           id="g368"
           style="fill:#99ccff;stroke:none">
          <path
             d="M 4445,12065 L 4065,12075 L 3709,12103 L 3386,12147 L 3103,12206 L 2979,12239 L 2869,12276 L 2773,12315 L 2692,12357 L 2627,12401 L 2601,12423 L 2579,12446 L 2562,12469 L 2550,12493 L 2543,12517 L 2540,12541 L 2540,15399 L 2543,15423 L 2550,15447 L 2562,15471 L 2579,15494 L 2601,15517 L 2627,15540 L 2692,15583 L 2773,15625 L 2869,15664 L 2979,15701 L 3103,15735 L 3386,15794 L 3709,15838 L 4065,15866 L 4445,15876 L 4825,15866 L 5181,15838 L 5504,15794 L 5787,15735 L 5911,15701 L 6021,15664 L 6117,15625 L 6198,15583 L 6263,15540 L 6289,15517 L 6311,15494 L 6328,15471 L 6340,15447 L 6347,15423 L 6350,15399 L 6350,12541 L 6347,12517 L 6340,12493 L 6328,12469 L 6311,12446 L 6289,12423 L 6263,12401 L 6198,12357 L 6117,12315 L 6021,12276 L 5911,12239 L 5787,12206 L 5504,12147 L 5181,12103 L 4825,12075 L 4445,12065 z"
             id="path370" />
        </g>
        <g
           id="g372"
           style="fill:none;stroke:#000000">
          <path
             d="M 4445,12065 L 4065,12075 L 3709,12103 L 3386,12147 L 3103,12206 L 2979,12239 L 2869,12276 L 2773,12315 L 2692,12357 L 2627,12401 L 2601,12423 L 2579,12446 L 2562,12469 L 2550,12493 L 2543,12517 L 2540,12541 L 2540,15399 L 2543,15423 L 2550,15447 L 2562,15471 L 2579,15494 L 2601,15517 L 2627,15540 L 2692,15583 L 2773,15625 L 2869,15664 L 2979,15701 L 3103,15735 L 3386,15794 L 3709,15838 L 4065,15866 L 4445,15876 L 4825,15866 L 5181,15838 L 5504,15794 L 5787,15735 L 5911,15701 L 6021,15664 L 6117,15625 L 6198,15583 L 6263,15540 L 6289,15517 L 6311,15494 L 6328,15471 L 6340,15447 L 6347,15423 L 6350,15399 L 6350,12541 L 6347,12517 L 6340,12493 L 6328,12469 L 6311,12446 L 6289,12423 L 6263,12401 L 6198,12357 L 6117,12315 L 6021,12276 L 5911,12239 L 5787,12206 L 5504,12147 L 5181,12103 L 4825,12075 L 4445,12065"
             id="path374"
             style="fill:none" />
        </g>
        <g
           id="g376"
           style="fill:#a7dfff;stroke:none">
          <path
             d="M 4445,12065 L 4065,12075 L 3709,12103 L 3386,12147 L 3103,12206 L 2979,12239 L 2869,12276 L 2773,12315 L 2692,12357 L 2627,12401 L 2601,12423 L 2579,12446 L 2562,12469 L 2550,12493 L 2543,12517 L 2540,12541 L 2543,12565 L 2550,12589 L 2562,12613 L 2579,12636 L 2601,12659 L 2627,12681 L 2692,12725 L 2773,12767 L 2869,12806 L 2979,12843 L 3103,12877 L 3386,12935 L 3709,12979 L 4065,13007 L 4445,13017 L 4825,13007 L 5181,12979 L 5504,12935 L 5787,12877 L 5911,12843 L 6021,12806 L 6117,12767 L 6198,12725 L 6263,12681 L 6289,12659 L 6311,12636 L 6328,12613 L 6340,12589 L 6347,12565 L 6350,12541 L 6347,12517 L 6340,12493 L 6328,12469 L 6311,12446 L 6289,12423 L 6263,12401 L 6198,12357 L 6117,12315 L 6021,12276 L 5911,12239 L 5787,12206 L 5504,12147 L 5181,12103 L 4825,12075 L 4445,12065 z"
             id="path378" />
        </g>
        <g
           id="g380"
           style="fill:none;stroke:#000000">
          <path
             d="M 4445,12065 L 4065,12075 L 3709,12103 L 3386,12147 L 3103,12206 L 2979,12239 L 2869,12276 L 2773,12315 L 2692,12357 L 2627,12401 L 2601,12423 L 2579,12446 L 2562,12469 L 2550,12493 L 2543,12517 L 2540,12541 L 2543,12565 L 2550,12589 L 2562,12613 L 2579,12636 L 2601,12659 L 2627,12681 L 2692,12725 L 2773,12767 L 2869,12806 L 2979,12843 L 3103,12877 L 3386,12935 L 3709,12979 L 4065,13007 L 4445,13017 L 4825,13007 L 5181,12979 L 5504,12935 L 5787,12877 L 5911,12843 L 6021,12806 L 6117,12767 L 6198,12725 L 6263,12681 L 6289,12659 L 6311,12636 L 6328,12613 L 6340,12589 L 6347,12565 L 6350,12541 L 6347,12517 L 6340,12493 L 6328,12469 L 6311,12446 L 6289,12423 L 6263,12401 L 6198,12357 L 6117,12315 L 6021,12276 L 5911,12239 L 5787,12206 L 5504,12147 L 5181,12103 L 4825,12075 L 4445,12065"
             id="path382"
             style="fill:none" />
        </g>
        <g
           id="g384">
          <g
             id="g386"
             style="font-size:635px;font-weight:400;font-family:Helvetica embedded">
            <g
               id="g388"
               style="fill:#1a1a1a;stroke:none">
              <text
                 id="text390">
                <tspan
                   x="3783 4134 4274 4414 4731"
                   y="14416"
                   id="tspan392">alice</tspan>
              </text>
            </g>
          </g>
        </g>
      </g>
    </g>
    <g
       id="g394">
      <desc
         id="desc396">Drawing</desc>
      <g
         id="g398">
        <g
           id="g400"
           style="fill:#99ccff;stroke:none">
          <path
             d="M 10160,12065 L 9780,12075 L 9424,12103 L 9101,12147 L 8818,12206 L 8694,12239 L 8584,12276 L 8488,12315 L 8407,12357 L 8342,12401 L 8316,12423 L 8294,12446 L 8277,12469 L 8265,12493 L 8258,12517 L 8255,12541 L 8255,15399 L 8258,15423 L 8265,15447 L 8277,15471 L 8294,15494 L 8316,15517 L 8342,15540 L 8407,15583 L 8488,15625 L 8584,15664 L 8694,15701 L 8818,15735 L 9101,15794 L 9424,15838 L 9780,15866 L 10160,15876 L 10540,15866 L 10896,15838 L 11219,15794 L 11502,15735 L 11626,15701 L 11736,15664 L 11832,15625 L 11913,15583 L 11978,15540 L 12004,15517 L 12026,15494 L 12043,15471 L 12055,15447 L 12062,15423 L 12065,15399 L 12065,12541 L 12062,12517 L 12055,12493 L 12043,12469 L 12026,12446 L 12004,12423 L 11978,12401 L 11913,12357 L 11832,12315 L 11736,12276 L 11626,12239 L 11502,12206 L 11219,12147 L 10896,12103 L 10540,12075 L 10160,12065 z"
             id="path402" />
        </g>
        <g
           id="g404"
           style="fill:none;stroke:#000000">
          <path
             d="M 10160,12065 L 9780,12075 L 9424,12103 L 9101,12147 L 8818,12206 L 8694,12239 L 8584,12276 L 8488,12315 L 8407,12357 L 8342,12401 L 8316,12423 L 8294,12446 L 8277,12469 L 8265,12493 L 8258,12517 L 8255,12541 L 8255,15399 L 8258,15423 L 8265,15447 L 8277,15471 L 8294,15494 L 8316,15517 L 8342,15540 L 8407,15583 L 8488,15625 L 8584,15664 L 8694,15701 L 8818,15735 L 9101,15794 L 9424,15838 L 9780,15866 L 10160,15876 L 10540,15866 L 10896,15838 L 11219,15794 L 11502,15735 L 11626,15701 L 11736,15664 L 11832,15625 L 11913,15583 L 11978,15540 L 12004,15517 L 12026,15494 L 12043,15471 L 12055,15447 L 12062,15423 L 12065,15399 L 12065,12541 L 12062,12517 L 12055,12493 L 12043,12469 L 12026,12446 L 12004,12423 L 11978,12401 L 11913,12357 L 11832,12315 L 11736,12276 L 11626,12239 L 11502,12206 L 11219,12147 L 10896,12103 L 10540,12075 L 10160,12065"
             id="path406"
             style="fill:none" />
        </g>
        <g
           id="g408"
           style="fill:#a7dfff;stroke:none">
          <path
             d="M 10160,12065 L 9780,12075 L 9424,12103 L 9101,12147 L 8818,12206 L 8694,12239 L 8584,12276 L 8488,12315 L 8407,12357 L 8342,12401 L 8316,12423 L 8294,12446 L 8277,12469 L 8265,12493 L 8258,12517 L 8255,12541 L 8258,12565 L 8265,12589 L 8277,12613 L 8294,12636 L 8316,12659 L 8342,12681 L 8407,12725 L 8488,12767 L 8584,12806 L 8694,12843 L 8818,12877 L 9101,12935 L 9424,12979 L 9780,13007 L 10160,13017 L 10540,13007 L 10896,12979 L 11219,12935 L 11502,12877 L 11626,12843 L 11736,12806 L 11832,12767 L 11913,12725 L 11978,12681 L 12004,12659 L 12026,12636 L 12043,12613 L 12055,12589 L 12062,12565 L 12065,12541 L 12062,12517 L 12055,12493 L 12043,12469 L 12026,12446 L 12004,12423 L 11978,12401 L 11913,12357 L 11832,12315 L 11736,12276 L 11626,12239 L 11502,12206 L 11219,12147 L 10896,12103 L 10540,12075 L 10160,12065 z"
             id="path410" />
        </g>
        <g
           id="g412"
           style="fill:none;stroke:#000000">
          <path
             d="M 10160,12065 L 9780,12075 L 9424,12103 L 9101,12147 L 8818,12206 L 8694,12239 L 8584,12276 L 8488,12315 L 8407,12357 L 8342,12401 L 8316,12423 L 8294,12446 L 8277,12469 L 8265,12493 L 8258,12517 L 8255,12541 L 8258,12565 L 8265,12589 L 8277,12613 L 8294,12636 L 8316,12659 L 8342,12681 L 8407,12725 L 8488,12767 L 8584,12806 L 8694,12843 L 8818,12877 L 9101,12935 L 9424,12979 L 9780,13007 L 10160,13017 L 10540,13007 L 10896,12979 L 11219,12935 L 11502,12877 L 11626,12843 L 11736,12806 L 11832,12767 L 11913,12725 L 11978,12681 L 12004,12659 L 12026,12636 L 12043,12613 L 12055,12589 L 12062,12565 L 12065,12541 L 12062,12517 L 12055,12493 L 12043,12469 L 12026,12446 L 12004,12423 L 11978,12401 L 11913,12357 L 11832,12315 L 11736,12276 L 11626,12239 L 11502,12206 L 11219,12147 L 10896,12103 L 10540,12075 L 10160,12065"
             id="path414"
             style="fill:none" />
        </g>
        <g
           id="g416">
          <g
             id="g418"
             style="font-size:635px;font-weight:400;font-family:Helvetica embedded">
            <g
               id="g420"
               style="fill:#1a1a1a;stroke:none">
              <text
                 id="text422">
                <tspan
                   x="9621 9972 10324"
                   y="14416"
                   id="tspan424">bob</tspan>
              </text>
            </g>
          </g>
        </g>
      </g>
    </g>
    <g
       id="g426">
      <desc
         id="desc428">Drawing</desc>
      <g
         id="g430">
        <g
           id="g432"
           style="fill:#99ccff;stroke:none">
          <path
             d="M 17145,12065 L 16765,12075 L 16409,12103 L 16086,12147 L 15803,12206 L 15679,12239 L 15569,12276 L 15473,12315 L 15392,12357 L 15327,12401 L 15301,12423 L 15279,12446 L 15262,12469 L 15250,12493 L 15243,12517 L 15240,12541 L 15240,15399 L 15243,15423 L 15250,15447 L 15262,15471 L 15279,15494 L 15301,15517 L 15327,15540 L 15392,15583 L 15473,15625 L 15569,15664 L 15679,15701 L 15803,15735 L 16086,15794 L 16409,15838 L 16765,15866 L 17145,15876 L 17525,15866 L 17881,15838 L 18204,15794 L 18487,15735 L 18611,15701 L 18721,15664 L 18817,15625 L 18898,15583 L 18963,15540 L 18989,15517 L 19011,15494 L 19028,15471 L 19040,15447 L 19047,15423 L 19050,15399 L 19050,12541 L 19047,12517 L 19040,12493 L 19028,12469 L 19011,12446 L 18989,12423 L 18963,12401 L 18898,12357 L 18817,12315 L 18721,12276 L 18611,12239 L 18487,12206 L 18204,12147 L 17881,12103 L 17525,12075 L 17145,12065 z"
             id="path434" />
        </g>
        <g
           id="g436"
           style="fill:none;stroke:#000000">
          <path
             d="M 17145,12065 L 16765,12075 L 16409,12103 L 16086,12147 L 15803,12206 L 15679,12239 L 15569,12276 L 15473,12315 L 15392,12357 L 15327,12401 L 15301,12423 L 15279,12446 L 15262,12469 L 15250,12493 L 15243,12517 L 15240,12541 L 15240,15399 L 15243,15423 L 15250,15447 L 15262,15471 L 15279,15494 L 15301,15517 L 15327,15540 L 15392,15583 L 15473,15625 L 15569,15664 L 15679,15701 L 15803,15735 L 16086,15794 L 16409,15838 L 16765,15866 L 17145,15876 L 17525,15866 L 17881,15838 L 18204,15794 L 18487,15735 L 18611,15701 L 18721,15664 L 18817,15625 L 18898,15583 L 18963,15540 L 18989,15517 L 19011,15494 L 19028,15471 L 19040,15447 L 19047,15423 L 19050,15399 L 19050,12541 L 19047,12517 L 19040,12493 L 19028,12469 L 19011,12446 L 18989,12423 L 18963,12401 L 18898,12357 L 18817,12315 L 18721,12276 L 18611,12239 L 18487,12206 L 18204,12147 L 17881,12103 L 17525,12075 L 17145,12065"
             id="path438"
             style="fill:none" />
        </g>
        <g
           id="g440"
           style="fill:#a7dfff;stroke:none">
          <path
             d="M 17145,12065 L 16765,12075 L 16409,12103 L 16086,12147 L 15803,12206 L 15679,12239 L 15569,12276 L 15473,12315 L 15392,12357 L 15327,12401 L 15301,12423 L 15279,12446 L 15262,12469 L 15250,12493 L 15243,12517 L 15240,12541 L 15243,12565 L 15250,12589 L 15262,12613 L 15279,12636 L 15301,12659 L 15327,12681 L 15392,12725 L 15473,12767 L 15569,12806 L 15679,12843 L 15803,12877 L 16086,12935 L 16409,12979 L 16765,13007 L 17145,13017 L 17525,13007 L 17881,12979 L 18204,12935 L 18487,12877 L 18611,12843 L 18721,12806 L 18817,12767 L 18898,12725 L 18963,12681 L 18989,12659 L 19011,12636 L 19028,12613 L 19040,12589 L 19047,12565 L 19050,12541 L 19047,12517 L 19040,12493 L 19028,12469 L 19011,12446 L 18989,12423 L 18963,12401 L 18898,12357 L 18817,12315 L 18721,12276 L 18611,12239 L 18487,12206 L 18204,12147 L 17881,12103 L 17525,12075 L 17145,12065 z"
             id="path442" />
        </g>
        <g
           id="g444"
           style="fill:none;stroke:#000000">
          <path
             d="M 17145,12065 L 16765,12075 L 16409,12103 L 16086,12147 L 15803,12206 L 15679,12239 L 15569,12276 L 15473,12315 L 15392,12357 L 15327,12401 L 15301,12423 L 15279,12446 L 15262,12469 L 15250,12493 L 15243,12517 L 15240,12541 L 15243,12565 L 15250,12589 L 15262,12613 L 15279,12636 L 15301,12659 L 15327,12681 L 15392,12725 L 15473,12767 L 15569,12806 L 15679,12843 L 15803,12877 L 16086,12935 L 16409,12979 L 16765,13007 L 17145,13017 L 17525,13007 L 17881,12979 L 18204,12935 L 18487,12877 L 18611,12843 L 18721,12806 L 18817,12767 L 18898,12725 L 18963,12681 L 18989,12659 L 19011,12636 L 19028,12613 L 19040,12589 L 19047,12565 L 19050,12541 L 19047,12517 L 19040,12493 L 19028,12469 L 19011,12446 L 18989,12423 L 18963,12401 L 18898,12357 L 18817,12315 L 18721,12276 L 18611,12239 L 18487,12206 L 18204,12147 L 17881,12103 L 17525,12075 L 17145,12065"
             id="path446"
             style="fill:none" />
        </g>
        <g
           id="g448">
          <g
             id="g450"
             style="font-size:635px;font-weight:400;font-family:Helvetica embedded">
            <g
               id="g452"
               style="fill:#1a1a1a;stroke:none">
              <text
                 id="text454">
                <tspan
                   x="16202 16520 16871 17222 17434 17574 17713"
                   y="14416"
                   id="tspan456">charlie</tspan>
              </text>
            </g>
          </g>
        </g>
      </g>
    </g>
    <g
       id="g458">
      <desc
         id="desc460">Drawing</desc>
      <g
         id="g462">
        <g
           id="g464"
           style="fill:#fa8500;stroke:none">
          <path
             d="M 8255,8890 L 12065,8890 L 12065,11430 L 8255,11430 L 8255,8890 z"
             id="path466" />
        </g>
        <g
           id="g468"
           style="fill:none;stroke:#000000">
          <path
             d="M 10160,11430 L 8255,11430 L 8255,8890 L 12065,8890 L 12065,11430 L 10160,11430"
             id="path470"
             style="fill:none" />
        </g>
        <g
           id="g472">
          <g
             id="g474"
             style="font-size:635px;font-weight:400;font-family:Helvetica embedded">
            <g
               id="g476"
               style="fill:#1a1a1a;stroke:none">
              <text
                 id="text478">
                <tspan
                   x="9716 9856 10207 10402"
                   y="10368"
                   id="tspan480">left</tspan>
              </text>
            </g>
          </g>
        </g>
      </g>
    </g>
    <g
       id="g482">
      <desc
         id="desc484">Drawing</desc>
      <g
         id="g486">
        <g
           id="g488"
           style="fill:#c0c0c0;stroke:none">
          <path
             d="M 15240,8890 L 19050,8890 L 19050,11430 L 15240,11430 L 15240,8890 z"
             id="path490" />
        </g>
        <g
           id="g492"
           style="fill:none;stroke:#000000">
          <path
             d="M 17145,11430 L 15240,11430 L 15240,8890 L 19050,8890 L 19050,11430 L 17145,11430"
             id="path494"
             style="fill:none" />
        </g>
        <g
           id="g496">
          <g
             id="g498"
             style="font-size:635px;font-weight:400;font-family:Helvetica embedded">
            <g
               id="g500"
               style="fill:#1a1a1a;stroke:none">
              <text
                 id="text502">
                <tspan
                   x="16043 16361 16538 16890 17211 17520 17872"
                   y="10368"
                   id="tspan504">stacked</tspan>
              </text>
            </g>
          </g>
        </g>
      </g>
    </g>
    <g
       id="g506">
      <desc
         id="desc508">Drawing</desc>
      <g
         id="g510">
        <g
           id="g512"
           style="fill:#fa8500;stroke:none">
          <path
             d="M 8255,5715 L 12065,5715 L 12065,8255 L 8255,8255 L 8255,5715 z"
             id="path514" />
        </g>
        <g
           id="g516"
           style="fill:none;stroke:#000000">
          <path
             d="M 10160,8255 L 8255,8255 L 8255,5715 L 12065,5715 L 12065,8255 L 10160,8255"
             id="path518"
             style="fill:none" />
        </g>
        <g
           id="g520">
          <g
             id="g522"
             style="font-size:635px;font-weight:400;font-family:Helvetica embedded">
            <g
               id="g524"
               style="fill:#1a1a1a;stroke:none">
              <text
                 id="text526">
                <tspan
                   x="9058 9376 9553 9905 10226 10535 10887"
                   y="7193"
                   id="tspan528">stacked</tspan>
              </text>
            </g>
          </g>
        </g>
      </g>
    </g>
    <g
       id="g530">
      <desc
         id="desc532">Drawing</desc>
      <g
         id="g534">
        <g
           id="g536"
           style="fill:#000000;stroke:none">
          <path
             d="M 6350,10160 L 6800,10010 L 6800,10310 L 6350,10160 z"
             id="path538" />
        </g>
        <g
           id="g540"
           style="fill:none;stroke:#000000">
          <path
             d="M 8255,10160 L 6710,10160"
             id="path542"
             style="fill:none;stroke-width:75.25926095;stroke-dasharray:none" />
        </g>
        <g
           id="g544" />
      </g>
    </g>
    <g
       id="g546">
      <desc
         id="desc548">Drawing</desc>
      <g
         id="g550">
        <g
           id="g552"
           style="fill:#000000;stroke:none">
          <path
             d="M 15240,10160 L 14816,9948 L 15028,9736 L 15240,10160 z"
             id="path554" />
        </g>
        <g
           id="g556"
           style="fill:none;stroke:#000000">
          <path
             d="M 12065,6985 L 14985,9905"
             id="path558"
             style="fill:none;stroke-width:75;stroke-dasharray:none" />
        </g>
        <g
           id="g560" />
      </g>
    </g>
    <g
       id="g562">
      <desc
         id="desc564">Drawing</desc>
      <g
         id="g566">
        <g
           id="g568"
           style="fill:#ff0000;stroke:none">
          <path
             d="M 4496,11430 L 4496,11748 L 4445,11748 L 4394,11748 L 4394,11430 L 4445,11430 L 4496,11430 z"
             id="path570" />
          <path
             d="M 4445,11748 L 4496,11748 L 4495,11757 L 4493,11765 L 4489,11773 L 4484,11781 L 4478,11787 L 4471,11792 L 4462,11796 L 4454,11798 L 4445,11799 L 4445,11799 L 4445,11748 z"
             id="path572" />
          <path
             d="M 4445,11799 L 4444,11799 L 4444,11748 L 4444,11697 L 4445,11697 L 4445,11748 L 4445,11799 z"
             id="path574" />
          <path
             d="M 4444,11748 L 4393,11748 L 4394,11739 L 4396,11731 L 4400,11723 L 4405,11715 L 4411,11709 L 4418,11704 L 4427,11700 L 4435,11698 L 4444,11697 L 4444,11697 L 4444,11748 z"
             id="path576" />
          <path
             d="M 4495,11748 L 4495,12065 L 4444,12065 L 4393,12065 L 4393,11748 L 4444,11748 L 4495,11748 z"
             id="path578" />
        </g>
        <g
           id="g580" />
      </g>
    </g>
    <g
       id="g582">
      <desc
         id="desc584">Drawing</desc>
      <g
         id="g586">
        <g
           id="g588"
           style="fill:#ff0000;stroke:none">
          <path
             d="M 10211,11430 L 10211,11748 L 10160,11748 L 10109,11748 L 10109,11430 L 10160,11430 L 10211,11430 z"
             id="path590" />
          <path
             d="M 10160,11748 L 10211,11748 L 10210,11757 L 10208,11765 L 10204,11773 L 10199,11781 L 10193,11787 L 10186,11792 L 10177,11796 L 10169,11798 L 10160,11799 L 10160,11799 L 10160,11748 z"
             id="path592" />
          <path
             d="M 10160,11799 L 10159,11799 L 10159,11748 L 10159,11697 L 10160,11697 L 10160,11748 L 10160,11799 z"
             id="path594" />
          <path
             d="M 10159,11748 L 10108,11748 L 10109,11739 L 10111,11731 L 10115,11723 L 10120,11715 L 10126,11709 L 10133,11704 L 10142,11700 L 10150,11698 L 10159,11697 L 10159,11697 L 10159,11748 z"
             id="path596" />
          <path
             d="M 10210,11748 L 10210,12065 L 10159,12065 L 10108,12065 L 10108,11748 L 10159,11748 L 10210,11748 z"
             id="path598" />
        </g>
        <g
           id="g600" />
      </g>
    </g>
    <g
       id="g602">
      <desc
         id="desc604">Drawing</desc>
      <g
         id="g606">
        <g
           id="g608"
           style="fill:#ff0000;stroke:none">
          <path
             d="M 17196,11430 L 17196,11748 L 17145,11748 L 17094,11748 L 17094,11430 L 17145,11430 L 17196,11430 z"
             id="path610" />
          <path
             d="M 17145,11748 L 17196,11748 L 17195,11757 L 17193,11765 L 17189,11773 L 17184,11781 L 17178,11787 L 17171,11792 L 17162,11796 L 17154,11798 L 17145,11799 L 17145,11799 L 17145,11748 z"
             id="path612" />
          <path
             d="M 17145,11799 L 17144,11799 L 17144,11748 L 17144,11697 L 17145,11697 L 17145,11748 L 17145,11799 z"
             id="path614" />
          <path
             d="M 17144,11748 L 17093,11748 L 17094,11739 L 17096,11731 L 17100,11723 L 17105,11715 L 17111,11709 L 17118,11704 L 17127,11700 L 17135,11698 L 17144,11697 L 17144,11697 L 17144,11748 z"
             id="path616" />
          <path
             d="M 17195,11748 L 17195,12065 L 17144,12065 L 17093,12065 L 17093,11748 L 17144,11748 L 17195,11748 z"
             id="path618" />
        </g>
        <g
           id="g620" />
      </g>
    </g>
  </g>
</svg>
