<?xml version="1.0" encoding="UTF-8" standalone="no"?>
<!-- Created with Inkscape (http://www.inkscape.org/) -->
<svg
   xmlns:dc="http://purl.org/dc/elements/1.1/"
   xmlns:cc="http://creativecommons.org/ns#"
   xmlns:rdf="http://www.w3.org/1999/02/22-rdf-syntax-ns#"
   xmlns:svg="http://www.w3.org/2000/svg"
   xmlns="http://www.w3.org/2000/svg"
   xmlns:sodipodi="http://sodipodi.sourceforge.net/DTD/sodipodi-0.dtd"
   xmlns:inkscape="http://www.inkscape.org/namespaces/inkscape"
   version="1.0"
   width="176.98059"
   height="50.898438"
   id="svg2447"
   xml:space="preserve"
   sodipodi:version="0.32"
   inkscape:version="0.46"
   inkscape:output_extension="org.inkscape.output.svg.inkscape"
   sodipodi:docname="LB_logo_claim_4c.svg"
   inkscape:export-filename="/tmp/LB_logo_claim_4c.png"
   inkscape:export-xdpi="150.01645"
   inkscape:export-ydpi="150.01645"><metadata
     id="metadata2627"><rdf:RDF><cc:Work
         rdf:about=""><dc:format>image/svg+xml</dc:format><dc:type
           rdf:resource="http://purl.org/dc/dcmitype/StillImage" /></cc:Work></rdf:RDF></metadata><sodipodi:namedview
     inkscape:window-height="699"
     inkscape:window-width="640"
     inkscape:pageshadow="2"
     inkscape:pageopacity="0.0"
     guidetolerance="10.0"
     gridtolerance="10.0"
     objecttolerance="10.0"
     borderopacity="1.0"
     bordercolor="#666666"
     pagecolor="#ffffff"
     id="base"
     showgrid="false"
     inkscape:zoom="1.9716649"
     inkscape:cx="73.669181"
     inkscape:cy="81.438832"
     inkscape:window-x="849"
     inkscape:window-y="177"
     inkscape:current-layer="g2458" /><defs
     id="defs2450"><inkscape:perspective
       sodipodi:type="inkscape:persp3d"
       inkscape:vp_x="0 : 25.449219 : 1"
       inkscape:vp_y="0 : 1000 : 0"
       inkscape:vp_z="176.98059 : 25.449219 : 1"
       inkscape:persp3d-origin="88.490295 : 16.966146 : 1"
       id="perspective2629" /></defs><g
     id="g2458"
     transform="matrix(1.25,0,0,1.25,-41.725462,299.59411)"><path
       style="fill:#231f20;fill-opacity:1;fill-rule:nonzero;stroke:none"
       id="path2460"
       d="M 121.17822,-230.77344 C 121.10254,-230.24658 120.84424,-229.79932 120.39795,-229.43262 C 119.95166,-229.06592 119.36377,-228.88477 118.63086,-228.88477 C 118.63086,-228.88477 114.85938,-228.88477 114.85938,-228.88477 C 114.85938,-228.88477 115.39502,-232.70459 115.39502,-232.70459 C 115.39502,-232.70459 118.81738,-232.70459 118.81738,-232.70459 C 119.69531,-232.70459 120.3252,-232.51221 120.7124,-232.13184 C 121.09766,-231.75146 121.25391,-231.29883 121.17822,-230.77344 z M 120.79932,-219.44629 C 120.71533,-218.85791 120.41162,-218.36475 119.88818,-217.96973 C 119.36133,-217.57324 118.62744,-217.37549 117.68848,-217.37549 C 117.68848,-217.37549 113.24023,-217.37549 113.24023,-217.37549 C 113.24023,-217.37549 113.87891,-221.91113 113.87891,-221.91113 C 113.87891,-221.91113 117.97266,-221.91113 117.97266,-221.91113 C 119.00098,-221.91113 119.77344,-221.64795 120.28613,-221.11914 C 120.72119,-220.67822 120.89307,-220.12061 120.79932,-219.44629 z M 130.38184,-227.7002 C 131.49902,-228.95313 132.16797,-230.3916 132.39648,-232.01611 C 132.69727,-234.14111 132.15137,-235.89844 130.76074,-237.28516 C 129.16309,-238.87842 126.66357,-239.67529 123.25391,-239.67529 C 123.25391,-239.67529 105.63916,-239.67529 105.63916,-239.67529 C 105.63916,-239.67529 104.69189,-232.92773 104.69189,-232.92773 C 105.89014,-231.97998 106.66016,-230.51709 106.66016,-228.86963 C 106.66016,-226.70508 105.33252,-224.85352 103.44922,-224.07715 C 103.44922,-224.07715 103.0918,-221.55322 103.0918,-221.55322 C 105.1626,-220.87549 106.66016,-218.93066 106.66016,-216.63281 C 106.66016,-213.8374 104.44385,-211.56396 101.67334,-211.46289 C 101.67334,-211.46289 101.47852,-210.07031 101.47852,-210.07031 C 101.47852,-210.07031 120.50635,-210.07031 120.50635,-210.07031 C 123.76465,-210.07031 126.43164,-210.88135 128.50879,-212.50391 C 130.32227,-213.91797 131.38184,-215.68945 131.67773,-217.81201 C 131.92285,-219.55078 131.58203,-221.09961 130.65723,-222.45605 C 129.66211,-223.93066 128.1543,-224.90381 126.13379,-225.37451 C 127.85059,-225.67139 129.2666,-226.44482 130.38184,-227.7002 z" /><path
       style="fill:#231f20;fill-opacity:1;fill-rule:nonzero;stroke:none"
       id="path2462"
       d="M 141.33545,-230.34961 C 141.33545,-230.34961 142.64502,-239.67529 142.64502,-239.67529 C 142.64502,-239.67529 136.47998,-239.67529 136.47998,-239.67529 C 136.47998,-239.67529 132.31836,-210.07031 132.31836,-210.07031 C 132.31836,-210.07031 144.16211,-210.07031 144.16211,-210.07031 C 144.16211,-210.07031 147.00977,-230.34961 147.00977,-230.34961 C 147.00977,-230.34961 141.33545,-230.34961 141.33545,-230.34961 z" /><path
       style="fill:#231f20;fill-opacity:1;fill-rule:nonzero;stroke:none"
       id="path2464"
       d="M 173.8916,-232.03857 C 173.8916,-232.03857 164.65723,-232.03857 164.65723,-232.03857 C 164.65723,-232.03857 161.5752,-210.07031 161.5752,-210.07031 C 161.5752,-210.07031 149.48828,-210.07031 149.48828,-210.07031 C 149.48828,-210.07031 152.57813,-232.03857 152.57813,-232.03857 C 152.57813,-232.03857 143.2998,-232.03857 143.2998,-232.03857 C 143.2998,-232.03857 144.37305,-239.67529 144.37305,-239.67529 C 144.37305,-239.67529 174.96484,-239.67529 174.96484,-239.67529 C 174.96484,-239.67529 173.8916,-232.03857 173.8916,-232.03857 z" /><path
       style="fill:#231f20;fill-opacity:1;fill-rule:nonzero;stroke:none"
       id="path2466"
       d="M 105.17969,-216.63281 C 105.17969,-214.58838 103.521,-212.92969 101.47852,-212.92969 C 99.43506,-212.92969 97.7793,-214.58838 97.7793,-216.63281 C 97.7793,-218.67676 99.43506,-220.33252 101.47852,-220.33252 C 103.521,-220.33252 105.17969,-218.67676 105.17969,-216.63281 z" /><path
       style="fill:#231f20;fill-opacity:1;fill-rule:nonzero;stroke:none"
       id="path2468"
       d="M 105.17969,-228.86963 C 105.17969,-226.82617 103.521,-225.16797 101.47852,-225.16797 C 99.43506,-225.16797 97.7793,-226.82617 97.7793,-228.86963 C 97.7793,-230.91211 99.43506,-232.5708 101.47852,-232.5708 C 103.521,-232.5708 105.17969,-230.91211 105.17969,-228.86963 z" /><path
       style="fill:#f68712;fill-opacity:1;fill-rule:nonzero;stroke:none"
       id="path2470"
       d="M 96.29688,-216.63281 C 96.29688,-218.97803 97.85742,-220.95801 99.99854,-221.59521 C 99.99854,-221.59521 99.99854,-223.90576 99.99854,-223.90576 C 97.85742,-224.54297 96.29688,-226.52246 96.29688,-228.86963 C 96.29688,-231.21582 97.85742,-233.19629 99.99854,-233.83398 C 99.99854,-233.83398 99.99854,-239.67529 99.99854,-239.67529 C 99.99854,-239.67529 89.91699,-239.67529 89.91699,-239.67529 C 89.91699,-239.67529 89.91699,-223.29492 89.91699,-223.29492 C 89.91699,-223.29492 81.1958,-239.67529 81.1958,-239.67529 C 81.1958,-239.67529 68.4165,-239.67529 68.4165,-239.67529 C 68.4165,-239.67529 68.4165,-210.07031 68.4165,-210.07031 C 68.4165,-210.07031 78.16064,-210.07031 78.16064,-210.07031 C 78.16064,-210.07031 78.16064,-226.09619 78.16064,-226.09619 C 78.16064,-226.09619 86.87891,-210.07031 86.87891,-210.07031 C 86.87891,-210.07031 99.99854,-210.07031 99.99854,-210.07031 C 99.99854,-210.07031 99.99854,-211.66992 99.99854,-211.66992 C 97.85742,-212.30566 96.29688,-214.28467 96.29688,-216.63281 z" /><path
       style="fill:#f68712;fill-opacity:1;fill-rule:nonzero;stroke:none"
       id="path2472"
       d="M 58.30518,-210.07031 C 58.30518,-210.07031 33.38574,-210.07031 33.38574,-210.07031 C 33.38574,-210.07031 33.38574,-239.67529 33.38574,-239.67529 C 33.38574,-239.67529 45.18652,-239.67529 45.18652,-239.67529 C 45.18652,-239.67529 45.18652,-217.37549 45.18652,-217.37549 C 45.18652,-217.37549 58.30518,-217.37549 58.30518,-217.37549 C 58.30518,-217.37549 58.30518,-210.07031 58.30518,-210.07031 z" /><path
       style="fill:#f68712;fill-opacity:1;fill-rule:nonzero;stroke:none"
       id="path2474"
       d="M 54.35889,-239.67529 C 54.35889,-239.67529 54.35889,-219.09961 54.35889,-219.09961 C 54.35889,-219.09961 60.03076,-219.09961 60.03076,-219.09961 C 60.03076,-219.09961 60.03076,-210.07031 60.03076,-210.07031 C 60.03076,-210.07031 66.19922,-210.07031 66.19922,-210.07031 C 66.19922,-210.07031 66.19922,-239.67529 66.19922,-239.67529 C 66.19922,-239.67529 54.35889,-239.67529 54.35889,-239.67529 z" /><path
       style="fill:#231f20;fill-opacity:1;fill-rule:nonzero;stroke:none"
       id="path2476"
       d="M 36.12744,-201.46826 C 36.12744,-201.46826 36.12744,-199.02393 36.12744,-199.02393 C 36.12744,-199.02393 35.37988,-199.02393 35.37988,-199.02393 C 35.37988,-199.02393 35.37988,-201.46826 35.37988,-201.46826 C 35.37988,-201.46826 33.38037,-204.62646 33.38037,-204.62646 C 33.38037,-204.62646 34.2373,-204.62646 34.2373,-204.62646 C 34.2373,-204.62646 35.76611,-202.14893 35.76611,-202.14893 C 35.76611,-202.14893 37.27832,-204.62646 37.27832,-204.62646 C 37.27832,-204.62646 38.11816,-204.62646 38.11816,-204.62646 C 38.11816,-204.62646 36.12744,-201.46826 36.12744,-201.46826 z" /><path
       style="fill:#231f20;fill-opacity:1;fill-rule:nonzero;stroke:none"
       id="path2478"
       d="M 42.40137,-203.56836 C 42.19971,-203.87891 41.85547,-204.00488 41.1582,-204.00488 C 40.46094,-204.00488 40.1084,-203.87061 39.91504,-203.56006 C 39.73047,-203.27441 39.68018,-202.89648 39.68018,-201.82129 C 39.68018,-200.74609 39.73877,-200.36768 39.92334,-200.08252 C 40.1167,-199.77148 40.46973,-199.64551 41.1665,-199.64551 C 41.85547,-199.64551 42.19971,-199.77148 42.40137,-200.08252 C 42.58643,-200.36768 42.64502,-200.75439 42.64502,-201.82959 C 42.64502,-202.90479 42.58643,-203.28271 42.40137,-203.56836 z M 41.1665,-198.95654 C 38.94092,-198.95654 38.94092,-200.14941 38.94092,-201.82959 C 38.94092,-203.50928 38.93213,-204.68555 41.1582,-204.68555 C 43.38428,-204.68555 43.39258,-203.52637 43.39258,-201.83789 C 43.39258,-200.09082 43.34229,-198.95654 41.1665,-198.95654 z" /><path
       style="fill:#231f20;fill-opacity:1;fill-rule:nonzero;stroke:none"
       id="path2480"
       d="M 49.15479,-200.61133 C 49.13818,-200.33447 49.09619,-200.12451 49.02051,-199.93115 C 48.75146,-199.25049 48.06299,-198.95654 47.08838,-198.95654 C 46.11426,-198.95654 45.42529,-199.25049 45.15674,-199.93115 C 45.08105,-200.12451 45.03906,-200.33447 45.02197,-200.61133 C 45.00537,-200.88037 45.00537,-201.25 45.00537,-201.83789 C 45.00537,-201.83789 45.00537,-204.62646 45.00537,-204.62646 C 45.00537,-204.62646 45.75293,-204.62646 45.75293,-204.62646 C 45.75293,-204.62646 45.75293,-201.83789 45.75293,-201.83789 C 45.75293,-201.02295 45.72754,-200.47705 45.88721,-200.14111 C 46.04688,-199.81348 46.3999,-199.63721 47.08838,-199.63721 C 47.78564,-199.63721 48.13867,-199.80518 48.29785,-200.13281 C 48.45752,-200.46045 48.43262,-201.01465 48.43262,-201.83789 C 48.43262,-201.83789 48.43262,-204.62646 48.43262,-204.62646 C 48.43262,-204.62646 49.17188,-204.62646 49.17188,-204.62646 C 49.17188,-204.62646 49.17188,-201.83789 49.17188,-201.83789 C 49.17188,-201.25 49.17188,-200.88037 49.15479,-200.61133 z" /><path
       style="fill:#231f20;fill-opacity:1;fill-rule:nonzero;stroke:none"
       id="path2482"
       d="M 54.08594,-203.70264 C 53.88477,-203.95459 53.59912,-203.95459 52.77539,-203.95459 C 52.77539,-203.95459 51.63281,-203.95459 51.63281,-203.95459 C 51.63281,-203.95459 51.63281,-202.12354 51.63281,-202.12354 C 51.63281,-202.12354 52.82568,-202.12354 52.82568,-202.12354 C 53.22949,-202.12354 53.69971,-202.08984 53.94336,-202.21582 C 54.11963,-202.30811 54.2627,-202.52686 54.2627,-203.02246 C 54.2627,-203.3667 54.18701,-203.57666 54.08594,-203.70264 z M 54.271,-199.02393 C 54.271,-199.02393 54.271,-200.43506 54.271,-200.43506 C 54.271,-200.90576 54.271,-201.14063 54.06104,-201.30029 C 53.85107,-201.45166 53.47314,-201.44287 52.76709,-201.44287 C 52.76709,-201.44287 51.63281,-201.44287 51.63281,-201.44287 C 51.63281,-201.44287 51.63281,-199.02393 51.63281,-199.02393 C 51.63281,-199.02393 50.88525,-199.02393 50.88525,-199.02393 C 50.88525,-199.02393 50.88525,-204.62646 50.88525,-204.62646 C 50.88525,-204.62646 52.79199,-204.62646 52.79199,-204.62646 C 54.09473,-204.62646 54.99316,-204.60156 54.99316,-203.03076 C 54.99316,-202.37549 54.81689,-201.97217 54.40527,-201.8042 C 55.06885,-201.60254 54.99316,-200.87207 54.99316,-200.41016 C 54.99316,-200.41016 54.99316,-199.02393 54.99316,-199.02393 C 54.99316,-199.02393 54.271,-199.02393 54.271,-199.02393 z" /><path
       style="fill:#231f20;fill-opacity:1;fill-rule:nonzero;stroke:none"
       id="path2484"
       d="M 65.12012,-199.02393 C 65.12012,-199.02393 64.33057,-199.02393 64.33057,-199.02393 C 64.33057,-199.02393 63.0791,-203.60205 63.0791,-203.60205 C 63.0791,-203.60205 61.83594,-199.02393 61.83594,-199.02393 C 61.83594,-199.02393 61.0127,-199.02393 61.0127,-199.02393 C 61.0127,-199.02393 59.66846,-204.62646 59.66846,-204.62646 C 59.66846,-204.62646 60.4248,-204.62646 60.4248,-204.62646 C 60.4248,-204.62646 61.47461,-200.14111 61.47461,-200.14111 C 61.47461,-200.14111 62.69238,-204.62646 62.69238,-204.62646 C 62.69238,-204.62646 63.48242,-204.62646 63.48242,-204.62646 C 63.48242,-204.62646 64.69189,-200.14111 64.69189,-200.14111 C 64.69189,-200.14111 65.75879,-204.62646 65.75879,-204.62646 C 65.75879,-204.62646 66.48926,-204.62646 66.48926,-204.62646 C 66.48926,-204.62646 65.12012,-199.02393 65.12012,-199.02393 z" /><path
       style="fill:#231f20;fill-opacity:1;fill-rule:nonzero;stroke:none"
       id="path2486"
       d="M 69.46143,-203.72803 C 69.46143,-203.72803 68.5293,-201.21631 68.5293,-201.21631 C 68.5293,-201.21631 70.39404,-201.21631 70.39404,-201.21631 C 70.39404,-201.21631 69.46143,-203.72803 69.46143,-203.72803 z M 71.2002,-199.02393 C 71.2002,-199.02393 70.62939,-200.56934 70.62939,-200.56934 C 70.62939,-200.56934 68.28564,-200.56934 68.28564,-200.56934 C 68.28564,-200.56934 67.72266,-199.02393 67.72266,-199.02393 C 67.72266,-199.02393 66.94141,-199.02393 66.94141,-199.02393 C 66.94141,-199.02393 69.10889,-204.62646 69.10889,-204.62646 C 69.10889,-204.62646 69.85645,-204.62646 69.85645,-204.62646 C 69.85645,-204.62646 72.01514,-199.02393 72.01514,-199.02393 C 72.01514,-199.02393 71.2002,-199.02393 71.2002,-199.02393 z" /><path
       style="fill:#231f20;fill-opacity:1;fill-rule:nonzero;stroke:none"
       id="path2488"
       d="M 74.62744,-201.46826 C 74.62744,-201.46826 74.62744,-199.02393 74.62744,-199.02393 C 74.62744,-199.02393 73.87988,-199.02393 73.87988,-199.02393 C 73.87988,-199.02393 73.87988,-201.46826 73.87988,-201.46826 C 73.87988,-201.46826 71.88037,-204.62646 71.88037,-204.62646 C 71.88037,-204.62646 72.7373,-204.62646 72.7373,-204.62646 C 72.7373,-204.62646 74.26611,-202.14893 74.26611,-202.14893 C 74.26611,-202.14893 75.77832,-204.62646 75.77832,-204.62646 C 75.77832,-204.62646 76.61816,-204.62646 76.61816,-204.62646 C 76.61816,-204.62646 74.62744,-201.46826 74.62744,-201.46826 z" /><path
       style="fill:#231f20;fill-opacity:1;fill-rule:nonzero;stroke:none"
       id="path2490"
       d="M 82.98193,-203.96289 C 82.98193,-203.96289 82.98193,-199.02393 82.98193,-199.02393 C 82.98193,-199.02393 82.23438,-199.02393 82.23438,-199.02393 C 82.23438,-199.02393 82.23438,-203.96289 82.23438,-203.96289 C 82.23438,-203.96289 80.4873,-203.96289 80.4873,-203.96289 C 80.4873,-203.96289 80.4873,-204.62646 80.4873,-204.62646 C 80.4873,-204.62646 84.729,-204.62646 84.729,-204.62646 C 84.729,-204.62646 84.729,-203.96289 84.729,-203.96289 C 84.729,-203.96289 82.98193,-203.96289 82.98193,-203.96289 z" /><path
       style="fill:#231f20;fill-opacity:1;fill-rule:nonzero;stroke:none"
       id="path2492"
       d="M 89.09521,-203.56836 C 88.89355,-203.87891 88.54932,-204.00488 87.85205,-204.00488 C 87.15479,-204.00488 86.80225,-203.87061 86.60889,-203.56006 C 86.42432,-203.27441 86.37402,-202.89648 86.37402,-201.82129 C 86.37402,-200.74609 86.43262,-200.36768 86.61719,-200.08252 C 86.81055,-199.77148 87.16357,-199.64551 87.86035,-199.64551 C 88.54932,-199.64551 88.89355,-199.77148 89.09521,-200.08252 C 89.28027,-200.36768 89.33887,-200.75439 89.33887,-201.82959 C 89.33887,-202.90479 89.28027,-203.28271 89.09521,-203.56836 z M 87.86035,-198.95654 C 85.63477,-198.95654 85.63477,-200.14941 85.63477,-201.82959 C 85.63477,-203.50928 85.62598,-204.68555 87.85205,-204.68555 C 90.07813,-204.68555 90.08643,-203.52637 90.08643,-201.83789 C 90.08643,-200.09082 90.03613,-198.95654 87.86035,-198.95654 z" /><path
       style="fill:#231f20;fill-opacity:1;fill-rule:nonzero;stroke:none"
       id="path2494"
       d="M 98.46582,-199.02393 C 98.46582,-199.02393 98.46582,-201.56055 98.46582,-201.56055 C 98.46582,-201.56055 95.84521,-201.56055 95.84521,-201.56055 C 95.84521,-201.56055 95.84521,-199.02393 95.84521,-199.02393 C 95.84521,-199.02393 95.09766,-199.02393 95.09766,-199.02393 C 95.09766,-199.02393 95.09766,-204.62646 95.09766,-204.62646 C 95.09766,-204.62646 95.84521,-204.62646 95.84521,-204.62646 C 95.84521,-204.62646 95.84521,-202.23291 95.84521,-202.23291 C 95.84521,-202.23291 98.46582,-202.23291 98.46582,-202.23291 C 98.46582,-202.23291 98.46582,-204.62646 98.46582,-204.62646 C 98.46582,-204.62646 99.20508,-204.62646 99.20508,-204.62646 C 99.20508,-204.62646 99.20508,-199.02393 99.20508,-199.02393 C 99.20508,-199.02393 98.46582,-199.02393 98.46582,-199.02393 z" /><path
       style="fill:#231f20;fill-opacity:1;fill-rule:nonzero;stroke:none"
       id="path2496"
       d="M 100.96924,-199.02393 C 100.96924,-199.02393 100.96924,-204.62646 100.96924,-204.62646 C 100.96924,-204.62646 101.7168,-204.62646 101.7168,-204.62646 C 101.7168,-204.62646 101.7168,-199.02393 101.7168,-199.02393 C 101.7168,-199.02393 100.96924,-199.02393 100.96924,-199.02393 z" /><path
       style="fill:#231f20;fill-opacity:1;fill-rule:nonzero;stroke:none"
       id="path2498"
       d="M 107.15186,-199.02393 C 107.15186,-199.02393 107.15186,-199.52783 107.15186,-199.52783 C 106.72314,-199.05762 106.11035,-198.95654 105.47168,-198.95654 C 103.39697,-198.95654 103.38037,-200.19971 103.38037,-201.82129 C 103.38037,-203.52637 103.38867,-204.68555 105.67334,-204.68555 C 106.9502,-204.68555 107.76514,-204.32422 107.76514,-203.11475 C 107.76514,-203.11475 107.02588,-203.11475 107.02588,-203.11475 C 107.02588,-203.78662 106.66455,-203.99658 105.59766,-203.99658 C 104.11084,-203.99658 104.12793,-203.33301 104.12793,-201.82129 C 104.12793,-200.29248 104.14453,-199.64551 105.56396,-199.64551 C 107.03418,-199.64551 107.05078,-200.37646 107.05957,-201.57764 C 107.05957,-201.57764 105.49707,-201.57764 105.49707,-201.57764 C 105.49707,-201.57764 105.49707,-202.23291 105.49707,-202.23291 C 105.49707,-202.23291 107.76514,-202.23291 107.76514,-202.23291 C 107.76514,-202.23291 107.76514,-199.02393 107.76514,-199.02393 C 107.76514,-199.02393 107.15186,-199.02393 107.15186,-199.02393 z" /><path
       style="fill:#231f20;fill-opacity:1;fill-rule:nonzero;stroke:none"
       id="path2500"
       d="M 112.83008,-199.02393 C 112.83008,-199.02393 112.83008,-201.56055 112.83008,-201.56055 C 112.83008,-201.56055 110.20947,-201.56055 110.20947,-201.56055 C 110.20947,-201.56055 110.20947,-199.02393 110.20947,-199.02393 C 110.20947,-199.02393 109.46191,-199.02393 109.46191,-199.02393 C 109.46191,-199.02393 109.46191,-204.62646 109.46191,-204.62646 C 109.46191,-204.62646 110.20947,-204.62646 110.20947,-204.62646 C 110.20947,-204.62646 110.20947,-202.23291 110.20947,-202.23291 C 110.20947,-202.23291 112.83008,-202.23291 112.83008,-202.23291 C 112.83008,-202.23291 112.83008,-204.62646 112.83008,-204.62646 C 112.83008,-204.62646 113.56934,-204.62646 113.56934,-204.62646 C 113.56934,-204.62646 113.56934,-199.02393 113.56934,-199.02393 C 113.56934,-199.02393 112.83008,-199.02393 112.83008,-199.02393 z" /><path
       style="fill:#231f20;fill-opacity:1;fill-rule:nonzero;stroke:none"
       id="path2502"
       d="M 120.59619,-203.72803 C 120.59619,-203.72803 119.66406,-201.21631 119.66406,-201.21631 C 119.66406,-201.21631 121.52881,-201.21631 121.52881,-201.21631 C 121.52881,-201.21631 120.59619,-203.72803 120.59619,-203.72803 z M 122.33496,-199.02393 C 122.33496,-199.02393 121.76416,-200.56934 121.76416,-200.56934 C 121.76416,-200.56934 119.42041,-200.56934 119.42041,-200.56934 C 119.42041,-200.56934 118.85742,-199.02393 118.85742,-199.02393 C 118.85742,-199.02393 118.07617,-199.02393 118.07617,-199.02393 C 118.07617,-199.02393 120.24365,-204.62646 120.24365,-204.62646 C 120.24365,-204.62646 120.99121,-204.62646 120.99121,-204.62646 C 120.99121,-204.62646 123.1499,-199.02393 123.1499,-199.02393 C 123.1499,-199.02393 122.33496,-199.02393 122.33496,-199.02393 z" /><path
       style="fill:#231f20;fill-opacity:1;fill-rule:nonzero;stroke:none"
       id="path2504"
       d="M 126.08838,-199.02393 C 126.08838,-199.02393 125.36572,-199.02393 125.36572,-199.02393 C 125.36572,-199.02393 123.28271,-204.62646 123.28271,-204.62646 C 123.28271,-204.62646 124.07227,-204.62646 124.07227,-204.62646 C 124.07227,-204.62646 125.74365,-200.02344 125.74365,-200.02344 C 125.74365,-200.02344 127.41553,-204.62646 127.41553,-204.62646 C 127.41553,-204.62646 128.19678,-204.62646 128.19678,-204.62646 C 128.19678,-204.62646 126.08838,-199.02393 126.08838,-199.02393 z" /><path
       style="fill:#231f20;fill-opacity:1;fill-rule:nonzero;stroke:none"
       id="path2506"
       d="M 130.84863,-203.72803 C 130.84863,-203.72803 129.9165,-201.21631 129.9165,-201.21631 C 129.9165,-201.21631 131.78125,-201.21631 131.78125,-201.21631 C 131.78125,-201.21631 130.84863,-203.72803 130.84863,-203.72803 z M 132.5874,-199.02393 C 132.5874,-199.02393 132.0166,-200.56934 132.0166,-200.56934 C 132.0166,-200.56934 129.67285,-200.56934 129.67285,-200.56934 C 129.67285,-200.56934 129.10986,-199.02393 129.10986,-199.02393 C 129.10986,-199.02393 128.32861,-199.02393 128.32861,-199.02393 C 128.32861,-199.02393 130.49609,-204.62646 130.49609,-204.62646 C 130.49609,-204.62646 131.24365,-204.62646 131.24365,-204.62646 C 131.24365,-204.62646 133.40234,-199.02393 133.40234,-199.02393 C 133.40234,-199.02393 132.5874,-199.02393 132.5874,-199.02393 z" /><path
       style="fill:#231f20;fill-opacity:1;fill-rule:nonzero;stroke:none"
       id="path2508"
       d="M 134.56152,-199.02393 C 134.56152,-199.02393 134.56152,-204.62646 134.56152,-204.62646 C 134.56152,-204.62646 135.30908,-204.62646 135.30908,-204.62646 C 135.30908,-204.62646 135.30908,-199.02393 135.30908,-199.02393 C 135.30908,-199.02393 134.56152,-199.02393 134.56152,-199.02393 z" /><path
       style="fill:#231f20;fill-opacity:1;fill-rule:nonzero;stroke:none"
       id="path2510"
       d="M 137.07275,-199.02393 C 137.07275,-199.02393 137.07275,-204.62646 137.07275,-204.62646 C 137.07275,-204.62646 137.82031,-204.62646 137.82031,-204.62646 C 137.82031,-204.62646 137.82031,-199.6958 137.82031,-199.6958 C 137.82031,-199.6958 140.66797,-199.6958 140.66797,-199.6958 C 140.66797,-199.6958 140.66797,-199.02393 140.66797,-199.02393 C 140.66797,-199.02393 137.07275,-199.02393 137.07275,-199.02393 z" /><path
       style="fill:#231f20;fill-opacity:1;fill-rule:nonzero;stroke:none"
       id="path2512"
       d="M 144.00977,-203.72803 C 144.00977,-203.72803 143.07813,-201.21631 143.07813,-201.21631 C 143.07813,-201.21631 144.94336,-201.21631 144.94336,-201.21631 C 144.94336,-201.21631 144.00977,-203.72803 144.00977,-203.72803 z M 145.74902,-199.02393 C 145.74902,-199.02393 145.17773,-200.56934 145.17773,-200.56934 C 145.17773,-200.56934 142.83447,-200.56934 142.83447,-200.56934 C 142.83447,-200.56934 142.27148,-199.02393 142.27148,-199.02393 C 142.27148,-199.02393 141.49023,-199.02393 141.49023,-199.02393 C 141.49023,-199.02393 143.6582,-204.62646 143.6582,-204.62646 C 143.6582,-204.62646 144.40527,-204.62646 144.40527,-204.62646 C 144.40527,-204.62646 146.56445,-199.02393 146.56445,-199.02393 C 146.56445,-199.02393 145.74902,-199.02393 145.74902,-199.02393 z" /><path
       style="fill:#231f20;fill-opacity:1;fill-rule:nonzero;stroke:none"
       id="path2514"
       d="M 149.64648,-201.56055 C 149.64648,-201.56055 148.46191,-201.56055 148.46191,-201.56055 C 148.46191,-201.56055 148.46191,-199.6958 148.46191,-199.6958 C 148.46191,-199.6958 149.64648,-199.6958 149.64648,-199.6958 C 150.5625,-199.6958 151.1416,-199.60352 151.1416,-200.62012 C 151.1416,-201.61963 150.66211,-201.56055 149.64648,-201.56055 z M 149.60449,-203.95459 C 149.60449,-203.95459 148.46191,-203.95459 148.46191,-203.95459 C 148.46191,-203.95459 148.46191,-202.23291 148.46191,-202.23291 C 148.46191,-202.23291 149.66309,-202.23291 149.66309,-202.23291 C 150.54492,-202.23291 151.09082,-202.13184 151.09961,-203.09814 C 151.09961,-204.01367 150.5957,-203.95459 149.60449,-203.95459 z M 149.71289,-199.02393 C 149.71289,-199.02393 147.72266,-199.02393 147.72266,-199.02393 C 147.72266,-199.02393 147.72266,-204.62646 147.72266,-204.62646 C 147.72266,-204.62646 149.66309,-204.62646 149.66309,-204.62646 C 150.78027,-204.62646 151.83887,-204.71094 151.83887,-203.21533 C 151.83887,-202.57715 151.6875,-202.08984 151.27539,-201.91357 C 151.7793,-201.68652 151.88086,-201.20801 151.88086,-200.63672 C 151.88086,-198.97363 150.77148,-199.02393 149.71289,-199.02393 z" /><path
       style="fill:#231f20;fill-opacity:1;fill-rule:nonzero;stroke:none"
       id="path2516"
       d="M 153.54395,-199.02393 C 153.54395,-199.02393 153.54395,-204.62646 153.54395,-204.62646 C 153.54395,-204.62646 154.29102,-204.62646 154.29102,-204.62646 C 154.29102,-204.62646 154.29102,-199.02393 154.29102,-199.02393 C 154.29102,-199.02393 153.54395,-199.02393 153.54395,-199.02393 z" /><path
       style="fill:#231f20;fill-opacity:1;fill-rule:nonzero;stroke:none"
       id="path2518"
       d="M 156.05566,-199.02393 C 156.05566,-199.02393 156.05566,-204.62646 156.05566,-204.62646 C 156.05566,-204.62646 156.80273,-204.62646 156.80273,-204.62646 C 156.80273,-204.62646 156.80273,-199.6958 156.80273,-199.6958 C 156.80273,-199.6958 159.65039,-199.6958 159.65039,-199.6958 C 159.65039,-199.6958 159.65039,-199.02393 159.65039,-199.02393 C 159.65039,-199.02393 156.05566,-199.02393 156.05566,-199.02393 z" /><path
       style="fill:#231f20;fill-opacity:1;fill-rule:nonzero;stroke:none"
       id="path2520"
       d="M 160.77637,-199.02393 C 160.77637,-199.02393 160.77637,-204.62646 160.77637,-204.62646 C 160.77637,-204.62646 161.52344,-204.62646 161.52344,-204.62646 C 161.52344,-204.62646 161.52344,-199.02393 161.52344,-199.02393 C 161.52344,-199.02393 160.77637,-199.02393 160.77637,-199.02393 z" /><path
       style="fill:#231f20;fill-opacity:1;fill-rule:nonzero;stroke:none"
       id="path2522"
       d="M 165.22852,-203.96289 C 165.22852,-203.96289 165.22852,-199.02393 165.22852,-199.02393 C 165.22852,-199.02393 164.48047,-199.02393 164.48047,-199.02393 C 164.48047,-199.02393 164.48047,-203.96289 164.48047,-203.96289 C 164.48047,-203.96289 162.7334,-203.96289 162.7334,-203.96289 C 162.7334,-203.96289 162.7334,-204.62646 162.7334,-204.62646 C 162.7334,-204.62646 166.97461,-204.62646 166.97461,-204.62646 C 166.97461,-204.62646 166.97461,-203.96289 166.97461,-203.96289 C 166.97461,-203.96289 165.22852,-203.96289 165.22852,-203.96289 z" /><path
       style="fill:#231f20;fill-opacity:1;fill-rule:nonzero;stroke:none"
       id="path2524"
       d="M 170.54492,-201.46826 C 170.54492,-201.46826 170.54492,-199.02393 170.54492,-199.02393 C 170.54492,-199.02393 169.79688,-199.02393 169.79688,-199.02393 C 169.79688,-199.02393 169.79688,-201.46826 169.79688,-201.46826 C 169.79688,-201.46826 167.79688,-204.62646 167.79688,-204.62646 C 167.79688,-204.62646 168.6543,-204.62646 168.6543,-204.62646 C 168.6543,-204.62646 170.18359,-202.14893 170.18359,-202.14893 C 170.18359,-202.14893 171.69531,-204.62646 171.69531,-204.62646 C 171.69531,-204.62646 172.53516,-204.62646 172.53516,-204.62646 C 172.53516,-204.62646 170.54492,-201.46826 170.54492,-201.46826 z" /></g><path
     style="fill:#fa8522;fill-opacity:1;stroke:#fa8522;stroke-width:0.25359279;stroke-miterlimit:4;stroke-dasharray:1.01437116, 0.25359279;stroke-dashoffset:0;stroke-opacity:1"
     d="M 0.21592829,18.394495 L 0.21592829,0.0090177301 L 7.4433228,0.0090177301 L 14.670717,0.0090177301 L 14.670717,13.956621 L 14.670717,27.904225 L 22.912483,27.904225 L 31.154249,27.904225 L 31.154249,32.342098 L 31.154249,36.779972 L 15.685088,36.779972 L 0.21592829,36.779972 L 0.21592829,18.394495 z"
     id="path2631" /><path
     style="fill:#fa8522;fill-opacity:1;stroke:#fa8522;stroke-width:0.25359279;stroke-miterlimit:4;stroke-dasharray:1.01437116, 0.25359279;stroke-dashoffset:0;stroke-opacity:1"
     d="M 33.436584,31.200931 L 33.436584,25.621889 L 29.886285,25.621889 L 26.335986,25.621889 L 26.335986,12.815454 L 26.335986,0.0090177301 L 33.56338,0.0090177301 L 40.790775,0.0090177301 L 40.790775,18.394495 L 40.790775,36.779972 L 37.113679,36.779972 L 33.436584,36.779972 L 33.436584,31.200931 z"
     id="path2633" /><path
     style="fill:#fa8522;fill-opacity:1;stroke:#fa8522;stroke-width:0.25359279;stroke-miterlimit:4;stroke-dasharray:1.01437116, 0.25359279;stroke-dashoffset:0;stroke-opacity:1"
     d="M 43.833888,18.394495 L 43.833888,0.0090177301 L 51.758663,0.013762451 L 59.683437,0.018504636 L 65.135682,10.281808 L 70.587927,20.545111 L 70.654173,10.277066 L 70.720412,0.0090177301 L 76.930595,0.0090177301 L 83.14077,0.0090177301 L 83.14077,3.6613017 L 83.14077,7.3135932 L 82.439977,7.5578918 C 81.38975,7.9240012 80.171785,9.0487942 79.395304,10.369653 C 78.807402,11.369719 78.702897,11.834547 78.702897,13.449436 C 78.702897,14.778503 78.841635,15.630156 79.163505,16.276909 C 79.748815,17.453022 81.166657,18.876273 82.278641,19.403944 C 83.097107,19.792331 83.140585,19.879879 83.137116,21.132516 C 83.133469,22.448701 83.130376,22.453681 81.89173,23.13668 C 78.421218,25.050345 77.526627,29.667268 79.998411,32.907948 C 80.356783,33.377797 81.208776,34.070331 81.89173,34.446919 C 82.982704,35.048491 83.133906,35.23211 83.137116,35.959308 L 83.14077,36.786999 L 74.965613,36.720086 L 66.790451,36.653176 L 61.461797,26.830442 C 58.531033,21.427936 56.047551,17.005912 55.942944,17.003719 C 55.838337,17.001525 55.752749,21.450288 55.752749,26.889853 L 55.752749,36.779972 L 49.793319,36.779972 L 43.833888,36.779972 L 43.833888,18.394495 z"
     id="path2635" /></svg>