<?xml version="1.0" encoding="iso-8859-1"?>
<!-- Generator: Adobe Illustrator 12.0.0, SVG Export Plug-In . SVG Version: 6.00 Build 51448)  -->
<!DOCTYPE svg PUBLIC "-//W3C//DTD SVG 1.1//EN" "http://www.w3.org/Graphics/SVG/1.1/DTD/svg11.dtd" [
	<!ENTITY ns_svg "http://www.w3.org/2000/svg">
	<!ENTITY ns_xlink "http://www.w3.org/1999/xlink">
]>
<svg  version="1.1" id="Ebene_1" xmlns="&ns_svg;" xmlns:xlink="&ns_xlink;" width="283.104" height="72.45"
	 viewBox="0 0 283.104 72.45" style="overflow:visible;enable-background:new 0 0 283.104 72.45;" xml:space="preserve">
<g>
	<path d="M125.26,26.891c0,4.971,4.029,9,9,9c4.97,0,9-4.029,9-9c0-4.971-4.03-9-9-9C129.289,17.891,125.26,21.92,125.26,26.891z
		 M143.26,56.391c0-4.971-4.03-9-9-9c-4.971,0-9,4.029-9,9c0,4.971,4.029,9,9,9C139.23,65.391,143.26,61.362,143.26,56.391z
		 M266.064,9.687c-5.572-6.411-14.82-9.661-27.487-9.661h-31.656l-0.181,1.291l-0.362,2.576c0.099,0.108,0.208,0.21,0.304,0.32
		v0.001h0.001c1.8,2.072,3.049,4.504,3.713,7.231c0.628,2.577,0.729,5.43,0.3,8.48c-0.684,4.865-3.067,9.602-6.734,13.558
		c4.026,4.26,5.858,10.441,4.898,17.273c-1.214,8.645-5.195,15.238-11.823,19.607l-0.226,1.607h31.501
		c25.211,0,39.753-12.516,43.222-37.199C273.043,24.037,271.202,15.598,266.064,9.687z M245.721,35.597
		c-1.657,11.793-7.203,17.286-17.453,17.286h-3.077l4.746-33.77h3.019c5.889,0,9.341,0.951,11.194,3.083
		C246.178,24.531,246.677,28.789,245.721,35.597z M204.405,50.13c0.143-1.016,0.211-2.006,0.21-2.967
		c-0.008-4.272-1.413-7.959-3.946-10.618c-0.043-0.045-0.087-0.091-0.131-0.136c-1.038-1.059-2.258-1.948-3.644-2.64
		c5.15-3.765,8.579-9.009,9.347-14.471c0.148-1.052,0.22-2.064,0.218-3.035c-0.01-3.631-1.072-6.681-3.172-9.098
		c-4.042-4.649-11.907-6.909-24.045-6.909h-34.345l-0.181,1.291l-2.258,16.065c2.57,2.273,4.202,5.585,4.202,9.278
		c0,4.931-2.9,9.186-7.077,11.182l-0.946,6.73c4.681,1.775,8.023,6.292,8.023,11.587c0,6.496-5.023,11.831-11.388,12.349
		l-0.246,1.752l-0.24,1.709h35.439C191.138,72.201,202.319,64.982,204.405,50.13z M179.614,47.856
		c-0.534,3.618-3.248,5.028-9.677,5.028h-8.254l1.368-9.735h5.939c4.48,0,8.621,0.13,10.055,1.698
		c0.432,0.472,0.646,1.128,0.649,1.991C179.695,47.149,179.668,47.489,179.614,47.856z M180.824,22.864
		c-0.642,4.279-5.557,4.741-7.64,4.741h-7.948l1.193-8.491h6.941c2.64,0,5.925,0,7.013,1.17c0.34,0.367,0.513,0.918,0.516,1.646
		C180.899,22.214,180.875,22.526,180.824,22.864z"/>
	<g id="XMLID_2_">
		<g>
			<path style="fill:#EF842C;" d="M131.67,70.69v1.51h-23.14l-0.36-0.97c-0.76-2.02-1.25-6.96-1.25-12.6
				c0-8.35-1.04-10.47-10.6-10.47H90.9V72.2H65.23v-8.3c5.96-7.02,8.99-16.79,8.99-29.11c0-6.07-0.93-11.58-2.76-16.39
				c-1.49-3.9-3.58-7.35-6.23-10.31V0.25h34.16c19.25,0,28.88,4.37,31.43,14.74c-5.17,1.49-8.96,6.26-8.96,11.9
				c0,3.56,1.52,6.77,3.94,9.04c-0.99,0.89-2.09,1.67-3.32,2.31c3.28,1.46,5.75,3.23,7.28,6.61c-4.61,1.8-7.9,6.29-7.9,11.54
				c0,5.95,4.21,10.92,9.8,12.12C131.67,69.82,131.67,70.69,131.67,70.69z M98.33,30.03c8.14,0,9.26-2.4,9.26-5.01
				c0-4.94-4.78-5.68-7.62-5.68H90.9v10.69H98.33z"/>
		</g>
		<g>
		</g>
	</g>
	<g id="XMLID_1_">
		<g>
			<path style="fill:#EF842C;" d="M69.72,34.79c0,24.82-12.85,37.41-38.19,37.41H0.25V0.25H32.1C56.36,0.25,69.72,12.52,69.72,34.79
				z M30.42,53.09c9.29-0.43,13.63-5.87,13.63-17.05c0-14.29-4.72-16.7-15.31-16.7h-2.82v33.77h3.3
				C29.63,53.11,30.03,53.1,30.42,53.09z"/>
		</g>
		<g>
		</g>
	</g>
</g>
<g>
	<path d="M276.484,0.697c0.906,0,1.764,0.164,2.568,0.492c0.805,0.328,1.52,0.806,2.146,1.432c0.607,0.615,1.078,1.327,1.408,2.135
		s0.496,1.657,0.496,2.547c0,0.902-0.162,1.747-0.487,2.534c-0.325,0.788-0.798,1.483-1.417,2.086
		c-0.65,0.632-1.382,1.12-2.195,1.462c-0.813,0.343-1.653,0.514-2.52,0.514c-0.872,0-1.703-0.167-2.493-0.5s-1.505-0.82-2.142-1.458
		c-0.633-0.626-1.115-1.338-1.449-2.134c-0.334-0.797-0.5-1.631-0.5-2.504c0-0.884,0.168-1.73,0.504-2.539
		c0.338-0.808,0.824-1.535,1.463-2.179c0.602-0.615,1.299-1.083,2.089-1.406C274.746,0.858,275.589,0.697,276.484,0.697z
		 M281.744,7.299c0-0.701-0.131-1.371-0.395-2.007s-0.641-1.201-1.131-1.692c-0.508-0.508-1.076-0.893-1.705-1.153
		c-0.629-0.26-1.299-0.39-2.012-0.39c-0.719,0-1.391,0.127-2.016,0.381c-0.626,0.254-1.182,0.63-1.666,1.126
		c-0.503,0.508-0.889,1.084-1.158,1.727c-0.268,0.643-0.402,1.312-0.402,2.007c0,0.696,0.133,1.36,0.398,1.995
		c0.266,0.634,0.647,1.199,1.145,1.696c0.502,0.502,1.068,0.887,1.701,1.152c0.631,0.266,1.297,0.399,1.998,0.399
		c0.695,0,1.363-0.134,2.003-0.403c0.64-0.269,1.218-0.658,1.731-1.166c0.496-0.485,0.872-1.039,1.127-1.661
		C281.617,8.688,281.744,8.018,281.744,7.299z M276.574,3.588c1.014,0,1.789,0.179,2.322,0.537s0.801,0.879,0.801,1.565
		c0,0.457-0.127,0.853-0.379,1.187c-0.252,0.334-0.605,0.581-1.063,0.739l1.564,3.097h-2.453l-1.251-2.719H275.9v2.719h-2.25V3.588
		H276.574z M276.236,4.979H275.9v1.703h0.467c0.332,0,0.586-0.074,0.758-0.22c0.174-0.147,0.26-0.362,0.26-0.645
		c0-0.288-0.092-0.5-0.275-0.635C276.924,5.046,276.635,4.979,276.236,4.979z"/>
</g>
</svg>
