<?xml version="1.0" encoding="UTF-8" standalone="no"?>
<!-- Generator: Adobe Illustrator 12.0.0, SVG Export Plug-In . SVG Version: 6.00 Build 51448)  -->

<svg
   xmlns:dc="http://purl.org/dc/elements/1.1/"
   xmlns:cc="http://creativecommons.org/ns#"
   xmlns:rdf="http://www.w3.org/1999/02/22-rdf-syntax-ns#"
   xmlns:svg="http://www.w3.org/2000/svg"
   xmlns="http://www.w3.org/2000/svg"
   xmlns:sodipodi="http://sodipodi.sourceforge.net/DTD/sodipodi-0.dtd"
   xmlns:inkscape="http://www.inkscape.org/namespaces/inkscape"
   version="1.0"
   id="Ebene_1"
   width="333.21597"
   height="76.985596"
   viewBox="0 0 318.77 72.45"
   style="overflow:visible"
   xml:space="preserve"
   sodipodi:version="0.32"
   inkscape:version="0.92.1 r15371"
   sodipodi:docname="drbd-plus-logo.svg"
   inkscape:output_extension="org.inkscape.output.svg.inkscape"><metadata
     id="metadata2202"><rdf:RDF><cc:Work
         rdf:about=""><dc:format>image/svg+xml</dc:format><dc:type
           rdf:resource="http://purl.org/dc/dcmitype/StillImage" /></cc:Work></rdf:RDF></metadata><defs
     id="defs2200" /><sodipodi:namedview
     inkscape:window-height="534"
     inkscape:window-width="1046"
     inkscape:pageshadow="2"
     inkscape:pageopacity="0.0"
     guidetolerance="10.0"
     gridtolerance="10.0"
     objecttolerance="10.0"
     borderopacity="1.0"
     bordercolor="#666666"
     pagecolor="#ffffff"
     id="base"
     showgrid="false"
     inkscape:zoom="1.7706234"
     inkscape:cx="166.60799"
     inkscape:cy="38.492798"
     inkscape:window-x="0"
     inkscape:window-y="955"
     inkscape:window-maximized="0"
     inkscape:current-layer="Ebene_1" /><g
     id="XMLID_6_"
     transform="translate(-0.2500012,-0.026)"><g
       id="g2184"><path
         style="fill:#ef8213"
         d="m 131.67,70.69 v 1.51 h -23.14 l -0.36,-0.97 c -0.76,-2.02 -1.25,-6.96 -1.25,-12.6 0,-8.35 -1.04,-10.47 -10.6,-10.47 H 90.9 V 72.2 H 65.23 V 63.9 C 71.19,56.88 74.22,47.11 74.22,34.79 74.22,28.72 73.29,23.21 71.46,18.4 69.97,14.5 67.88,11.05 65.23,8.09 V 0.25 h 34.16 c 19.25,0 28.88,4.37 31.43,14.74 -5.17,1.49 -8.96,6.26 -8.96,11.9 0,3.56 1.52,6.77 3.94,9.04 -0.99,0.89 -2.09,1.67 -3.32,2.31 3.28,1.46 5.75,3.23 7.28,6.61 -4.61,1.8 -7.9,6.29 -7.9,11.54 0,5.95 4.21,10.92 9.8,12.12 0.01,1.31 0.01,2.18 0.01,2.18 z M 98.33,30.03 c 8.14,0 9.26,-2.4 9.26,-5.01 0,-4.94 -4.78,-5.68 -7.62,-5.68 H 90.9 v 10.69 z"
         id="path2186"
         inkscape:connector-curvature="0" /></g><g
       id="g2188" /></g><g
     id="XMLID_5_"
     transform="translate(-0.2500012,-0.026)"><g
       id="g2191"><path
         style="fill:#ef8213"
         d="M 69.72,34.79 C 69.72,59.61 56.87,72.2 31.53,72.2 H 0.25 V 0.25 H 32.1 c 24.26,0 37.62,12.27 37.62,34.54 z m -39.3,18.3 c 9.29,-0.43 13.63,-5.87 13.63,-17.05 0,-14.29 -4.72,-16.7 -15.31,-16.7 h -2.82 v 33.77 h 3.3 c 0.41,0 0.81,-0.01 1.2,-0.02 z"
         id="path2193"
         inkscape:connector-curvature="0" /></g><g
       id="g2195" /></g><path
     d="m 134.01,35.865 c 4.97,0 9,-4.029 9,-9 0,-4.971 -4.03,-9 -9,-9 -4.971,0 -9,4.029 -9,9 0,4.971 4.029,9 9,9 z m 163.618,-3.021 1.789,-14.533 h -17.284 l -1.789,14.533 H 265.58 l -2.129,17.285 h 14.765 l -0.55,4.466 -0.004,0.034 -1.301,10.569 h 17.283 l 1.855,-15.069 h 14.763 L 312.39,32.844 H 297.628 Z M 143.01,56.365 c 0,-4.971 -4.03,-9 -9,-9 -4.971,0 -9,4.029 -9,9 0,4.971 4.029,9 9,9 4.97,0 9,-4.029 9,-9 z m 61.145,-6.261 c 0.143,-1.016 0.211,-2.006 0.21,-2.967 -0.008,-4.272 -1.413,-7.959 -3.946,-10.618 -0.043,-0.045 -0.087,-0.091 -0.131,-0.136 -1.038,-1.059 -2.258,-1.948 -3.644,-2.64 5.15,-3.765 8.579,-9.009 9.347,-14.471 0.148,-1.052 0.22,-2.064 0.218,-3.035 -0.01,-3.631 -1.072,-6.681 -3.172,-9.098 C 198.995,2.49 191.13,0.23 178.992,0.23 h -34.345 l -0.181,1.291 -2.258,16.065 c 2.57,2.273 4.202,5.585 4.202,9.278 0,4.931 -2.9,9.186 -7.077,11.182 l -0.946,6.73 c 4.681,1.775 8.023,6.292 8.023,11.587 0,6.496 -5.023,11.831 -11.388,12.349 l -0.246,1.752 -0.24,1.709 h 35.439 c 20.913,0.002 32.094,-7.217 34.18,-22.069 z M 179.364,47.83 c -0.534,3.618 -3.248,5.028 -9.677,5.028 h -8.254 l 1.368,-9.735 h 5.939 c 4.48,0 8.621,0.13 10.055,1.698 0.432,0.472 0.646,1.128 0.649,1.991 0.001,0.311 -0.026,0.651 -0.08,1.018 z m 1.21,-24.992 c -0.642,4.279 -5.557,4.741 -7.64,4.741 h -7.948 l 1.193,-8.491 h 6.941 c 2.64,0 5.925,0 7.013,1.17 0.34,0.367 0.513,0.918 0.516,1.646 0,0.284 -0.024,0.596 -0.075,0.934 z m 78.413,26.741 2.127,-17.285 0.486,-3.95 h 10.18 C 271.872,20.612 269.882,14.341 265.815,9.661 260.243,3.25 250.995,0 238.329,0 h -31.657 l -0.181,1.291 -0.362,2.576 c 0.099,0.108 0.208,0.21 0.304,0.32 v 10e-4 h 0.001 c 1.8,2.072 3.049,4.504 3.713,7.231 0.628,2.577 0.729,5.43 0.3,8.48 -0.684,4.865 -3.067,9.602 -6.734,13.558 4.026,4.26 5.858,10.441 4.898,17.273 -1.214,8.645 -5.195,15.238 -11.823,19.607 l -0.226,1.607 h 31.501 c 17.171,0 29.385,-5.813 36.53,-17.315 h -6.229 z M 245.471,35.571 c -1.659,11.793 -7.203,17.286 -17.454,17.286 h -3.077 l 4.745,-33.77 h 3.02 c 5.889,0 9.34,0.951 11.193,3.083 2.03,2.335 2.53,6.593 1.573,13.401 z"
     id="path2197"
     inkscape:connector-curvature="0" /></svg>