<?xml version="1.0" encoding="UTF-8" standalone="no"?>
<!-- Generator: Adobe Illustrator 12.0.0, SVG Export Plug-In . SVG Version: 6.00 Build 51448)  -->
<svg
   xmlns:dc="http://purl.org/dc/elements/1.1/"
   xmlns:cc="http://web.resource.org/cc/"
   xmlns:rdf="http://www.w3.org/1999/02/22-rdf-syntax-ns#"
   xmlns:svg="http://www.w3.org/2000/svg"
   xmlns="http://www.w3.org/2000/svg"
   xmlns:sodipodi="http://sodipodi.sourceforge.net/DTD/sodipodi-0.dtd"
   xmlns:inkscape="http://www.inkscape.org/namespaces/inkscape"
   version="1.0"
   id="Ebene_1"
   width="312.38998"
   height="72.173996"
   viewBox="0 0 318.77 72.45"
   style="overflow:visible;enable-background:new 0 0 318.77 72.45;"
   xml:space="preserve"
   sodipodi:version="0.32"
   inkscape:version="0.45.1"
   sodipodi:docname="drbd-plus-logo.svg"
   sodipodi:docbase="/home/florian/git/drbd-howto-collection/users-guide/images"
   inkscape:output_extension="org.inkscape.output.svg.inkscape"><metadata
   id="metadata2202"><rdf:RDF><cc:Work
       rdf:about=""><dc:format>image/svg+xml</dc:format><dc:type
         rdf:resource="http://purl.org/dc/dcmitype/StillImage" /></cc:Work></rdf:RDF></metadata><defs
   id="defs2200" /><sodipodi:namedview
   inkscape:window-height="480"
   inkscape:window-width="640"
   inkscape:pageshadow="2"
   inkscape:pageopacity="0.0"
   guidetolerance="10.0"
   gridtolerance="10.0"
   objecttolerance="10.0"
   borderopacity="1.0"
   bordercolor="#666666"
   pagecolor="#ffffff"
   id="base" />

<g
   id="XMLID_6_"
   transform="translate(-0.2500012,-2.6e-2)">
	<g
   id="g2184">
		<path
   style="fill:#ef8213"
   d="M 131.67,70.69 L 131.67,72.2 L 108.53,72.2 L 108.17,71.23 C 107.41,69.21 106.92,64.27 106.92,58.63 C 106.92,50.28 105.88,48.16 96.32,48.16 L 90.9,48.16 L 90.9,72.2 L 65.23,72.2 L 65.23,63.9 C 71.19,56.88 74.22,47.11 74.22,34.79 C 74.22,28.72 73.29,23.21 71.46,18.4 C 69.97,14.5 67.88,11.05 65.23,8.09 L 65.23,0.25 L 99.39,0.25 C 118.64,0.25 128.27,4.62 130.82,14.99 C 125.65,16.48 121.86,21.25 121.86,26.89 C 121.86,30.45 123.38,33.66 125.8,35.93 C 124.81,36.82 123.71,37.6 122.48,38.24 C 125.76,39.7 128.23,41.47 129.76,44.85 C 125.15,46.65 121.86,51.14 121.86,56.39 C 121.86,62.34 126.07,67.31 131.66,68.51 C 131.67,69.82 131.67,70.69 131.67,70.69 z M 98.33,30.03 C 106.47,30.03 107.59,27.63 107.59,25.02 C 107.59,20.08 102.81,19.34 99.97,19.34 L 90.9,19.34 L 90.9,30.03 L 98.33,30.03 z "
   id="path2186" />
	</g>
	<g
   id="g2188">
	</g>
</g>
<g
   id="XMLID_5_"
   transform="translate(-0.2500012,-2.6e-2)">
	<g
   id="g2191">
		<path
   style="fill:#ef8213"
   d="M 69.72,34.79 C 69.72,59.61 56.87,72.2 31.53,72.2 L 0.25,72.2 L 0.25,0.25 L 32.1,0.25 C 56.36,0.25 69.72,12.52 69.72,34.79 z M 30.42,53.09 C 39.71,52.66 44.05,47.22 44.05,36.04 C 44.05,21.75 39.33,19.34 28.74,19.34 L 25.92,19.34 L 25.92,53.11 L 29.22,53.11 C 29.63,53.11 30.03,53.1 30.42,53.09 z "
   id="path2193" />
	</g>
	<g
   id="g2195">
	</g>
</g>
<path
   d="M 134.01,35.865 C 138.98,35.865 143.01,31.836 143.01,26.865 C 143.01,21.894 138.98,17.865 134.01,17.865 C 129.039,17.865 125.01,21.894 125.01,26.865 C 125.01,31.836 129.039,35.865 134.01,35.865 z M 297.628,32.844 L 299.417,18.311 L 282.133,18.311 L 280.344,32.844 L 265.58,32.844 L 263.451,50.129 L 278.216,50.129 L 277.666,54.595 L 277.662,54.629 L 276.361,65.198 L 293.644,65.198 L 295.499,50.129 L 310.262,50.129 L 312.39,32.844 L 297.628,32.844 L 297.628,32.844 z M 143.01,56.365 C 143.01,51.394 138.98,47.365 134.01,47.365 C 129.039,47.365 125.01,51.394 125.01,56.365 C 125.01,61.336 129.039,65.365 134.01,65.365 C 138.98,65.365 143.01,61.336 143.01,56.365 z M 204.155,50.104 C 204.298,49.088 204.366,48.098 204.365,47.137 C 204.357,42.865 202.952,39.178 200.419,36.519 C 200.376,36.474 200.332,36.428 200.288,36.383 C 199.25,35.324 198.03,34.435 196.644,33.743 C 201.794,29.978 205.223,24.734 205.991,19.272 C 206.139,18.22 206.211,17.208 206.209,16.237 C 206.199,12.606 205.137,9.556 203.037,7.139 C 198.995,2.49 191.13,0.23 178.992,0.23 L 144.647,0.23 L 144.466,1.521 L 142.208,17.586 C 144.778,19.859 146.41,23.171 146.41,26.864 C 146.41,31.795 143.51,36.05 139.333,38.046 L 138.387,44.776 C 143.068,46.551 146.41,51.068 146.41,56.363 C 146.41,62.859 141.387,68.194 135.022,68.712 L 134.776,70.464 L 134.536,72.173 L 169.975,72.173 C 190.888,72.175 202.069,64.956 204.155,50.104 z M 179.364,47.83 C 178.83,51.448 176.116,52.858 169.687,52.858 L 161.433,52.858 L 162.801,43.123 L 168.74,43.123 C 173.22,43.123 177.361,43.253 178.795,44.821 C 179.227,45.293 179.441,45.949 179.444,46.812 C 179.445,47.123 179.418,47.463 179.364,47.83 z M 180.574,22.838 C 179.932,27.117 175.017,27.579 172.934,27.579 L 164.986,27.579 L 166.179,19.088 L 173.12,19.088 C 175.76,19.088 179.045,19.088 180.133,20.258 C 180.473,20.625 180.646,21.176 180.649,21.904 C 180.649,22.188 180.625,22.5 180.574,22.838 z M 258.987,49.579 L 261.114,32.294 L 261.6,28.344 L 271.78,28.344 C 271.872,20.612 269.882,14.341 265.815,9.661 C 260.243,3.25 250.995,-1.0456913e-14 238.329,-1.0456913e-14 L 206.672,-1.0456913e-14 L 206.491,1.291 L 206.129,3.867 C 206.228,3.975 206.337,4.077 206.433,4.187 L 206.433,4.188 L 206.434,4.188 C 208.234,6.26 209.483,8.692 210.147,11.419 C 210.775,13.996 210.876,16.849 210.447,19.899 C 209.763,24.764 207.38,29.501 203.713,33.457 C 207.739,37.717 209.571,43.898 208.611,50.73 C 207.397,59.375 203.416,65.968 196.788,70.337 L 196.562,71.944 L 228.063,71.944 C 245.234,71.944 257.448,66.131 264.593,54.629 L 258.364,54.629 L 258.987,49.579 z M 245.471,35.571 C 243.812,47.364 238.268,52.857 228.017,52.857 L 224.94,52.857 L 229.685,19.087 L 232.705,19.087 C 238.594,19.087 242.045,20.038 243.898,22.17 C 245.928,24.505 246.428,28.763 245.471,35.571 z "
   id="path2197" />
</svg>