<?xml version="1.0" encoding="UTF-8" standalone="no"?>
<!-- Created with Inkscape (http://www.inkscape.org/) -->
<svg
   xmlns:svg="http://www.w3.org/2000/svg"
   xmlns="http://www.w3.org/2000/svg"
   version="1.0"
   width="659"
   height="338"
   viewBox="0 0 28000 21000"
   id="svg2"
   style="fill-rule:evenodd">
  <g
     transform="matrix(1.6510972,0,0,1.6510972,-8563.2527,-8360.3914)"
     id="Default"
     style="visibility:visible">
    <desc
       id="desc249">Master slide</desc>
    <g
       id="g251">
      <desc
         id="desc253">Date/Time</desc>
      <g
         id="g255">
        <g
           id="g257">
          <g
             id="g259"
             style="font-size:494px;font-weight:400;font-family:Liberation Serif embedded">
            <g
               id="g261"
               style="fill:#1a1a1a;stroke:none" />
          </g>
        </g>
      </g>
    </g>
    <g
       id="g263">
      <desc
         id="desc265">Footer</desc>
      <g
         id="g267">
        <g
           id="g269">
          <g
             id="g271"
             style="font-size:494px;font-weight:400;font-family:Liberation Serif embedded">
            <g
               id="g273"
               style="fill:#1a1a1a;stroke:none" />
          </g>
        </g>
      </g>
    </g>
  </g>
  <g
     transform="matrix(1.6510972,0,0,1.6510972,-8563.2527,-8360.3914)"
     id="page3"
     style="visibility:visible">
    <desc
       id="desc276">Slide</desc>
    <g
       id="g278">
      <desc
         id="desc280">Drawing</desc>
      <g
         id="g282">
        <g
           id="g284"
           style="fill:none;stroke:#000000">
          <path
             d="M 7301,17780 L 1269,17780 L 1269,5080 L 13334,5080 L 13334,17780 L 7301,17780"
             id="path286"
             style="fill:none" />
        </g>
        <g
           id="g288">
          <g
             id="g290"
             style="font-size:635px;font-weight:400;font-family:Helvetica embedded">
            <g
               id="g292"
               style="fill:#1a1a1a;stroke:none">
              <text
                 id="text294">
                <tspan
                   x="4608 5019 5370 5688 6039 6568 6919 7228 7580 7791 7969 8426 8566 8918 9235 9409 9760"
                   y="16692"
                   id="tspan296">Pacemaker Cluster</tspan>
              </text>
              <text
                 id="text298">
                <tspan
                   x="6428 6640 6779 7131 7448 7800 7939"
                   y="17479"
                   id="tspan300">(local)</tspan>
              </text>
            </g>
          </g>
        </g>
      </g>
    </g>
    <g
       id="g302">
      <desc
         id="desc304">Drawing</desc>
      <g
         id="g306">
        <g
           id="g308"
           style="fill:none;stroke:#000000">
          <path
             d="M 20001,17780 L 13969,17780 L 13969,5080 L 26034,5080 L 26034,17780 L 20001,17780"
             id="path310"
             style="fill:none" />
        </g>
        <g
           id="g312">
          <g
             id="g314"
             style="font-size:635px;font-weight:400;font-family:Helvetica embedded">
            <g
               id="g316"
               style="fill:#1a1a1a;stroke:none">
              <text
                 id="text318">
                <tspan
                   x="17308 17719 18070 18388 18739 19268 19619 19928 20280 20491 20669 21126 21266 21618 21935 22109 22460"
                   y="16692"
                   id="tspan320">Pacemaker Cluster</tspan>
              </text>
              <text
                 id="text322">
                <tspan
                   x="18798 19010 19217 19568 20098 20445 20618 20970"
                   y="17479"
                   id="tspan324">(remote)</tspan>
              </text>
            </g>
          </g>
        </g>
      </g>
    </g>
    <g
       id="g326">
      <desc
         id="desc328">Drawing</desc>
      <g
         id="g330">
        <g
           id="g332"
           style="fill:#fa8500;fill-opacity:0.50196078;stroke:#ffffff;stroke-opacity:0.50196078">
          <path
             d="M 2540,7620 L 6350,7620 L 6350,10160 L 2540,10160 L 2540,7620 z"
             id="path334" />
        </g>
        <g
           id="g336"
           style="fill:#fa8500;stroke:none" />
        <g
           id="g338"
           style="fill:none;stroke:#000000">
          <path
             d="M 3429,10160 L 2921,10160"
             id="path340"
             style="fill:none" />
          <path
             d="M 2540,10033 L 2540,9525"
             id="path342"
             style="fill:none" />
          <path
             d="M 2540,9017 L 2540,8509"
             id="path344"
             style="fill:none" />
          <path
             d="M 2540,8001 L 2540,7620 L 2667,7620"
             id="path346"
             style="fill:none" />
          <path
             d="M 3175,7620 L 3683,7620"
             id="path348"
             style="fill:none" />
          <path
             d="M 4191,7620 L 4699,7620"
             id="path350"
             style="fill:none" />
          <path
             d="M 5207,7620 L 5715,7620"
             id="path352"
             style="fill:none" />
          <path
             d="M 6223,7620 L 6350,7620 L 6350,8001"
             id="path354"
             style="fill:none" />
          <path
             d="M 6350,8509 L 6350,9017"
             id="path356"
             style="fill:none" />
          <path
             d="M 6350,9525 L 6350,10033"
             id="path358"
             style="fill:none" />
          <path
             d="M 5969,10160 L 5461,10160"
             id="path360"
             style="fill:none" />
          <path
             d="M 4953,10160 L 4445,10160 L 3937,10160"
             id="path362"
             style="fill:none" />
        </g>
        <g
           id="g364">
          <g
             id="g366"
             style="font-size:635px;font-weight:400;font-family:Helvetica embedded">
            <g
               id="g368"
               style="fill:#1a1a1a;stroke:none">
              <text
                 id="text370">
                <tspan
                   x="4001 4141 4492 4687"
                   y="8701"
                   id="tspan372">left</tspan>
              </text>
              <text
                 id="text374">
                <tspan
                   x="2994 3206 3557 3697 3870 4222 4433 4785 5136 5310 5661"
                   y="9488"
                   id="tspan376">(alternate)</tspan>
              </text>
            </g>
          </g>
        </g>
      </g>
    </g>
    <g
       id="g378">
      <desc
         id="desc380">Drawing</desc>
      <g
         id="g382">
        <g
           id="g384"
           style="fill:#99ccff;stroke:none">
          <path
             d="M 7303,12065 L 6923,12075 L 6567,12103 L 6244,12147 L 5961,12206 L 5837,12239 L 5727,12276 L 5631,12315 L 5550,12357 L 5485,12401 L 5459,12423 L 5437,12446 L 5420,12469 L 5408,12493 L 5401,12517 L 5398,12541 L 5398,15399 L 5401,15423 L 5408,15447 L 5420,15471 L 5437,15494 L 5459,15517 L 5485,15540 L 5550,15583 L 5631,15625 L 5727,15664 L 5837,15701 L 5961,15735 L 6244,15794 L 6567,15838 L 6923,15866 L 7303,15876 L 7683,15866 L 8039,15838 L 8362,15794 L 8645,15735 L 8769,15701 L 8879,15664 L 8975,15625 L 9056,15583 L 9121,15540 L 9147,15517 L 9169,15494 L 9186,15471 L 9198,15447 L 9205,15423 L 9208,15399 L 9208,12541 L 9205,12517 L 9198,12493 L 9186,12469 L 9169,12446 L 9147,12423 L 9121,12401 L 9056,12357 L 8975,12315 L 8879,12276 L 8769,12239 L 8645,12206 L 8362,12147 L 8039,12103 L 7683,12075 L 7303,12065 z"
             id="path386" />
        </g>
        <g
           id="g388"
           style="fill:none;stroke:#000000">
          <path
             d="M 7303,12065 L 6923,12075 L 6567,12103 L 6244,12147 L 5961,12206 L 5837,12239 L 5727,12276 L 5631,12315 L 5550,12357 L 5485,12401 L 5459,12423 L 5437,12446 L 5420,12469 L 5408,12493 L 5401,12517 L 5398,12541 L 5398,15399 L 5401,15423 L 5408,15447 L 5420,15471 L 5437,15494 L 5459,15517 L 5485,15540 L 5550,15583 L 5631,15625 L 5727,15664 L 5837,15701 L 5961,15735 L 6244,15794 L 6567,15838 L 6923,15866 L 7303,15876 L 7683,15866 L 8039,15838 L 8362,15794 L 8645,15735 L 8769,15701 L 8879,15664 L 8975,15625 L 9056,15583 L 9121,15540 L 9147,15517 L 9169,15494 L 9186,15471 L 9198,15447 L 9205,15423 L 9208,15399 L 9208,12541 L 9205,12517 L 9198,12493 L 9186,12469 L 9169,12446 L 9147,12423 L 9121,12401 L 9056,12357 L 8975,12315 L 8879,12276 L 8769,12239 L 8645,12206 L 8362,12147 L 8039,12103 L 7683,12075 L 7303,12065"
             id="path390"
             style="fill:none" />
        </g>
        <g
           id="g392"
           style="fill:#a7dfff;stroke:none">
          <path
             d="M 7303,12065 L 6923,12075 L 6567,12103 L 6244,12147 L 5961,12206 L 5837,12239 L 5727,12276 L 5631,12315 L 5550,12357 L 5485,12401 L 5459,12423 L 5437,12446 L 5420,12469 L 5408,12493 L 5401,12517 L 5398,12541 L 5401,12565 L 5408,12589 L 5420,12613 L 5437,12636 L 5459,12659 L 5485,12681 L 5550,12725 L 5631,12767 L 5727,12806 L 5837,12843 L 5961,12877 L 6244,12935 L 6567,12979 L 6923,13007 L 7303,13017 L 7683,13007 L 8039,12979 L 8362,12935 L 8645,12877 L 8769,12843 L 8879,12806 L 8975,12767 L 9056,12725 L 9121,12681 L 9147,12659 L 9169,12636 L 9186,12613 L 9198,12589 L 9205,12565 L 9208,12541 L 9205,12517 L 9198,12493 L 9186,12469 L 9169,12446 L 9147,12423 L 9121,12401 L 9056,12357 L 8975,12315 L 8879,12276 L 8769,12239 L 8645,12206 L 8362,12147 L 8039,12103 L 7683,12075 L 7303,12065 z"
             id="path394" />
        </g>
        <g
           id="g396"
           style="fill:none;stroke:#000000">
          <path
             d="M 7303,12065 L 6923,12075 L 6567,12103 L 6244,12147 L 5961,12206 L 5837,12239 L 5727,12276 L 5631,12315 L 5550,12357 L 5485,12401 L 5459,12423 L 5437,12446 L 5420,12469 L 5408,12493 L 5401,12517 L 5398,12541 L 5401,12565 L 5408,12589 L 5420,12613 L 5437,12636 L 5459,12659 L 5485,12681 L 5550,12725 L 5631,12767 L 5727,12806 L 5837,12843 L 5961,12877 L 6244,12935 L 6567,12979 L 6923,13007 L 7303,13017 L 7683,13007 L 8039,12979 L 8362,12935 L 8645,12877 L 8769,12843 L 8879,12806 L 8975,12767 L 9056,12725 L 9121,12681 L 9147,12659 L 9169,12636 L 9186,12613 L 9198,12589 L 9205,12565 L 9208,12541 L 9205,12517 L 9198,12493 L 9186,12469 L 9169,12446 L 9147,12423 L 9121,12401 L 9056,12357 L 8975,12315 L 8879,12276 L 8769,12239 L 8645,12206 L 8362,12147 L 8039,12103 L 7683,12075 L 7303,12065"
             id="path398"
             style="fill:none" />
        </g>
        <g
           id="g400">
          <g
             id="g402"
             style="font-size:635px;font-weight:400;font-family:Helvetica embedded">
            <g
               id="g404"
               style="fill:#1a1a1a;stroke:none">
              <text
                 id="text406">
                <tspan
                   x="6273 6696 7048 7399 7607 7958"
                   y="14019"
                   id="tspan408">Shared</tspan>
              </text>
              <text
                 id="text410">
                <tspan
                   x="6184 6607 6781 7132 7344 7695 8047"
                   y="14806"
                   id="tspan412">Storage</tspan>
              </text>
            </g>
          </g>
        </g>
      </g>
    </g>
    <g
       id="g414">
      <desc
         id="desc416">Drawing</desc>
      <g
         id="g418">
        <g
           id="g420"
           style="fill:#99ccff;stroke:none">
          <path
             d="M 20003,12065 L 19623,12075 L 19267,12103 L 18944,12147 L 18661,12206 L 18537,12239 L 18427,12276 L 18331,12315 L 18250,12357 L 18185,12401 L 18159,12423 L 18137,12446 L 18120,12469 L 18108,12493 L 18101,12517 L 18098,12541 L 18098,15399 L 18101,15423 L 18108,15447 L 18120,15471 L 18137,15494 L 18159,15517 L 18185,15540 L 18250,15583 L 18331,15625 L 18427,15664 L 18537,15701 L 18661,15735 L 18944,15794 L 19267,15838 L 19623,15866 L 20003,15876 L 20383,15866 L 20739,15838 L 21062,15794 L 21345,15735 L 21469,15701 L 21579,15664 L 21675,15625 L 21756,15583 L 21821,15540 L 21847,15517 L 21869,15494 L 21886,15471 L 21898,15447 L 21905,15423 L 21908,15399 L 21908,12541 L 21905,12517 L 21898,12493 L 21886,12469 L 21869,12446 L 21847,12423 L 21821,12401 L 21756,12357 L 21675,12315 L 21579,12276 L 21469,12239 L 21345,12206 L 21062,12147 L 20739,12103 L 20383,12075 L 20003,12065 z"
             id="path422" />
        </g>
        <g
           id="g424"
           style="fill:none;stroke:#000000">
          <path
             d="M 20003,12065 L 19623,12075 L 19267,12103 L 18944,12147 L 18661,12206 L 18537,12239 L 18427,12276 L 18331,12315 L 18250,12357 L 18185,12401 L 18159,12423 L 18137,12446 L 18120,12469 L 18108,12493 L 18101,12517 L 18098,12541 L 18098,15399 L 18101,15423 L 18108,15447 L 18120,15471 L 18137,15494 L 18159,15517 L 18185,15540 L 18250,15583 L 18331,15625 L 18427,15664 L 18537,15701 L 18661,15735 L 18944,15794 L 19267,15838 L 19623,15866 L 20003,15876 L 20383,15866 L 20739,15838 L 21062,15794 L 21345,15735 L 21469,15701 L 21579,15664 L 21675,15625 L 21756,15583 L 21821,15540 L 21847,15517 L 21869,15494 L 21886,15471 L 21898,15447 L 21905,15423 L 21908,15399 L 21908,12541 L 21905,12517 L 21898,12493 L 21886,12469 L 21869,12446 L 21847,12423 L 21821,12401 L 21756,12357 L 21675,12315 L 21579,12276 L 21469,12239 L 21345,12206 L 21062,12147 L 20739,12103 L 20383,12075 L 20003,12065"
             id="path426"
             style="fill:none" />
        </g>
        <g
           id="g428"
           style="fill:#a7dfff;stroke:none">
          <path
             d="M 20003,12065 L 19623,12075 L 19267,12103 L 18944,12147 L 18661,12206 L 18537,12239 L 18427,12276 L 18331,12315 L 18250,12357 L 18185,12401 L 18159,12423 L 18137,12446 L 18120,12469 L 18108,12493 L 18101,12517 L 18098,12541 L 18101,12565 L 18108,12589 L 18120,12613 L 18137,12636 L 18159,12659 L 18185,12681 L 18250,12725 L 18331,12767 L 18427,12806 L 18537,12843 L 18661,12877 L 18944,12935 L 19267,12979 L 19623,13007 L 20003,13017 L 20383,13007 L 20739,12979 L 21062,12935 L 21345,12877 L 21469,12843 L 21579,12806 L 21675,12767 L 21756,12725 L 21821,12681 L 21847,12659 L 21869,12636 L 21886,12613 L 21898,12589 L 21905,12565 L 21908,12541 L 21905,12517 L 21898,12493 L 21886,12469 L 21869,12446 L 21847,12423 L 21821,12401 L 21756,12357 L 21675,12315 L 21579,12276 L 21469,12239 L 21345,12206 L 21062,12147 L 20739,12103 L 20383,12075 L 20003,12065 z"
             id="path430" />
        </g>
        <g
           id="g432"
           style="fill:none;stroke:#000000">
          <path
             d="M 20003,12065 L 19623,12075 L 19267,12103 L 18944,12147 L 18661,12206 L 18537,12239 L 18427,12276 L 18331,12315 L 18250,12357 L 18185,12401 L 18159,12423 L 18137,12446 L 18120,12469 L 18108,12493 L 18101,12517 L 18098,12541 L 18101,12565 L 18108,12589 L 18120,12613 L 18137,12636 L 18159,12659 L 18185,12681 L 18250,12725 L 18331,12767 L 18427,12806 L 18537,12843 L 18661,12877 L 18944,12935 L 19267,12979 L 19623,13007 L 20003,13017 L 20383,13007 L 20739,12979 L 21062,12935 L 21345,12877 L 21469,12843 L 21579,12806 L 21675,12767 L 21756,12725 L 21821,12681 L 21847,12659 L 21869,12636 L 21886,12613 L 21898,12589 L 21905,12565 L 21908,12541 L 21905,12517 L 21898,12493 L 21886,12469 L 21869,12446 L 21847,12423 L 21821,12401 L 21756,12357 L 21675,12315 L 21579,12276 L 21469,12239 L 21345,12206 L 21062,12147 L 20739,12103 L 20383,12075 L 20003,12065"
             id="path434"
             style="fill:none" />
        </g>
        <g
           id="g436">
          <g
             id="g438"
             style="font-size:635px;font-weight:400;font-family:Helvetica embedded">
            <g
               id="g440"
               style="fill:#1a1a1a;stroke:none">
              <text
                 id="text442">
                <tspan
                   x="18973 19396 19748 20099 20307 20658"
                   y="14019"
                   id="tspan444">Shared</tspan>
              </text>
              <text
                 id="text446">
                <tspan
                   x="18884 19307 19481 19832 20044 20395 20747"
                   y="14806"
                   id="tspan448">Storage</tspan>
              </text>
            </g>
          </g>
        </g>
      </g>
    </g>
    <g
       id="g450">
      <desc
         id="desc452">Drawing</desc>
      <g
         id="g454">
        <g
           id="g456"
           style="fill:#fa8500;stroke:none">
          <path
             d="M 8255,7620 L 12065,7620 L 12065,10160 L 8255,10160 L 8255,7620 z"
             id="path458" />
        </g>
        <g
           id="g460"
           style="fill:none;stroke:#000000">
          <path
             d="M 10160,10160 L 8255,10160 L 8255,7620 L 12065,7620 L 12065,10160 L 10160,10160"
             id="path462"
             style="fill:none" />
        </g>
        <g
           id="g464">
          <g
             id="g466"
             style="font-size:635px;font-weight:400;font-family:Helvetica embedded">
            <g
               id="g468"
               style="fill:#1a1a1a;stroke:none">
              <text
                 id="text470">
                <tspan
                   x="9716 9856 10207 10402"
                   y="9098"
                   id="tspan472">left</tspan>
              </text>
            </g>
          </g>
        </g>
      </g>
    </g>
    <g
       id="g474">
      <desc
         id="desc476">Drawing</desc>
      <g
         id="g478">
        <g
           id="g480"
           style="fill:#fa8500;stroke:none">
          <path
             d="M 15240,7620 L 19050,7620 L 19050,10160 L 15240,10160 L 15240,7620 z"
             id="path482" />
        </g>
        <g
           id="g484"
           style="fill:none;stroke:#000000">
          <path
             d="M 17145,10160 L 15240,10160 L 15240,7620 L 19050,7620 L 19050,10160 L 17145,10160"
             id="path486"
             style="fill:none" />
        </g>
        <g
           id="g488">
          <g
             id="g490"
             style="font-size:635px;font-weight:400;font-family:Helvetica embedded">
            <g
               id="g492"
               style="fill:#1a1a1a;stroke:none">
              <text
                 id="text494">
                <tspan
                   x="16517 16729 16868 17220 17571"
                   y="9098"
                   id="tspan496">right</tspan>
              </text>
            </g>
          </g>
        </g>
      </g>
    </g>
    <g
       id="g498">
      <desc
         id="desc500">Drawing</desc>
      <g
         id="g502">
        <g
           id="g504"
           style="fill:#fa8500;fill-opacity:0.50196078;stroke:#ffffff;stroke-opacity:0.50196078">
          <path
             d="M 20955,7620 L 24765,7620 L 24765,10160 L 20955,10160 L 20955,7620 z"
             id="path506" />
        </g>
        <g
           id="g508"
           style="fill:#fa8500;stroke:none" />
        <g
           id="g510"
           style="fill:none;stroke:#000000">
          <path
             d="M 21844,10160 L 21336,10160"
             id="path512"
             style="fill:none" />
          <path
             d="M 20955,10033 L 20955,9525"
             id="path514"
             style="fill:none" />
          <path
             d="M 20955,9017 L 20955,8509"
             id="path516"
             style="fill:none" />
          <path
             d="M 20955,8001 L 20955,7620 L 21082,7620"
             id="path518"
             style="fill:none" />
          <path
             d="M 21590,7620 L 22098,7620"
             id="path520"
             style="fill:none" />
          <path
             d="M 22606,7620 L 23114,7620"
             id="path522"
             style="fill:none" />
          <path
             d="M 23622,7620 L 24130,7620"
             id="path524"
             style="fill:none" />
          <path
             d="M 24638,7620 L 24765,7620 L 24765,8001"
             id="path526"
             style="fill:none" />
          <path
             d="M 24765,8509 L 24765,9017"
             id="path528"
             style="fill:none" />
          <path
             d="M 24765,9525 L 24765,10033"
             id="path530"
             style="fill:none" />
          <path
             d="M 24384,10160 L 23876,10160"
             id="path532"
             style="fill:none" />
          <path
             d="M 23368,10160 L 22860,10160 L 22352,10160"
             id="path534"
             style="fill:none" />
        </g>
        <g
           id="g536">
          <g
             id="g538"
             style="font-size:635px;font-weight:400;font-family:Helvetica embedded">
            <g
               id="g540"
               style="fill:#1a1a1a;stroke:none">
              <text
                 id="text542">
                <tspan
                   x="22232 22444 22583 22935 23286"
                   y="8701"
                   id="tspan544">right</tspan>
              </text>
              <text
                 id="text546">
                <tspan
                   x="21409 21621 21972 22112 22285 22637 22848 23200 23551 23725 24076"
                   y="9488"
                   id="tspan548">(alternate)</tspan>
              </text>
            </g>
          </g>
        </g>
      </g>
    </g>
    <g
       id="g550">
      <desc
         id="desc552">Drawing</desc>
      <g
         id="g554">
        <g
           id="g556"
           style="fill:#000000;stroke:none">
          <path
             d="M 15240,8890 L 14790,9040 L 14790,8740 L 15240,8890 z"
             id="path558" />
        </g>
        <g
           id="g560"
           style="fill:none;stroke:#000000">
          <path
             d="M 12065,8890 L 14880,8890"
             id="path562"
             style="fill:none" />
        </g>
        <g
           id="g564" />
      </g>
    </g>
    <g
       id="g566">
      <desc
         id="desc568">Drawing</desc>
      <g
         id="g570">
        <g
           id="g572"
           style="fill:#ff0000;stroke:none">
          <path
             d="M 10211,10160 L 10211,13969 L 10160,13969 L 10109,13969 L 10109,10160 L 10160,10160 L 10211,10160 z"
             id="path574" />
          <path
             d="M 10160,13969 L 10211,13969 L 10210,13978 L 10208,13986 L 10204,13994 L 10199,14002 L 10193,14008 L 10186,14013 L 10177,14017 L 10169,14019 L 10160,14020 L 10160,14020 L 10160,13969 z"
             id="path576" />
          <path
             d="M 10160,14020 L 9206,14020 L 9206,13969 L 9206,13918 L 10160,13918 L 10160,13969 L 10160,14020 z"
             id="path578" />
        </g>
        <g
           id="g580" />
      </g>
    </g>
    <g
       id="g582">
      <desc
         id="desc584">Drawing</desc>
      <g
         id="g586">
        <g
           id="g588"
           style="fill:#ff0000;stroke:none">
          <path
             d="M 17196,10160 L 17196,13969 L 17145,13969 L 17094,13969 L 17094,10160 L 17145,10160 L 17196,10160 z"
             id="path590" />
          <path
             d="M 17145,13969 L 17145,14020 L 17136,14019 L 17128,14017 L 17120,14013 L 17112,14008 L 17106,14002 L 17101,13995 L 17097,13986 L 17095,13978 L 17094,13969 L 17094,13969 L 17145,13969 z"
             id="path592" />
          <path
             d="M 17145,13918 L 18098,13918 L 18098,13969 L 18098,14020 L 17145,14020 L 17145,13969 L 17145,13918 z"
             id="path594" />
        </g>
        <g
           id="g596" />
      </g>
    </g>
    <g
       id="g598">
      <desc
         id="desc600">Drawing</desc>
      <g
         id="g602">
        <g
           id="g604"
           style="fill:#ff0000;stroke:none">
          <path
             d="M 4496,10160 L 4496,10668 L 4394,10668 L 4394,10160 L 4496,10160 z"
             id="path606" />
          <path
             d="M 4496,11176 L 4496,11684 L 4394,11684 L 4394,11176 L 4496,11176 z"
             id="path608" />
          <path
             d="M 4496,12192 L 4496,12700 L 4394,12700 L 4394,12192 L 4496,12192 z"
             id="path610" />
          <path
             d="M 4496,13208 L 4496,13716 L 4394,13716 L 4394,13208 L 4496,13208 z"
             id="path612" />
          <path
             d="M 4700,13918 L 5208,13918 L 5208,14020 L 4700,14020 L 4700,13918 z"
             id="path614" />
        </g>
        <g
           id="g616" />
      </g>
    </g>
    <g
       id="g618">
      <desc
         id="desc620">Drawing</desc>
      <g
         id="g622">
        <g
           id="g624"
           style="fill:#ff0000;stroke:none">
          <path
             d="M 22911,10160 L 22911,10668 L 22809,10668 L 22809,10160 L 22911,10160 z"
             id="path626" />
          <path
             d="M 22911,11176 L 22911,11684 L 22809,11684 L 22809,11176 L 22911,11176 z"
             id="path628" />
          <path
             d="M 22911,12192 L 22911,12700 L 22809,12700 L 22809,12192 L 22911,12192 z"
             id="path630" />
          <path
             d="M 22911,13208 L 22911,13716 L 22809,13716 L 22809,13208 L 22911,13208 z"
             id="path632" />
          <path
             d="M 22605,14020 L 22097,14020 L 22097,13918 L 22605,13918 L 22605,14020 z"
             id="path634" />
        </g>
        <g
           id="g636" />
      </g>
    </g>
  </g>
</svg>
