<?xml version="1.0" encoding="UTF-8" standalone="no"?>
<svg
   xmlns:ooo="http://xml.openoffice.org/svg/export"
   xmlns:dc="http://purl.org/dc/elements/1.1/"
   xmlns:cc="http://creativecommons.org/ns#"
   xmlns:rdf="http://www.w3.org/1999/02/22-rdf-syntax-ns#"
   xmlns:svg="http://www.w3.org/2000/svg"
   xmlns="http://www.w3.org/2000/svg"
   xmlns:sodipodi="http://sodipodi.sourceforge.net/DTD/sodipodi-0.dtd"
   xmlns:inkscape="http://www.inkscape.org/namespaces/inkscape"
   version="1.2"
   width="280mm"
   height="210mm"
   viewBox="0 0 28000 21000"
   preserveAspectRatio="xMidYMid"
   fill-rule="evenodd"
   clip-path="url(#presentation_clip_path)"
   stroke-width="28.222"
   stroke-linejoin="round"
   xml:space="preserve"
   id="svg2"
   inkscape:version="0.48.3.1 r9886"
   sodipodi:docname="bigpicture.svg"><metadata
   id="metadata853"><rdf:RDF><cc:Work
       rdf:about=""><dc:format>image/svg+xml</dc:format><dc:type
         rdf:resource="http://purl.org/dc/dcmitype/StillImage" /></cc:Work></rdf:RDF></metadata><sodipodi:namedview
   pagecolor="#ffffff"
   bordercolor="#666666"
   borderopacity="1"
   objecttolerance="10"
   gridtolerance="10"
   guidetolerance="10"
   inkscape:pageopacity="0"
   inkscape:pageshadow="2"
   inkscape:window-width="1680"
   inkscape:window-height="995"
   id="namedview851"
   showgrid="false"
   inkscape:zoom="0.89707533"
   inkscape:cx="300.98461"
   inkscape:cy="372.04724"
   inkscape:window-x="-2"
   inkscape:window-y="-3"
   inkscape:window-maximized="1"
   inkscape:current-layer="svg2" />
 <defs
   class="ClipPathGroup"
   id="defs4">
  <clipPath
   id="presentation_clip_path"
   clipPathUnits="userSpaceOnUse">
   <rect
   x="0"
   y="0"
   width="28000"
   height="21000"
   id="rect7" />
  </clipPath>
 
  
 
   
  
    
   
     
     
     
     
     
     
     
     
     
     
     
     
     
     
     
     
     
     
     
     
     
     
     
     
     
     
     
     
     
     
     
     
     
     
     
     
     
     
     
     
     
     
     
     
     
     
     
     
     
     
     
     
     
     
    
      
     
       <defs
   id="defs76">
        <mask
   id="mask1">
         <g
   id="g79">
          <defs
   id="defs81">
           <linearGradient
   id="gradient1"
   x1="11350"
   y1="3598"
   x2="11350"
   y2="20801"
   gradientUnits="userSpaceOnUse">
            <stop
   offset="0"
   style="stop-color:rgb(255,255,255)"
   id="stop84" />
            <stop
   offset="1"
   style="stop-color:rgb(0,0,0)"
   id="stop86" />
           </linearGradient>
          </defs>
          <path
   style="fill:url(#gradient1)"
   d="m 5997,3599 10706,0 0,17201 -10706,0 0,-17201 z"
   id="path88"
   inkscape:connector-curvature="0" />
         </g>
        </mask>
       </defs>
       
       
       
       
      
        
       
      
     
      
     
      
     
      
     
      
     
      
     
      
     
      
     
      
     
      
     
      
     
      
     
      
     
      
     
      
     
      
     
      
     
      
     
      
     
      
     
      
     
      
     
  
 
       <defs
   id="defs480">
        <mask
   id="mask6">
         <g
   id="g483">
          <defs
   id="defs485">
           <linearGradient
   id="gradient6"
   x1="35350"
   y1="3598"
   x2="35350"
   y2="20801"
   gradientUnits="userSpaceOnUse">
            <stop
   offset="0"
   style="stop-color:rgb(255,255,255)"
   id="stop488" />
            <stop
   offset="1"
   style="stop-color:rgb(0,0,0)"
   id="stop490" />
           </linearGradient>
          </defs>
          <path
   style="fill:url(#gradient6)"
   d="m 29997,3599 10706,0 0,17201 -10706,0 0,-17201 z"
   id="path492"
   inkscape:connector-curvature="0" />
         </g>
        </mask>
       </defs>
       
       
       
       
      
       <defs
   id="defs823">
        <mask
   id="mask10">
         <g
   id="g826">
          <defs
   id="defs828">
           <linearGradient
   id="gradient10"
   x1="38181"
   y1="12398"
   x2="38181"
   y2="13800"
   gradientUnits="userSpaceOnUse">
            <stop
   offset="0"
   style="stop-color:rgb(255,255,255)"
   id="stop831" />
            <stop
   offset="1"
   style="stop-color:rgb(127,127,127)"
   id="stop833" />
           </linearGradient>
          </defs>
          <path
   style="fill:url(#gradient10)"
   d="m 37207,12399 1949,0 0,1400 -1949,0 0,-1400 z"
   id="path835"
   inkscape:connector-curvature="0" />
         </g>
        </mask>
       </defs>
       
       
       
      
       
      
       <defs
   id="defs760">
        <mask
   id="mask9">
         <g
   id="g763">
          <defs
   id="defs765">
           <linearGradient
   id="gradient9"
   x1="47379"
   y1="12398"
   x2="47379"
   y2="13800"
   gradientUnits="userSpaceOnUse">
            <stop
   offset="0"
   style="stop-color:rgb(255,255,255)"
   id="stop768" />
            <stop
   offset="1"
   style="stop-color:rgb(127,127,127)"
   id="stop770" />
           </linearGradient>
          </defs>
          <path
   style="fill:url(#gradient9)"
   d="m 46405,12399 1949,0 0,1400 -1949,0 0,-1400 z"
   id="path772"
   inkscape:connector-curvature="0" />
         </g>
        </mask>
       </defs>
       
       
       
      
       
      
       
      
       
       
      
       
       
      
       
       
      
       
      
       <defs
   id="defs668">
        <mask
   id="mask8">
         <g
   id="g671">
          <defs
   id="defs673">
           <linearGradient
   id="gradient8"
   x1="42775"
   y1="12398"
   x2="42775"
   y2="13800"
   gradientUnits="userSpaceOnUse">
            <stop
   offset="0"
   style="stop-color:rgb(255,255,255)"
   id="stop676" />
            <stop
   offset="1"
   style="stop-color:rgb(0,0,0)"
   id="stop678" />
           </linearGradient>
          </defs>
          <path
   style="fill:url(#gradient8)"
   d="m 41801,12399 1949,0 0,1400 -1949,0 0,-1400 z"
   id="path680"
   inkscape:connector-curvature="0" />
         </g>
        </mask>
       </defs>
       
       
       
      
       
       
       
      
       
       
       
      
       
       
       
      
       
       
       
      
       
       
       
      
       <defs
   id="defs574">
        <mask
   id="mask7">
         <g
   id="g577">
          <defs
   id="defs579">
           <linearGradient
   id="gradient7"
   x1="32477"
   y1="6198"
   x2="32477"
   y2="8600"
   gradientUnits="userSpaceOnUse">
            <stop
   offset="0"
   style="stop-color:rgb(255,255,255)"
   id="stop582" />
            <stop
   offset="1"
   style="stop-color:rgb(127,127,127)"
   id="stop584" />
           </linearGradient>
          </defs>
          <path
   style="fill:url(#gradient7)"
   d="m 30999,6199 2957,0 0,2400 -2957,0 0,-2400 z"
   id="path586"
   inkscape:connector-curvature="0" />
         </g>
        </mask>
       </defs>
       
       
       
      
       
       
       
      
       
       
       
      
       
       
       
      
       
       
       
      
       
       
       
       
       
       
       
       
      
        
       
   
   
  
      
     
      
     </defs>
 <defs
   class="TextShapeIndex"
   id="defs9">
  <g
   ooo:slide="id1"
   ooo:id-list="id6 id7 id8 id9 id10 id11 id12 id13 id14 id15 id16 id17 id18 id19 id20 id21 id22 id23 id24 id25 id26 id27 id28 id29 id30 id31 id32 id33 id34 id35 id36 id37 id38 id39 id40 id41 id42 id43 id44 id45 id46 id47 id48 id49 id50 id51 id52 id53 id54 id55 id56 id57 id58 id59"
   id="g11" />
 </defs>
 <defs
   class="EmbeddedBulletChars"
   id="defs13">
  <g
   id="bullet-char-template(57356)"
   transform="scale(0.00048828125,-0.00048828125)">
   <path
   d="M 580,1141 L 1163,571 580,0 -4,571 580,1141 Z"
   id="path16" />
  </g>
  <g
   id="bullet-char-template(57354)"
   transform="scale(0.00048828125,-0.00048828125)">
   <path
   d="M 8,1128 L 1137,1128 1137,0 8,0 8,1128 Z"
   id="path19" />
  </g>
  <g
   id="bullet-char-template(10146)"
   transform="scale(0.00048828125,-0.00048828125)">
   <path
   d="M 174,0 L 602,739 174,1481 1456,739 174,0 Z M 1358,739 L 309,1346 659,739 1358,739 Z"
   id="path22" />
  </g>
  <g
   id="bullet-char-template(10132)"
   transform="scale(0.00048828125,-0.00048828125)">
   <path
   d="M 2015,739 L 1276,0 717,0 1260,543 174,543 174,936 1260,936 717,1481 1274,1481 2015,739 Z"
   id="path25" />
  </g>
  <g
   id="bullet-char-template(10007)"
   transform="scale(0.00048828125,-0.00048828125)">
   <path
   d="M 0,-2 C -7,14 -16,27 -25,37 L 356,567 C 262,823 215,952 215,954 215,979 228,992 255,992 264,992 276,990 289,987 310,991 331,999 354,1012 L 381,999 492,748 772,1049 836,1024 860,1049 C 881,1039 901,1025 922,1006 886,937 835,863 770,784 769,783 710,716 594,584 L 774,223 C 774,196 753,168 711,139 L 727,119 C 717,90 699,76 672,76 641,76 570,178 457,381 L 164,-76 C 142,-110 111,-127 72,-127 30,-127 9,-110 8,-76 1,-67 -2,-52 -2,-32 -2,-23 -1,-13 0,-2 Z"
   id="path28" />
  </g>
  <g
   id="bullet-char-template(10004)"
   transform="scale(0.00048828125,-0.00048828125)">
   <path
   d="M 285,-33 C 182,-33 111,30 74,156 52,228 41,333 41,471 41,549 55,616 82,672 116,743 169,778 240,778 293,778 328,747 346,684 L 369,508 C 377,444 397,411 428,410 L 1163,1116 C 1174,1127 1196,1133 1229,1133 1271,1133 1292,1118 1292,1087 L 1292,965 C 1292,929 1282,901 1262,881 L 442,47 C 390,-6 338,-33 285,-33 Z"
   id="path31" />
  </g>
  <g
   id="bullet-char-template(9679)"
   transform="scale(0.00048828125,-0.00048828125)">
   <path
   d="M 813,0 C 632,0 489,54 383,161 276,268 223,411 223,592 223,773 276,916 383,1023 489,1130 632,1184 813,1184 992,1184 1136,1130 1245,1023 1353,916 1407,772 1407,592 1407,412 1353,268 1245,161 1136,54 992,0 813,0 Z"
   id="path34" />
  </g>
  <g
   id="bullet-char-template(8226)"
   transform="scale(0.00048828125,-0.00048828125)">
   <path
   d="M 346,457 C 273,457 209,483 155,535 101,586 74,649 74,723 74,796 101,859 155,911 209,963 273,989 346,989 419,989 480,963 531,910 582,859 608,796 608,723 608,648 583,586 532,535 482,483 420,457 346,457 Z"
   id="path37" />
  </g>
  <g
   id="bullet-char-template(8211)"
   transform="scale(0.00048828125,-0.00048828125)">
   <path
   d="M -4,459 L 1135,459 1135,606 -4,606 -4,459 Z"
   id="path40" />
  </g>
 </defs>
 <defs
   class="TextEmbeddedBitmaps"
   id="defs42" />
 <path
   style="fill:#cfe7f5;stroke:none"
   inkscape:connector-curvature="0"
   id="path496"
   d="m 16783,1800 c -892,0 -1784,892 -1784,1784 l 0,13632 c 0,892 892,1785 1784,1785 l 7137,0 c 892,0 1785,-893 1785,-1785 l 0,-13632 c 0,-892 -893,-1784 -1785,-1784 l -7137,0 z m -1784,0 0,0 z m 10706,17201 0,0 z" /><path
   style="fill:#cfe7f5;stroke:none"
   inkscape:connector-curvature="0"
   id="path92"
   d="m 4783,1800 c -892,0 -1784,892 -1784,1784 l 0,13632 c 0,892 892,1785 1784,1785 l 7137,0 c 892,0 1785,-893 1785,-1785 l 0,-13632 c 0,-892 -893,-1784 -1785,-1784 l -7137,0 z m -1784,0 0,0 z m 10706,17201 0,0 z" /><g
   id="bg-id2"
   class="Background" />
 <path
   d="m 4783,1800 c -892,0 -1784,892 -1784,1784 l 0,13632 c 0,892 892,1785 1784,1785 l 7137,0 c 892,0 1785,-893 1785,-1785 l 0,-13632 c 0,-892 -893,-1784 -1785,-1784 l -7137,0 z"
   id="path94"
   inkscape:connector-curvature="0"
   style="fill:none;stroke:#000000" /><path
   d="m 2999,1800 0,0 z"
   id="path96"
   inkscape:connector-curvature="0"
   style="fill:none;stroke:#000000" /><path
   d="m 13705,19001 0,0 z"
   id="path98"
   inkscape:connector-curvature="0"
   style="fill:none;stroke:#000000" /><g
   class="com.sun.star.drawing.CustomShape"
   id="g100">
      <g
   id="id7">
       <path
   d="m 8364,15399 c -2564,0 -4700,167 -4700,369 l 0,2214 c 0,201 2136,369 4700,369 2564,0 4701,-168 4701,-369 l 0,-2214 c 0,-202 -2137,-369 -4701,-369 l 0,0 z m -4700,0 0,0 z m 9401,2952 0,0 z"
   id="path103"
   inkscape:connector-curvature="0"
   style="fill:#cccccc;stroke:none" />
       <path
   d="m 8364,15399 c -2564,0 -4700,167 -4700,369 l 0,2214 c 0,201 2136,369 4700,369 2564,0 4701,-168 4701,-369 l 0,-2214 c 0,-202 -2137,-369 -4701,-369 z"
   id="path105"
   inkscape:connector-curvature="0"
   style="fill:none;stroke:#000000" />
       <path
   d="m 3664,15399 0,0 z"
   id="path107"
   inkscape:connector-curvature="0"
   style="fill:none;stroke:#000000" />
       <path
   d="m 13065,18351 0,0 z"
   id="path109"
   inkscape:connector-curvature="0"
   style="fill:none;stroke:#000000" />
       <path
   d="m 8364,15399 c -2564,0 -4700,167 -4700,369 0,201 2136,369 4700,369 2564,0 4701,-168 4701,-369 0,-202 -2137,-369 -4701,-369 l 0,0 z m -4700,0 0,0 z m 9401,2952 0,0 z"
   id="path111"
   inkscape:connector-curvature="0"
   style="fill:#e0e0e0;stroke:none" />
       <path
   d="m 8364,15399 c -2564,0 -4700,167 -4700,369 0,201 2136,369 4700,369 2564,0 4701,-168 4701,-369 0,-202 -2137,-369 -4701,-369 z"
   id="path113"
   inkscape:connector-curvature="0"
   style="fill:none;stroke:#000000" />
       <path
   d="m 3664,15399 0,0 z"
   id="path115"
   inkscape:connector-curvature="0"
   style="fill:none;stroke:#000000" />
       <path
   d="m 13065,18351 0,0 z"
   id="path117"
   inkscape:connector-curvature="0"
   style="fill:none;stroke:#000000" />
      </g>
     </g><g
   class="com.sun.star.drawing.LineShape"
   id="g119">
      <g
   id="id8">
       <path
   d="m 3552,14500 2974,0"
   id="path122"
   inkscape:connector-curvature="0"
   style="fill:none;stroke:#000000" />
       <path
   d="m 3539,14600 0,-67 0,-66 0,-67 9,0 8,0 9,0 0,67 0,66 0,67 -8,0 -9,0 -9,0 z"
   id="path124"
   inkscape:connector-curvature="0"
   style="fill:#000000;stroke:none" />
       <path
   d="m 6539,14400 0,67 0,66 0,67 -9,0 -8,0 -9,0 0,-67 0,-66 0,-67 8,0 9,0 9,0 z"
   id="path126"
   inkscape:connector-curvature="0"
   style="fill:#000000;stroke:none" />
      </g>
     </g><g
   class="com.sun.star.drawing.LineShape"
   id="g128">
      <g
   id="id9">
       <path
   d="m 6613,14500 6574,0"
   id="path131"
   inkscape:connector-curvature="0"
   style="fill:none;stroke:#000000" />
       <path
   d="m 6600,14600 0,-67 0,-66 0,-67 9,0 8,0 9,0 0,67 0,66 0,67 -8,0 -9,0 -9,0 z"
   id="path133"
   inkscape:connector-curvature="0"
   style="fill:#000000;stroke:none" />
       <path
   d="m 13200,14400 0,67 0,66 0,67 -9,0 -8,0 -9,0 0,-67 0,-66 0,-67 8,0 9,0 9,0 z"
   id="path135"
   inkscape:connector-curvature="0"
   style="fill:#000000;stroke:none" />
      </g>
     </g><g
   class="com.sun.star.drawing.CustomShape"
   id="g137">
      <g
   id="id10">
       <path
   d="m 5030,13700 -1479,0 0,-600 2957,0 0,600 -1478,0 z"
   id="path140"
   inkscape:connector-curvature="0"
   style="fill:#ff950e;fill-opacity:0.50199998;stroke:#ffffff;stroke-opacity:0.50199998" />
       <path
   d="m 5030,13700 -1479,0 0,-600 2957,0 0,600 -1478,0 z"
   id="path142"
   inkscape:connector-curvature="0"
   style="fill:none;stroke:#000000" />
       <text
   class="TextShape"
   id="text144"><tspan
     class="TextParagraph"
     font-size="459px"
     font-weight="400"
     id="tspan146"
     style="font-size:459px;font-weight:400;font-family:'Nimbus Sans L, sans-serif'"><tspan
       class="TextPosition"
       x="3942"
       y="13554"
       id="tspan148"><tspan
         id="tspan150"
         style="fill:#000000;stroke:none">kvm-ovirtm</tspan></tspan></tspan></text>






      </g>
     </g><g
   class="com.sun.star.drawing.CustomShape"
   id="g152">
      <g
   id="id11">
       <path
   d="m 9900,13700 -3300,0 0,-600 6599,0 0,600 -3299,0 z"
   id="path155"
   inkscape:connector-curvature="0"
   style="fill:#ff950e;fill-opacity:0.50199998;stroke:#ffffff;stroke-opacity:0.50199998" />
       <path
   d="m 9900,13700 -3300,0 0,-600 6599,0 0,600 -3299,0 z"
   id="path157"
   inkscape:connector-curvature="0"
   style="fill:none;stroke:#000000" />
       <text
   class="TextShape"
   id="text159"><tspan
     class="TextParagraph"
     font-size="459px"
     font-weight="400"
     id="tspan161"
     style="font-size:459px;font-weight:400;font-family:'Nimbus Sans L, sans-serif'"><tspan
       class="TextPosition"
       x="9493"
       y="13554"
       id="tspan163"><tspan
         id="tspan165"
         style="fill:#000000;stroke:none">iscsi</tspan></tspan></tspan></text>






      </g>
     </g><g
   id="id12">
       <defs
   id="defs170">
        <mask
   id="mask2">
         <g
   id="g173">
          <defs
   id="defs175">
           <linearGradient
   gradientUnits="userSpaceOnUse"
   y2="8600"
   x2="8477"
   y1="6198"
   x1="8477"
   id="gradient2">
            <stop
   id="stop178"
   style="stop-color:rgb(255,255,255)"
   offset="0" />
            <stop
   id="stop180"
   style="stop-color:rgb(0,0,0)"
   offset="1" />
           </linearGradient>
          </defs>
          <path
   inkscape:connector-curvature="0"
   id="path182"
   d="m 6999,6199 2957,0 0,2400 -2957,0 0,-2400 z"
   style="fill:url(#gradient2)" />
         </g>
        </mask>
       </defs>
       <g
   mask="url(#mask2)"
   id="g184">
        <path
   style="fill:#c0c0c0;stroke:none"
   inkscape:connector-curvature="0"
   id="path186"
   d="m 4979,5500 -1479,0 0,-2400 2957,0 0,2400 -1478,0 z" />
       </g>
       <path
   style="fill:none;stroke:#000000"
   inkscape:connector-curvature="0"
   id="path188"
   d="m 4979,5500 -1479,0 0,-2400 2957,0 0,2400 -1478,0 z" />
       <text
   id="text190"
   class="TextShape"><tspan
     style="font-size:459px;font-weight:400;font-family:'Nimbus Sans L, sans-serif'"
     id="tspan192"
     font-weight="400"
     font-size="459px"
     class="TextParagraph"><tspan
       id="tspan194"
       y="4202"
       x="4333"
       class="TextPosition"><tspan
         style="fill:#000000;stroke:none"
         id="tspan196">oVirtm</tspan></tspan></tspan><tspan
     style="font-size:459px;font-weight:400;font-family:'Nimbus Sans L, sans-serif'"
     id="tspan198"
     font-weight="400"
     font-size="459px"
     class="TextParagraph"><tspan
       id="tspan200"
       y="4706"
       x="4610"
       class="TextPosition"><tspan
         style="fill:#000000;stroke:none"
         id="tspan202">VM</tspan></tspan></tspan></text>






      </g><g
   class="com.sun.star.drawing.CustomShape"
   id="g204">
      <g
   id="id13">
       <path
   d="m 9901,12500 -3300,0 0,-600 6599,0 0,600 -3299,0 z"
   id="path207"
   inkscape:connector-curvature="0"
   style="fill:#e6e6e6;stroke:none" />
       <path
   d="m 9901,12500 -3300,0 0,-600 6599,0 0,600 -3299,0 z"
   id="path209"
   inkscape:connector-curvature="0"
   style="fill:none;stroke:#000000" />
       <text
   class="TextShape"
   id="text211"><tspan
     class="TextParagraph"
     font-size="459px"
     font-weight="400"
     id="tspan213"
     style="font-size:459px;font-weight:400;font-family:'Nimbus Sans L, sans-serif'"><tspan
       class="TextPosition"
       x="9342"
       y="12354"
       id="tspan215"><tspan
         id="tspan217"
         style="fill:#000000;stroke:none">store1</tspan></tspan></tspan></text>






      </g>
     </g><g
   class="com.sun.star.drawing.CustomShape"
   id="g219">
      <g
   id="id14">
       <path
   d="m 9902,9600 -3300,0 0,-600 6599,0 0,600 -3299,0 z"
   id="path222"
   inkscape:connector-curvature="0"
   style="fill:#e6e6e6;stroke:none" />
       <path
   d="m 9902,9600 -3300,0 0,-600 6599,0 0,600 -3299,0 z"
   id="path224"
   inkscape:connector-curvature="0"
   style="fill:none;stroke:#000000" />
       <text
   class="TextShape"
   id="text226"><tspan
     class="TextParagraph"
     font-size="459px"
     font-weight="400"
     id="tspan228"
     style="font-size:459px;font-weight:400;font-family:'Nimbus Sans L, sans-serif'"><tspan
       class="TextPosition"
       x="8048"
       y="9454"
       id="tspan230"><tspan
         id="tspan232"
         style="fill:#000000;stroke:none">oVirt iSCSI initiator</tspan></tspan></tspan></text>






      </g>
     </g><g
   class="com.sun.star.drawing.LineShape"
   id="g234">
      <g
   id="id15">
       <path
   d="m 6613,8100 1974,0"
   id="path237"
   inkscape:connector-curvature="0"
   style="fill:none;stroke:#000000" />
       <path
   d="m 6600,8200 0,-67 0,-66 0,-67 9,0 8,0 9,0 0,67 0,66 0,67 -8,0 -9,0 -9,0 z"
   id="path239"
   inkscape:connector-curvature="0"
   style="fill:#000000;stroke:none" />
       <path
   d="m 8600,8000 0,67 0,66 0,67 -9,0 -8,0 -9,0 0,-67 0,-66 0,-67 8,0 9,0 9,0 z"
   id="path241"
   inkscape:connector-curvature="0"
   style="fill:#000000;stroke:none" />
      </g>
     </g><g
   class="com.sun.star.drawing.LineShape"
   id="g243">
      <g
   id="id16">
       <path
   d="m 8913,8100 1974,0"
   id="path246"
   inkscape:connector-curvature="0"
   style="fill:none;stroke:#000000" />
       <path
   d="m 8900,8200 0,-67 0,-66 0,-67 9,0 8,0 9,0 0,67 0,66 0,67 -8,0 -9,0 -9,0 z"
   id="path248"
   inkscape:connector-curvature="0"
   style="fill:#000000;stroke:none" />
       <path
   d="m 10900,8000 0,67 0,66 0,67 -9,0 -8,0 -9,0 0,-67 0,-66 0,-67 8,0 9,0 9,0 z"
   id="path250"
   inkscape:connector-curvature="0"
   style="fill:#000000;stroke:none" />
      </g>
     </g><g
   class="com.sun.star.drawing.LineShape"
   id="g252">
      <g
   id="id17">
       <path
   d="m 11213,8100 1974,0"
   id="path255"
   inkscape:connector-curvature="0"
   style="fill:none;stroke:#000000" />
       <path
   d="m 11200,8200 0,-67 0,-66 0,-67 9,0 8,0 9,0 0,67 0,66 0,67 -8,0 -9,0 -9,0 z"
   id="path257"
   inkscape:connector-curvature="0"
   style="fill:#000000;stroke:none" />
       <path
   d="m 13200,8000 0,67 0,66 0,67 -9,0 -8,0 -9,0 0,-67 0,-66 0,-67 8,0 9,0 9,0 z"
   id="path259"
   inkscape:connector-curvature="0"
   style="fill:#000000;stroke:none" />
      </g>
     </g><g
   id="id18">
       <defs
   id="defs264">
        <mask
   id="mask3">
         <g
   id="g267">
          <defs
   id="defs269">
           <linearGradient
   gradientUnits="userSpaceOnUse"
   y2="13800"
   x2="14175"
   y1="12398"
   x1="14175"
   id="gradient3">
            <stop
   id="stop272"
   style="stop-color:rgb(255,255,255)"
   offset="0" />
            <stop
   id="stop274"
   style="stop-color:rgb(0,0,0)"
   offset="1" />
           </linearGradient>
          </defs>
          <path
   inkscape:connector-curvature="0"
   id="path276"
   d="m 13201,12399 1949,0 0,1400 -1949,0 0,-1400 z"
   style="fill:url(#gradient3)" />
         </g>
        </mask>
       </defs>
       <g
   mask="url(#mask3)"
   id="g278">
        <path
   style="fill:#c0c0c0;stroke:none"
   inkscape:connector-curvature="0"
   id="path280"
   d="m 7576,7600 -975,0 0,-1400 1949,0 0,1400 -974,0 z" />
       </g>
       <path
   style="fill:none;stroke:#000000"
   inkscape:connector-curvature="0"
   id="path282"
   d="m 7576,7600 -975,0 0,-1400 1949,0 0,1400 -974,0 z" />
       <text
   id="text284"
   class="TextShape"><tspan
     style="font-size:459px;font-weight:400;font-family:'Nimbus Sans L, sans-serif'"
     id="tspan286"
     font-weight="400"
     font-size="459px"
     class="TextParagraph"><tspan
       id="tspan288"
       y="7054"
       x="7207"
       class="TextPosition"><tspan
         style="fill:#000000;stroke:none"
         id="tspan290">VM</tspan></tspan></tspan></text>






      </g><g
   class="com.sun.star.drawing.CustomShape"
   id="g292">
      <g
   id="id19">
       <defs
   id="defs295">
        <mask
   id="mask4">
         <g
   id="g298">
          <defs
   id="defs300">
           <linearGradient
   id="gradient4"
   x1="18777"
   y1="12398"
   x2="18777"
   y2="13800"
   gradientUnits="userSpaceOnUse">
            <stop
   offset="0"
   style="stop-color:rgb(255,255,255)"
   id="stop303" />
            <stop
   offset="1"
   style="stop-color:rgb(127,127,127)"
   id="stop305" />
           </linearGradient>
          </defs>
          <path
   style="fill:url(#gradient4)"
   d="m 17803,12399 1949,0 0,1400 -1949,0 0,-1400 z"
   id="path307"
   inkscape:connector-curvature="0" />
         </g>
        </mask>
       </defs>
       <g
   id="g309"
   mask="url(#mask4)">
        <path
   d="m 9877,7600 -975,0 0,-1400 1949,0 0,1400 -974,0 z"
   id="path311"
   inkscape:connector-curvature="0"
   style="fill:#c0c0c0;stroke:none" />
       </g>
       <path
   d="m 9877,7600 -975,0 0,-1400 1949,0 0,1400 -974,0 z"
   id="path313"
   inkscape:connector-curvature="0"
   style="fill:none;stroke:#c0c0c0" />
       <text
   class="TextShape"
   id="text315"><tspan
     class="TextParagraph"
     font-size="459px"
     font-weight="400"
     id="tspan317"
     style="font-size:459px;font-weight:400;font-family:'Nimbus Sans L, sans-serif'"><tspan
       class="TextPosition"
       x="9508"
       y="7054"
       id="tspan319"><tspan
         id="tspan321"
         style="fill:#808080;stroke:none">VM</tspan></tspan></tspan></text>






      </g>
     </g><g
   class="com.sun.star.drawing.CustomShape"
   id="g323">
      <g
   id="id20">
       <defs
   id="defs326">
        <mask
   id="mask5">
         <g
   id="g329">
          <defs
   id="defs331">
           <linearGradient
   id="gradient5"
   x1="23377"
   y1="12398"
   x2="23377"
   y2="13800"
   gradientUnits="userSpaceOnUse">
            <stop
   offset="0"
   style="stop-color:rgb(255,255,255)"
   id="stop334" />
            <stop
   offset="1"
   style="stop-color:rgb(0,0,0)"
   id="stop336" />
           </linearGradient>
          </defs>
          <path
   style="fill:url(#gradient5)"
   d="m 22403,12399 1949,0 0,1400 -1949,0 0,-1400 z"
   id="path338"
   inkscape:connector-curvature="0" />
         </g>
        </mask>
       </defs>
       <g
   id="g340"
   mask="url(#mask5)">
        <path
   d="m 12177,7600 -975,0 0,-1400 1949,0 0,1400 -974,0 z"
   id="path342"
   inkscape:connector-curvature="0"
   style="fill:#c0c0c0;stroke:none" />
       </g>
       <path
   d="m 12177,7600 -975,0 0,-1400 1949,0 0,1400 -974,0 z"
   id="path344"
   inkscape:connector-curvature="0"
   style="fill:none;stroke:#000000" />
       <text
   class="TextShape"
   id="text346"><tspan
     class="TextParagraph"
     font-size="459px"
     font-weight="400"
     id="tspan348"
     style="font-size:459px;font-weight:400;font-family:'Nimbus Sans L, sans-serif'"><tspan
       class="TextPosition"
       x="11808"
       y="7054"
       id="tspan350"><tspan
         id="tspan352"
         style="fill:#000000;stroke:none">VM</tspan></tspan></tspan></text>






      </g>
     </g><g
   class="com.sun.star.drawing.TextShape"
   id="g354">
      <g
   id="id21">
       <text
   class="TextShape"
   id="text357"><tspan
     class="TextParagraph"
     font-size="494px"
     font-weight="400"
     id="tspan359"
     style="font-size:459px;font-weight:400;font-family:'Nimbus Sans L, sans-serif'"><tspan
       class="TextPosition"
       x="7550"
       y="17322"
       id="tspan361"><tspan
         id="tspan363"
         style="fill:#000000;stroke:none">local disk</tspan></tspan></tspan></text>






      </g>
     </g><g
   class="com.sun.star.drawing.TextShape"
   id="g365"
   transform="translate(1069.3643,-125.84104)">
      <g
   id="id22">
       <text
   class="TextShape"
   id="text368"
   x="1085.208"
   y="0"><tspan
     class="TextParagraph"
     font-size="494px"
     font-weight="700"
     id="tspan370"
     style="font-size:459px;font-weight:bold;font-family:'Nimbus Sans L, sans-serif'"><tspan
       class="TextPosition"
       x="1750"
       y="14565"
       id="tspan372"
       style="text-align:end;text-anchor:end;fill:#000000;stroke:none;-inkscape-font-specification:Nimbus Sans L Bold;font-family:Nimbus Sans L;font-weight:bold;font-style:normal;font-stretch:normal;font-variant:normal">LVM</tspan></tspan></text>






      </g>
     </g><g
   class="com.sun.star.drawing.TextShape"
   id="g376"
   transform="translate(1439.7364,-125.84104)">
      <g
   id="id23">
       <text
   class="TextShape"
   id="text379"
   x="1367.9072"
   y="0"><tspan
     class="TextParagraph"
     font-size="494px"
     font-weight="700"
     id="tspan381"
     style="font-size:459px;font-weight:bold;font-family:'Nimbus Sans L, sans-serif'"><tspan
       class="TextPosition"
       x="1390"
       y="13566"
       id="tspan383"
       style="text-align:end;text-anchor:end;fill:#000000;stroke:none;-inkscape-font-specification:Nimbus Sans L Bold;font-family:Nimbus Sans L;font-weight:bold;font-style:normal;font-stretch:normal;font-variant:normal">DRBD</tspan></tspan></text>






      </g>
     </g><g
   class="com.sun.star.drawing.TextShape"
   id="g387"
   transform="translate(1270.7764,-125.84104)">
      <g
   id="id24">
       <text
   class="TextShape"
   id="text390"
   x="1208.708"
   y="0"><tspan
     class="TextParagraph"
     font-size="494px"
     font-weight="700"
     id="tspan392"
     style="font-size:459px;font-weight:bold;font-family:'Nimbus Sans L, sans-serif'"><tspan
       class="TextPosition"
       x="1551"
       y="12267"
       id="tspan394"
       style="text-align:end;text-anchor:end;fill:#000000;stroke:none;-inkscape-font-specification:Nimbus Sans L Bold;font-family:Nimbus Sans L;font-weight:bold;font-style:normal;font-stretch:normal;font-variant:normal">iSCSI</tspan></tspan></text>






      </g>
     </g><g
   class="com.sun.star.drawing.TextShape"
   id="g398"
   transform="translate(2268.3644,-125.84104)">
      <g
   id="id25">
       <text
   class="TextShape"
   id="text401"
   x="2305.0117"
   y="0"><tspan
     class="TextParagraph"
     font-size="494px"
     font-weight="700"
     id="tspan403"
     style="font-size:459px;font-weight:bold;font-family:'Nimbus Sans L, sans-serif'"><tspan
       class="TextPosition"
       x="551"
       y="8267"
       id="tspan405"
       style="text-align:end;text-anchor:end;fill:#000000;stroke:none;-inkscape-font-specification:Nimbus Sans L Bold;font-family:Nimbus Sans L;font-weight:bold;font-style:normal;font-stretch:normal;font-variant:normal">oVirt LVM</tspan></tspan></text>






      </g>
     </g><g
   class="com.sun.star.drawing.TextShape"
   id="g409"
   transform="translate(2266.1935,-125.84104)">
      <g
   id="id26">
       <text
   class="TextShape"
   id="text412"
   x="2205.874"
   y="0"
   style="text-align:end;text-anchor:end"><tspan
     class="TextParagraph"
     font-size="494px"
     font-weight="700"
     id="tspan414"
     style="font-size:459px;font-weight:bold;font-family:'Nimbus Sans L, sans-serif'"><tspan
       class="TextPosition"
       x="551"
       y="7168"
       id="tspan416"
       style="font-size:459px;font-weight:bold;font-family:'Nimbus Sans L, sans-serif'">oVirt VMs</tspan></tspan></text>






      </g>
     </g><g
   class="com.sun.star.drawing.LineShape"
   id="g420">
      <g
   id="id27">
       <path
   d="m 7564,8100 0,470"
   id="path423"
   inkscape:connector-curvature="0"
   style="fill:none;stroke:#000000" />
       <path
   d="m 7564,9000 150,-450 -300,0 150,450 z"
   id="path425"
   inkscape:connector-curvature="0"
   style="fill:#000000;stroke:none" />
      </g>
     </g><g
   class="com.sun.star.drawing.LineShape"
   id="g427">
      <g
   id="id28">
       <path
   d="m 12200,8100 0,470"
   id="path430"
   inkscape:connector-curvature="0"
   style="fill:none;stroke:#000000" />
       <path
   d="m 12200,9000 150,-450 -300,0 150,450 z"
   id="path432"
   inkscape:connector-curvature="0"
   style="fill:#000000;stroke:none" />
      </g>
     </g><g
   class="com.sun.star.drawing.LineShape"
   id="g434">
      <g
   id="id29">
       <path
   d="m 9800,9600 0,1870"
   id="path437"
   inkscape:connector-curvature="0"
   style="fill:none;stroke:#000000" />
       <path
   d="m 9800,11900 150,-450 -300,0 150,450 z"
   id="path439"
   inkscape:connector-curvature="0"
   style="fill:#000000;stroke:none" />
      </g>
     </g><g
   class="com.sun.star.drawing.LineShape"
   id="g441">
      <g
   id="id30">
       <path
   d="m 5000,5500 5,7137"
   id="path444"
   inkscape:connector-curvature="0"
   style="fill:none;stroke:#000000" />
       <path
   d="m 5005,13067 150,-450 -300,0 150,450 z"
   id="path446"
   inkscape:connector-curvature="0"
   style="fill:#000000;stroke:none" />
      </g>
     </g><g
   class="com.sun.star.drawing.LineShape"
   id="g448">
      <g
   id="id31">
       <path
   d="m 9796,12500 0,170"
   id="path451"
   inkscape:connector-curvature="0"
   style="fill:none;stroke:#000000" />
       <path
   d="m 9796,13100 150,-450 -300,0 150,450 z"
   id="path453"
   inkscape:connector-curvature="0"
   style="fill:#000000;stroke:none" />
      </g>
     </g><g
   class="com.sun.star.drawing.TextShape"
   id="g455">
      <g
   id="id32">
       <text
   class="TextShape"
   id="text458"><tspan
     class="TextParagraph"
     font-size="635px"
     font-weight="700"
     id="tspan460"
     style="font-size:564.44444882px;font-weight:bold;font-family:'Nimbus Sans L, sans-serif'"><tspan
       class="TextPosition"
       x="6850"
       y="1292"
       id="tspan462"
       style="font-size:564.44444882px;font-weight:bold;font-family:'Nimbus Sans L, sans-serif'">ovirt-hyp1</tspan></tspan></text>






      </g>
     </g><g
   class="com.sun.star.drawing.TextShape"
   id="g466">
      <g
   id="id33">
       <text
   class="TextShape"
   id="text469"><tspan
     class="TextParagraph"
     font-size="423px"
     font-weight="400"
     id="tspan471"
     style="font-size:459px;font-weight:400;font-family:'Nimbus Sans L, sans-serif'"><tspan
       class="TextPosition"
       x="3882"
       y="14903"
       id="tspan473"
       style="font-size:459px;font-weight:400;font-family:'Nimbus Sans L, sans-serif'">LV kvm_oVirtm</tspan></tspan></text>






      </g>
     </g><path
   d="m 16783,1800 c -892,0 -1784,892 -1784,1784 l 0,13632 c 0,892 892,1785 1784,1785 l 7137,0 c 892,0 1785,-893 1785,-1785 l 0,-13632 c 0,-892 -893,-1784 -1785,-1784 l -7137,0 z"
   id="path498"
   inkscape:connector-curvature="0"
   style="fill:none;stroke:#000000" /><path
   d="m 14999,1800 0,0 z"
   id="path500"
   inkscape:connector-curvature="0"
   style="fill:none;stroke:#000000" /><path
   d="m 25705,19001 0,0 z"
   id="path502"
   inkscape:connector-curvature="0"
   style="fill:none;stroke:#000000" /><path
   d="m 20364,15399 c -2564,0 -4700,167 -4700,369 l 0,2214 c 0,201 2136,369 4700,369 2564,0 4701,-168 4701,-369 l 0,-2214 c 0,-202 -2137,-369 -4701,-369 l 0,0 z m -4700,0 0,0 z m 9401,2952 0,0 z"
   id="path507"
   inkscape:connector-curvature="0"
   style="fill:#cccccc;stroke:none" /><path
   d="m 20364,15399 c -2564,0 -4700,167 -4700,369 l 0,2214 c 0,201 2136,369 4700,369 2564,0 4701,-168 4701,-369 l 0,-2214 c 0,-202 -2137,-369 -4701,-369 z"
   id="path509"
   inkscape:connector-curvature="0"
   style="fill:none;stroke:#000000" /><path
   d="m 15664,15399 0,0 z"
   id="path511"
   inkscape:connector-curvature="0"
   style="fill:none;stroke:#000000" /><path
   d="m 25065,18351 0,0 z"
   id="path513"
   inkscape:connector-curvature="0"
   style="fill:none;stroke:#000000" /><path
   d="m 20364,15399 c -2564,0 -4700,167 -4700,369 0,201 2136,369 4700,369 2564,0 4701,-168 4701,-369 0,-202 -2137,-369 -4701,-369 l 0,0 z m -4700,0 0,0 z m 9401,2952 0,0 z"
   id="path515"
   inkscape:connector-curvature="0"
   style="fill:#e0e0e0;stroke:none" /><path
   d="m 20364,15399 c -2564,0 -4700,167 -4700,369 0,201 2136,369 4700,369 2564,0 4701,-168 4701,-369 0,-202 -2137,-369 -4701,-369 z"
   id="path517"
   inkscape:connector-curvature="0"
   style="fill:none;stroke:#000000" /><path
   d="m 15664,15399 0,0 z"
   id="path519"
   inkscape:connector-curvature="0"
   style="fill:none;stroke:#000000" /><path
   d="m 25065,18351 0,0 z"
   id="path521"
   inkscape:connector-curvature="0"
   style="fill:none;stroke:#000000" /><path
   d="m 15552,14500 2974,0"
   id="path526"
   inkscape:connector-curvature="0"
   style="fill:none;stroke:#000000" /><path
   d="m 15539,14600 0,-67 0,-66 0,-67 9,0 8,0 9,0 0,67 0,66 0,67 -8,0 -9,0 -9,0 z"
   id="path528"
   inkscape:connector-curvature="0"
   style="fill:#000000;stroke:none" /><path
   d="m 18539,14400 0,67 0,66 0,67 -9,0 -8,0 -9,0 0,-67 0,-66 0,-67 8,0 9,0 9,0 z"
   id="path530"
   inkscape:connector-curvature="0"
   style="fill:#000000;stroke:none" /><path
   d="m 18613,14500 6574,0"
   id="path535"
   inkscape:connector-curvature="0"
   style="fill:none;stroke:#000000" /><path
   d="m 18600,14600 0,-67 0,-66 0,-67 9,0 8,0 9,0 0,67 0,66 0,67 -8,0 -9,0 -9,0 z"
   id="path537"
   inkscape:connector-curvature="0"
   style="fill:#000000;stroke:none" /><path
   d="m 25200,14400 0,67 0,66 0,67 -9,0 -8,0 -9,0 0,-67 0,-66 0,-67 8,0 9,0 9,0 z"
   id="path539"
   inkscape:connector-curvature="0"
   style="fill:#000000;stroke:none" /><path
   d="m 17030,13700 -1479,0 0,-600 2957,0 0,600 -1478,0 z"
   id="path544"
   inkscape:connector-curvature="0"
   style="fill:#ff950e;fill-opacity:0.50199998;stroke:#ffffff;stroke-opacity:0.50199998" /><path
   d="m 17030,13700 -1479,0 0,-600 2957,0 0,600 -1478,0 z"
   id="path546"
   inkscape:connector-curvature="0"
   style="fill:none;stroke:#000000" /><text
   class="TextShape"
   id="text548"><tspan
     class="TextParagraph"
     font-size="459px"
     font-weight="400"
     id="tspan550"
     style="font-size:459px;font-weight:400;font-family:'Nimbus Sans L, sans-serif'"><tspan
       class="TextPosition"
       x="15942"
       y="13554"
       id="tspan552"><tspan
         id="tspan554"
         style="fill:#000000;stroke:none">kvm-ovirtm</tspan></tspan></tspan></text>





<path
   d="m 21900,13700 -3300,0 0,-600 6599,0 0,600 -3299,0 z"
   id="path559"
   inkscape:connector-curvature="0"
   style="fill:#ff950e;fill-opacity:0.50199998;stroke:#ffffff;stroke-opacity:0.50199998" /><path
   d="m 21900,13700 -3300,0 0,-600 6599,0 0,600 -3299,0 z"
   id="path561"
   inkscape:connector-curvature="0"
   style="fill:none;stroke:#000000" /><text
   class="TextShape"
   id="text563"><tspan
     class="TextParagraph"
     font-size="459px"
     font-weight="400"
     id="tspan565"
     style="font-size:459px;font-weight:400;font-family:'Nimbus Sans L, sans-serif'"><tspan
       class="TextPosition"
       x="21493"
       y="13554"
       id="tspan567"><tspan
         id="tspan569"
         style="fill:#000000;stroke:none">iscsi</tspan></tspan></tspan></text>





<g
   id="g588"
   mask="url(#mask7)">
        <path
   d="m 16979,5500 -1479,0 0,-2400 2957,0 0,2400 -1478,0 z"
   id="path590"
   inkscape:connector-curvature="0"
   style="fill:#c0c0c0;stroke:none" />
       </g><path
   d="m 16979,5500 -1479,0 0,-2400 2957,0 0,2400 -1478,0 z"
   id="path592"
   inkscape:connector-curvature="0"
   style="fill:none;stroke:#c0c0c0" /><text
   class="TextShape"
   id="text594"><tspan
     class="TextParagraph"
     font-size="459px"
     font-weight="400"
     id="tspan596"
     style="font-size:459px;font-weight:400;font-family:'Nimbus Sans L, sans-serif'"><tspan
       class="TextPosition"
       x="16318"
       y="4169"
       id="tspan598"><tspan
         id="tspan600"
         style="fill:#808080;stroke:none">oVirtm</tspan></tspan></tspan><tspan
     class="TextParagraph"
     font-size="459px"
     font-weight="400"
     id="tspan602"
     style="font-size:459px;font-weight:400;font-family:'Nimbus Sans L, sans-serif'"><tspan
       class="TextPosition"
       x="16636"
       y="4736"
       id="tspan604"><tspan
         id="tspan606"
         style="fill:#808080;stroke:none">VM</tspan></tspan></tspan></text>





<path
   d="m 21901,12500 -3300,0 0,-600 6599,0 0,600 -3299,0 z"
   id="path611"
   inkscape:connector-curvature="0"
   style="fill:#e6e6e6;stroke:none" /><path
   d="m 21901,12500 -3300,0 0,-600 6599,0 0,600 -3299,0 z"
   id="path613"
   inkscape:connector-curvature="0"
   style="fill:none;stroke:#c0c0c0" /><text
   class="TextShape"
   id="text615"><tspan
     class="TextParagraph"
     font-size="459px"
     font-weight="400"
     id="tspan617"
     style="font-size:459px;font-weight:400;font-family:'Nimbus Sans L, sans-serif'"><tspan
       class="TextPosition"
       x="21342"
       y="12354"
       id="tspan619"><tspan
         id="tspan621"
         style="fill:#808080;stroke:none">store1</tspan></tspan></tspan></text>





<path
   d="m 21902,9600 -3300,0 0,-600 6599,0 0,600 -3299,0 z"
   id="path626"
   inkscape:connector-curvature="0"
   style="fill:#e6e6e6;stroke:none" /><path
   d="m 21902,9600 -3300,0 0,-600 6599,0 0,600 -3299,0 z"
   id="path628"
   inkscape:connector-curvature="0"
   style="fill:none;stroke:#000000" /><text
   class="TextShape"
   id="text630"><tspan
     class="TextParagraph"
     font-size="459px"
     font-weight="400"
     id="tspan632"
     style="font-size:459px;font-weight:400;font-family:'Nimbus Sans L, sans-serif'"><tspan
       class="TextPosition"
       x="19984"
       y="9453"
       id="tspan634"
       style="fill:#000000;stroke:none">oVirt iSCSI initiator</tspan></tspan></text>





<path
   d="m 18613,8100 1974,0"
   id="path641"
   inkscape:connector-curvature="0"
   style="fill:none;stroke:#000000" /><path
   d="m 18600,8200 0,-67 0,-66 0,-67 9,0 8,0 9,0 0,67 0,66 0,67 -8,0 -9,0 -9,0 z"
   id="path643"
   inkscape:connector-curvature="0"
   style="fill:#000000;stroke:none" /><path
   d="m 20600,8000 0,67 0,66 0,67 -9,0 -8,0 -9,0 0,-67 0,-66 0,-67 8,0 9,0 9,0 z"
   id="path645"
   inkscape:connector-curvature="0"
   style="fill:#000000;stroke:none" /><path
   d="m 20913,8100 1974,0"
   id="path650"
   inkscape:connector-curvature="0"
   style="fill:none;stroke:#000000" /><path
   d="m 20900,8200 0,-67 0,-66 0,-67 9,0 8,0 9,0 0,67 0,66 0,67 -8,0 -9,0 -9,0 z"
   id="path652"
   inkscape:connector-curvature="0"
   style="fill:#000000;stroke:none" /><path
   d="m 22900,8000 0,67 0,66 0,67 -9,0 -8,0 -9,0 0,-67 0,-66 0,-67 8,0 9,0 9,0 z"
   id="path654"
   inkscape:connector-curvature="0"
   style="fill:#000000;stroke:none" /><path
   d="m 23213,8100 1974,0"
   id="path659"
   inkscape:connector-curvature="0"
   style="fill:none;stroke:#000000" /><path
   d="m 23200,8200 0,-67 0,-66 0,-67 9,0 8,0 9,0 0,67 0,66 0,67 -8,0 -9,0 -9,0 z"
   id="path661"
   inkscape:connector-curvature="0"
   style="fill:#000000;stroke:none" /><path
   d="m 25200,8000 0,67 0,66 0,67 -9,0 -8,0 -9,0 0,-67 0,-66 0,-67 8,0 9,0 9,0 z"
   id="path663"
   inkscape:connector-curvature="0"
   style="fill:#000000;stroke:none" /><g
   id="g682"
   mask="url(#mask8)">
        <path
   d="m 21876,7600 -975,0 0,-1400 1949,0 0,1400 -974,0 z"
   id="path684"
   inkscape:connector-curvature="0"
   style="fill:#c0c0c0;stroke:none" />
       </g><path
   d="m 21876,7600 -975,0 0,-1400 1949,0 0,1400 -974,0 z"
   id="path686"
   inkscape:connector-curvature="0"
   style="fill:none;stroke:#000000" /><text
   class="TextShape"
   id="text688"><tspan
     class="TextParagraph"
     font-size="459px"
     font-weight="400"
     id="tspan690"
     style="font-size:459px;font-weight:400;font-family:'Nimbus Sans L, sans-serif'"><tspan
       class="TextPosition"
       x="21533"
       y="7053"
       id="tspan692"><tspan
         id="tspan694"
         style="fill:#000000;stroke:none">VM</tspan></tspan></tspan></text>





<text
   class="TextShape"
   id="text699"><tspan
     class="TextParagraph"
     font-size="494px"
     font-weight="400"
     id="tspan701"
     style="font-size:459px;font-weight:400;font-family:'Nimbus Sans L, sans-serif'"><tspan
       class="TextPosition"
       x="19550"
       y="17322"
       id="tspan703"><tspan
         id="tspan705"
         style="fill:#000000;stroke:none">local disk</tspan></tspan></tspan></text>





<path
   d="m 21900,8100 0,470"
   id="path710"
   inkscape:connector-curvature="0"
   style="fill:none;stroke:#000000" /><path
   d="m 21900,9000 150,-450 -300,0 150,450 z"
   id="path712"
   inkscape:connector-curvature="0"
   style="fill:#000000;stroke:none" /><g
   class="com.sun.star.drawing.LineShape"
   id="g714">
      <g
   id="id49">
       <path
   d="M 21800,9600 10222,11819"
   id="path717"
   inkscape:connector-curvature="0"
   style="fill:none;stroke:#000000" />
       <path
   d="m 9800,11900 470,63 -56,-295 -414,232 z"
   id="path719"
   inkscape:connector-curvature="0"
   style="fill:#000000;stroke:none" />
      </g>
     </g><path
   d="m 17000,5500 5,7137"
   id="path724"
   inkscape:connector-curvature="0"
   style="fill:none;stroke:#c0c0c0" /><path
   d="m 17005,13067 150,-450 -300,0 150,450 z"
   id="path726"
   inkscape:connector-curvature="0"
   style="fill:#c0c0c0;stroke:none" /><path
   d="m 21796,12500 0,170"
   id="path731"
   inkscape:connector-curvature="0"
   style="fill:none;stroke:#c0c0c0" /><path
   d="m 21796,13100 150,-450 -300,0 150,450 z"
   id="path733"
   inkscape:connector-curvature="0"
   style="fill:#c0c0c0;stroke:none" /><text
   class="TextShape"
   id="text738"><tspan
     class="TextParagraph"
     font-size="635px"
     font-weight="700"
     id="tspan740"
     style="font-size:564.44444882px;font-weight:bold;font-family:'Nimbus Sans L, sans-serif'"><tspan
       class="TextPosition"
       x="18850"
       y="1292"
       id="tspan742"
       style="font-size:564.44444882px;font-weight:bold;font-family:'Nimbus Sans L, sans-serif'">ovirt-hyp2</tspan></tspan></text>





<text
   class="TextShape"
   id="text749"><tspan
     class="TextParagraph"
     font-size="423px"
     font-weight="400"
     id="tspan751"
     style="font-size:459px;font-weight:400;font-family:'Nimbus Sans L, sans-serif'"><tspan
       class="TextPosition"
       x="15882"
       y="14903"
       id="tspan753"><tspan
         id="tspan755"
         style="fill:#000000;stroke:none">LV kvm_oVirtm</tspan></tspan></tspan></text>





<g
   id="g774"
   mask="url(#mask9)">
        <path
   d="m 24178,7600 -975,0 0,-1400 1949,0 0,1400 -974,0 z"
   id="path776"
   inkscape:connector-curvature="0"
   style="fill:#c0c0c0;stroke:none" />
       </g><path
   d="m 24178,7600 -975,0 0,-1400 1949,0 0,1400 -974,0 z"
   id="path778"
   inkscape:connector-curvature="0"
   style="fill:none;stroke:#c0c0c0" /><text
   class="TextShape"
   id="text780"><tspan
     class="TextParagraph"
     font-size="459px"
     font-weight="400"
     id="tspan782"
     style="font-size:459px;font-weight:400;font-family:'Nimbus Sans L, sans-serif'"><tspan
       class="TextPosition"
       x="23809"
       y="7054"
       id="tspan784"><tspan
         id="tspan786"
         style="fill:#808080;stroke:none">VM</tspan></tspan></tspan></text>





<g
   class="com.sun.star.drawing.PolyLineShape"
   id="g788">
      <g
   id="id55">
       <path
   d="m 5000,13700 0,300 12000,0 0,-300"
   id="path791"
   inkscape:connector-curvature="0"
   style="fill:none;stroke:#000000" />
      </g>
     </g><g
   class="com.sun.star.drawing.PolyLineShape"
   id="g793">
      <g
   id="id56">
       <path
   d="m 9800,13700 0,500 12200,0 0,-500"
   id="path796"
   inkscape:connector-curvature="0"
   style="fill:none;stroke:#000000" />
      </g>
     </g><g
   class="com.sun.star.drawing.TextShape"
   id="g798">
      <g
   id="id57">
       <text
   class="TextShape"
   id="text801"><tspan
     class="TextParagraph"
     font-size="423px"
     font-weight="400"
     id="tspan803"
     style="font-size:459px;font-weight:400;font-family:'Nimbus Sans L, sans-serif'"><tspan
       class="TextPosition"
       x="9216"
       y="14934"
       id="tspan805"><tspan
         id="tspan807"
         style="fill:#000000;stroke:none">LV iscsi</tspan></tspan></tspan></text>






      </g>
     </g><text
   class="TextShape"
   id="text812"><tspan
     class="TextParagraph"
     font-size="423px"
     font-weight="400"
     id="tspan814"
     style="font-size:459px;font-weight:400;font-family:'Nimbus Sans L, sans-serif'"><tspan
       class="TextPosition"
       x="21216"
       y="14934"
       id="tspan816"><tspan
         id="tspan818"
         style="fill:#000000;stroke:none">LV iscsi</tspan></tspan></tspan></text>





<g
   id="g837"
   mask="url(#mask10)">
        <path
   d="m 19579,7600 -975,0 0,-1400 1949,0 0,1400 -974,0 z"
   id="path839"
   inkscape:connector-curvature="0"
   style="fill:#c0c0c0;stroke:none" />
       </g><path
   d="m 19579,7600 -975,0 0,-1400 1949,0 0,1400 -974,0 z"
   id="path841"
   inkscape:connector-curvature="0"
   style="fill:none;stroke:#c0c0c0" /><text
   class="TextShape"
   id="text843"><tspan
     class="TextParagraph"
     font-size="459px"
     font-weight="400"
     id="tspan845"
     style="font-size:459px;font-weight:400;font-family:'Nimbus Sans L, sans-serif'"><tspan
       class="TextPosition"
       x="19210"
       y="7054"
       id="tspan847"><tspan
         id="tspan849"
         style="fill:#808080;stroke:none">VM</tspan></tspan></tspan></text>






</svg>