<?xml version="1.0" encoding="UTF-8" standalone="no"?>
<!-- Created with Inkscape (http://www.inkscape.org/) -->
<svg
   xmlns:svg="http://www.w3.org/2000/svg"
   xmlns="http://www.w3.org/2000/svg"
   version="1.0"
   width="659"
   height="338"
   id="svg3851">
  <defs
     id="defs3853" />
  <g
     id="layer1">
    <g
       transform="matrix(2.6574644e-2,0,0,2.6574644e-2,-33.660723,-134.55967)"
       id="Stacking_with_4_nodes"
       style="fill-rule:evenodd;visibility:visible">
      <desc
         id="desc3396">Slide</desc>
      <g
         id="g3398">
        <desc
           id="desc3400">Drawing</desc>
        <g
           id="g3402">
          <g
             id="g3404"
             style="fill:none;stroke:#000000">
            <path
               d="M 7301,17780 L 1269,17780 L 1269,5080 L 13334,5080 L 13334,17780 L 7301,17780"
               id="path3406"
               style="fill:none;stroke-width:50" />
          </g>
          <g
             id="g3408">
            <g
               id="g3410"
               style="font-size:635px;font-weight:400;font-family:Helvetica embedded">
              <g
                 id="g3412"
                 style="fill:#1a1a1a;stroke:none">
                <text
                   id="text3414">
                  <tspan
                     x="4608 5019 5370 5688 6039 6568 6919 7228 7580 7791 7969 8426 8566 8918 9235 9409 9760"
                     y="16692"
                     id="tspan3416">Pacemaker Cluster</tspan>
                </text>
                <text
                   id="text3418">
                  <tspan
                     x="6428 6640 6779 7131 7448 7800 7939"
                     y="17479"
                     id="tspan3420">(local)</tspan>
                </text>
              </g>
            </g>
          </g>
        </g>
      </g>
      <g
         id="g3422">
        <desc
           id="desc3424">Drawing</desc>
        <g
           id="g3426">
          <g
             id="g3428"
             style="fill:none;stroke:#000000">
            <path
               d="M 20001,17780 L 13969,17780 L 13969,5080 L 26034,5080 L 26034,17780 L 20001,17780"
               id="path3430"
               style="fill:none;stroke-width:50" />
          </g>
          <g
             id="g3432">
            <g
               id="g3434"
               style="font-size:635px;font-weight:400;font-family:Helvetica embedded">
              <g
                 id="g3436"
                 style="fill:#1a1a1a;stroke:none">
                <text
                   id="text3438">
                  <tspan
                     x="17308 17719 18070 18388 18739 19268 19619 19928 20280 20491 20669 21126 21266 21618 21935 22109 22460"
                     y="16692"
                     id="tspan3440">Pacemaker Cluster</tspan>
                </text>
                <text
                   id="text3442">
                  <tspan
                     x="18798 19010 19217 19568 20098 20445 20618 20970"
                     y="17479"
                     id="tspan3444">(remote)</tspan>
                </text>
              </g>
            </g>
          </g>
        </g>
      </g>
      <g
         id="g3446">
        <desc
           id="desc3448">Drawing</desc>
        <g
           id="g3450">
          <g
             id="g3452"
             style="fill:#c0c0c0;stroke:none">
            <path
               d="M 2540,8890 L 6350,8890 L 6350,11430 L 2540,11430 L 2540,8890 z"
               id="path3454" />
          </g>
          <g
             id="g3456"
             style="fill:none;stroke:#000000">
            <path
               d="M 4445,11430 L 2540,11430 L 2540,8890 L 6350,8890 L 6350,11430 L 4445,11430"
               id="path3458"
               style="fill:none" />
          </g>
          <g
             id="g3460">
            <g
               id="g3462"
               style="font-size:635px;font-weight:400;font-family:Helvetica embedded">
              <g
                 id="g3464"
                 style="fill:#1a1a1a;stroke:none">
                <text
                   id="text3466">
                  <tspan
                     x="4001 4141 4492 4687"
                     y="10368"
                     id="tspan3468">left</tspan>
                </text>
              </g>
            </g>
          </g>
        </g>
      </g>
      <g
         id="g3470">
        <desc
           id="desc3472">Drawing</desc>
        <g
           id="g3474">
          <g
             id="g3476"
             style="fill:#99ccff;stroke:none">
            <path
               d="M 4445,12065 L 4065,12075 L 3709,12103 L 3386,12147 L 3103,12206 L 2979,12239 L 2869,12276 L 2773,12315 L 2692,12357 L 2627,12401 L 2601,12423 L 2579,12446 L 2562,12469 L 2550,12493 L 2543,12517 L 2540,12541 L 2540,15399 L 2543,15423 L 2550,15447 L 2562,15471 L 2579,15494 L 2601,15517 L 2627,15540 L 2692,15583 L 2773,15625 L 2869,15664 L 2979,15701 L 3103,15735 L 3386,15794 L 3709,15838 L 4065,15866 L 4445,15876 L 4825,15866 L 5181,15838 L 5504,15794 L 5787,15735 L 5911,15701 L 6021,15664 L 6117,15625 L 6198,15583 L 6263,15540 L 6289,15517 L 6311,15494 L 6328,15471 L 6340,15447 L 6347,15423 L 6350,15399 L 6350,12541 L 6347,12517 L 6340,12493 L 6328,12469 L 6311,12446 L 6289,12423 L 6263,12401 L 6198,12357 L 6117,12315 L 6021,12276 L 5911,12239 L 5787,12206 L 5504,12147 L 5181,12103 L 4825,12075 L 4445,12065 z"
               id="path3478" />
          </g>
          <g
             id="g3480"
             style="fill:none;stroke:#000000">
            <path
               d="M 4445,12065 L 4065,12075 L 3709,12103 L 3386,12147 L 3103,12206 L 2979,12239 L 2869,12276 L 2773,12315 L 2692,12357 L 2627,12401 L 2601,12423 L 2579,12446 L 2562,12469 L 2550,12493 L 2543,12517 L 2540,12541 L 2540,15399 L 2543,15423 L 2550,15447 L 2562,15471 L 2579,15494 L 2601,15517 L 2627,15540 L 2692,15583 L 2773,15625 L 2869,15664 L 2979,15701 L 3103,15735 L 3386,15794 L 3709,15838 L 4065,15866 L 4445,15876 L 4825,15866 L 5181,15838 L 5504,15794 L 5787,15735 L 5911,15701 L 6021,15664 L 6117,15625 L 6198,15583 L 6263,15540 L 6289,15517 L 6311,15494 L 6328,15471 L 6340,15447 L 6347,15423 L 6350,15399 L 6350,12541 L 6347,12517 L 6340,12493 L 6328,12469 L 6311,12446 L 6289,12423 L 6263,12401 L 6198,12357 L 6117,12315 L 6021,12276 L 5911,12239 L 5787,12206 L 5504,12147 L 5181,12103 L 4825,12075 L 4445,12065"
               id="path3482"
               style="fill:none" />
          </g>
          <g
             id="g3484"
             style="fill:#a7dfff;stroke:none">
            <path
               d="M 4445,12065 L 4065,12075 L 3709,12103 L 3386,12147 L 3103,12206 L 2979,12239 L 2869,12276 L 2773,12315 L 2692,12357 L 2627,12401 L 2601,12423 L 2579,12446 L 2562,12469 L 2550,12493 L 2543,12517 L 2540,12541 L 2543,12565 L 2550,12589 L 2562,12613 L 2579,12636 L 2601,12659 L 2627,12681 L 2692,12725 L 2773,12767 L 2869,12806 L 2979,12843 L 3103,12877 L 3386,12935 L 3709,12979 L 4065,13007 L 4445,13017 L 4825,13007 L 5181,12979 L 5504,12935 L 5787,12877 L 5911,12843 L 6021,12806 L 6117,12767 L 6198,12725 L 6263,12681 L 6289,12659 L 6311,12636 L 6328,12613 L 6340,12589 L 6347,12565 L 6350,12541 L 6347,12517 L 6340,12493 L 6328,12469 L 6311,12446 L 6289,12423 L 6263,12401 L 6198,12357 L 6117,12315 L 6021,12276 L 5911,12239 L 5787,12206 L 5504,12147 L 5181,12103 L 4825,12075 L 4445,12065 z"
               id="path3486" />
          </g>
          <g
             id="g3488"
             style="fill:none;stroke:#000000">
            <path
               d="M 4445,12065 L 4065,12075 L 3709,12103 L 3386,12147 L 3103,12206 L 2979,12239 L 2869,12276 L 2773,12315 L 2692,12357 L 2627,12401 L 2601,12423 L 2579,12446 L 2562,12469 L 2550,12493 L 2543,12517 L 2540,12541 L 2543,12565 L 2550,12589 L 2562,12613 L 2579,12636 L 2601,12659 L 2627,12681 L 2692,12725 L 2773,12767 L 2869,12806 L 2979,12843 L 3103,12877 L 3386,12935 L 3709,12979 L 4065,13007 L 4445,13017 L 4825,13007 L 5181,12979 L 5504,12935 L 5787,12877 L 5911,12843 L 6021,12806 L 6117,12767 L 6198,12725 L 6263,12681 L 6289,12659 L 6311,12636 L 6328,12613 L 6340,12589 L 6347,12565 L 6350,12541 L 6347,12517 L 6340,12493 L 6328,12469 L 6311,12446 L 6289,12423 L 6263,12401 L 6198,12357 L 6117,12315 L 6021,12276 L 5911,12239 L 5787,12206 L 5504,12147 L 5181,12103 L 4825,12075 L 4445,12065"
               id="path3490"
               style="fill:none" />
          </g>
          <g
             id="g3492">
            <g
               id="g3494"
               style="font-size:635px;font-weight:400;font-family:Helvetica embedded">
              <g
                 id="g3496"
                 style="fill:#1a1a1a;stroke:none">
                <text
                   id="text3498">
                  <tspan
                     x="3783 4134 4274 4414 4731"
                     y="14416"
                     id="tspan3500">alice</tspan>
                </text>
              </g>
            </g>
          </g>
        </g>
      </g>
      <g
         id="g3502">
        <desc
           id="desc3504">Drawing</desc>
        <g
           id="g3506">
          <g
             id="g3508"
             style="fill:#99ccff;stroke:none">
            <path
               d="M 10160,12065 L 9780,12075 L 9424,12103 L 9101,12147 L 8818,12206 L 8694,12239 L 8584,12276 L 8488,12315 L 8407,12357 L 8342,12401 L 8316,12423 L 8294,12446 L 8277,12469 L 8265,12493 L 8258,12517 L 8255,12541 L 8255,15399 L 8258,15423 L 8265,15447 L 8277,15471 L 8294,15494 L 8316,15517 L 8342,15540 L 8407,15583 L 8488,15625 L 8584,15664 L 8694,15701 L 8818,15735 L 9101,15794 L 9424,15838 L 9780,15866 L 10160,15876 L 10540,15866 L 10896,15838 L 11219,15794 L 11502,15735 L 11626,15701 L 11736,15664 L 11832,15625 L 11913,15583 L 11978,15540 L 12004,15517 L 12026,15494 L 12043,15471 L 12055,15447 L 12062,15423 L 12065,15399 L 12065,12541 L 12062,12517 L 12055,12493 L 12043,12469 L 12026,12446 L 12004,12423 L 11978,12401 L 11913,12357 L 11832,12315 L 11736,12276 L 11626,12239 L 11502,12206 L 11219,12147 L 10896,12103 L 10540,12075 L 10160,12065 z"
               id="path3510" />
          </g>
          <g
             id="g3512"
             style="fill:none;stroke:#000000">
            <path
               d="M 10160,12065 L 9780,12075 L 9424,12103 L 9101,12147 L 8818,12206 L 8694,12239 L 8584,12276 L 8488,12315 L 8407,12357 L 8342,12401 L 8316,12423 L 8294,12446 L 8277,12469 L 8265,12493 L 8258,12517 L 8255,12541 L 8255,15399 L 8258,15423 L 8265,15447 L 8277,15471 L 8294,15494 L 8316,15517 L 8342,15540 L 8407,15583 L 8488,15625 L 8584,15664 L 8694,15701 L 8818,15735 L 9101,15794 L 9424,15838 L 9780,15866 L 10160,15876 L 10540,15866 L 10896,15838 L 11219,15794 L 11502,15735 L 11626,15701 L 11736,15664 L 11832,15625 L 11913,15583 L 11978,15540 L 12004,15517 L 12026,15494 L 12043,15471 L 12055,15447 L 12062,15423 L 12065,15399 L 12065,12541 L 12062,12517 L 12055,12493 L 12043,12469 L 12026,12446 L 12004,12423 L 11978,12401 L 11913,12357 L 11832,12315 L 11736,12276 L 11626,12239 L 11502,12206 L 11219,12147 L 10896,12103 L 10540,12075 L 10160,12065"
               id="path3514"
               style="fill:none" />
          </g>
          <g
             id="g3516"
             style="fill:#a7dfff;stroke:none">
            <path
               d="M 10160,12065 L 9780,12075 L 9424,12103 L 9101,12147 L 8818,12206 L 8694,12239 L 8584,12276 L 8488,12315 L 8407,12357 L 8342,12401 L 8316,12423 L 8294,12446 L 8277,12469 L 8265,12493 L 8258,12517 L 8255,12541 L 8258,12565 L 8265,12589 L 8277,12613 L 8294,12636 L 8316,12659 L 8342,12681 L 8407,12725 L 8488,12767 L 8584,12806 L 8694,12843 L 8818,12877 L 9101,12935 L 9424,12979 L 9780,13007 L 10160,13017 L 10540,13007 L 10896,12979 L 11219,12935 L 11502,12877 L 11626,12843 L 11736,12806 L 11832,12767 L 11913,12725 L 11978,12681 L 12004,12659 L 12026,12636 L 12043,12613 L 12055,12589 L 12062,12565 L 12065,12541 L 12062,12517 L 12055,12493 L 12043,12469 L 12026,12446 L 12004,12423 L 11978,12401 L 11913,12357 L 11832,12315 L 11736,12276 L 11626,12239 L 11502,12206 L 11219,12147 L 10896,12103 L 10540,12075 L 10160,12065 z"
               id="path3518" />
          </g>
          <g
             id="g3520"
             style="fill:none;stroke:#000000">
            <path
               d="M 10160,12065 L 9780,12075 L 9424,12103 L 9101,12147 L 8818,12206 L 8694,12239 L 8584,12276 L 8488,12315 L 8407,12357 L 8342,12401 L 8316,12423 L 8294,12446 L 8277,12469 L 8265,12493 L 8258,12517 L 8255,12541 L 8258,12565 L 8265,12589 L 8277,12613 L 8294,12636 L 8316,12659 L 8342,12681 L 8407,12725 L 8488,12767 L 8584,12806 L 8694,12843 L 8818,12877 L 9101,12935 L 9424,12979 L 9780,13007 L 10160,13017 L 10540,13007 L 10896,12979 L 11219,12935 L 11502,12877 L 11626,12843 L 11736,12806 L 11832,12767 L 11913,12725 L 11978,12681 L 12004,12659 L 12026,12636 L 12043,12613 L 12055,12589 L 12062,12565 L 12065,12541 L 12062,12517 L 12055,12493 L 12043,12469 L 12026,12446 L 12004,12423 L 11978,12401 L 11913,12357 L 11832,12315 L 11736,12276 L 11626,12239 L 11502,12206 L 11219,12147 L 10896,12103 L 10540,12075 L 10160,12065"
               id="path3522"
               style="fill:none" />
          </g>
          <g
             id="g3524">
            <g
               id="g3526"
               style="font-size:635px;font-weight:400;font-family:Helvetica embedded">
              <g
                 id="g3528"
                 style="fill:#1a1a1a;stroke:none">
                <text
                   id="text3530">
                  <tspan
                     x="9621 9972 10324"
                     y="14416"
                     id="tspan3532">bob</tspan>
                </text>
              </g>
            </g>
          </g>
        </g>
      </g>
      <g
         id="g3534">
        <desc
           id="desc3536">Drawing</desc>
        <g
           id="g3538">
          <g
             id="g3540"
             style="fill:#99ccff;stroke:none">
            <path
               d="M 17145,12065 L 16765,12075 L 16409,12103 L 16086,12147 L 15803,12206 L 15679,12239 L 15569,12276 L 15473,12315 L 15392,12357 L 15327,12401 L 15301,12423 L 15279,12446 L 15262,12469 L 15250,12493 L 15243,12517 L 15240,12541 L 15240,15399 L 15243,15423 L 15250,15447 L 15262,15471 L 15279,15494 L 15301,15517 L 15327,15540 L 15392,15583 L 15473,15625 L 15569,15664 L 15679,15701 L 15803,15735 L 16086,15794 L 16409,15838 L 16765,15866 L 17145,15876 L 17525,15866 L 17881,15838 L 18204,15794 L 18487,15735 L 18611,15701 L 18721,15664 L 18817,15625 L 18898,15583 L 18963,15540 L 18989,15517 L 19011,15494 L 19028,15471 L 19040,15447 L 19047,15423 L 19050,15399 L 19050,12541 L 19047,12517 L 19040,12493 L 19028,12469 L 19011,12446 L 18989,12423 L 18963,12401 L 18898,12357 L 18817,12315 L 18721,12276 L 18611,12239 L 18487,12206 L 18204,12147 L 17881,12103 L 17525,12075 L 17145,12065 z"
               id="path3542" />
          </g>
          <g
             id="g3544"
             style="fill:none;stroke:#000000">
            <path
               d="M 17145,12065 L 16765,12075 L 16409,12103 L 16086,12147 L 15803,12206 L 15679,12239 L 15569,12276 L 15473,12315 L 15392,12357 L 15327,12401 L 15301,12423 L 15279,12446 L 15262,12469 L 15250,12493 L 15243,12517 L 15240,12541 L 15240,15399 L 15243,15423 L 15250,15447 L 15262,15471 L 15279,15494 L 15301,15517 L 15327,15540 L 15392,15583 L 15473,15625 L 15569,15664 L 15679,15701 L 15803,15735 L 16086,15794 L 16409,15838 L 16765,15866 L 17145,15876 L 17525,15866 L 17881,15838 L 18204,15794 L 18487,15735 L 18611,15701 L 18721,15664 L 18817,15625 L 18898,15583 L 18963,15540 L 18989,15517 L 19011,15494 L 19028,15471 L 19040,15447 L 19047,15423 L 19050,15399 L 19050,12541 L 19047,12517 L 19040,12493 L 19028,12469 L 19011,12446 L 18989,12423 L 18963,12401 L 18898,12357 L 18817,12315 L 18721,12276 L 18611,12239 L 18487,12206 L 18204,12147 L 17881,12103 L 17525,12075 L 17145,12065"
               id="path3546"
               style="fill:none" />
          </g>
          <g
             id="g3548"
             style="fill:#a7dfff;stroke:none">
            <path
               d="M 17145,12065 L 16765,12075 L 16409,12103 L 16086,12147 L 15803,12206 L 15679,12239 L 15569,12276 L 15473,12315 L 15392,12357 L 15327,12401 L 15301,12423 L 15279,12446 L 15262,12469 L 15250,12493 L 15243,12517 L 15240,12541 L 15243,12565 L 15250,12589 L 15262,12613 L 15279,12636 L 15301,12659 L 15327,12681 L 15392,12725 L 15473,12767 L 15569,12806 L 15679,12843 L 15803,12877 L 16086,12935 L 16409,12979 L 16765,13007 L 17145,13017 L 17525,13007 L 17881,12979 L 18204,12935 L 18487,12877 L 18611,12843 L 18721,12806 L 18817,12767 L 18898,12725 L 18963,12681 L 18989,12659 L 19011,12636 L 19028,12613 L 19040,12589 L 19047,12565 L 19050,12541 L 19047,12517 L 19040,12493 L 19028,12469 L 19011,12446 L 18989,12423 L 18963,12401 L 18898,12357 L 18817,12315 L 18721,12276 L 18611,12239 L 18487,12206 L 18204,12147 L 17881,12103 L 17525,12075 L 17145,12065 z"
               id="path3550" />
          </g>
          <g
             id="g3552"
             style="fill:none;stroke:#000000">
            <path
               d="M 17145,12065 L 16765,12075 L 16409,12103 L 16086,12147 L 15803,12206 L 15679,12239 L 15569,12276 L 15473,12315 L 15392,12357 L 15327,12401 L 15301,12423 L 15279,12446 L 15262,12469 L 15250,12493 L 15243,12517 L 15240,12541 L 15243,12565 L 15250,12589 L 15262,12613 L 15279,12636 L 15301,12659 L 15327,12681 L 15392,12725 L 15473,12767 L 15569,12806 L 15679,12843 L 15803,12877 L 16086,12935 L 16409,12979 L 16765,13007 L 17145,13017 L 17525,13007 L 17881,12979 L 18204,12935 L 18487,12877 L 18611,12843 L 18721,12806 L 18817,12767 L 18898,12725 L 18963,12681 L 18989,12659 L 19011,12636 L 19028,12613 L 19040,12589 L 19047,12565 L 19050,12541 L 19047,12517 L 19040,12493 L 19028,12469 L 19011,12446 L 18989,12423 L 18963,12401 L 18898,12357 L 18817,12315 L 18721,12276 L 18611,12239 L 18487,12206 L 18204,12147 L 17881,12103 L 17525,12075 L 17145,12065"
               id="path3554"
               style="fill:none" />
          </g>
          <g
             id="g3556">
            <g
               id="g3558"
               style="font-size:635px;font-weight:400;font-family:Helvetica embedded">
              <g
                 id="g3560"
                 style="fill:#1a1a1a;stroke:none">
                <text
                   id="text3562">
                  <tspan
                     x="16202 16520 16871 17222 17434 17574 17713"
                     y="14416"
                     id="tspan3564">charlie</tspan>
                </text>
              </g>
            </g>
          </g>
        </g>
      </g>
      <g
         id="g3566">
        <desc
           id="desc3568">Drawing</desc>
        <g
           id="g3570">
          <g
             id="g3572"
             style="fill:#99ccff;stroke:none">
            <path
               d="M 22860,12065 L 22480,12075 L 22124,12103 L 21801,12147 L 21518,12206 L 21394,12239 L 21284,12276 L 21188,12315 L 21107,12357 L 21042,12401 L 21016,12423 L 20994,12446 L 20977,12469 L 20965,12493 L 20958,12517 L 20955,12541 L 20955,15399 L 20958,15423 L 20965,15447 L 20977,15471 L 20994,15494 L 21016,15517 L 21042,15540 L 21107,15583 L 21188,15625 L 21284,15664 L 21394,15701 L 21518,15735 L 21801,15794 L 22124,15838 L 22480,15866 L 22860,15876 L 23240,15866 L 23596,15838 L 23919,15794 L 24202,15735 L 24326,15701 L 24436,15664 L 24532,15625 L 24613,15583 L 24678,15540 L 24704,15517 L 24726,15494 L 24743,15471 L 24755,15447 L 24762,15423 L 24765,15399 L 24765,12541 L 24762,12517 L 24755,12493 L 24743,12469 L 24726,12446 L 24704,12423 L 24678,12401 L 24613,12357 L 24532,12315 L 24436,12276 L 24326,12239 L 24202,12206 L 23919,12147 L 23596,12103 L 23240,12075 L 22860,12065 z"
               id="path3574" />
          </g>
          <g
             id="g3576"
             style="fill:none;stroke:#000000">
            <path
               d="M 22860,12065 L 22480,12075 L 22124,12103 L 21801,12147 L 21518,12206 L 21394,12239 L 21284,12276 L 21188,12315 L 21107,12357 L 21042,12401 L 21016,12423 L 20994,12446 L 20977,12469 L 20965,12493 L 20958,12517 L 20955,12541 L 20955,15399 L 20958,15423 L 20965,15447 L 20977,15471 L 20994,15494 L 21016,15517 L 21042,15540 L 21107,15583 L 21188,15625 L 21284,15664 L 21394,15701 L 21518,15735 L 21801,15794 L 22124,15838 L 22480,15866 L 22860,15876 L 23240,15866 L 23596,15838 L 23919,15794 L 24202,15735 L 24326,15701 L 24436,15664 L 24532,15625 L 24613,15583 L 24678,15540 L 24704,15517 L 24726,15494 L 24743,15471 L 24755,15447 L 24762,15423 L 24765,15399 L 24765,12541 L 24762,12517 L 24755,12493 L 24743,12469 L 24726,12446 L 24704,12423 L 24678,12401 L 24613,12357 L 24532,12315 L 24436,12276 L 24326,12239 L 24202,12206 L 23919,12147 L 23596,12103 L 23240,12075 L 22860,12065"
               id="path3578"
               style="fill:none" />
          </g>
          <g
             id="g3580"
             style="fill:#a7dfff;stroke:none">
            <path
               d="M 22860,12065 L 22480,12075 L 22124,12103 L 21801,12147 L 21518,12206 L 21394,12239 L 21284,12276 L 21188,12315 L 21107,12357 L 21042,12401 L 21016,12423 L 20994,12446 L 20977,12469 L 20965,12493 L 20958,12517 L 20955,12541 L 20958,12565 L 20965,12589 L 20977,12613 L 20994,12636 L 21016,12659 L 21042,12681 L 21107,12725 L 21188,12767 L 21284,12806 L 21394,12843 L 21518,12877 L 21801,12935 L 22124,12979 L 22480,13007 L 22860,13017 L 23240,13007 L 23596,12979 L 23919,12935 L 24202,12877 L 24326,12843 L 24436,12806 L 24532,12767 L 24613,12725 L 24678,12681 L 24704,12659 L 24726,12636 L 24743,12613 L 24755,12589 L 24762,12565 L 24765,12541 L 24762,12517 L 24755,12493 L 24743,12469 L 24726,12446 L 24704,12423 L 24678,12401 L 24613,12357 L 24532,12315 L 24436,12276 L 24326,12239 L 24202,12206 L 23919,12147 L 23596,12103 L 23240,12075 L 22860,12065 z"
               id="path3582" />
          </g>
          <g
             id="g3584"
             style="fill:none;stroke:#000000">
            <path
               d="M 22860,12065 L 22480,12075 L 22124,12103 L 21801,12147 L 21518,12206 L 21394,12239 L 21284,12276 L 21188,12315 L 21107,12357 L 21042,12401 L 21016,12423 L 20994,12446 L 20977,12469 L 20965,12493 L 20958,12517 L 20955,12541 L 20958,12565 L 20965,12589 L 20977,12613 L 20994,12636 L 21016,12659 L 21042,12681 L 21107,12725 L 21188,12767 L 21284,12806 L 21394,12843 L 21518,12877 L 21801,12935 L 22124,12979 L 22480,13007 L 22860,13017 L 23240,13007 L 23596,12979 L 23919,12935 L 24202,12877 L 24326,12843 L 24436,12806 L 24532,12767 L 24613,12725 L 24678,12681 L 24704,12659 L 24726,12636 L 24743,12613 L 24755,12589 L 24762,12565 L 24765,12541 L 24762,12517 L 24755,12493 L 24743,12469 L 24726,12446 L 24704,12423 L 24678,12401 L 24613,12357 L 24532,12315 L 24436,12276 L 24326,12239 L 24202,12206 L 23919,12147 L 23596,12103 L 23240,12075 L 22860,12065"
               id="path3586"
               style="fill:none" />
          </g>
          <g
             id="g3588">
            <g
               id="g3590"
               style="font-size:635px;font-weight:400;font-family:Helvetica embedded">
              <g
                 id="g3592"
                 style="fill:#1a1a1a;stroke:none">
                <text
                   id="text3594">
                  <tspan
                     x="22110 22461 22813 22952 23270"
                     y="14416"
                     id="tspan3596">daisy</tspan>
                </text>
              </g>
            </g>
          </g>
        </g>
      </g>
      <g
         id="g3598">
        <desc
           id="desc3600">Drawing</desc>
        <g
           id="g3602">
          <g
             id="g3604"
             style="fill:#fa8500;stroke:none">
            <path
               d="M 8255,8890 L 12065,8890 L 12065,11430 L 8255,11430 L 8255,8890 z"
               id="path3606" />
          </g>
          <g
             id="g3608"
             style="fill:none;stroke:#000000">
            <path
               d="M 10160,11430 L 8255,11430 L 8255,8890 L 12065,8890 L 12065,11430 L 10160,11430"
               id="path3610"
               style="fill:none" />
          </g>
          <g
             id="g3612">
            <g
               id="g3614"
               style="font-size:635px;font-weight:400;font-family:Helvetica embedded">
              <g
                 id="g3616"
                 style="fill:#1a1a1a;stroke:none">
                <text
                   id="text3618">
                  <tspan
                     x="9716 9856 10207 10402"
                     y="10368"
                     id="tspan3620">left</tspan>
                </text>
              </g>
            </g>
          </g>
        </g>
      </g>
      <g
         id="g3622">
        <desc
           id="desc3624">Drawing</desc>
        <g
           id="g3626">
          <g
             id="g3628"
             style="fill:#fa8500;stroke:none">
            <path
               d="M 15240,8890 L 19050,8890 L 19050,11430 L 15240,11430 L 15240,8890 z"
               id="path3630" />
          </g>
          <g
             id="g3632"
             style="fill:none;stroke:#000000">
            <path
               d="M 17145,11430 L 15240,11430 L 15240,8890 L 19050,8890 L 19050,11430 L 17145,11430"
               id="path3634"
               style="fill:none" />
          </g>
          <g
             id="g3636">
            <g
               id="g3638"
               style="font-size:635px;font-weight:400;font-family:Helvetica embedded">
              <g
                 id="g3640"
                 style="fill:#1a1a1a;stroke:none">
                <text
                   id="text3642">
                  <tspan
                     x="16517 16729 16868 17220 17571"
                     y="10368"
                     id="tspan3644">right</tspan>
                </text>
              </g>
            </g>
          </g>
        </g>
      </g>
      <g
         id="g3646">
        <desc
           id="desc3648">Drawing</desc>
        <g
           id="g3650">
          <g
             id="g3652"
             style="fill:#c0c0c0;stroke:none">
            <path
               d="M 20955,8890 L 24765,8890 L 24765,11430 L 20955,11430 L 20955,8890 z"
               id="path3654" />
          </g>
          <g
             id="g3656"
             style="fill:none;stroke:#000000">
            <path
               d="M 22860,11430 L 20955,11430 L 20955,8890 L 24765,8890 L 24765,11430 L 22860,11430"
               id="path3658"
               style="fill:none" />
          </g>
          <g
             id="g3660">
            <g
               id="g3662"
               style="font-size:635px;font-weight:400;font-family:Helvetica embedded">
              <g
                 id="g3664"
                 style="fill:#1a1a1a;stroke:none">
                <text
                   id="text3666">
                  <tspan
                     x="22232 22444 22583 22935 23286"
                     y="10368"
                     id="tspan3668">right</tspan>
                </text>
              </g>
            </g>
          </g>
        </g>
      </g>
      <g
         id="g3670">
        <desc
           id="desc3672">Drawing</desc>
        <g
           id="g3674">
          <g
             id="g3676"
             style="fill:#fa8500;stroke:none">
            <path
               d="M 8255,5715 L 12065,5715 L 12065,8255 L 8255,8255 L 8255,5715 z"
               id="path3678" />
          </g>
          <g
             id="g3680"
             style="fill:none;stroke:#000000">
            <path
               d="M 10160,8255 L 8255,8255 L 8255,5715 L 12065,5715 L 12065,8255 L 10160,8255"
               id="path3682"
               style="fill:none" />
          </g>
          <g
             id="g3684">
            <g
               id="g3686"
               style="font-size:635px;font-weight:400;font-family:Helvetica embedded">
              <g
                 id="g3688"
                 style="fill:#1a1a1a;stroke:none">
                <text
                   id="text3690">
                  <tspan
                     x="9058 9376 9553 9905 10226 10535 10887"
                     y="7193"
                     id="tspan3692">stacked</tspan>
                </text>
              </g>
            </g>
          </g>
        </g>
      </g>
      <g
         id="g3694">
        <desc
           id="desc3696">Drawing</desc>
        <g
           id="g3698">
          <g
             id="g3700"
             style="fill:#c0c0c0;stroke:none">
            <path
               d="M 15240,5715 L 19050,5715 L 19050,8255 L 15240,8255 L 15240,5715 z"
               id="path3702" />
          </g>
          <g
             id="g3704"
             style="fill:none;stroke:#000000">
            <path
               d="M 17145,8255 L 15240,8255 L 15240,5715 L 19050,5715 L 19050,8255 L 17145,8255"
               id="path3706"
               style="fill:none" />
          </g>
          <g
             id="g3708">
            <g
               id="g3710"
               style="font-size:635px;font-weight:400;font-family:Helvetica embedded">
              <g
                 id="g3712"
                 style="fill:#1a1a1a;stroke:none">
                <text
                   id="text3714">
                  <tspan
                     x="16043 16361 16538 16890 17211 17520 17872"
                     y="7193"
                     id="tspan3716">stacked</tspan>
                </text>
              </g>
            </g>
          </g>
        </g>
      </g>
      <g
         id="g3718">
        <desc
           id="desc3720">Drawing</desc>
        <g
           id="g3722">
          <g
             id="g3724"
             style="fill:#000000;stroke:none">
            <path
               d="M 6350,10160 L 6800,10010 L 6800,10310 L 6350,10160 z"
               id="path3726" />
          </g>
          <g
             id="g3728"
             style="fill:none;stroke:#000000">
            <path
               d="M 8255,10160 L 6710,10160"
               id="path3730"
               style="fill:none;stroke-width:75;stroke-dasharray:none" />
          </g>
          <g
             id="g3732" />
        </g>
      </g>
      <g
         id="g3734">
        <desc
           id="desc3736">Drawing</desc>
        <g
           id="g3738">
          <g
             id="g3740"
             style="fill:#000000;stroke:none">
            <path
               d="M 20955,10160 L 20505,10310 L 20505,10010 L 20955,10160 z"
               id="path3742" />
          </g>
          <g
             id="g3744"
             style="fill:none;stroke:#000000">
            <path
               d="M 19050,10160 L 20595,10160"
               id="path3746"
               style="fill:none;stroke-width:75;stroke-dasharray:none" />
          </g>
          <g
             id="g3748" />
        </g>
      </g>
      <g
         id="g3750">
        <desc
           id="desc3752">Drawing</desc>
        <g
           id="g3754">
          <g
             id="g3756"
             style="fill:#000000;stroke:none">
            <path
               d="M 15240,6985 L 14790,7135 L 14790,6835 L 15240,6985 z"
               id="path3758" />
          </g>
          <g
             id="g3760"
             style="fill:none;stroke:#000000">
            <path
               d="M 12065,6985 L 14880,6985"
               id="path3762"
               style="fill:none;stroke-width:75;stroke-dasharray:none" />
          </g>
          <g
             id="g3764" />
        </g>
      </g>
      <g
         id="g3766">
        <desc
           id="desc3768">Drawing</desc>
        <g
           id="g3770">
          <g
             id="g3772"
             style="fill:#ff0000;stroke:none">
            <path
               d="M 4496,11430 L 4496,11748 L 4445,11748 L 4394,11748 L 4394,11430 L 4445,11430 L 4496,11430 z"
               id="path3774" />
            <path
               d="M 4445,11748 L 4496,11748 L 4495,11757 L 4493,11765 L 4489,11773 L 4484,11781 L 4478,11787 L 4471,11792 L 4462,11796 L 4454,11798 L 4445,11799 L 4445,11799 L 4445,11748 z"
               id="path3776" />
            <path
               d="M 4445,11799 L 4444,11799 L 4444,11748 L 4444,11697 L 4445,11697 L 4445,11748 L 4445,11799 z"
               id="path3778" />
            <path
               d="M 4444,11748 L 4393,11748 L 4394,11739 L 4396,11731 L 4400,11723 L 4405,11715 L 4411,11709 L 4418,11704 L 4427,11700 L 4435,11698 L 4444,11697 L 4444,11697 L 4444,11748 z"
               id="path3780" />
            <path
               d="M 4495,11748 L 4495,12065 L 4444,12065 L 4393,12065 L 4393,11748 L 4444,11748 L 4495,11748 z"
               id="path3782" />
          </g>
          <g
             id="g3784" />
        </g>
      </g>
      <g
         id="g3786">
        <desc
           id="desc3788">Drawing</desc>
        <g
           id="g3790">
          <g
             id="g3792"
             style="fill:#ff0000;stroke:none">
            <path
               d="M 10211,11430 L 10211,11748 L 10160,11748 L 10109,11748 L 10109,11430 L 10160,11430 L 10211,11430 z"
               id="path3794" />
            <path
               d="M 10160,11748 L 10211,11748 L 10210,11757 L 10208,11765 L 10204,11773 L 10199,11781 L 10193,11787 L 10186,11792 L 10177,11796 L 10169,11798 L 10160,11799 L 10160,11799 L 10160,11748 z"
               id="path3796" />
            <path
               d="M 10160,11799 L 10159,11799 L 10159,11748 L 10159,11697 L 10160,11697 L 10160,11748 L 10160,11799 z"
               id="path3798" />
            <path
               d="M 10159,11748 L 10108,11748 L 10109,11739 L 10111,11731 L 10115,11723 L 10120,11715 L 10126,11709 L 10133,11704 L 10142,11700 L 10150,11698 L 10159,11697 L 10159,11697 L 10159,11748 z"
               id="path3800" />
            <path
               d="M 10210,11748 L 10210,12065 L 10159,12065 L 10108,12065 L 10108,11748 L 10159,11748 L 10210,11748 z"
               id="path3802" />
          </g>
          <g
             id="g3804" />
        </g>
      </g>
      <g
         id="g3806">
        <desc
           id="desc3808">Drawing</desc>
        <g
           id="g3810">
          <g
             id="g3812"
             style="fill:#ff0000;stroke:none">
            <path
               d="M 17196,11430 L 17196,11748 L 17145,11748 L 17094,11748 L 17094,11430 L 17145,11430 L 17196,11430 z"
               id="path3814" />
            <path
               d="M 17145,11748 L 17196,11748 L 17195,11757 L 17193,11765 L 17189,11773 L 17184,11781 L 17178,11787 L 17171,11792 L 17162,11796 L 17154,11798 L 17145,11799 L 17145,11799 L 17145,11748 z"
               id="path3816" />
            <path
               d="M 17145,11799 L 17144,11799 L 17144,11748 L 17144,11697 L 17145,11697 L 17145,11748 L 17145,11799 z"
               id="path3818" />
            <path
               d="M 17144,11748 L 17093,11748 L 17094,11739 L 17096,11731 L 17100,11723 L 17105,11715 L 17111,11709 L 17118,11704 L 17127,11700 L 17135,11698 L 17144,11697 L 17144,11697 L 17144,11748 z"
               id="path3820" />
            <path
               d="M 17195,11748 L 17195,12065 L 17144,12065 L 17093,12065 L 17093,11748 L 17144,11748 L 17195,11748 z"
               id="path3822" />
          </g>
          <g
             id="g3824" />
        </g>
      </g>
      <g
         id="g3826">
        <desc
           id="desc3828">Drawing</desc>
        <g
           id="g3830">
          <g
             id="g3832"
             style="fill:#ff0000;stroke:none">
            <path
               d="M 22911,11430 L 22911,11748 L 22860,11748 L 22809,11748 L 22809,11430 L 22860,11430 L 22911,11430 z"
               id="path3834" />
            <path
               d="M 22860,11748 L 22911,11748 L 22910,11757 L 22908,11765 L 22904,11773 L 22899,11781 L 22893,11787 L 22886,11792 L 22877,11796 L 22869,11798 L 22860,11799 L 22860,11799 L 22860,11748 z"
               id="path3836" />
            <path
               d="M 22860,11799 L 22859,11799 L 22859,11748 L 22859,11697 L 22860,11697 L 22860,11748 L 22860,11799 z"
               id="path3838" />
            <path
               d="M 22859,11748 L 22808,11748 L 22809,11739 L 22811,11731 L 22815,11723 L 22820,11715 L 22826,11709 L 22833,11704 L 22842,11700 L 22850,11698 L 22859,11697 L 22859,11697 L 22859,11748 z"
               id="path3840" />
            <path
               d="M 22910,11748 L 22910,12065 L 22859,12065 L 22808,12065 L 22808,11748 L 22859,11748 L 22910,11748 z"
               id="path3842" />
          </g>
          <g
             id="g3844" />
        </g>
      </g>
    </g>
  </g>
</svg>
