<?xml version="1.0" encoding="UTF-8" standalone="no"?>
<!-- Created with Inkscape (http://www.inkscape.org/) -->
<svg
   xmlns:dc="http://purl.org/dc/elements/1.1/"
   xmlns:cc="http://web.resource.org/cc/"
   xmlns:rdf="http://www.w3.org/1999/02/22-rdf-syntax-ns#"
   xmlns:svg="http://www.w3.org/2000/svg"
   xmlns="http://www.w3.org/2000/svg"
   xmlns:sodipodi="http://sodipodi.sourceforge.net/DTD/sodipodi-0.dtd"
   xmlns:inkscape="http://www.inkscape.org/namespaces/inkscape"
   width="219.5"
   height="82.50766"
   id="svg4627"
   sodipodi:version="0.32"
   inkscape:version="0.45.1"
   version="1.0"
   sodipodi:docbase="/home/florian/git/drbd-howto-collection/users-guide"
   sodipodi:docname="gi-changes-newgen.svg"
   inkscape:output_extension="org.inkscape.output.svg.inkscape">
  <defs
     id="defs4629" />
  <sodipodi:namedview
     id="base"
     pagecolor="#ffffff"
     bordercolor="#666666"
     borderopacity="1.0"
     inkscape:pageopacity="0.0"
     inkscape:pageshadow="2"
     inkscape:zoom="0.5"
     inkscape:cx="512"
     inkscape:cy="382"
     inkscape:current-layer="layer1"
     inkscape:document-units="px"
     inkscape:window-width="748"
     inkscape:window-height="572"
     inkscape:window-x="266"
     inkscape:window-y="89" />
  <metadata
     id="metadata4632">
    <rdf:RDF>
      <cc:Work
         rdf:about="">
        <dc:format>image/svg+xml</dc:format>
        <dc:type
           rdf:resource="http://purl.org/dc/dcmitype/StillImage" />
      </cc:Work>
    </rdf:RDF>
  </metadata>
  <g
     id="layer1"
     inkscape:label="Layer 1"
     inkscape:groupmode="layer"
     transform="translate(-188.25,-108.74617)">
    <g
       transform="matrix(2.6574803e-2,0,0,2.6574803e-2,137.71408,49.653929)"
       id="g3608">
      <desc
         id="desc3610">Drawing</desc>
      <g
         id="g3612">
        <g
           style="fill:#999999;stroke:none"
           id="g3614">
          <path
             d="M 1904,4691 L 5079,4691 L 5079,5326 L 1904,5326 L 1904,4691 z "
             id="path3616" />
        </g>
        <g
           style="fill:none;stroke:#000000"
           id="g3618">
          <path
             style="fill:none"
             d="M 3491,5326 L 1904,5326 L 1904,4691 L 5079,4691 L 5079,5326 L 3491,5326"
             id="path3620" />
        </g>
        <g
           id="g3622">
          <g
             style="font-size:423px;font-weight:400;font-family:sans-serif"
             id="g3624">
            <g
               style="fill:#000000;stroke:none"
               id="g3626">
              <text
                 id="text3628">
                <tspan
                   x="2292 2597 2690 2902 3020 3257 3397 3490 3702 3939 4032 4150 4290 4430"
                   y="5199"
                   id="tspan3630">Historical ...</tspan>
              </text>
            </g>
          </g>
        </g>
      </g>
    </g>
    <g
       transform="matrix(2.6574803e-2,0,0,2.6574803e-2,137.71408,49.653929)"
       id="g3632">
      <desc
         id="desc3634">Drawing</desc>
      <g
         id="g3636">
        <g
           style="fill:#999999;stroke:none"
           id="g3638">
          <path
             d="M 1904,4056 L 5079,4056 L 5079,4691 L 1904,4691 L 1904,4056 z "
             id="path3640" />
        </g>
        <g
           style="fill:none;stroke:#000000"
           id="g3642">
          <path
             style="fill:none"
             d="M 3491,4691 L 1904,4691 L 1904,4056 L 5079,4056 L 5079,4691 L 3491,4691"
             id="path3644" />
        </g>
        <g
           id="g3646">
          <g
             style="font-size:423px;font-weight:400;font-family:sans-serif"
             id="g3648">
            <g
               style="fill:#000000;stroke:none"
               id="g3650">
              <text
                 id="text3652">
                <tspan
                   x="2292 2597 2690 2902 3020 3257 3397 3490 3702 3939 4032 4150 4290 4527"
                   y="4564"
                   id="tspan3654">Historical (1)</tspan>
              </text>
            </g>
          </g>
        </g>
      </g>
    </g>
    <g
       transform="matrix(2.6574803e-2,0,0,2.6574803e-2,137.71408,49.653929)"
       id="g3656">
      <desc
         id="desc3658">Drawing</desc>
      <g
         id="g3660">
        <g
           style="fill:#ffffff;stroke:none"
           id="g3662">
          <path
             d="M 1904,3421 L 5079,3421 L 5079,4056 L 1904,4056 L 1904,3421 z "
             id="path3664" />
        </g>
        <g
           style="fill:none;stroke:#000000"
           id="g3666">
          <path
             style="fill:none"
             d="M 3491,4056 L 1904,4056 L 1904,3421 L 5079,3421 L 5079,4056 L 3491,4056"
             id="path3668" />
        </g>
        <g
           id="g3670">
          <g
             style="font-size:423px;font-weight:400;font-family:sans-serif"
             id="g3672">
            <g
               style="fill:#000000;stroke:none"
               id="g3674">
              <text
                 id="text3676">
                <tspan
                   x="2063 2347 2440 2558 2910 3147 3384 3502 3642 3879 4235 4472 4590 4802"
                   y="3929"
                   id="tspan3678">Bitmap (empty)</tspan>
              </text>
            </g>
          </g>
        </g>
      </g>
    </g>
    <g
       transform="matrix(2.6574803e-2,0,0,2.6574803e-2,137.71408,49.653929)"
       id="g3680">
      <desc
         id="desc3682">Drawing</desc>
      <g
         id="g3684">
        <g
           style="fill:#ff0000;stroke:none"
           id="g3686">
          <path
             d="M 1904,2786 L 5079,2786 L 5079,3421 L 1904,3421 L 1904,2786 z "
             id="path3688" />
        </g>
        <g
           style="fill:none;stroke:#000000"
           id="g3690">
          <path
             style="fill:none"
             d="M 3491,3421 L 1904,3421 L 1904,2786 L 5079,2786 L 5079,3421 L 3491,3421"
             id="path3692" />
        </g>
        <g
           id="g3694">
          <g
             style="font-size:423px;font-weight:400;font-family:sans-serif"
             id="g3696">
            <g
               style="fill:#000000;stroke:none"
               id="g3698">
              <text
                 id="text3700">
                <tspan
                   x="2773 3078 3315 3455 3594 3831 4068"
                   y="3294"
                   id="tspan3702">Current</tspan>
              </text>
            </g>
          </g>
        </g>
      </g>
    </g>
    <g
       transform="matrix(2.6574803e-2,0,0,2.6574803e-2,137.71408,49.653929)"
       id="g3704">
      <desc
         id="desc3706">Drawing</desc>
      <g
         id="g3708">
        <g
           style="fill:#999999;stroke:none"
           id="g3710">
          <path
             d="M 6984,4691 L 10159,4691 L 10159,5326 L 6984,5326 L 6984,4691 z "
             id="path3712" />
        </g>
        <g
           style="fill:none;stroke:#000000"
           id="g3714">
          <path
             style="fill:none"
             d="M 8571,5326 L 6984,5326 L 6984,4691 L 10159,4691 L 10159,5326 L 8571,5326"
             id="path3716" />
        </g>
        <g
           id="g3718">
          <g
             style="font-size:423px;font-weight:400;font-family:sans-serif"
             id="g3720">
            <g
               style="fill:#000000;stroke:none"
               id="g3722">
              <text
                 id="text3724">
                <tspan
                   x="7372 7677 7770 7982 8100 8337 8477 8570 8782 9019 9112 9230 9370 9510"
                   y="5199"
                   id="tspan3726">Historical ...</tspan>
              </text>
            </g>
          </g>
        </g>
      </g>
    </g>
    <g
       transform="matrix(2.6574803e-2,0,0,2.6574803e-2,137.71408,49.653929)"
       id="g3728">
      <desc
         id="desc3730">Drawing</desc>
      <g
         id="g3732">
        <g
           style="fill:#999999;stroke:none"
           id="g3734">
          <path
             d="M 6984,4056 L 10159,4056 L 10159,4691 L 6984,4691 L 6984,4056 z "
             id="path3736" />
        </g>
        <g
           style="fill:none;stroke:#000000"
           id="g3738">
          <path
             style="fill:none"
             d="M 8571,4691 L 6984,4691 L 6984,4056 L 10159,4056 L 10159,4691 L 8571,4691"
             id="path3740" />
        </g>
        <g
           id="g3742">
          <g
             style="font-size:423px;font-weight:400;font-family:sans-serif"
             id="g3744">
            <g
               style="fill:#000000;stroke:none"
               id="g3746">
              <text
                 id="text3748">
                <tspan
                   x="7372 7677 7770 7982 8100 8337 8477 8570 8782 9019 9112 9230 9370 9607"
                   y="4564"
                   id="tspan3750">Historical (1)</tspan>
              </text>
            </g>
          </g>
        </g>
      </g>
    </g>
    <g
       transform="matrix(2.6574803e-2,0,0,2.6574803e-2,137.71408,49.653929)"
       id="g3752">
      <desc
         id="desc3754">Drawing</desc>
      <g
         id="g3756">
        <g
           style="fill:#ff0000;stroke:none"
           id="g3758">
          <path
             d="M 6984,3421 L 10159,3421 L 10159,4056 L 6984,4056 L 6984,3421 z "
             id="path3760" />
        </g>
        <g
           style="fill:none;stroke:#000000"
           id="g3762">
          <path
             style="fill:none"
             d="M 8571,4056 L 6984,4056 L 6984,3421 L 10159,3421 L 10159,4056 L 8571,4056"
             id="path3764" />
        </g>
        <g
           id="g3766">
          <g
             style="font-size:423px;font-weight:400;font-family:sans-serif"
             id="g3768">
            <g
               style="fill:#000000;stroke:none"
               id="g3770">
              <text
                 id="text3772">
                <tspan
                   x="7899 8183 8276 8394 8746 8983"
                   y="3929"
                   id="tspan3774">Bitmap</tspan>
              </text>
            </g>
          </g>
        </g>
      </g>
    </g>
    <g
       transform="matrix(2.6574803e-2,0,0,2.6574803e-2,137.71408,49.653929)"
       id="g3776">
      <desc
         id="desc3778">Drawing</desc>
      <g
         id="g3780">
        <g
           style="fill:#00ae00;stroke:none"
           id="g3782">
          <path
             d="M 6984,2786 L 10159,2786 L 10159,3421 L 6984,3421 L 6984,2786 z "
             id="path3784" />
        </g>
        <g
           style="fill:none;stroke:#000000"
           id="g3786">
          <path
             style="fill:none"
             d="M 8571,3421 L 6984,3421 L 6984,2786 L 10159,2786 L 10159,3421 L 8571,3421"
             id="path3788" />
        </g>
        <g
           id="g3790">
          <g
             style="font-size:423px;font-weight:400;font-family:sans-serif"
             id="g3792">
            <g
               style="fill:#000000;stroke:none"
               id="g3794">
              <text
                 id="text3796">
                <tspan
                   x="7853 8158 8395 8535 8674 8911 9148"
                   y="3294"
                   id="tspan3798">Current</tspan>
              </text>
            </g>
          </g>
        </g>
      </g>
    </g>
    <g
       transform="matrix(2.6574803e-2,0,0,2.6574803e-2,137.71408,49.653929)"
       id="g3800">
      <desc
         id="desc3802">Drawing</desc>
      <g
         id="g3804">
        <g
           id="g3806">
          <g
             style="font-size:423px;font-weight:400;font-family:sans-serif"
             id="g3808">
            <g
               style="fill:#000000;stroke:none"
               id="g3810">
              <g
                 transform="matrix(1,0,-0.176327,1,448.75217,0)"
                 id="g3812">
                <text
                   id="text3814">
                  <tspan
                     x="2858 3142 3379 3493 3730 3866"
                     y="2545"
                     id="tspan3816">Before</tspan>
                </text>
              </g>
            </g>
          </g>
        </g>
      </g>
    </g>
    <g
       transform="matrix(2.6574803e-2,0,0,2.6574803e-2,137.71408,49.653929)"
       id="g3818">
      <desc
         id="desc3820">Drawing</desc>
      <g
         id="g3822">
        <g
           id="g3824">
          <g
             style="font-size:423px;font-weight:400;font-family:sans-serif"
             id="g3826">
            <g
               style="fill:#000000;stroke:none"
               id="g3828">
              <g
                 transform="matrix(1,0,-0.176327,1,448.75217,0)"
                 id="g3830">
                <text
                   id="text3832">
                  <tspan
                     x="8123 8407 8534 8648 8885"
                     y="2545"
                     id="tspan3834">After</tspan>
                </text>
              </g>
            </g>
          </g>
        </g>
      </g>
    </g>
    <g
       transform="matrix(2.6574803e-2,0,0,2.6574803e-2,137.71408,49.653929)"
       id="g3836">
      <desc
         id="desc3838">Drawing</desc>
      <g
         id="g3840">
        <g
           style="fill:#000000;stroke:none"
           id="g3842">
          <path
             d="M 6985,3739 L 6535,3889 L 6535,3589 L 6985,3739 z "
             id="path3844" />
        </g>
        <g
           style="fill:none;stroke:#000000"
           id="g3846">
          <path
             style="fill:none"
             d="M 5080,3104 L 6032,3104 L 6032,3739 L 6625,3739"
             id="path3848" />
        </g>
        <g
           id="g3850" />
      </g>
    </g>
  </g>
</svg>
