<?xml version="1.0" encoding="UTF-8" standalone="no"?>
<!-- Created with Inkscape (http://www.inkscape.org/) -->

<svg
   xmlns:dc="http://purl.org/dc/elements/1.1/"
   xmlns:cc="http://creativecommons.org/ns#"
   xmlns:rdf="http://www.w3.org/1999/02/22-rdf-syntax-ns#"
   xmlns:svg="http://www.w3.org/2000/svg"
   xmlns="http://www.w3.org/2000/svg"
   xmlns:sodipodi="http://sodipodi.sourceforge.net/DTD/sodipodi-0.dtd"
   xmlns:inkscape="http://www.inkscape.org/namespaces/inkscape"
   version="1.0"
   width="225.54875"
   height="204.47488"
   id="svg2447"
   xml:space="preserve"
   sodipodi:version="0.32"
   inkscape:version="0.48.3.1 r9886"
   inkscape:output_extension="org.inkscape.output.svg.inkscape"
   sodipodi:docname="linbit-logo.svg"
   inkscape:export-filename="/tmp/LB_logo_claim_4c.png"
   inkscape:export-xdpi="150.01645"
   inkscape:export-ydpi="150.01645"><metadata
     id="metadata2627"><rdf:RDF><cc:Work
         rdf:about=""><dc:format>image/svg+xml</dc:format><dc:type
           rdf:resource="http://purl.org/dc/dcmitype/StillImage" /><dc:title></dc:title></cc:Work></rdf:RDF></metadata><sodipodi:namedview
     inkscape:window-height="846"
     inkscape:window-width="917"
     inkscape:pageshadow="2"
     inkscape:pageopacity="0.0"
     guidetolerance="10.0"
     gridtolerance="10.0"
     objecttolerance="10.0"
     borderopacity="1.0"
     bordercolor="#666666"
     pagecolor="#ffffff"
     id="base"
     showgrid="false"
     inkscape:zoom="1.9716649"
     inkscape:cx="109.48801"
     inkscape:cy="107.23457"
     inkscape:window-x="752"
     inkscape:window-y="21"
     inkscape:current-layer="g2458"
     fit-margin-top="0"
     fit-margin-left="0"
     fit-margin-right="0"
     fit-margin-bottom="0"
     inkscape:window-maximized="0" /><defs
     id="defs2450"><inkscape:perspective
       sodipodi:type="inkscape:persp3d"
       inkscape:vp_x="0 : 25.449219 : 1"
       inkscape:vp_y="0 : 1000 : 0"
       inkscape:vp_z="176.98059 : 25.449219 : 1"
       inkscape:persp3d-origin="88.490295 : 16.966146 : 1"
       id="perspective2629" /></defs><g
     id="g2458"
     transform="matrix(1.25,0,0,1.25,-15.679821,299.71189)"><path
       style="fill:#231f20;fill-opacity:1;fill-rule:nonzero;stroke:none"
       id="path2460"
       d="m 121.17822,-230.77344 c -0.0757,0.52686 -0.33398,0.97412 -0.78027,1.34082 -0.44629,0.3667 -1.03418,0.54785 -1.76709,0.54785 0,0 -3.77148,0 -3.77148,0 0,0 0.53564,-3.81982 0.53564,-3.81982 0,0 3.42236,0 3.42236,0 0.87793,0 1.50782,0.19238 1.89502,0.57275 0.38526,0.38038 0.54151,0.83301 0.46582,1.3584 z m -0.3789,11.32715 c -0.084,0.58838 -0.3877,1.08154 -0.91114,1.47656 -0.52685,0.39649 -1.26074,0.59424 -2.1997,0.59424 0,0 -4.44825,0 -4.44825,0 0,0 0.63868,-4.53564 0.63868,-4.53564 0,0 4.09375,0 4.09375,0 1.02832,0 1.80078,0.26318 2.31347,0.79199 0.43506,0.44092 0.60694,0.99853 0.51319,1.67285 z m 9.58252,-8.25391 c 1.11718,-1.25293 1.78613,-2.6914 2.01464,-4.31591 0.30079,-2.125 -0.24511,-3.88233 -1.63574,-5.26905 -1.59765,-1.59326 -4.09717,-2.39013 -7.50683,-2.39013 0,0 -17.61475,0 -17.61475,0 0,0 -0.94727,6.74756 -0.94727,6.74756 1.19825,0.94775 1.96827,2.41064 1.96827,4.0581 0,2.16455 -1.32764,4.01611 -3.21094,4.79248 0,0 -0.35742,2.52393 -0.35742,2.52393 2.0708,0.67773 3.56836,2.62256 3.56836,4.92041 0,2.79541 -2.21631,5.06885 -4.98682,5.16992 0,0 -0.19482,1.39258 -0.19482,1.39258 0,0 19.02783,0 19.02783,0 3.2583,0 5.92529,-0.81104 8.00244,-2.4336 1.81348,-1.41406 2.87305,-3.18554 3.16894,-5.3081 0.24512,-1.73877 -0.0957,-3.2876 -1.0205,-4.64404 -0.99512,-1.47461 -2.50293,-2.44776 -4.52344,-2.91846 1.7168,-0.29688 3.13281,-1.07031 4.24805,-2.32569 z"
       inkscape:connector-curvature="0" /><path
       style="fill:#231f20;fill-opacity:1;fill-rule:nonzero;stroke:none"
       id="path2462"
       d="m 141.33545,-230.34961 c 0,0 1.30957,-9.32568 1.30957,-9.32568 0,0 -6.16504,0 -6.16504,0 0,0 -4.16162,29.60498 -4.16162,29.60498 0,0 11.84375,0 11.84375,0 0,0 2.84766,-20.2793 2.84766,-20.2793 0,0 -5.67432,0 -5.67432,0 z"
       inkscape:connector-curvature="0" /><path
       style="fill:#231f20;fill-opacity:1;fill-rule:nonzero;stroke:none"
       id="path2464"
       d="m 173.8916,-232.03857 c 0,0 -9.23437,0 -9.23437,0 0,0 -3.08203,21.96826 -3.08203,21.96826 0,0 -12.08692,0 -12.08692,0 0,0 3.08985,-21.96826 3.08985,-21.96826 0,0 -9.27833,0 -9.27833,0 0,0 1.07325,-7.63672 1.07325,-7.63672 0,0 30.59179,0 30.59179,0 0,0 -1.07324,7.63672 -1.07324,7.63672 z"
       inkscape:connector-curvature="0" /><path
       style="fill:#231f20;fill-opacity:1;fill-rule:nonzero;stroke:none"
       id="path2466"
       d="m 105.17969,-216.63281 c 0,2.04443 -1.65869,3.70312 -3.70117,3.70312 -2.04346,0 -3.69922,-1.65869 -3.69922,-3.70312 0,-2.04395 1.65576,-3.69971 3.69922,-3.69971 2.04248,0 3.70117,1.65576 3.70117,3.69971 z"
       inkscape:connector-curvature="0" /><path
       style="fill:#231f20;fill-opacity:1;fill-rule:nonzero;stroke:none"
       id="path2468"
       d="m 105.17969,-228.86963 c 0,2.04346 -1.65869,3.70166 -3.70117,3.70166 -2.04346,0 -3.69922,-1.6582 -3.69922,-3.70166 0,-2.04248 1.65576,-3.70117 3.69922,-3.70117 2.04248,0 3.70117,1.65869 3.70117,3.70117 z"
       inkscape:connector-curvature="0" /><path
       style="fill:#f68712;fill-opacity:1;fill-rule:nonzero;stroke:none"
       id="path2470"
       d="m 96.29688,-216.63281 c 0,-2.34522 1.56054,-4.3252 3.70166,-4.9624 0,0 0,-2.31055 0,-2.31055 -2.14112,-0.63721 -3.70166,-2.6167 -3.70166,-4.96387 0,-2.34619 1.56054,-4.32666 3.70166,-4.96435 0,0 0,-5.84131 0,-5.84131 0,0 -10.08155,0 -10.08155,0 0,0 0,16.38037 0,16.38037 0,0 -8.72119,-16.38037 -8.72119,-16.38037 0,0 -12.7793,0 -12.7793,0 0,0 0,29.60498 0,29.60498 0,0 9.74414,0 9.74414,0 0,0 0,-16.02588 0,-16.02588 0,0 8.71827,16.02588 8.71827,16.02588 0,0 13.11963,0 13.11963,0 0,0 0,-1.59961 0,-1.59961 -2.14112,-0.63574 -3.70166,-2.61475 -3.70166,-4.96289 z"
       inkscape:connector-curvature="0" /><path
       style="fill:#f68712;fill-opacity:1;fill-rule:nonzero;stroke:none"
       id="path2472"
       d="m 58.30518,-210.07031 c 0,0 -24.91944,0 -24.91944,0 0,0 0,-29.60498 0,-29.60498 0,0 11.80078,0 11.80078,0 0,0 0,22.2998 0,22.2998 0,0 13.11866,0 13.11866,0 0,0 0,7.30518 0,7.30518 z"
       inkscape:connector-curvature="0" /><path
       style="fill:#f68712;fill-opacity:1;fill-rule:nonzero;stroke:none"
       id="path2474"
       d="m 54.35889,-239.67529 c 0,0 0,20.57568 0,20.57568 0,0 5.67187,0 5.67187,0 0,0 0,9.0293 0,9.0293 0,0 6.16846,0 6.16846,0 0,0 0,-29.60498 0,-29.60498 0,0 -11.84033,0 -11.84033,0 z"
       inkscape:connector-curvature="0" /><path
       style="fill:#231f20;fill-opacity:1;fill-rule:nonzero;stroke:none"
       id="path2476"
       d="m 36.12744,-201.46826 c 0,0 0,2.44433 0,2.44433 0,0 -0.74756,0 -0.74756,0 0,0 0,-2.44433 0,-2.44433 0,0 -1.99951,-3.1582 -1.99951,-3.1582 0,0 0.85693,0 0.85693,0 0,0 1.52881,2.47753 1.52881,2.47753 0,0 1.51221,-2.47753 1.51221,-2.47753 0,0 0.83984,0 0.83984,0 0,0 -1.99072,3.1582 -1.99072,3.1582 z"
       inkscape:connector-curvature="0" /><path
       style="fill:#231f20;fill-opacity:1;fill-rule:nonzero;stroke:none"
       id="path2478"
       d="m 42.40137,-203.56836 c -0.20166,-0.31055 -0.5459,-0.43652 -1.24317,-0.43652 -0.69726,0 -1.0498,0.13427 -1.24316,0.44482 -0.18457,0.28565 -0.23486,0.66358 -0.23486,1.73877 0,1.0752 0.05859,1.45361 0.24316,1.73877 0.19336,0.31104 0.54639,0.43701 1.24316,0.43701 0.68897,0 1.03321,-0.12597 1.23487,-0.43701 0.18506,-0.28516 0.24365,-0.67187 0.24365,-1.74707 0,-1.0752 -0.05859,-1.45312 -0.24365,-1.73877 z m -1.23487,4.61182 c -2.22558,0 -2.22558,-1.19287 -2.22558,-2.87305 0,-1.67969 -0.0088,-2.85596 2.21728,-2.85596 2.22608,0 2.23438,1.15918 2.23438,2.84766 0,1.74707 -0.05029,2.88135 -2.22608,2.88135 z"
       inkscape:connector-curvature="0" /><path
       style="fill:#231f20;fill-opacity:1;fill-rule:nonzero;stroke:none"
       id="path2480"
       d="m 49.15479,-200.61133 c -0.01661,0.27686 -0.0586,0.48682 -0.13428,0.68018 -0.26905,0.68066 -0.95752,0.97461 -1.93213,0.97461 -0.97412,0 -1.66309,-0.29395 -1.93164,-0.97461 -0.07569,-0.19336 -0.11768,-0.40332 -0.13477,-0.68018 -0.0166,-0.26904 -0.0166,-0.63867 -0.0166,-1.22656 0,0 0,-2.78857 0,-2.78857 0,0 0.74756,0 0.74756,0 0,0 0,2.78857 0,2.78857 0,0.81494 -0.02539,1.36084 0.13428,1.69678 0.15967,0.32763 0.51269,0.5039 1.20117,0.5039 0.69726,0 1.05029,-0.16797 1.20947,-0.4956 0.15967,-0.32764 0.13477,-0.88184 0.13477,-1.70508 0,0 0,-2.78857 0,-2.78857 0,0 0.73926,0 0.73926,0 0,0 0,2.78857 0,2.78857 0,0.58789 0,0.95752 -0.01709,1.22656 z"
       inkscape:connector-curvature="0" /><path
       style="fill:#231f20;fill-opacity:1;fill-rule:nonzero;stroke:none"
       id="path2482"
       d="m 54.08594,-203.70264 c -0.20117,-0.25195 -0.48682,-0.25195 -1.31055,-0.25195 0,0 -1.14258,0 -1.14258,0 0,0 0,1.83105 0,1.83105 0,0 1.19287,0 1.19287,0 0.40381,0 0.87403,0.0337 1.11768,-0.0923 0.17627,-0.0923 0.31934,-0.31104 0.31934,-0.80664 0,-0.34424 -0.07569,-0.5542 -0.17676,-0.68018 z m 0.18506,4.67871 c 0,0 0,-1.41113 0,-1.41113 0,-0.4707 0,-0.70557 -0.20996,-0.86523 -0.20997,-0.15137 -0.5879,-0.14258 -1.29395,-0.14258 0,0 -1.13428,0 -1.13428,0 0,0 0,2.41894 0,2.41894 0,0 -0.74756,0 -0.74756,0 0,0 0,-5.60253 0,-5.60253 0,0 1.90674,0 1.90674,0 1.30274,0 2.20117,0.0249 2.20117,1.5957 0,0.65527 -0.17627,1.05859 -0.58789,1.22656 0.66358,0.20166 0.58789,0.93213 0.58789,1.39404 0,0 0,1.38623 0,1.38623 0,0 -0.72216,0 -0.72216,0 z"
       inkscape:connector-curvature="0" /><path
       style="fill:#231f20;fill-opacity:1;fill-rule:nonzero;stroke:none"
       id="path2484"
       d="m 65.12012,-199.02393 c 0,0 -0.78955,0 -0.78955,0 0,0 -1.25147,-4.57812 -1.25147,-4.57812 0,0 -1.24316,4.57812 -1.24316,4.57812 0,0 -0.82324,0 -0.82324,0 0,0 -1.34424,-5.60253 -1.34424,-5.60253 0,0 0.75634,0 0.75634,0 0,0 1.04981,4.48535 1.04981,4.48535 0,0 1.21777,-4.48535 1.21777,-4.48535 0,0 0.79004,0 0.79004,0 0,0 1.20947,4.48535 1.20947,4.48535 0,0 1.0669,-4.48535 1.0669,-4.48535 0,0 0.73047,0 0.73047,0 0,0 -1.36914,5.60253 -1.36914,5.60253 z"
       inkscape:connector-curvature="0" /><path
       style="fill:#231f20;fill-opacity:1;fill-rule:nonzero;stroke:none"
       id="path2486"
       d="m 69.46143,-203.72803 c 0,0 -0.93213,2.51172 -0.93213,2.51172 0,0 1.86474,0 1.86474,0 0,0 -0.93261,-2.51172 -0.93261,-2.51172 z m 1.73877,4.7041 c 0,0 -0.57081,-1.54541 -0.57081,-1.54541 0,0 -2.34375,0 -2.34375,0 0,0 -0.56298,1.54541 -0.56298,1.54541 0,0 -0.78125,0 -0.78125,0 0,0 2.16748,-5.60253 2.16748,-5.60253 0,0 0.74756,0 0.74756,0 0,0 2.15869,5.60253 2.15869,5.60253 0,0 -0.81494,0 -0.81494,0 z"
       inkscape:connector-curvature="0" /><path
       style="fill:#231f20;fill-opacity:1;fill-rule:nonzero;stroke:none"
       id="path2488"
       d="m 74.62744,-201.46826 c 0,0 0,2.44433 0,2.44433 0,0 -0.74756,0 -0.74756,0 0,0 0,-2.44433 0,-2.44433 0,0 -1.99951,-3.1582 -1.99951,-3.1582 0,0 0.85693,0 0.85693,0 0,0 1.52881,2.47753 1.52881,2.47753 0,0 1.51221,-2.47753 1.51221,-2.47753 0,0 0.83984,0 0.83984,0 0,0 -1.99072,3.1582 -1.99072,3.1582 z"
       inkscape:connector-curvature="0" /><path
       style="fill:#231f20;fill-opacity:1;fill-rule:nonzero;stroke:none"
       id="path2490"
       d="m 82.98193,-203.96289 c 0,0 0,4.93896 0,4.93896 0,0 -0.74755,0 -0.74755,0 0,0 0,-4.93896 0,-4.93896 0,0 -1.74708,0 -1.74708,0 0,0 0,-0.66357 0,-0.66357 0,0 4.2417,0 4.2417,0 0,0 0,0.66357 0,0.66357 0,0 -1.74707,0 -1.74707,0 z"
       inkscape:connector-curvature="0" /><path
       style="fill:#231f20;fill-opacity:1;fill-rule:nonzero;stroke:none"
       id="path2492"
       d="m 89.09521,-203.56836 c -0.20166,-0.31055 -0.54589,-0.43652 -1.24316,-0.43652 -0.69726,0 -1.0498,0.13427 -1.24316,0.44482 -0.18457,0.28565 -0.23487,0.66358 -0.23487,1.73877 0,1.0752 0.0586,1.45361 0.24317,1.73877 0.19336,0.31104 0.54638,0.43701 1.24316,0.43701 0.68897,0 1.0332,-0.12597 1.23486,-0.43701 0.18506,-0.28516 0.24366,-0.67187 0.24366,-1.74707 0,-1.0752 -0.0586,-1.45312 -0.24366,-1.73877 z m -1.23486,4.61182 c -2.22558,0 -2.22558,-1.19287 -2.22558,-2.87305 0,-1.67969 -0.0088,-2.85596 2.21728,-2.85596 2.22608,0 2.23438,1.15918 2.23438,2.84766 0,1.74707 -0.0503,2.88135 -2.22608,2.88135 z"
       inkscape:connector-curvature="0" /><path
       style="fill:#231f20;fill-opacity:1;fill-rule:nonzero;stroke:none"
       id="path2494"
       d="m 98.46582,-199.02393 c 0,0 0,-2.53662 0,-2.53662 0,0 -2.62061,0 -2.62061,0 0,0 0,2.53662 0,2.53662 0,0 -0.74755,0 -0.74755,0 0,0 0,-5.60253 0,-5.60253 0,0 0.74755,0 0.74755,0 0,0 0,2.39355 0,2.39355 0,0 2.62061,0 2.62061,0 0,0 0,-2.39355 0,-2.39355 0,0 0.73926,0 0.73926,0 0,0 0,5.60253 0,5.60253 0,0 -0.73926,0 -0.73926,0 z"
       inkscape:connector-curvature="0" /><path
       style="fill:#231f20;fill-opacity:1;fill-rule:nonzero;stroke:none"
       id="path2496"
       d="m 100.96924,-199.02393 c 0,0 0,-5.60253 0,-5.60253 0,0 0.74756,0 0.74756,0 0,0 0,5.60253 0,5.60253 0,0 -0.74756,0 -0.74756,0 z"
       inkscape:connector-curvature="0" /><path
       style="fill:#231f20;fill-opacity:1;fill-rule:nonzero;stroke:none"
       id="path2498"
       d="m 107.15186,-199.02393 c 0,0 0,-0.5039 0,-0.5039 -0.42872,0.47021 -1.04151,0.57129 -1.68018,0.57129 -2.07471,0 -2.09131,-1.24317 -2.09131,-2.86475 0,-1.70508 0.008,-2.86426 2.29297,-2.86426 1.27686,0 2.0918,0.36133 2.0918,1.5708 0,0 -0.73926,0 -0.73926,0 0,-0.67187 -0.36133,-0.88183 -1.42822,-0.88183 -1.48682,0 -1.46973,0.66357 -1.46973,2.17529 0,1.52881 0.0166,2.17578 1.43603,2.17578 1.47022,0 1.48682,-0.73095 1.49561,-1.93213 0,0 -1.5625,0 -1.5625,0 0,0 0,-0.65527 0,-0.65527 0,0 2.26807,0 2.26807,0 0,0 0,3.20898 0,3.20898 0,0 -0.61328,0 -0.61328,0 z"
       inkscape:connector-curvature="0" /><path
       style="fill:#231f20;fill-opacity:1;fill-rule:nonzero;stroke:none"
       id="path2500"
       d="m 112.83008,-199.02393 c 0,0 0,-2.53662 0,-2.53662 0,0 -2.62061,0 -2.62061,0 0,0 0,2.53662 0,2.53662 0,0 -0.74756,0 -0.74756,0 0,0 0,-5.60253 0,-5.60253 0,0 0.74756,0 0.74756,0 0,0 0,2.39355 0,2.39355 0,0 2.62061,0 2.62061,0 0,0 0,-2.39355 0,-2.39355 0,0 0.73926,0 0.73926,0 0,0 0,5.60253 0,5.60253 0,0 -0.73926,0 -0.73926,0 z"
       inkscape:connector-curvature="0" /><path
       style="fill:#231f20;fill-opacity:1;fill-rule:nonzero;stroke:none"
       id="path2502"
       d="m 120.59619,-203.72803 c 0,0 -0.93213,2.51172 -0.93213,2.51172 0,0 1.86475,0 1.86475,0 0,0 -0.93262,-2.51172 -0.93262,-2.51172 z m 1.73877,4.7041 c 0,0 -0.5708,-1.54541 -0.5708,-1.54541 0,0 -2.34375,0 -2.34375,0 0,0 -0.56299,1.54541 -0.56299,1.54541 0,0 -0.78125,0 -0.78125,0 0,0 2.16748,-5.60253 2.16748,-5.60253 0,0 0.74756,0 0.74756,0 0,0 2.15869,5.60253 2.15869,5.60253 0,0 -0.81494,0 -0.81494,0 z"
       inkscape:connector-curvature="0" /><path
       style="fill:#231f20;fill-opacity:1;fill-rule:nonzero;stroke:none"
       id="path2504"
       d="m 126.08838,-199.02393 c 0,0 -0.72266,0 -0.72266,0 0,0 -2.08301,-5.60253 -2.08301,-5.60253 0,0 0.78956,0 0.78956,0 0,0 1.67138,4.60302 1.67138,4.60302 0,0 1.67188,-4.60302 1.67188,-4.60302 0,0 0.78125,0 0.78125,0 0,0 -2.1084,5.60253 -2.1084,5.60253 z"
       inkscape:connector-curvature="0" /><path
       style="fill:#231f20;fill-opacity:1;fill-rule:nonzero;stroke:none"
       id="path2506"
       d="m 130.84863,-203.72803 c 0,0 -0.93213,2.51172 -0.93213,2.51172 0,0 1.86475,0 1.86475,0 0,0 -0.93262,-2.51172 -0.93262,-2.51172 z m 1.73877,4.7041 c 0,0 -0.5708,-1.54541 -0.5708,-1.54541 0,0 -2.34375,0 -2.34375,0 0,0 -0.56299,1.54541 -0.56299,1.54541 0,0 -0.78125,0 -0.78125,0 0,0 2.16748,-5.60253 2.16748,-5.60253 0,0 0.74756,0 0.74756,0 0,0 2.15869,5.60253 2.15869,5.60253 0,0 -0.81494,0 -0.81494,0 z"
       inkscape:connector-curvature="0" /><path
       style="fill:#231f20;fill-opacity:1;fill-rule:nonzero;stroke:none"
       id="path2508"
       d="m 134.56152,-199.02393 c 0,0 0,-5.60253 0,-5.60253 0,0 0.74756,0 0.74756,0 0,0 0,5.60253 0,5.60253 0,0 -0.74756,0 -0.74756,0 z"
       inkscape:connector-curvature="0" /><path
       style="fill:#231f20;fill-opacity:1;fill-rule:nonzero;stroke:none"
       id="path2510"
       d="m 137.07275,-199.02393 c 0,0 0,-5.60253 0,-5.60253 0,0 0.74756,0 0.74756,0 0,0 0,4.93066 0,4.93066 0,0 2.84766,0 2.84766,0 0,0 0,0.67187 0,0.67187 0,0 -3.59522,0 -3.59522,0 z"
       inkscape:connector-curvature="0" /><path
       style="fill:#231f20;fill-opacity:1;fill-rule:nonzero;stroke:none"
       id="path2512"
       d="m 144.00977,-203.72803 c 0,0 -0.93164,2.51172 -0.93164,2.51172 0,0 1.86523,0 1.86523,0 0,0 -0.93359,-2.51172 -0.93359,-2.51172 z m 1.73925,4.7041 c 0,0 -0.57129,-1.54541 -0.57129,-1.54541 0,0 -2.34326,0 -2.34326,0 0,0 -0.56299,1.54541 -0.56299,1.54541 0,0 -0.78125,0 -0.78125,0 0,0 2.16797,-5.60253 2.16797,-5.60253 0,0 0.74707,0 0.74707,0 0,0 2.15918,5.60253 2.15918,5.60253 0,0 -0.81543,0 -0.81543,0 z"
       inkscape:connector-curvature="0" /><path
       style="fill:#231f20;fill-opacity:1;fill-rule:nonzero;stroke:none"
       id="path2514"
       d="m 149.64648,-201.56055 c 0,0 -1.18457,0 -1.18457,0 0,0 0,1.86475 0,1.86475 0,0 1.18457,0 1.18457,0 0.91602,0 1.49512,0.0923 1.49512,-0.92432 0,-0.99951 -0.47949,-0.94043 -1.49512,-0.94043 z m -0.042,-2.39404 c 0,0 -1.14258,0 -1.14258,0 0,0 0,1.72168 0,1.72168 0,0 1.20118,0 1.20118,0 0.88183,0 1.42773,0.10107 1.43652,-0.86523 0,-0.91553 -0.50391,-0.85645 -1.49512,-0.85645 z m 0.1084,4.93066 c 0,0 -1.99023,0 -1.99023,0 0,0 0,-5.60253 0,-5.60253 0,0 1.94043,0 1.94043,0 1.11718,0 2.17578,-0.0845 2.17578,1.41113 0,0.63818 -0.15137,1.12549 -0.56348,1.30176 0.50391,0.22705 0.60547,0.70556 0.60547,1.27685 0,1.66309 -1.10938,1.61279 -2.16797,1.61279 z"
       inkscape:connector-curvature="0" /><path
       style="fill:#231f20;fill-opacity:1;fill-rule:nonzero;stroke:none"
       id="path2516"
       d="m 153.54395,-199.02393 c 0,0 0,-5.60253 0,-5.60253 0,0 0.74707,0 0.74707,0 0,0 0,5.60253 0,5.60253 0,0 -0.74707,0 -0.74707,0 z"
       inkscape:connector-curvature="0" /><path
       style="fill:#231f20;fill-opacity:1;fill-rule:nonzero;stroke:none"
       id="path2518"
       d="m 156.05566,-199.02393 c 0,0 0,-5.60253 0,-5.60253 0,0 0.74707,0 0.74707,0 0,0 0,4.93066 0,4.93066 0,0 2.84766,0 2.84766,0 0,0 0,0.67187 0,0.67187 0,0 -3.59473,0 -3.59473,0 z"
       inkscape:connector-curvature="0" /><path
       style="fill:#231f20;fill-opacity:1;fill-rule:nonzero;stroke:none"
       id="path2520"
       d="m 160.77637,-199.02393 c 0,0 0,-5.60253 0,-5.60253 0,0 0.74707,0 0.74707,0 0,0 0,5.60253 0,5.60253 0,0 -0.74707,0 -0.74707,0 z"
       inkscape:connector-curvature="0" /><path
       style="fill:#231f20;fill-opacity:1;fill-rule:nonzero;stroke:none"
       id="path2522"
       d="m 165.22852,-203.96289 c 0,0 0,4.93896 0,4.93896 0,0 -0.74805,0 -0.74805,0 0,0 0,-4.93896 0,-4.93896 0,0 -1.74707,0 -1.74707,0 0,0 0,-0.66357 0,-0.66357 0,0 4.24121,0 4.24121,0 0,0 0,0.66357 0,0.66357 0,0 -1.74609,0 -1.74609,0 z"
       inkscape:connector-curvature="0" /><path
       style="fill:#231f20;fill-opacity:1;fill-rule:nonzero;stroke:none"
       id="path2524"
       d="m 170.54492,-201.46826 c 0,0 0,2.44433 0,2.44433 0,0 -0.74804,0 -0.74804,0 0,0 0,-2.44433 0,-2.44433 0,0 -2,-3.1582 -2,-3.1582 0,0 0.85742,0 0.85742,0 0,0 1.52929,2.47753 1.52929,2.47753 0,0 1.51172,-2.47753 1.51172,-2.47753 0,0 0.83985,0 0.83985,0 0,0 -1.99024,3.1582 -1.99024,3.1582 z"
       inkscape:connector-curvature="0" /><path
       inkscape:connector-curvature="0"
       d="m 68.900857,-192.00639 c 6.412,-2.997 9.58,-1.175 14.150999,-0.057 0.57,0.115 2.049,0.304 2.808,0.152 17.660004,-5.102 32.607004,-6.127 37.691004,2.561 1.176,1.803 3.851,2.618 5.121,3.756 0.362,0.266 0.817,1.328 -0.568,1.916 -5.842,2.03 -11.268,1.062 -18.552,0.531 -3.225,5.349 -6.393,9.371 -11.951004,11.002 -0.759,0.209 -3.263,0.455 -2.314,-1.024 0.512,-0.228 4.287,-3.13 4.287,-4.363 0.209,-0.683 -0.512,-0.455 -0.721,-0.417 -18.512999,7.739 -26.498999,13.999 -32.663999,20.999 -0.323,0.322 -3.092,3.13 -2.58,4.002 1.631,1.252 0.588,4.382 -1.631,6.563 -0.228,0.323 -0.797,0.152 -0.892,-0.113 -0.133,-0.664 -1.498,-1.006 -4.932,-0.152 -2.902,1.366 -4.078,2.921 -5.407,4.723 -0.948,0.702 -0.909,-0.835 -0.113,-2.788 0.968,-2.542 4.951,-7.645 9.124,-10.813 1.669,-7.853 4.515,-14.435 7.493,-19.671 4.268,-8.024 8.195,-12.993 1.65,-16.807"
       style="fill:#3c9e97;fill-opacity:1;fill-rule:nonzero;stroke:none"
       id="path3059" /><path
       inkscape:connector-curvature="0"
       d="m 68.900857,-192.00639 c 6.412,-2.997 9.58,-1.175 14.150999,-0.057 0.57,0.115 2.049,0.304 2.808,0.152 17.660004,-5.102 32.607004,-6.127 37.691004,2.561 1.176,1.803 3.851,2.618 5.121,3.756 0.362,0.266 0.817,1.328 -0.568,1.916 -5.842,2.03 -11.268,1.062 -18.552,0.531 -3.225,5.349 -6.393,9.371 -11.951004,11.002 -0.759,0.209 -3.263,0.455 -2.314,-1.024 0.512,-0.228 4.287,-3.13 4.287,-4.363 0.209,-0.683 -0.512,-0.455 -0.721,-0.417 -18.512999,7.739 -26.498999,13.999 -32.663999,20.999 -0.323,0.322 -3.092,3.13 -2.58,4.002 1.631,1.252 0.588,4.382 -1.631,6.563 -0.228,0.323 -0.797,0.152 -0.892,-0.113 -0.133,-0.664 -1.498,-1.006 -4.932,-0.152 -2.902,1.366 -4.078,2.921 -5.407,4.723 -0.948,0.702 -0.909,-0.835 -0.113,-2.788 0.968,-2.542 4.951,-7.645 9.124,-10.813 1.669,-7.853 4.515,-14.435 7.493,-19.671 4.268,-8.024 8.195,-12.993 1.65,-16.807 z"
       style="fill:none;stroke:#ffffff;stroke-width:0.24630001;stroke-linecap:butt;stroke-linejoin:miter;stroke-miterlimit:4;stroke-opacity:1;stroke-dasharray:none"
       id="path3061" /><path
       inkscape:connector-curvature="0"
       d="m 72.690857,-163.84739 c 3.623,-8.46 11.193999,-18.004 19.54,-17.871 6.278999,-0.494 10.075003,2.13 6.849999,4.083 -8.631,3.206 -18.310999,7.246 -26.389999,13.788"
       style="fill:#ffffff;fill-opacity:1;fill-rule:nonzero;stroke:none"
       id="path3063" /><path
       inkscape:connector-curvature="0"
       d="m 72.690857,-163.84739 c 3.623,-8.46 11.193999,-18.004 19.54,-17.871 6.278999,-0.494 10.075003,2.13 6.849999,4.083 -8.631,3.206 -18.310999,7.246 -26.389999,13.788 z"
       style="fill:none;stroke:#3c9e97;stroke-width:0.26350001;stroke-linecap:butt;stroke-linejoin:miter;stroke-miterlimit:4;stroke-opacity:1;stroke-dasharray:none"
       id="path3065" /><path
       inkscape:connector-curvature="0"
       d="m 109.70686,-183.38739 c -0.144,-0.069 -1.185,-1.421 3.293,-1.36 2.808,0.018 5.094,0.175 8.87,0.175 2.222,0 6.722,-0.524 6.806,-0.132 -0.056,1.48 -2.74,1.665 -5.927,2.064 -4.591,0.246 -8.387,-0.22 -13.042,-0.747"
       style="fill:#ffffff;fill-opacity:1;fill-rule:nonzero;stroke:none"
       id="path3067" /><path
       inkscape:connector-curvature="0"
       d="m 109.70686,-183.38739 c -0.144,-0.069 -1.185,-1.421 3.293,-1.36 2.808,0.018 5.094,0.175 8.87,0.175 2.222,0 6.722,-0.524 6.806,-0.132 -0.056,1.48 -2.74,1.665 -5.927,2.064 -4.591,0.246 -8.387,-0.22 -13.042,-0.747 z"
       style="fill:none;stroke:#3c9e97;stroke-width:0.26350001;stroke-linecap:butt;stroke-linejoin:miter;stroke-miterlimit:4;stroke-opacity:1;stroke-dasharray:none"
       id="path3069" /><path
       inkscape:connector-curvature="0"
       d="m 12.543857,-123.37239 4.25,0 0,-28.991 -4.25,0 0,-1.328 17.13,0 c 10.445,0 17.395,3.851 17.395,15.845 0,11.951 -6.95,15.802 -17.395,15.802 l -17.13,0 0,-1.328 z m 11.154,0 2.523,0 c 6.374,0 13.057,-0.443 13.057,-14.474 0,-14.074 -6.683,-14.517 -11.375,-14.517 l -4.205,0 0,28.991"
       style="fill:#706d6e;fill-opacity:1;fill-rule:nonzero;stroke:none"
       id="path3071" /><path
       inkscape:connector-curvature="0"
       d="m 63.217857,-121.51339 c -6.86,0 -11.508,-4.426 -11.508,-11.375 0,-6.551 4.736,-11.375 11.508,-11.375 6.772,0 11.508,4.824 11.508,11.375 0,6.55 -4.736,11.375 -11.508,11.375 z m 0,-21.423 c -4.603,0 -4.603,4.869 -4.603,10.048 0,5.178 0,10.047 4.603,10.047 4.603,0 4.603,-4.869 4.603,-10.047 0,-5.179 0,-10.048 -4.603,-10.048"
       style="fill:#706d6e;fill-opacity:1;fill-rule:nonzero;stroke:none"
       id="path3073" /><path
       inkscape:connector-curvature="0"
       d="m 77.729857,-123.37239 3.187,0 0,-28.991 -3.187,0 0,-1.328 2.744,0 c 2.256999,0 4.558999,-0.088 6.816999,-0.265 l 0,30.584 3.187,0 0,1.328 -12.747999,0 0,-1.328"
       style="fill:#706d6e;fill-opacity:1;fill-rule:nonzero;stroke:none"
       id="path3075" /><path
       inkscape:connector-curvature="0"
       d="m 92.290857,-113.63539 3.186999,0 0,-28.769 -3.186999,0 0,-1.328 2.743999,0 c 2.258,0 4.56,-0.089 6.817004,-0.265 l 0,3.319 0.088,0 c 1.24,-2.523 3.232,-3.585 6.33,-3.585 6.506,0 9.914,5.4 9.914,11.375 0,5.975 -3.408,11.375 -9.914,11.375 -2.921,0 -4.957,-0.885 -6.33,-2.877 l -0.088,0 0,10.755 3.186,0 0,1.328 -12.747003,0 0,-1.328 z m 14.563003,-29.035 c -1.992,0 -5.135,1.505 -5.135,9.782 0,8.365 2.213,9.782 5.135,9.782 4.425,0 4.425,-4.604 4.425,-9.782 0,-5.179 0,-9.782 -4.425,-9.782"
       style="fill:#706d6e;fill-opacity:1;fill-rule:nonzero;stroke:none"
       id="path3077" /><path
       inkscape:connector-curvature="0"
       d="m 121.19186,-123.37239 3.187,0 0,-28.991 -3.187,0 0,-1.328 2.744,0 c 2.258,0 4.559,-0.088 6.817,-0.265 l 0,13.234 0.087,0 c 1.506,-2.347 3.94,-3.541 7.038,-3.541 4.47,0 7.613,2.39 7.613,7.303 l 0,13.588 3.187,0 0,1.328 -12.748,0 0,-1.328 3.188,0 0,-14.474 c 0,-3.452 -1.637,-4.293 -3.453,-4.293 -2.478,0 -4.912,2.39 -4.912,6.108 l 0,12.659 3.186,0 0,1.328 -12.747,0 0,-1.328"
       style="fill:#706d6e;fill-opacity:1;fill-rule:nonzero;stroke:none"
       id="path3079" /><path
       inkscape:connector-curvature="0"
       d="m 150.71386,-123.37239 3.187,0 0,-19.032 -3.187,0 0,-1.328 2.744,0 c 2.257,0 4.559,-0.089 6.816,-0.265 l 0,20.625 3.188,0 0,1.328 -12.748,0 0,-1.328 z m 6.374,-30.85 c 1.903,0 3.452,1.549 3.452,3.452 0,1.904 -1.549,3.453 -3.452,3.453 -1.904,0 -3.453,-1.549 -3.453,-3.453 0,-1.903 1.549,-3.452 3.453,-3.452"
       style="fill:#706d6e;fill-opacity:1;fill-rule:nonzero;stroke:none"
       id="path3081" /><path
       inkscape:connector-curvature="0"
       d="m 165.49686,-123.37239 3.186,0 0,-19.032 -3.186,0 0,-1.328 2.744,0 c 2.258,0 4.558,-0.089 6.816,-0.265 l 0,3.275 0.088,0 c 1.506,-2.347 3.94,-3.541 7.038,-3.541 4.47,0 7.612,2.39 7.612,7.303 l 0,13.588 3.188,0 0,1.328 -12.748,0 0,-1.328 3.187,0 0,-14.474 c 0,-3.452 -1.637,-4.293 -3.453,-4.293 -2.477,0 -4.912,2.39 -4.912,6.108 l 0,12.659 3.187,0 0,1.328 -12.747,0 0,-1.328"
       style="fill:#706d6e;fill-opacity:1;fill-rule:nonzero;stroke:none"
       id="path3083" /><path
       inkscape:connector-curvature="0"
       d="m 52.848857,-113.37139 0.056,-0.841 5.277,-1.625 -0.056,0.84 -5.277,1.626"
       style="fill:#706d6e;fill-opacity:1;fill-rule:nonzero;stroke:none"
       id="path3085" /><path
       inkscape:connector-curvature="0"
       d="m 52.838857,-108.03439 4.323,-3.169 -0.015,-0.005 -4.375,1.678 -0.034,-0.755 5.282,-2.026 0.054,1.198 -4.091,3.027 0.014,0.005 4.142,-1.589 0.033,0.756 -5.282,2.026 -0.051,-1.146"
       style="fill:#706d6e;fill-opacity:1;fill-rule:nonzero;stroke:none"
       id="path3087" /><path
       inkscape:connector-curvature="0"
       d="m 58.437857,-106.69039 0.545,2.875 -0.869,0.412 -0.201,-1.056 -4.361,2.072 -0.144,-0.762 4.361,-2.071 -0.2,-1.056 0.869,-0.414"
       style="fill:#706d6e;fill-opacity:1;fill-rule:nonzero;stroke:none"
       id="path3089" /><path
       inkscape:connector-curvature="0"
       d="m 59.552857,-101.73239 0.767,2.214002 -0.852,0.48 -0.521,-1.505002 -1.2,0.675002 0.488,1.409 -0.852,0.48 -0.488,-1.409 -1.37,0.771 0.539,1.555 -0.852,0.48 -0.784,-2.265 5.125,-2.885002"
       style="fill:#706d6e;fill-opacity:1;fill-rule:nonzero;stroke:none"
       id="path3091" /><path
       inkscape:connector-curvature="0"
       d="m 56.652857,-93.418388 -0.349,-0.645 4.952,-3.274 0.691,1.279 c 0.273,0.52 0.284,1.231 -0.724,1.897 -0.645,0.427 -1.207,0.454 -1.538,0.169 l -0.013,0.009 c 0.178,0.555 -0.323,0.886 -0.979,1.394 -0.3,0.237 -0.869,0.648 -1.078,0.95 l -0.385,-0.712 c 0.409,-0.345 0.839,-0.669 1.269,-0.993 0.266,-0.198 0.62,-0.489 0.519,-0.71 l -0.369,-0.683 -1.996,1.319 z m 2.819,-1.863 0.293,0.541 c 0.16,0.279 0.482,0.291 0.921,8e-4 0.44,-0.29 0.535,-0.579 0.389,-0.867 l -0.293,-0.541 -1.31,0.866"
       style="fill:#706d6e;fill-opacity:1;fill-rule:nonzero;stroke:none"
       id="path3093" /><path
       inkscape:connector-curvature="0"
       d="m 63.426857,-90.440388 c 0.498,-0.38 0.761,-0.857 0.49,-1.2 -0.321,-0.405 -1.466,0.315 -2.124,0.825 -0.658,0.51 -1.64,1.436 -1.318,1.841 0.271,0.343 0.803,0.204 1.295,-0.184 l 0.482,0.608 c -1.201,0.888 -2.023,0.753 -2.508,0.141 -0.61,-0.769 0.192,-1.949 1.568,-3.014 1.376,-1.065 2.726,-1.552 3.335,-0.783 0.485,0.612 0.421,1.434 -0.739,2.373 l -0.481,-0.607"
       style="fill:#706d6e;fill-opacity:1;fill-rule:nonzero;stroke:none"
       id="path3095" /><path
       inkscape:connector-curvature="0"
       d="m 64.646857,-87.531388 c 1.291,-1.177 2.669,-1.741 3.532,-0.997 0.863,0.743 0.264,1.979 -1.027,3.156 -1.291,1.176 -2.669,1.741 -3.532,0.997 -0.863,-0.743 -0.264,-1.98 1.027,-3.156 z m 0.595,0.513 c -0.751,0.685 -1.495,1.548 -0.943,2.025 0.552,0.475 1.506,-0.207 2.258,-0.892 0.751,-0.685 1.495,-1.549 0.943,-2.025 -0.553,-0.476 -1.506,0.207 -2.258,0.892"
       style="fill:#706d6e;fill-opacity:1;fill-rule:nonzero;stroke:none"
       id="path3097" /><path
       inkscape:connector-curvature="0"
       d="m 69.109857,-80.736388 2.052,-4.262 -0.02,0.007 -3.264,3.558 -0.623,-0.352 3.942,-4.296 0.987,0.559 -1.92,4.047 0.019,-0.007 3.091,-3.368 0.622,0.353 -3.942,4.295 -0.944,-0.534"
       style="fill:#706d6e;fill-opacity:1;fill-rule:nonzero;stroke:none"
       id="path3099" /><path
       inkscape:connector-curvature="0"
       d="m 74.939857,-78.252388 1.429,-4.244 -0.019,0.009 -2.822,3.756 -0.714,-0.243 3.407,-4.534 1.132,0.385 -1.327,4.027 0.019,-0.01 2.671,-3.554 0.714,0.242 -3.408,4.535 -1.082,-0.369"
       style="fill:#706d6e;fill-opacity:1;fill-rule:nonzero;stroke:none"
       id="path3101" /><path
       inkscape:connector-curvature="0"
       d="m 81.922857,-81.819388 2.626999,0.452 -0.473,0.777 -1.785,-0.307 -0.665999,1.094 1.670999,0.287 -0.473,0.777 -1.670999,-0.287 -0.76,1.248 1.844999,0.318 -0.472999,0.776 -2.686,-0.461 2.844,-4.674"
       style="fill:#706d6e;fill-opacity:1;fill-rule:nonzero;stroke:none"
       id="path3103" /><path
       inkscape:connector-curvature="0"
       d="m 88.990856,-79.463388 c 0.244,-0.499 0.167,-0.908 -0.374,-0.927 -0.641,-0.022 -1.314,1.042 -1.63,1.704 -0.315,0.663 -0.662,1.738 -0.022,1.76 0.541,0.019 1,-0.373 1.232,-0.871 l 0.96,0.033 c -0.606,1.186 -1.576,1.606 -2.542,1.573 -1.216,-0.042 -1.248,-1.144 -0.588,-2.528 0.66,-1.384 1.723,-2.448 2.94,-2.406 0.966,0.033 1.51,0.506 0.985,1.695 l -0.961,-0.033"
       style="fill:#706d6e;fill-opacity:1;fill-rule:nonzero;stroke:none"
       id="path3105" /><path
       inkscape:connector-curvature="0"
       d="m 93.066857,-81.037388 3.579999,-0.306 -0.272,0.784 -1.316,0.113 -1.365,3.934 -0.947999,0.082 1.364999,-3.935 -1.315999,0.112 0.272,-0.784"
       style="fill:#706d6e;fill-opacity:1;fill-rule:nonzero;stroke:none"
       id="path3107" /><path
       inkscape:connector-curvature="0"
       d="m 105.85386,-81.955388 c 0.018,-0.447 -0.203,-0.606 -0.684,-0.477 -0.365,0.097 -0.759,0.385 -0.808,0.779 -0.06,0.489 0.381,0.425 0.767,0.413 0.682,-0.013 1.695,-0.096 1.583,0.812 -0.138,1.121 -1.184,1.777 -2.176,2.042 -1.057,0.283 -1.756,0.082 -1.583,-1.066 l 1.011,-0.271 c -0.1,0.511 0.152,0.771 0.671,0.632 0.396,-0.106 0.936,-0.365 0.995,-0.847 0.066,-0.533 -0.588,-0.394 -0.973,-0.388 -0.627,0.016 -1.475,-0.036 -1.376,-0.837 0.127,-1.034 1.157,-1.751 2.104,-2.005 0.896,-0.239 1.535,0.05 1.423,0.958 l -0.954,0.255"
       style="fill:#706d6e;fill-opacity:1;fill-rule:nonzero;stroke:none"
       id="path3109" /><path
       inkscape:connector-curvature="0"
       d="m 110.03286,-82.293388 c -0.048,-1.265 0.61,-2.498 2.147,-3.082 1.537,-0.584 2.269,0.121 2.317,1.386 0.048,1.266 -0.61,2.498 -2.148,3.082 -1.537,0.584 -2.268,-0.12 -2.316,-1.386 z m 1.061,-0.403 c 0.028,0.737 0.246,1.498 1.23,1.124 0.985,-0.374 1.139,-1.277 1.112,-2.014 -0.028,-0.736 -0.246,-1.498 -1.23,-1.124 -0.985,0.375 -1.14,1.277 -1.112,2.014"
       style="fill:#706d6e;fill-opacity:1;fill-rule:nonzero;stroke:none"
       id="path3111" /><path
       inkscape:connector-curvature="0"
       d="m 118.26386,-83.485388 -0.829,-4.005 0.985,-0.479 0.692,3.34 1.99,-0.967 0.139,0.667 -2.977,1.444"
       style="fill:#706d6e;fill-opacity:1;fill-rule:nonzero;stroke:none"
       id="path3113" /><path
       inkscape:connector-curvature="0"
       d="m 127.15886,-92.757388 0.918,2.293 c 0.391,0.974 -0.274,1.951 -1.356,2.592 -1.081,0.639 -2.123,0.672 -2.515,-0.302 l -0.918,-2.293 0.958,-0.567 0.798,1.989 c 0.248,0.619 0.51,1.16 1.451,0.604 0.939,-0.556 0.75,-1.141 0.502,-1.76 l -0.797,-1.989 0.959,-0.567"
       style="fill:#706d6e;fill-opacity:1;fill-rule:nonzero;stroke:none"
       id="path3115" /><path
       inkscape:connector-curvature="0"
       d="m 129.89286,-94.539388 3.461,-2.446 0.346,0.543 -1.273,0.899 1.734,2.725 -0.917,0.648 -1.734,-2.725 -1.271,0.899 -0.346,-0.543"
       style="fill:#706d6e;fill-opacity:1;fill-rule:nonzero;stroke:none"
       id="path3117" /><path
       inkscape:connector-curvature="0"
       d="m 139.31286,-96.731388 -0.877,0.702 -2.514,-2.938 0.879,-0.701 2.512,2.937"
       style="fill:#706d6e;fill-opacity:1;fill-rule:nonzero;stroke:none"
       id="path3119" /><path
       inkscape:connector-curvature="0"
       d="m 140.93386,-100.57239 c -0.873,-0.755 -0.966,-1.858 0.311,-3.018 1.275,-1.162 2.521,-1.108 3.394,-0.352 0.873,0.754 0.965,1.857 -0.31,3.018 -1.277,1.160002 -2.522,1.107002 -3.395,0.352 z m 0.88,-0.802 c 0.509,0.44 1.238,0.795 2.055,0.053 0.817,-0.744 0.397,-1.381 -0.111,-1.82 -0.507,-0.44 -1.238,-0.796 -2.054,-0.053 -0.817,0.744 -0.398,1.381 0.11,1.82"
       style="fill:#706d6e;fill-opacity:1;fill-rule:nonzero;stroke:none"
       id="path3121" /><path
       inkscape:connector-curvature="0"
       d="m 151.12586,-107.78639 -4.269,-0.228 0,0.017 2.875,1.701 -0.704,0.753 -3.472,-2.055 1.118,-1.194 4.066,0.188 0,-0.016 -2.721,-1.611 0.704,-0.753 3.471,2.055 -1.068,1.143"
       style="fill:#706d6e;fill-opacity:1;fill-rule:nonzero;stroke:none"
       id="path3123" /><path
       inkscape:connector-curvature="0"
       d="m 153.77786,-115.28739 c -0.421,-0.125 -0.785,0.009 -1.111,0.418 -0.248,0.31 -0.338,0.691 0.002,0.827 0.421,0.168 0.775,-0.193 1.126,-0.498 0.629,-0.538 1.5,-1.353 2.285,-1.04 0.967,0.388 0.624,1.371 -0.051,2.215 -0.718,0.898 -1.573,1.396 -2.534,0.975 l 0.687,-0.86 c 0.406,0.206 0.898,0.073 1.25,-0.369 0.271,-0.337 0.524,-0.825 0.109,-0.991 -0.46,-0.184 -0.941,0.364 -1.296,0.666 -0.575,0.496 -1.424,1.148 -2.116,0.872 -0.891,-0.358 -0.625,-1.343 0.02,-2.148 0.609,-0.763 1.493,-1.191 2.277,-0.878 l -0.648,0.811"
       style="fill:#706d6e;fill-opacity:1;fill-rule:nonzero;stroke:none"
       id="path3125" /></g><path
     style="fill:#fa8522;fill-opacity:1;stroke:#fa8522;stroke-width:0.25359279;stroke-miterlimit:4;stroke-opacity:1;stroke-dasharray:1.01437116, 0.25359279;stroke-dashoffset:0"
     d="m 26.261569,18.512274 0,-18.38547761 7.227395,0 7.227394,0 0,13.94760361 0,13.947604 8.241766,0 8.241766,0 0,4.437873 0,4.437874 -15.469161,0 -15.46916,0 0,-18.385477 z"
     id="path2631"
     inkscape:connector-curvature="0" /><path
     style="fill:#fa8522;fill-opacity:1;stroke:#fa8522;stroke-width:0.25359279;stroke-miterlimit:4;stroke-opacity:1;stroke-dasharray:1.01437116, 0.25359279;stroke-dashoffset:0"
     d="m 59.482225,31.31871 0,-5.579042 -3.550299,0 -3.550299,0 0,-12.806435 0,-12.80643661 7.227394,0 7.227395,0 0,18.38547761 0,18.385477 -3.677096,0 -3.677095,0 0,-5.579041 z"
     id="path2633"
     inkscape:connector-curvature="0" /><path
     style="fill:#fa8522;fill-opacity:1;stroke:#fa8522;stroke-width:0.25359279;stroke-miterlimit:4;stroke-opacity:1;stroke-dasharray:1.01437116, 0.25359279;stroke-dashoffset:0"
     d="m 69.879529,18.512274 0,-18.38547761 7.924775,0.004745 7.924774,0.004742 5.452245,10.26330369 5.452245,10.263303 0.06625,-10.268045 0.06624,-10.2680486 6.210182,0 6.21018,0 0,3.652284 0,3.6522915 -0.7008,0.2442986 c -1.05022,0.3661094 -2.26819,1.4909024 -3.04467,2.8117615 -0.5879,1.000066 -0.69241,1.464894 -0.69241,3.079783 0,1.329067 0.13874,2.18072 0.46061,2.827473 0.58531,1.176113 2.00315,2.599364 3.11514,3.127035 0.81846,0.388387 0.86194,0.475935 0.85847,1.728572 -0.004,1.316185 -0.007,1.321165 -1.24538,2.004164 -3.47052,1.913665 -4.36511,6.530588 -1.89332,9.771268 0.35837,0.469849 1.21036,1.162383 1.89332,1.538971 1.09097,0.601572 1.24217,0.785191 1.24538,1.512389 l 0.004,0.827691 -8.17516,-0.06691 -8.175157,-0.06691 -5.328654,-9.822734 c -2.930764,-5.402506 -5.414246,-9.82453 -5.518853,-9.826723 -0.104607,-0.0022 -0.190195,4.446569 -0.190195,9.886134 l 0,9.890119 -5.95943,0 -5.959431,0 0,-18.385477 z"
     id="path2635"
     inkscape:connector-curvature="0" /></svg>