<?xml version="1.0" encoding="UTF-8" standalone="no"?>
<!-- Created with Inkscape (http://www.inkscape.org/) -->

<svg
   xmlns:dc="http://purl.org/dc/elements/1.1/"
   xmlns:cc="http://creativecommons.org/ns#"
   xmlns:rdf="http://www.w3.org/1999/02/22-rdf-syntax-ns#"
   xmlns:svg="http://www.w3.org/2000/svg"
   xmlns="http://www.w3.org/2000/svg"
   xmlns:sodipodi="http://sodipodi.sourceforge.net/DTD/sodipodi-0.dtd"
   xmlns:inkscape="http://www.inkscape.org/namespaces/inkscape"
   version="1.0"
   width="176.98059"
   height="46.75042"
   id="svg2447"
   xml:space="preserve"
   sodipodi:version="0.32"
   inkscape:version="0.91 r13725"
   inkscape:output_extension="org.inkscape.output.svg.inkscape"
   sodipodi:docname="linbit-logo.svg"
   inkscape:export-filename="/tmp/LB_logo_claim_4c.png"
   inkscape:export-xdpi="150.01645"
   inkscape:export-ydpi="150.01645"><metadata
     id="metadata2627"><rdf:RDF><cc:Work
         rdf:about=""><dc:format>image/svg+xml</dc:format><dc:type
           rdf:resource="http://purl.org/dc/dcmitype/StillImage" /><dc:title></dc:title></cc:Work></rdf:RDF></metadata><sodipodi:namedview
     inkscape:window-height="984"
     inkscape:window-width="1680"
     inkscape:pageshadow="2"
     inkscape:pageopacity="0.0"
     guidetolerance="10.0"
     gridtolerance="10.0"
     objecttolerance="10.0"
     borderopacity="1.0"
     bordercolor="#666666"
     pagecolor="#ffffff"
     id="base"
     showgrid="false"
     inkscape:zoom="3.9433298"
     inkscape:cx="87.197189"
     inkscape:cy="57.996626"
     inkscape:window-x="0"
     inkscape:window-y="0"
     inkscape:current-layer="svg2447"
     inkscape:snap-bbox="true"
     inkscape:bbox-paths="true"
     inkscape:window-maximized="1"
     inkscape:bbox-nodes="true"
     inkscape:snap-grids="false"
     inkscape:snap-to-guides="false"
     inkscape:snap-global="false"
     fit-margin-top="0"
     fit-margin-left="0"
     fit-margin-right="0"
     fit-margin-bottom="0" /><defs
     id="defs2450"><inkscape:perspective
       sodipodi:type="inkscape:persp3d"
       inkscape:vp_x="0 : 25.449219 : 1"
       inkscape:vp_y="0 : 1000 : 0"
       inkscape:vp_z="176.98059 : 25.449219 : 1"
       inkscape:persp3d-origin="88.490295 : 16.966146 : 1"
       id="perspective2629" /></defs><path
     inkscape:connector-curvature="0"
     d="m 109.74731,11.245165 c -0.0946,0.658575 -0.41747,1.21765 -0.97533,1.676025 -0.55787,0.458375 -1.29273,0.684813 -2.20887,0.684813 0,0 -4.71435,0 -4.71435,0 0,0 0.66955,-4.7747759 0.66955,-4.7747759 0,0 4.27795,0 4.27795,0 1.09742,0 1.88478,0.240475 2.36878,0.7159375 0.48157,0.4754754 0.67689,1.0412634 0.58227,1.6980004 z m -0.47362,14.158938 c -0.105,0.735475 -0.48463,1.351924 -1.13893,1.8457 -0.65856,0.495612 -1.57592,0.7428 -2.74962,0.7428 0,0 -5.560312,0 -5.560312,0 0,0 0.798352,-5.669551 0.798352,-5.669551 0,0 5.11718,0 5.11718,0 1.2854,0 2.25098,0.328976 2.89184,0.989988 0.54383,0.55115 0.75868,1.248163 0.64149,2.091063 z m 11.97815,-10.317388 c 1.39647,-1.566162 2.23266,-3.36425 2.5183,-5.3948879 0.37599,-2.65625 -0.30639,-4.8529125 -2.04468,-6.5863125 -1.99706,-1.991575 -5.12146,-2.98766249 -9.38353,-2.98766249 0,0 -22.01844,0 -22.01844,0 0,0 -1.184087,8.43444999 -1.184087,8.43444999 1.497812,1.1846875 2.460337,3.0132999 2.460337,5.0726249 0,2.705688 -1.65955,5.020138 -4.013675,5.990601 0,0 -0.446775,3.154912 -0.446775,3.154912 2.5885,0.847163 4.46045,3.2782 4.46045,6.150513 0,3.494262 -2.770387,6.336062 -6.233525,6.4624 0,0 -0.243525,1.740725 -0.243525,1.740725 0,0 23.78479,0 23.78479,0 4.07287,0 7.40661,-1.0138 10.00305,-3.042 2.26685,-1.767576 3.59131,-3.981925 3.96117,-6.635126 0.3064,-2.173462 -0.11962,-4.109499 -1.27562,-5.805049 -1.2439,-1.843263 -3.12867,-3.0597 -5.6543,-3.648076 2.146,-0.371099 3.91601,-1.337887 5.31006,-2.907112 z"
     id="path2460"
     style="fill:#231f20;fill-opacity:1;fill-rule:nonzero;stroke:none" /><path
     inkscape:connector-curvature="0"
     d="m 134.94385,11.774952 c 0,0 1.63696,-11.65709989 1.63696,-11.65709989 0,0 -7.7063,0 -7.7063,0 0,0 -5.20202,37.00622489 -5.20202,37.00622489 0,0 14.80469,0 14.80469,0 0,0 3.55957,-25.349125 3.55957,-25.349125 0,0 -7.0929,0 -7.0929,0 z"
     id="path2462"
     style="fill:#231f20;fill-opacity:1;fill-rule:nonzero;stroke:none" /><path
     inkscape:connector-curvature="0"
     d="m 175.63904,9.6637521 c 0,0 -11.54296,0 -11.54296,0 0,0 -3.85254,27.4603249 -3.85254,27.4603249 0,0 -15.10865,0 -15.10865,0 0,0 3.86231,-27.4603249 3.86231,-27.4603249 0,0 -11.59791,0 -11.59791,0 0,0 1.34156,-9.54589999 1.34156,-9.54589999 0,0 38.23974,0 38.23974,0 0,0 -1.34155,9.54589999 -1.34155,9.54589999 z"
     id="path2464"
     style="fill:#231f20;fill-opacity:1;fill-rule:nonzero;stroke:none" /><path
     inkscape:connector-curvature="0"
     d="m 89.749152,28.920952 c 0,2.555538 -2.073362,4.628901 -4.626462,4.628901 -2.554325,0 -4.624025,-2.073363 -4.624025,-4.628901 0,-2.554937 2.0697,-4.624637 4.624025,-4.624637 2.5531,0 4.626462,2.0697 4.626462,4.624637 z"
     id="path2466"
     style="fill:#231f20;fill-opacity:1;fill-rule:nonzero;stroke:none" /><path
     inkscape:connector-curvature="0"
     d="m 89.749152,13.624927 c 0,2.554325 -2.073362,4.627075 -4.626462,4.627075 -2.554325,0 -4.624025,-2.07275 -4.624025,-4.627075 0,-2.5531 2.0697,-4.6264624 4.624025,-4.6264624 2.5531,0 4.626462,2.0733634 4.626462,4.6264624 z"
     id="path2468"
     style="fill:#231f20;fill-opacity:1;fill-rule:nonzero;stroke:none" /><path
     inkscape:connector-curvature="0"
     d="m 78.64564,28.920952 c 0,-2.931525 1.950675,-5.4065 4.627075,-6.202999 0,0 0,-2.888188 0,-2.888188 -2.6764,-0.796513 -4.627075,-3.270875 -4.627075,-6.204838 0,-2.932737 1.950675,-5.4083249 4.627075,-6.2054374 0,0 0,-7.30163749 0,-7.30163749 0,0 -12.601938,0 -12.601938,0 0,0 0,20.47546289 0,20.47546289 0,0 -10.901487,-20.47546289 -10.901487,-20.47546289 0,0 -15.974125,0 -15.974125,0 0,0 0,37.00622489 0,37.00622489 0,0 12.180175,0 12.180175,0 0,0 0,-20.03235 0,-20.03235 0,0 10.897838,20.03235 10.897838,20.03235 0,0 16.399537,0 16.399537,0 0,0 0,-1.999512 0,-1.999512 -2.6764,-0.794675 -4.627075,-3.268438 -4.627075,-6.203613 z"
     id="path2470"
     style="fill:#f68712;fill-opacity:1;fill-rule:nonzero;stroke:none" /><path
     inkscape:connector-curvature="0"
     d="m 31.156015,37.124077 c 0,0 -31.14929987,0 -31.14929987,0 0,0 0,-37.00622489 0,-37.00622489 0,0 14.75097487,0 14.75097487,0 0,0 0,27.87475089 0,27.87475089 0,0 16.398325,0 16.398325,0 0,0 0,9.131474 0,9.131474 z"
     id="path2472"
     style="fill:#f68712;fill-opacity:1;fill-rule:nonzero;stroke:none" /><path
     inkscape:connector-curvature="0"
     d="m 26.223152,0.11785211 c 0,0 0,25.71960089 0,25.71960089 0,0 7.089838,0 7.089838,0 0,0 0,11.286625 0,11.286625 0,0 7.710575,0 7.710575,0 0,0 0,-37.00622589 0,-37.00622589 0,0 -14.800413,0 -14.800413,0 z"
     id="path2474"
     style="fill:#f68712;fill-opacity:1;fill-rule:nonzero;stroke:none" /><path
     style="fill:#fa8522;fill-opacity:1;stroke:#fa8522;stroke-width:0.25359279;stroke-miterlimit:4;stroke-dasharray:none;stroke-dashoffset:0;stroke-opacity:1"
     d="m 0.21593042,18.51235 0,-18.38547766 7.22739458,0 7.227394,0 0,13.94760366 0,13.947604 8.241766,0 8.241766,0 0,4.437873 0,4.437874 -15.469161,0 -15.46915958,0 0,-18.385477 z"
     id="path2631"
     inkscape:connector-curvature="0" /><path
     style="fill:#fa8522;fill-opacity:1;stroke:#fa8522;stroke-width:0.25359279;stroke-miterlimit:4;stroke-dasharray:none;stroke-dashoffset:0;stroke-opacity:1"
     d="m 33.436586,31.318786 0,-5.579042 -3.550299,0 -3.550299,0 0,-12.806435 0,-12.80643666 7.227394,0 7.227395,0 0,18.38547766 0,18.385477 -3.677096,0 -3.677095,0 0,-5.579041 z"
     id="path2633"
     inkscape:connector-curvature="0" /><path
     style="fill:#fa8522;fill-opacity:1;stroke:#fa8522;stroke-width:0.25359279;stroke-miterlimit:4;stroke-dasharray:none;stroke-dashoffset:0;stroke-opacity:1"
     d="m 43.83389,18.51235 0,-18.38547766 7.924775,0.004745 7.924774,0.004742 5.452245,10.26330366 5.452245,10.263303 0.06625,-10.268045 0.06624,-10.26804857 6.210183,0 6.210175,0 0,3.65228397 0,3.6522915 -0.700793,0.2442986 c -1.050227,0.3661094 -2.268192,1.4909024 -3.044673,2.8117615 -0.587902,1.000066 -0.692407,1.464894 -0.692407,3.079783 0,1.329067 0.138738,2.18072 0.460608,2.827473 0.58531,1.176113 2.003152,2.599364 3.115136,3.127035 0.818466,0.388387 0.861944,0.475935 0.858475,1.728572 -0.0036,1.316185 -0.0067,1.321165 -1.245386,2.004164 -3.470512,1.913665 -4.365103,6.530588 -1.893319,9.771268 0.358372,0.469849 1.210365,1.162383 1.893319,1.538971 1.090974,0.601572 1.242176,0.785191 1.245386,1.512389 l 0.0037,0.827691 -8.175157,-0.06691 -8.175162,-0.06691 L 61.46185,26.9483 c -2.930764,-5.402506 -5.414246,-9.82453 -5.518853,-9.826723 -0.104607,-0.0022 -0.190195,4.446569 -0.190195,9.886134 l 0,9.890119 -5.95943,0 -5.959431,0 0,-18.385477 z"
     id="path2635"
     inkscape:connector-curvature="0" /><g
     style="font-style:normal;font-variant:normal;font-weight:normal;font-stretch:normal;font-size:9.01780224px;line-height:110.00000238%;font-family:FoundryMonoline-Medium;-inkscape-font-specification:'FoundryMonoline-Medium, Normal';text-align:center;letter-spacing:0px;word-spacing:0px;writing-mode:lr-tb;text-anchor:middle;fill:#231f20;fill-opacity:1;stroke:none;stroke-width:1px;stroke-linecap:butt;stroke-linejoin:miter;stroke-opacity:1"
     id="text4266"><path
       d="m 4.6718206,46.67997 -1.1888704,0 -2.68156325,-2.571483 0,2.571483 -0.80138672182597,0 0,-6.014804 0.79258027182597,0 0,2.597902 2.7696277,-2.597902 1.0919995,0 -3.2583855,2.994192 3.2759984,3.020612 z"
       id="path4468"
       inkscape:connector-curvature="0" /><path
       d="m 9.427302,46.67997 -3.9496917,0 0,-6.014804 3.9496917,0 0,0.722129 -3.1483049,0 0,1.849354 3.0602405,0 0,0.722129 -3.0602405,0 0,1.999063 3.1483049,0 0,0.722129 z"
       id="path4470"
       inkscape:connector-curvature="0" /><path
       d="m 14.781622,46.67997 -3.949692,0 0,-6.014804 3.949692,0 0,0.722129 -3.148305,0 0,1.849354 3.060241,0 0,0.722129 -3.060241,0 0,1.999063 3.148305,0 0,0.722129 z"
       id="path4472"
       inkscape:connector-curvature="0" /><path
       d="m 20.598281,42.37802 q 0,1.153645 -0.66929,1.505903 Q 19.488669,44.1261 18.23375,44.1261 l -1.246112,0 0,2.55387 -0.801387,0 0,-6.014804 2.047499,0 q 1.254919,0 1.695241,0.224565 0.66929,0.352257 0.66929,1.488289 z m -0.796983,0.01761 q 0,-0.6825 -0.405097,-0.893854 -0.233371,-0.114484 -1.180064,-0.114484 l -1.228499,0 0,2.02108 1.228499,0 q 0.946693,0 1.180064,-0.118887 0.405097,-0.206952 0.405097,-0.893855 z"
       id="path4474"
       inkscape:connector-curvature="0" /><path
       d="m 22.535699,46.67997 -0.801387,0 0,-6.014804 0.801387,0 0,6.014804 z"
       id="path4476"
       inkscape:connector-curvature="0" /><path
       d="m 28.449228,46.67997 -0.845419,0 -2.769628,-4.689434 0,4.689434 -0.774967,0 0,-6.014804 0.836612,0 2.778435,4.663014 0,-4.663014 0.774967,0 0,6.014804 z"
       id="path4478"
       inkscape:connector-curvature="0" /><path
       d="m 34.560903,46.67997 -0.660484,0 0,-0.541597 q -0.550403,0.612048 -1.805322,0.612048 -1.505902,0 -1.955031,-0.880644 -0.290613,-0.55921 -0.290613,-2.192806 0,-1.153644 0.09247,-1.615983 0.154113,-0.726532 0.638467,-1.069983 0.568016,-0.387484 1.734871,-0.387484 1.096402,0 1.637999,0.361064 0.607645,0.39629 0.607645,1.325371 l -0.796984,0 q 0,-0.541597 -0.334645,-0.744145 -0.330242,-0.202548 -1.197677,-0.202548 -1.100806,0 -1.387015,0.559209 -0.189339,0.369871 -0.189339,1.774499 0,1.395822 0.198145,1.787709 0.28621,0.546 1.342984,0.546 1.074386,0 1.387015,-0.546 0.206952,-0.361064 0.215758,-1.527919 l -1.673225,0 0,-0.700112 2.434983,0 0,3.443321 z"
       id="path4480"
       inkscape:connector-curvature="0" /><path
       d="m 41.940707,41.378488 -1.875774,0 0,5.301482 -0.801386,0 0,-5.301482 -1.875774,0 0,-0.713322 4.552934,0 0,0.713322 z"
       id="path4482"
       inkscape:connector-curvature="0" /><path
       d="m 47.281816,46.67997 -0.796984,0 0,-2.721192 -2.81366,0 0,2.721192 -0.801386,0 0,-6.014804 0.801386,0 0,2.571483 2.81366,0 0,-2.571483 0.796984,0 0,6.014804 z"
       id="path4484"
       inkscape:connector-curvature="0" /><path
       d="m 52.755024,46.67997 -3.949692,0 0,-6.014804 3.949692,0 0,0.722129 -3.148305,0 0,1.849354 3.060241,0 0,0.722129 -3.060241,0 0,1.999063 3.148305,0 0,0.722129 z"
       id="path4486"
       inkscape:connector-curvature="0" /><path
       d="m 60.936215,43.676971 q 0,0.819 -0.03523,1.144838 -0.07485,0.678097 -0.334645,1.074387 -0.290613,0.440322 -0.783774,0.620855 -0.462338,0.162919 -1.32537,0.162919 l -2.166386,0 0,-6.014804 2.166386,0 q 0.854225,0 1.316564,0.162919 0.493161,0.180533 0.783773,0.620855 0.259791,0.405097 0.343452,1.083193 0.03523,0.334645 0.03523,1.144838 z m -0.80579,0 q 0,-1.426644 -0.295016,-1.85816 -0.198145,-0.28621 -0.651677,-0.378677 -0.233371,-0.04403 -0.783774,-0.04403 l -1.316564,0 0,4.552934 1.316564,0 q 0.550403,0 0.783774,-0.04403 0.453532,-0.08366 0.651677,-0.36987 0.295016,-0.431516 0.295016,-1.858161 z"
       id="path4488"
       inkscape:connector-curvature="0" /><path
       d="m 63.151034,46.67997 -0.801386,0 0,-6.014804 0.801386,0 0,6.014804 z"
       id="path4490"
       inkscape:connector-curvature="0" /><path
       d="m 69.275922,46.67997 -0.660484,0 0,-0.541597 q -0.550403,0.612048 -1.805321,0.612048 -1.505903,0 -1.955032,-0.880644 -0.290612,-0.55921 -0.290612,-2.192806 0,-1.153644 0.09247,-1.615983 0.154113,-0.726532 0.638468,-1.069983 0.568016,-0.387484 1.73487,-0.387484 1.096403,0 1.637999,0.361064 0.607645,0.39629 0.607645,1.325371 l -0.796984,0 q 0,-0.541597 -0.334645,-0.744145 -0.330241,-0.202548 -1.197676,-0.202548 -1.100806,0 -1.387016,0.559209 -0.189339,0.369871 -0.189339,1.774499 0,1.395822 0.198146,1.787709 0.286209,0.546 1.342983,0.546 1.074386,0 1.387015,-0.546 0.206952,-0.361064 0.215758,-1.527919 l -1.673225,0 0,-0.700112 2.434983,0 0,3.443321 z"
       id="path4492"
       inkscape:connector-curvature="0" /><path
       d="m 71.517161,46.67997 -0.801386,0 0,-6.014804 0.801386,0 0,6.014804 z"
       id="path4494"
       inkscape:connector-curvature="0" /><path
       d="m 76.999171,41.378488 -1.875774,0 0,5.301482 -0.801386,0 0,-5.301482 -1.875774,0 0,-0.713322 4.552934,0 0,0.713322 z"
       id="path4496"
       inkscape:connector-curvature="0" /><path
       d="m 82.18177,46.67997 -0.876242,0 -0.612048,-1.660016 -2.518644,0 -0.603242,1.660016 -0.836612,0 2.324902,-6.014804 0.801387,0 2.320499,6.014804 z m -1.743677,-2.355725 -0.999532,-2.694773 -0.999532,2.694773 1.999064,0 z"
       id="path4498"
       inkscape:connector-curvature="0" /><path
       d="m 86.924044,46.67997 -3.861628,0 0,-6.014804 0.801387,0 0,5.292675 3.060241,0 0,0.722129 z"
       id="path4500"
       inkscape:connector-curvature="0" /><path
       d="m 96.769646,40.665166 -1.470676,6.014804 -0.849822,0 -1.342984,-4.913998 -1.334176,4.913998 -0.885048,0 -1.439855,-6.014804 0.810194,0 1.127225,4.817127 1.307757,-4.817127 0.849822,0 1.294548,4.817127 1.149242,-4.817127 0.783773,0 z"
       id="path4502"
       inkscape:connector-curvature="0" /><path
       d="m 102.42338,43.659358 q 0,1.144838 -0.10127,1.633596 -0.14971,0.739742 -0.62966,1.069984 -0.5504,0.387483 -1.66002,0.387483 -1.127221,0 -1.677624,-0.39629 -0.475548,-0.343451 -0.620855,-1.07879 -0.09247,-0.462338 -0.09247,-1.607176 0,-1.144838 0.09247,-1.59837 0.1365,-0.726532 0.612048,-1.069984 0.550403,-0.39629 1.677631,-0.39629 1.13603,0 1.68643,0.387484 0.47995,0.343451 0.62086,1.069983 0.0925,0.462339 0.0925,1.59837 z m -0.80138,0.0088 q 0,-1.461871 -0.2642,-1.866967 -0.29501,-0.466742 -1.33417,-0.466742 -0.585631,0 -0.893857,0.12329 -0.422709,0.171726 -0.568016,0.634065 -0.12329,0.387483 -0.12329,1.58516 0,1.46187 0.25979,1.866967 0.29942,0.466742 1.334173,0.466742 1.03916,0 1.35179,-0.510774 0.23778,-0.39629 0.23778,-1.831741 z"
       id="path4504"
       inkscape:connector-curvature="0" /><path
       d="m 108.24005,46.67997 -0.77937,0 0,-1.514709 q 0,-0.440323 -0.0264,-0.594435 -0.044,-0.215758 -0.19815,-0.330242 -0.15411,-0.114484 -0.49316,-0.140903 -0.18934,-0.01761 -0.89385,-0.01761 l -1.21969,0 0,2.597902 -0.80139,0 0,-6.014804 2.0475,0 q 1.27253,0 1.70405,0.224565 0.66048,0.343451 0.66048,1.488289 0,1.056774 -0.63407,1.316564 0.46234,0.1365 0.58563,0.642871 0.0484,0.198145 0.0484,0.854225 l 0,1.48829 z m -0.78818,-4.293143 q 0,-0.493161 -0.18934,-0.730936 -0.14971,-0.189338 -0.44913,-0.23337 -0.22456,-0.03523 -0.9555,-0.03523 l -1.22849,0 0,1.963838 1.28133,0 q 1.00834,0 1.20208,-0.09687 0.33905,-0.180532 0.33905,-0.867435 z"
       id="path4506"
       inkscape:connector-curvature="0" /><path
       d="m 113.57235,46.67997 -3.86163,0 0,-6.014804 0.80139,0 0,5.292675 3.06024,0 0,0.722129 z"
       id="path4508"
       inkscape:connector-curvature="0" /><path
       d="m 119.04115,43.676971 q 0,0.819 -0.0352,1.144838 -0.0749,0.678097 -0.33465,1.074387 -0.29061,0.440322 -0.78377,0.620855 -0.46234,0.162919 -1.32537,0.162919 l -2.16639,0 0,-6.014804 2.16639,0 q 0.85422,0 1.31656,0.162919 0.49316,0.180533 0.78378,0.620855 0.25979,0.405097 0.34345,1.083193 0.0352,0.334645 0.0352,1.144838 z m -0.80579,0 q 0,-1.426644 -0.29501,-1.85816 -0.19815,-0.28621 -0.65168,-0.378677 -0.23337,-0.04403 -0.78377,-0.04403 l -1.31657,0 0,4.552934 1.31657,0 q 0.5504,0 0.78377,-0.04403 0.45353,-0.08366 0.65168,-0.36987 0.29501,-0.431516 0.29501,-1.858161 z"
       id="path4510"
       inkscape:connector-curvature="0" /></g><g
     id="g4458"><path
       d="m 126.90253,46.680011 -0.77892,0 0.21276,-1.513819 q 0.0618,-0.440063 0.0571,-0.594085 -0.0137,-0.215632 -0.15164,-0.330048 -0.13795,-0.114417 -0.47308,-0.14082 -0.18676,-0.0176 -0.89086,-0.0176 l -1.21898,0 -0.36489,2.596375 -0.80092,0 0.84483,-6.011267 2.0463,0 q 1.27178,0 1.6715,0.224432 0.61185,0.343249 0.45105,1.487414 -0.14843,1.056153 -0.81861,1.31579 0.44289,0.13642 0.49499,0.642493 0.0206,0.198028 -0.0716,0.853723 l -0.20905,1.487415 z m -0.18471,-4.290619 q 0.0693,-0.492871 -0.0866,-0.730506 -0.12303,-0.189227 -0.41609,-0.233233 -0.21948,-0.0352 -0.94999,-0.0352 l -1.22777,0 -0.27584,1.962683 1.28058,0 q 1.00775,0 1.21498,-0.09681 0.36421,-0.180426 0.46069,-0.866925 z"
       style="font-style:normal;font-variant:normal;font-weight:normal;font-stretch:normal;font-size:medium;line-height:110.00000238%;font-family:FoundryMonoline-Medium;-inkscape-font-specification:'FoundryMonoline-Medium, Normal';text-align:start;letter-spacing:0px;word-spacing:0px;writing-mode:lr-tb;text-anchor:start;fill:#000000;fill-opacity:1;stroke:none;stroke-width:1px;stroke-linecap:butt;stroke-linejoin:miter;stroke-opacity:1"
       id="path4437"
       inkscape:connector-curvature="0" /><path
       d="m 133.21485,43.661175 q -0.13792,0.981342 -0.20693,1.31579 -0.087,0.431262 -0.24348,0.730505 -0.57344,1.042951 -2.21928,1.042951 -1.65024,0 -1.92612,-1.042951 -0.0768,-0.299243 -0.0426,-0.730505 0.0294,-0.334448 0.16732,-1.31579 l 0.42056,-2.992431 0.80092,0 -0.42056,2.992431 q -0.13545,0.963739 -0.14706,1.10896 -0.0492,0.475269 0.0362,0.712903 0.18419,0.536877 1.21394,0.536877 1.03415,0 1.3724,-0.528076 0.14781,-0.237634 0.23345,-0.721704 0.028,-0.13642 0.16465,-1.10896 l 0.42056,-2.992431 0.79652,0 -0.42056,2.992431 z"
       style="font-style:normal;font-variant:normal;font-weight:normal;font-stretch:normal;font-size:medium;line-height:110.00000238%;font-family:FoundryMonoline-Medium;-inkscape-font-specification:'FoundryMonoline-Medium, Normal';text-align:start;letter-spacing:0px;word-spacing:0px;writing-mode:lr-tb;text-anchor:start;fill:#000000;fill-opacity:1;stroke:none;stroke-width:1px;stroke-linecap:butt;stroke-linejoin:miter;stroke-opacity:1"
       id="path4439"
       inkscape:connector-curvature="0" /><path
       d="m 138.63902,46.680011 -0.84492,0 -2.10933,-4.686676 -0.65867,4.686676 -0.77451,0 0.84483,-6.011267 0.83612,0 2.12184,4.660272 0.65496,-4.660272 0.77451,0 -0.84483,6.011267 z"
       style="font-style:normal;font-variant:normal;font-weight:normal;font-stretch:normal;font-size:medium;line-height:110.00000238%;font-family:FoundryMonoline-Medium;-inkscape-font-specification:'FoundryMonoline-Medium, Normal';text-align:start;letter-spacing:0px;word-spacing:0px;writing-mode:lr-tb;text-anchor:start;fill:#000000;fill-opacity:1;stroke:none;stroke-width:1px;stroke-linecap:butt;stroke-linejoin:miter;stroke-opacity:1"
       id="path4441"
       inkscape:connector-curvature="0" /><path
       d="m 144.53587,46.680011 -0.84492,0 -2.10933,-4.686676 -0.65867,4.686676 -0.77451,0 0.84483,-6.011267 0.83612,0 2.12184,4.660272 0.65496,-4.660272 0.77451,0 -0.84483,6.011267 z"
       style="font-style:normal;font-variant:normal;font-weight:normal;font-stretch:normal;font-size:medium;line-height:110.00000238%;font-family:FoundryMonoline-Medium;-inkscape-font-specification:'FoundryMonoline-Medium, Normal';text-align:start;letter-spacing:0px;word-spacing:0px;writing-mode:lr-tb;text-anchor:start;fill:#000000;fill-opacity:1;stroke:none;stroke-width:1px;stroke-linecap:butt;stroke-linejoin:miter;stroke-opacity:1"
       id="path4443"
       inkscape:connector-curvature="0" /><path
       d="m 146.8462,46.680011 -0.80091,0 0.84483,-6.011267 0.80091,0 -0.84483,6.011267 z"
       style="font-style:normal;font-variant:normal;font-weight:normal;font-stretch:normal;font-size:medium;line-height:110.00000238%;font-family:FoundryMonoline-Medium;-inkscape-font-specification:'FoundryMonoline-Medium, Normal';text-align:start;letter-spacing:0px;word-spacing:0px;writing-mode:lr-tb;text-anchor:start;fill:#000000;fill-opacity:1;stroke:none;stroke-width:1px;stroke-linecap:butt;stroke-linejoin:miter;stroke-opacity:1"
       id="path4445"
       inkscape:connector-curvature="0" /><path
       d="m 152.75626,46.680011 -0.84493,0 -2.10932,-4.686676 -0.65867,4.686676 -0.77452,0 0.84483,-6.011267 0.83612,0 2.12184,4.660272 0.65496,-4.660272 0.77452,0 -0.84483,6.011267 z"
       style="font-style:normal;font-variant:normal;font-weight:normal;font-stretch:normal;font-size:medium;line-height:110.00000238%;font-family:FoundryMonoline-Medium;-inkscape-font-specification:'FoundryMonoline-Medium, Normal';text-align:start;letter-spacing:0px;word-spacing:0px;writing-mode:lr-tb;text-anchor:start;fill:#000000;fill-opacity:1;stroke:none;stroke-width:1px;stroke-linecap:butt;stroke-linejoin:miter;stroke-opacity:1"
       id="path4447"
       inkscape:connector-curvature="0" /><path
       d="m 158.86434,46.680011 -0.6601,0 0.0761,-0.541279 q -0.63604,0.611689 -1.89023,0.611689 -1.50501,0 -1.83018,-0.880127 -0.2119,-0.558881 0.0175,-2.191516 0.16204,-1.152967 0.31939,-1.615033 0.25606,-0.726105 0.78838,-1.069354 0.6221,-0.387256 1.78827,-0.387256 1.09576,0 1.58632,0.360852 0.55163,0.396057 0.42113,1.324591 l -0.79651,0 q 0.0761,-0.541278 -0.22993,-0.743707 -0.3016,-0.20243 -1.16852,-0.20243 -1.10016,0 -1.46475,0.558881 -0.24118,0.369653 -0.43847,1.773456 -0.19605,1.395001 -0.0531,1.786657 0.20935,0.545679 1.2655,0.545679 1.07376,0 1.46289,-0.545679 0.25755,-0.360852 0.43024,-1.52702 l -1.67224,0 0.0983,-0.699701 2.43355,0 -0.48364,3.441297 z"
       style="font-style:normal;font-variant:normal;font-weight:normal;font-stretch:normal;font-size:medium;line-height:110.00000238%;font-family:FoundryMonoline-Medium;-inkscape-font-specification:'FoundryMonoline-Medium, Normal';text-align:start;letter-spacing:0px;word-spacing:0px;writing-mode:lr-tb;text-anchor:start;fill:#000000;fill-opacity:1;stroke:none;stroke-width:1px;stroke-linecap:butt;stroke-linejoin:miter;stroke-opacity:1"
       id="path4449"
       inkscape:connector-curvature="0" /></g></svg>