<?xml version="1.0" encoding="utf-8"?>
<!-- Generator: Adobe Illustrator 21.0.2, SVG Export Plug-In . SVG Version: 6.00 Build 0)  -->
<!DOCTYPE svg PUBLIC "-//W3C//DTD SVG 1.1//EN" "http://www.w3.org/Graphics/SVG/1.1/DTD/svg11.dtd">
<svg version="1.1" id="Layer_1" xmlns="http://www.w3.org/2000/svg" xmlns:xlink="http://www.w3.org/1999/xlink" x="0px" y="0px"
	 viewBox="0 0 595.3 841.9" style="enable-background:new 0 0 595.3 841.9;" xml:space="preserve">
<style type="text/css">
	.st0{fill:#F78F22;}
	.st1{fill:none;}
	.st2{fill:#1E293A;}
</style>
<path class="st0" d="M126.6,393.9h19.6v55.5c0,5.5,3.9,5.4,7.4,5.4h27.6v15.6h-35.7c-10.1,0-19-3.7-19-15.5V393.9z"/>
<path class="st0" d="M190.4,393.9H210v76.5h-19.6V393.9z"/>
<path class="st1" d="M355.9,437.4H339v18.2h16.9c4.8,0,8-2.4,8-8.9C363.9,441.9,361.9,437.4,355.9,437.4z"/>
<path class="st1" d="M362.5,416.2c0-6-4-7.5-7.5-7.5h-16v14.7h16C359.9,423.4,362.5,420.5,362.5,416.2z"/>
<path class="st0" d="M286.3,449.7v-10.6c0-2.4,1.1-4.9,2.8-6.7c-1.7-1.8-2.8-4.3-2.8-6.7v-10.6c0-3.1,1.9-6.6,4.6-8.2v-13.1h-19.6
	v44.9l-30.4-44.9h-19.9v76.5h19.7v-44.1l30.5,44.1H291V458C288.3,456.3,286.3,452.9,286.3,449.7z"/>
<g>
	<path class="st2" d="M369.4,430.7c8.6-1,12.3-9.4,12.3-16.2c0-11.9-7.1-20.6-25.4-20.6h-37V407c2.6,1.7,4.5,5,4.5,8.1v10.6
		c0,2.4-1.1,4.9-2.8,6.7c1.7,1.8,2.8,4.3,2.8,6.7v10.6c0,3.1-1.9,6.5-4.5,8.1v12.5h37.4c18.4,0,26.7-7.4,26.7-22.9
		C383.5,438.6,377.4,431.9,369.4,430.7z M339,408.7h16c3.5,0,7.5,1.5,7.5,7.5c0,4.3-2.6,7.2-7.5,7.2h-16V408.7z M355.9,455.6H339
		v-18.2h16.9c6,0,8,4.5,8,9.3C363.9,453.3,360.7,455.6,355.9,455.6z"/>
</g>
<g>
	<rect x="392" y="393.9" class="st2" width="19.6" height="76.5"/>
</g>
<g>
	<polygon class="st2" points="419.4,393.9 419.4,409.5 442.3,409.5 442.3,470.4 461.9,470.4 461.9,409.5 485.5,409.5 485.5,393.9 	
		"/>
</g>
<path class="st0" d="M293,429.8l7.3-4.2c1.7-1,3.6-1.2,4.8-1.2c1.2,0,3.1,0.2,4.8,1.2l7.3,4.2c1.2-0.9,2.1-2.6,2.1-4l0-10.6
	c0-1.6-1.1-3.6-2.5-4.4l-9.2-5.3c-1.4-0.8-3.7-0.8-5,0l-9.2,5.3c-1.3,0.7-2.3,2.5-2.5,4v11.2C291.1,427.4,291.9,428.9,293,429.8z"/>
<path class="st0" d="M290.9,415.2v10.6c0,0.1,0,0.2,0.1,0.3v-11.2C291,415,290.9,415.1,290.9,415.2z"/>
<path class="st2" d="M317.2,435.1c-0.1-0.1-0.3-0.3-0.4-0.4l-4.1-2.3l-5.1-2.9c-0.7-0.4-1.6-0.6-2.5-0.6c-0.9,0-1.8,0.2-2.5,0.6
	l-5.1,2.9l-4.1,2.3c-0.2,0.1-0.3,0.2-0.4,0.4c-1.1,0.9-1.9,2.3-2,3.7c0,0.1-0.1,0.2-0.1,0.3v10.6c0,0.1,0,0.2,0.1,0.3
	c0.1,1.5,1.2,3.3,2.5,4l9.2,5.3c0.7,0.4,1.6,0.6,2.5,0.6c0.9,0,1.8-0.2,2.5-0.6l9.2-5.3c1.4-0.8,2.5-2.8,2.5-4.4v-10.6
	C319.3,437.7,318.4,436.1,317.2,435.1z"/>
</svg>
