<svg xmlns="http://www.w3.org/2000/svg" viewBox="0 0 270.76 200.41"><defs><style>.cls-1{isolation:isolate;}.cls-2,.cls-3,.cls-4{fill:none;stroke-miterlimit:10;mix-blend-mode:screen;}.cls-2{stroke:#f9ba79;}.cls-3{stroke:#f78f22;}.cls-4{stroke:#fbe7d2;}</style></defs><title>LinBit_Comb_3</title><g class="cls-1"><g id="Layer_1" data-name="Layer 1"><path class="cls-2" d="M477.15,169.61c6.19,0,13.78,4.38,16.87,9.74l20.4,35.33c3.09,5.36,3.09,14.12,0,19.48L494,269.5c-3.09,5.36-10.68,9.74-16.87,9.74h-40.8c-6.19,0-13.78-4.38-16.87-9.74l-20.4-35.33c-3.09-5.36-3.09-14.12,0-19.48l20.4-35.33c3.09-5.36,10.68-9.74,16.87-9.74Z" transform="translate(-246.48 -126.51)"/><path class="cls-3" d="M393.21,127c11.25,0,25.06,8,30.69,17.72L461,209c5.63,9.74,5.63,25.69,0,35.43L423.89,308.7c-5.63,9.74-19.43,17.72-30.69,17.72H319c-11.25,0-25.06-8-30.69-17.72L251.2,244.43c-5.63-9.74-5.63-25.69,0-35.43l37.11-64.27C293.93,135,307.74,127,319,127Z" transform="translate(-246.48 -126.51)"/><path class="cls-4" d="M449.82,143.14a10,10,0,0,1,7.77,4.48L467,163.89a10,10,0,0,1,0,9l-9.39,16.26a10,10,0,0,1-7.77,4.48H431a10,10,0,0,1-7.77-4.48l-9.39-16.26a10,10,0,0,1,0-9l9.39-16.26a10,10,0,0,1,7.77-4.48Z" transform="translate(-246.48 -126.51)"/></g></g></svg>