<?xml version="1.0" encoding="UTF-8" standalone="no"?>
<!-- Created with Inkscape (http://www.inkscape.org/) -->
<svg
   xmlns:svg="http://www.w3.org/2000/svg"
   xmlns="http://www.w3.org/2000/svg"
   version="1.0"
   width="406.67499"
   height="85.040001"
   id="svg2">
  <defs
     id="defs4" />
  <g
     transform="translate(-185.23393,-445.80783)"
     style="opacity:0.25"
     id="layer1">
    <g
       id="g5390">
      <path
         d="M 365.94193,511.99883 C 365.94193,505.25983 370.42493,499.57183 376.57193,497.74183 L 376.57193,491.10483 C 370.42593,489.27383 365.94293,483.58783 365.94293,476.84683 C 365.94293,470.10783 370.42593,464.42083 376.57193,462.59083 L 376.57193,445.80883 L 347.60593,445.80883 L 347.60593,492.85883 L 322.56393,445.80883 L 285.86393,445.80883 L 285.86393,530.84783 L 313.85093,530.84783 L 313.85093,484.81683 L 338.89193,530.84783 L 376.57293,530.84783 L 376.57293,526.25583 C 370.42693,524.42483 365.94293,518.73883 365.94293,511.99883 L 365.94193,511.99883 z "
         style="fill:#ff8522;fill-opacity:1;fill-rule:nonzero;stroke:none;stroke-miterlimit:4"
         id="path2379" />
      <path
         d="M 245.46993,445.80783 L 245.46993,504.91183 L 261.76993,504.91183 L 261.76993,530.84783 L 279.48593,530.84783 L 279.48593,445.80783 L 245.46993,445.80783 z "
         style="fill:#ff8522;fill-opacity:1;fill-rule:nonzero;stroke:none;stroke-miterlimit:4"
         id="path2385" />
      <path
         d="M 256.80893,530.84783 L 185.23393,530.84783 L 185.23393,445.80883 L 219.12393,445.80883 L 219.12393,509.86683 L 256.80993,509.86683 L 256.80993,530.84783 L 256.80893,530.84783 z "
         style="fill:#ff8522;fill-opacity:1;fill-rule:nonzero;stroke:none;stroke-miterlimit:4"
         id="path2387" />
      <path
         d="M 463.84693,480.20583 C 467.04993,476.60583 468.98293,472.47283 469.63793,467.80883 C 470.49593,461.70383 468.92693,456.65983 464.93293,452.67583 C 460.34893,448.09883 453.16293,445.80883 443.37793,445.80883 L 392.77493,445.80883 L 390.05093,465.18583 C 393.48993,467.91183 395.70393,472.11783 395.70393,476.84683 C 395.70393,483.06383 391.89093,488.38383 386.47693,490.61083 L 385.45793,497.86183 C 391.40393,499.81183 395.70293,505.39983 395.70293,511.99783 C 395.70293,520.02683 389.33993,526.55283 381.38393,526.85083 L 380.82193,530.84783 L 435.47293,530.84783 C 444.83193,530.84783 452.49793,528.51883 458.46793,523.85983 C 463.67793,519.79483 466.71093,514.71283 467.56893,508.61183 C 468.27093,503.61483 467.29293,499.16683 464.63793,495.26983 C 461.77493,491.03583 457.44493,488.23883 451.64593,486.88283 C 456.57393,486.03583 460.63893,483.81083 463.84493,480.20683 L 463.84693,480.20583 z M 436.31893,503.91783 C 436.08193,505.60583 435.20893,507.02083 433.69993,508.15683 C 432.18993,509.29783 430.08593,509.86583 427.38693,509.86583 L 414.60993,509.86583 L 416.44093,496.83183 L 428.20793,496.83183 C 431.15893,496.83183 433.37293,497.59183 434.84793,499.10883 C 436.10193,500.37583 436.59293,501.97783 436.32093,503.91783 L 436.31893,503.91783 z M 437.41293,471.38283 C 437.19993,472.89783 436.45193,474.17983 435.16993,475.23083 C 433.88793,476.28083 432.19593,476.80583 430.09693,476.80583 L 419.25593,476.80583 L 420.79693,465.83783 L 430.62993,465.83783 C 433.14993,465.83783 434.96493,466.38383 436.07193,467.47783 C 437.17793,468.57083 437.62493,469.87383 437.41293,471.38383 L 437.41293,471.38283 z "
         style="opacity:1;fill-rule:nonzero;stroke:none;stroke-miterlimit:4"
         id="path2390" />
      <path
         d="M 495.30993,472.59583 L 499.07593,445.80883 L 481.35693,445.80883 L 469.40593,530.84783 L 503.42193,530.84783 L 511.60893,472.59583 L 495.31093,472.59583 L 495.30993,472.59583 z "
         style="fill-rule:nonzero;stroke:none;stroke-miterlimit:4"
         id="path2392" />
      <path
         d="M 588.82693,467.74383 L 562.30793,467.74383 L 553.43893,530.84783 L 518.73093,530.84783 L 527.59993,467.74383 L 500.95293,467.74383 L 504.03493,445.80883 L 591.90893,445.80883 L 588.82693,467.74383 L 588.82693,467.74383 z "
         style="fill-rule:nonzero;stroke:none;stroke-miterlimit:4"
         id="path2394" />
      <g
         transform="translate(185.23393,445.80783)"
         style="fill-rule:nonzero;stroke:#000000;stroke-miterlimit:4"
         id="Ebene_x0020_6" />
      <g
         transform="translate(185.23393,445.80783)"
         style="fill-rule:nonzero;stroke:#000000;stroke-miterlimit:4"
         id="Ebene_x0020_5" />
      <path
         d="M 391.45493,511.99783 C 391.45493,517.86783 386.69493,522.62783 380.82493,522.62783 C 374.95593,522.62783 370.19493,517.86783 370.19493,511.99783 C 370.19493,506.12683 374.95593,501.36783 380.82493,501.36783 C 386.69493,501.36783 391.45493,506.12683 391.45493,511.99783 z "
         style="fill-rule:nonzero;stroke:none;stroke-miterlimit:4"
         id="path2399" />
      <path
         d="M 391.45493,476.84783 C 391.45493,482.71983 386.69193,487.47783 380.82393,487.47783 C 374.95593,487.47783 370.19493,482.71983 370.19493,476.84783 C 370.19493,470.97883 374.95493,466.21783 380.82393,466.21783 C 386.69293,466.21783 391.45493,470.97883 391.45493,476.84783 z "
         style="fill-rule:nonzero;stroke:none;stroke-miterlimit:4"
         id="path2401" />
    </g>
  </g>
</svg>
