<?xml version="1.0" encoding="UTF-8" standalone="no"?><svg xmlns="http://www.w3.org/2000/svg" xmlns:xlink="http://www.w3.org/1999/xlink" contentStyleType="text/css" height="401.0952px" preserveAspectRatio="none" style="width:2468px;height:401px;background:#FFFFFF;" version="1.1" viewBox="0 0 2468 401" width="2468.1921px" zoomAndPan="magnify"><defs/><g><polygon fill="#F1F1F1" points="664.9442,16.3932,1136.6232,16.3932,1150.0677,50.3021,1136.6232,84.211,664.9442,84.211,651.4996,50.3021,664.9442,16.3932" style="stroke:#181818;stroke-width:0.5601888449113901;"/><text fill="#000000" font-family="sans-serif" font-size="29.1298" lengthAdjust="spacing" textLength="421.262" x="664.9442" y="43.4321">Does a schedule-remote pair</text><text fill="#000000" font-family="sans-serif" font-size="29.1298" lengthAdjust="spacing" textLength="471.679" x="664.9442" y="77.3411">exist for the resource definition?</text><text fill="#000000" font-family="sans-serif" font-size="29.1298" lengthAdjust="spacing" textLength="50.417" x="601.0826" y="43.4321">yes</text><text fill="#000000" font-family="sans-serif" font-size="29.1298" lengthAdjust="spacing" textLength="35.8521" x="1150.0677" y="43.4321">no</text><polygon fill="#F1F1F1" points="209.2305,95.4148,404.1763,95.4148,417.6208,112.3693,404.1763,129.3238,209.2305,129.3238,195.786,112.3693,209.2305,95.4148" style="stroke:#181818;stroke-width:0.5601888449113901;"/><text fill="#000000" font-family="sans-serif" font-size="29.1298" lengthAdjust="spacing" textLength="194.9457" x="209.2305" y="122.4538">Is it enabled?</text><text fill="#000000" font-family="sans-serif" font-size="29.1298" lengthAdjust="spacing" textLength="50.417" x="145.369" y="105.4993">yes</text><text fill="#000000" font-family="sans-serif" font-size="29.1298" lengthAdjust="spacing" textLength="35.8521" x="417.6208" y="105.4993">no</text><rect fill="#006164" height="56.3165" rx="14.0047" ry="14.0047" style="stroke:#181818;stroke-width:0.5601888449113901;" width="257.6869" x="12.3242" y="140.5275"/><text fill="#000000" font-family="sans-serif" font-size="29.1298" lengthAdjust="spacing" textLength="235.2793" x="23.5279" y="178.7703">Ship the backup</text><rect fill="#DB4325" height="56.3165" rx="14.0047" ry="14.0047" style="stroke:#181818;stroke-width:0.5601888449113901;" width="359.6412" x="292.4186" y="140.5275"/><text fill="#000000" font-family="sans-serif" font-size="29.1298" lengthAdjust="spacing" textLength="337.2337" x="303.6224" y="178.7703">Do not ship the backup</text><polygon fill="#F1F1F1" points="1266.3069,95.4148,1723.421,95.4148,1736.8655,146.2782,1723.421,197.1416,1266.3069,197.1416,1252.8624,146.2782,1266.3069,95.4148" style="stroke:#181818;stroke-width:0.5601888449113901;"/><text fill="#000000" font-family="sans-serif" font-size="29.1298" lengthAdjust="spacing" textLength="450.3918" x="1266.3069" y="122.4538">Does the schedule-remote pair</text><text fill="#000000" font-family="sans-serif" font-size="29.1298" lengthAdjust="spacing" textLength="439.1881" x="1284.2329" y="156.3627">exist on the resource group of</text><text fill="#000000" font-family="sans-serif" font-size="29.1298" lengthAdjust="spacing" textLength="343.956" x="1284.2329" y="190.2716">the resource definition?</text><text fill="#000000" font-family="sans-serif" font-size="29.1298" lengthAdjust="spacing" textLength="50.417" x="1202.4454" y="139.4082">yes</text><text fill="#000000" font-family="sans-serif" font-size="29.1298" lengthAdjust="spacing" textLength="35.8521" x="1736.8655" y="139.4082">no</text><polygon fill="#F1F1F1" points="904.9851,208.3454,1099.9308,208.3454,1113.3753,225.2999,1099.9308,242.2543,904.9851,242.2543,891.5405,225.2999,904.9851,208.3454" style="stroke:#181818;stroke-width:0.5601888449113901;"/><text fill="#000000" font-family="sans-serif" font-size="29.1298" lengthAdjust="spacing" textLength="194.9457" x="904.9851" y="235.3844">Is it enabled?</text><text fill="#000000" font-family="sans-serif" font-size="29.1298" lengthAdjust="spacing" textLength="50.417" x="841.1236" y="218.4299">yes</text><text fill="#000000" font-family="sans-serif" font-size="29.1298" lengthAdjust="spacing" textLength="35.8521" x="1113.3753" y="218.4299">no</text><rect fill="#006164" height="56.3165" rx="14.0047" ry="14.0047" style="stroke:#181818;stroke-width:0.5601888449113901;" width="257.6869" x="708.0787" y="253.4581"/><text fill="#000000" font-family="sans-serif" font-size="29.1298" lengthAdjust="spacing" textLength="235.2793" x="719.2825" y="291.7008">Ship the backup</text><rect fill="#DB4325" height="56.3165" rx="14.0047" ry="14.0047" style="stroke:#181818;stroke-width:0.5601888449113901;" width="359.6412" x="988.1731" y="253.4581"/><text fill="#000000" font-family="sans-serif" font-size="29.1298" lengthAdjust="spacing" textLength="337.2337" x="999.3769" y="291.7008">Do not ship the backup</text><polygon fill="#F1F1F1" points="1722.8608,208.3454,2251.6791,208.3454,2265.1236,242.2543,2251.6791,276.1633,1722.8608,276.1633,1709.4163,242.2543,1722.8608,208.3454" style="stroke:#181818;stroke-width:0.5601888449113901;"/><text fill="#000000" font-family="sans-serif" font-size="29.1298" lengthAdjust="spacing" textLength="528.8183" x="1722.8608" y="235.3844">Does the schedule-remote pair exist</text><text fill="#000000" font-family="sans-serif" font-size="29.1298" lengthAdjust="spacing" textLength="389.8914" x="1794.565" y="269.2933">on the LINSTOR controller?</text><text fill="#000000" font-family="sans-serif" font-size="29.1298" lengthAdjust="spacing" textLength="50.417" x="1658.9993" y="235.3844">yes</text><text fill="#000000" font-family="sans-serif" font-size="29.1298" lengthAdjust="spacing" textLength="35.8521" x="2265.1236" y="235.3844">no</text><polygon fill="#F1F1F1" points="1600.7396,287.367,1795.6853,287.367,1809.1299,304.3215,1795.6853,321.276,1600.7396,321.276,1587.2951,304.3215,1600.7396,287.367" style="stroke:#181818;stroke-width:0.5601888449113901;"/><text fill="#000000" font-family="sans-serif" font-size="29.1298" lengthAdjust="spacing" textLength="194.9457" x="1600.7396" y="314.406">Is it enabled?</text><text fill="#000000" font-family="sans-serif" font-size="29.1298" lengthAdjust="spacing" textLength="50.417" x="1536.8781" y="297.4515">yes</text><text fill="#000000" font-family="sans-serif" font-size="29.1298" lengthAdjust="spacing" textLength="35.8521" x="1809.1299" y="297.4515">no</text><rect fill="#006164" height="56.3165" rx="14.0047" ry="14.0047" style="stroke:#181818;stroke-width:0.5601888449113901;" width="257.6869" x="1403.8332" y="332.4797"/><text fill="#000000" font-family="sans-serif" font-size="29.1298" lengthAdjust="spacing" textLength="235.2793" x="1415.037" y="370.7225">Ship the backup</text><rect fill="#DB4325" height="56.3165" rx="14.0047" ry="14.0047" style="stroke:#181818;stroke-width:0.5601888449113901;" width="359.6412" x="1683.9277" y="332.4797"/><text fill="#000000" font-family="sans-serif" font-size="29.1298" lengthAdjust="spacing" textLength="337.2337" x="1695.1314" y="370.7225">Do not ship the backup</text><rect fill="#DB4325" height="56.3165" rx="14.0047" ry="14.0047" style="stroke:#181818;stroke-width:0.5601888449113901;" width="359.6412" x="2096.5068" y="287.367"/><text fill="#000000" font-family="sans-serif" font-size="29.1298" lengthAdjust="spacing" textLength="337.2337" x="2107.7105" y="325.6098">Do not ship the backup</text><line style="stroke:#181818;stroke-width:1.1203776898227802;" x1="195.786" x2="141.1676" y1="112.3693" y2="112.3693"/><line style="stroke:#181818;stroke-width:1.1203776898227802;" x1="141.1676" x2="141.1676" y1="112.3693" y2="140.5275"/><polygon fill="#181818" points="136.6861,129.3238,141.1676,140.5275,145.6491,129.3238,141.1676,133.8053" style="stroke:#181818;stroke-width:1.1203776898227802;"/><line style="stroke:#181818;stroke-width:1.1203776898227802;" x1="417.6208" x2="472.2392" y1="112.3693" y2="112.3693"/><line style="stroke:#181818;stroke-width:1.1203776898227802;" x1="472.2392" x2="472.2392" y1="112.3693" y2="140.5275"/><polygon fill="#181818" points="467.7577,129.3238,472.2392,140.5275,476.7207,129.3238,472.2392,133.8053" style="stroke:#181818;stroke-width:1.1203776898227802;"/><line style="stroke:#181818;stroke-width:1.1203776898227802;" x1="891.5405" x2="836.9221" y1="225.2999" y2="225.2999"/><line style="stroke:#181818;stroke-width:1.1203776898227802;" x1="836.9221" x2="836.9221" y1="225.2999" y2="253.4581"/><polygon fill="#181818" points="832.4406,242.2543,836.9221,253.4581,841.4036,242.2543,836.9221,246.7358" style="stroke:#181818;stroke-width:1.1203776898227802;"/><line style="stroke:#181818;stroke-width:1.1203776898227802;" x1="1113.3753" x2="1167.9937" y1="225.2999" y2="225.2999"/><line style="stroke:#181818;stroke-width:1.1203776898227802;" x1="1167.9937" x2="1167.9937" y1="225.2999" y2="253.4581"/><polygon fill="#181818" points="1163.5122,242.2543,1167.9937,253.4581,1172.4753,242.2543,1167.9937,246.7358" style="stroke:#181818;stroke-width:1.1203776898227802;"/><line style="stroke:#181818;stroke-width:1.1203776898227802;" x1="1587.2951" x2="1532.6767" y1="304.3215" y2="304.3215"/><line style="stroke:#181818;stroke-width:1.1203776898227802;" x1="1532.6767" x2="1532.6767" y1="304.3215" y2="332.4797"/><polygon fill="#181818" points="1528.1952,321.276,1532.6767,332.4797,1537.1582,321.276,1532.6767,325.7575" style="stroke:#181818;stroke-width:1.1203776898227802;"/><line style="stroke:#181818;stroke-width:1.1203776898227802;" x1="1809.1299" x2="1863.7483" y1="304.3215" y2="304.3215"/><line style="stroke:#181818;stroke-width:1.1203776898227802;" x1="1863.7483" x2="1863.7483" y1="304.3215" y2="332.4797"/><polygon fill="#181818" points="1859.2668,321.276,1863.7483,332.4797,1868.2298,321.276,1863.7483,325.7575" style="stroke:#181818;stroke-width:1.1203776898227802;"/><line style="stroke:#181818;stroke-width:1.1203776898227802;" x1="1709.4163" x2="1698.2125" y1="242.2543" y2="242.2543"/><line style="stroke:#181818;stroke-width:1.1203776898227802;" x1="1698.2125" x2="1698.2125" y1="242.2543" y2="287.367"/><polygon fill="#181818" points="1693.731,276.1633,1698.2125,287.367,1702.694,276.1633,1698.2125,280.6448" style="stroke:#181818;stroke-width:1.1203776898227802;"/><line style="stroke:#181818;stroke-width:1.1203776898227802;" x1="2265.1236" x2="2276.3274" y1="242.2543" y2="242.2543"/><line style="stroke:#181818;stroke-width:1.1203776898227802;" x1="2276.3274" x2="2276.3274" y1="242.2543" y2="287.367"/><polygon fill="#181818" points="2271.8459,276.1633,2276.3274,287.367,2280.8089,276.1633,2276.3274,280.6448" style="stroke:#181818;stroke-width:1.1203776898227802;"/><line style="stroke:#181818;stroke-width:1.1203776898227802;" x1="1252.8624" x2="1002.4579" y1="146.2782" y2="146.2782"/><line style="stroke:#181818;stroke-width:1.1203776898227802;" x1="1002.4579" x2="1002.4579" y1="146.2782" y2="208.3454"/><polygon fill="#181818" points="997.9764,197.1416,1002.4579,208.3454,1006.9394,197.1416,1002.4579,201.6231" style="stroke:#181818;stroke-width:1.1203776898227802;"/><line style="stroke:#181818;stroke-width:1.1203776898227802;" x1="1736.8655" x2="1987.2699" y1="146.2782" y2="146.2782"/><line style="stroke:#181818;stroke-width:1.1203776898227802;" x1="1987.2699" x2="1987.2699" y1="146.2782" y2="208.3454"/><polygon fill="#181818" points="1982.7884,197.1416,1987.2699,208.3454,1991.7514,197.1416,1987.2699,201.6231" style="stroke:#181818;stroke-width:1.1203776898227802;"/><line style="stroke:#181818;stroke-width:1.1203776898227802;" x1="651.4996" x2="306.7034" y1="50.3021" y2="50.3021"/><line style="stroke:#181818;stroke-width:1.1203776898227802;" x1="306.7034" x2="306.7034" y1="50.3021" y2="95.4148"/><polygon fill="#181818" points="302.2219,84.211,306.7034,95.4148,311.1849,84.211,306.7034,88.6926" style="stroke:#181818;stroke-width:1.1203776898227802;"/><line style="stroke:#181818;stroke-width:1.1203776898227802;" x1="1150.0677" x2="1494.8639" y1="50.3021" y2="50.3021"/><line style="stroke:#181818;stroke-width:1.1203776898227802;" x1="1494.8639" x2="1494.8639" y1="50.3021" y2="95.4148"/><polygon fill="#181818" points="1490.3824,84.211,1494.8639,95.4148,1499.3454,84.211,1494.8639,88.6926" style="stroke:#181818;stroke-width:1.1203776898227802;"/><!--MD5=[fb9dfc4e677b346fb7545d33b0ebdf61]
@startuml
!define red db4325
!define green 006164
'scale 500 width
scale 400 height
skinparam defaultFontSize 26
if (Does a schedule-remote pair
exist for the resource definition?) then (yes)
 if (Is it enabled?) then (yes)
   #green:Ship the backup;
   kill
 else (no)
   #red:Do not ship the backup;
   kill
 endif
else (no)
  if (Does the schedule-remote pair
  exist on the resource group of
  the resource definition?) then (yes)
  	if (Is it enabled?) then (yes)
			#green:Ship the backup;
			kill
		else (no)
			#red:Do not ship the backup;
			kill
	endif
  else (no)
	if (Does the schedule-remote pair exist
	on the LINSTOR controller?) then (yes)
	  	if (Is it enabled?) then (yes)
			#green:Ship the backup;
			kill
		else (no)
			#red:Do not ship the backup;
			kill
		endif
	else (no)
		#red:Do not ship the backup;
		kill
	endif
  endif
endif
@enduml

@startuml
scale 400 height
skinparam defaultFontSize 26
if (Does a schedule-remote pair
exist for the resource definition?) then (yes)
 if (Is it enabled?) then (yes)
   #006164:Ship the backup;
   kill
 else (no)
   #db4325:Do not ship the backup;
   kill
 endif
else (no)
  if (Does the schedule-remote pair
  exist on the resource group of
  the resource definition?) then (yes)
  	if (Is it enabled?) then (yes)
			#006164:Ship the backup;
			kill
		else (no)
			#db4325:Do not ship the backup;
			kill
	endif
  else (no)
	if (Does the schedule-remote pair exist
	on the LINSTOR controller?) then (yes)
	  	if (Is it enabled?) then (yes)
			#006164:Ship the backup;
			kill
		else (no)
			#db4325:Do not ship the backup;
			kill
		endif
	else (no)
		#db4325:Do not ship the backup;
		kill
	endif
  endif
endif
@enduml

PlantUML version 1.2022.4(Sat Apr 09 09:29:17 EDT 2022)
(GPL source distribution)
Java Runtime: OpenJDK Runtime Environment
JVM: OpenJDK 64-Bit Server VM
Default Encoding: UTF-8
Language: en
Country: US
--></g></svg>