<?xml version="1.0" encoding="UTF-8"?>
<!-- Created with Inkscape (http://www.inkscape.org/) -->
<svg width="245.67" height="302.36" version="1.0" viewBox="0 0 230.31 283.46" xmlns="http://www.w3.org/2000/svg" xmlns:cc="http://creativecommons.org/ns#" xmlns:dc="http://purl.org/dc/elements/1.1/" xmlns:rdf="http://www.w3.org/1999/02/22-rdf-syntax-ns#">
 <defs>
  <marker id="Arrow1Mend" overflow="visible" orient="auto">
   <path transform="matrix(-.4 0 0 -.4 -4 0)" d="m0 0 5-5-17.5 5 17.5 5z" fill-rule="evenodd" stroke="#000" stroke-width="1pt"/>
  </marker>
  <marker id="TriangleOutS" overflow="visible" orient="auto">
   <path transform="scale(.2)" d="m5.77 0-8.65 5v-10z" fill-rule="evenodd" stroke="#000" stroke-width="1pt"/>
  </marker>
 </defs>
 <metadata>
  <rdf:RDF>
   <cc:Work rdf:about="">
    <dc:format>image/svg+xml</dc:format>
    <dc:type rdf:resource="http://purl.org/dc/dcmitype/StillImage"/>
   </cc:Work>
  </rdf:RDF>
 </metadata>
 <path d="m108.23 116.48c-8.0129-0.1037-15.252 5.3612-18.526 12.381-9.6579-4.5576-23.332-5.833-30.911 2.9913-2.9733 3.2645-4.1693 7.9149-4.5631 11.924-9.4591 1.9199-18.066 11.594-15.077 21.459 1.3494 5.4295 5.8845 9.2033 10.451 12.028-2.0696 10.962 8.3388 21.177 19.262 20.711 4.4338 0.45741 9.3428-1.6698 13.122-1.5164 4.578 11.913 21.006 16.271 31.591 9.4324 3.0054-1.6945 5.7434-3.9427 7.8582-6.6695 8.3389 7.4635 22.343 11.245 31.9 3.8015 3.4594-2.6448 5.7509-6.5469 7.0234-10.636 10.354 1.6895 23.396-2.3584 26.601-13.191 1.2849-4.2608-0.61238-8.6495-1.451-12.692 7.1628-7.2916 5.6329-21.016-3.722-25.904-4.3031-2.7896-9.8279-2.8367-14.615-3.6976-1.769-11.978-16.249-18.616-27.273-14.604-3.8344 0.89917-7.604 3.3286-10.724 4.944-4.285-6.9747-12.699-11.136-20.944-10.761z" fill="#fbfca0" fill-opacity=".85542" stroke="#000"/>
 <path d="m152.54 127.93 14.173-56.693" fill="none" marker-end="url(#TriangleOutS)" stroke="#3927cb" stroke-opacity=".66667" stroke-width="7.0866"/>
 <g fill="#52da6f" fill-opacity=".65244" stroke="#000" stroke-width=".71333">
  <path d="m21.897 232.25c0 4.5889 10.133 8.3132 22.803 8.3132 12.67 0 22.803-3.7243 22.803-8.3132 0-4.5889-10.133-8.3132-22.803-8.3132-12.67 0-22.803 3.7243-22.803 8.3132z"/>
  <path d="m67.503 232.25c0 4.6929-10.133 8.3132-22.803 8.3132-12.67 0-22.803-3.6471-22.803-8.3132 0 8.3132-1e-5 24.507-1e-5 29.096 0 4.5889 10.133 8.3132 22.803 8.3132 12.67 0 22.803-3.7243 22.803-8.3132 0-4.5889 1e-5 -24.507 1e-5 -29.096"/>
  <path d="m81.535 231.91c0 4.5889 10.133 8.3132 22.803 8.3132 12.67 0 22.803-3.7243 22.803-8.3132 0-4.5889-10.133-8.3132-22.803-8.3132-12.67 0-22.803 3.7243-22.803 8.3132z"/>
  <path d="m127.14 231.91c0 4.6929-10.133 8.3132-22.803 8.3132-12.67 0-22.803-3.6471-22.803-8.3132 0 8.3132-1e-5 24.507-1e-5 29.096 0 4.5889 10.133 8.3132 22.803 8.3132 12.67 0 22.803-3.7243 22.803-8.3132 0-4.5889 1e-5 -24.507 1e-5 -29.096"/>
  <path d="m160.52 232.27c0 4.5889 10.133 8.3132 22.803 8.3132s22.803-3.7243 22.803-8.3132c0-4.5889-10.133-8.3132-22.803-8.3132-12.67 0-22.803 3.7243-22.803 8.3132z"/>
  <path d="m206.13 232.27c0 4.6929-10.133 8.3132-22.803 8.3132-12.67 0-22.803-3.6471-22.803-8.3132 0 8.3132-1e-5 24.507-1e-5 29.096 0 4.5889 10.133 8.3132 22.803 8.3132 12.67 0 22.803-3.7243 22.803-8.3132 0-4.5889 1e-5 -24.507 1e-5 -29.096"/>
 </g>
 <g transform="translate(-67.264 -290.18)" fill="#ffc74c" stroke="#000" stroke-width=".71333">
  <path d="m89.161 352.35c0 4.5889 10.133 8.3132 22.803 8.3132s22.803-3.7243 22.803-8.3132c0-4.5889-10.133-8.3132-22.803-8.3132-12.67 0-22.803 3.7243-22.803 8.3132z"/>
  <path d="m134.77 352.35c0 4.6929-10.133 8.3132-22.803 8.3132-12.67 0-22.803-3.6471-22.803-8.3132 0 8.3132-1e-5 24.507-1e-5 29.096 0 4.5889 10.133 8.3132 22.803 8.3132 12.67 0 22.803-3.7243 22.803-8.3132 0-4.5889 1e-5 -24.507 1e-5 -29.096"/>
 </g>
 <g transform="translate(3.6405 -290.18)" fill="#ffc74c" stroke="#000" stroke-width=".71333">
  <path d="m89.161 352.35c0 4.5889 10.133 8.3132 22.803 8.3132s22.803-3.7243 22.803-8.3132c0-4.5889-10.133-8.3132-22.803-8.3132-12.67 0-22.803 3.7243-22.803 8.3132z"/>
  <path d="m134.77 352.35c0 4.6929-10.133 8.3132-22.803 8.3132-12.67 0-22.803-3.6471-22.803-8.3132 0 8.3132-1e-5 24.507-1e-5 29.096 0 4.5889 10.133 8.3132 22.803 8.3132 12.67 0 22.803-3.7243 22.803-8.3132 0-4.5889 1e-5 -24.507 1e-5 -29.096"/>
 </g>
 <g transform="translate(74.368 -325.97)" fill="#ffc74c" stroke="#000" stroke-width=".71333">
  <path d="m89.161 352.35c0 4.5889 10.133 8.3132 22.803 8.3132s22.803-3.7243 22.803-8.3132c0-4.5889-10.133-8.3132-22.803-8.3132-12.67 0-22.803 3.7243-22.803 8.3132z"/>
  <path d="m134.77 352.35c0 4.6929-10.133 8.3132-22.803 8.3132-12.67 0-22.803-3.6471-22.803-8.3132 0 8.3132-1e-5 24.507-1e-5 29.096 0 4.5889 10.133 8.3132 22.803 8.3132 12.67 0 22.803-3.7243 22.803-8.3132 0-4.5889 1e-5 -24.507 1e-5 -29.096"/>
 </g>
 <g transform="translate(74.011 -272.44)" fill="#ffc74c" stroke="#000" stroke-width=".71333">
  <path d="m89.161 352.35c0 4.5889 10.133 8.3132 22.803 8.3132s22.803-3.7243 22.803-8.3132c0-4.5889-10.133-8.3132-22.803-8.3132-12.67 0-22.803 3.7243-22.803 8.3132z"/>
  <path d="m134.77 352.35c0 4.6929-10.133 8.3132-22.803 8.3132-12.67 0-22.803-3.6471-22.803-8.3132 0 8.3132-1e-5 24.507-1e-5 29.096 0 4.5889 10.133 8.3132 22.803 8.3132 12.67 0 22.803-3.7243 22.803-8.3132 0-4.5889 1e-5 -24.507 1e-5 -29.096"/>
 </g>
 <g fill="#000000" font-family="FoundrySterling-Demi" stroke-width="1px">
  <text x="38.076763" y="85.412186" style="line-height:0%" xml:space="preserve"><tspan x="38.076763" y="85.412186" font-size="11px" style="line-height:1.25">LV</tspan></text>
  <text x="176.97202" y="104.06113" style="line-height:0%" xml:space="preserve"><tspan x="176.97202" y="104.06113" font-size="11px" style="line-height:1.25">sLV</tspan></text>
  <text x="65.141052" y="164.63576" style="line-height:0%" xml:space="preserve"><tspan x="65.141052" y="164.63576" font-size="11px" style="line-height:1.25">Volume Group (VG)</tspan></text>
  <text x="38.076763" y="255.49094" style="line-height:0%" xml:space="preserve"><tspan x="38.076763" y="255.49094" font-size="11px" style="line-height:1.25">PV</tspan></text>
  <text x="108.2989" y="86.34462" style="line-height:0%" xml:space="preserve"><tspan x="108.2989" y="86.34462" font-size="11px" style="line-height:1.25">LV</tspan></text>
  <text x="176.97202" y="50.911549" style="line-height:0%" xml:space="preserve"><tspan x="176.97202" y="50.911549" font-size="11px" style="line-height:1.25">sLV</tspan></text>
  <text x="98.312988" y="255.49094" style="line-height:0%" xml:space="preserve"><tspan x="98.312988" y="255.49094" font-size="11px" style="line-height:1.25">PV</tspan></text>
  <text x="177.44629" y="256.42337" style="line-height:0%" xml:space="preserve"><tspan x="177.44629" y="256.42337" font-size="11px" style="line-height:1.25">PV</tspan></text>
 </g>
 <g fill="none">
  <g stroke="#3927cb" stroke-opacity=".66667" stroke-width="7.0866">
   <path d="m46.243 220.06 10.63-17.717" marker-end="url(#TriangleOutS)"/>
   <path d="m106.48 220.06v-10.63" marker-end="url(#TriangleOutS)"/>
   <path d="m180.89 220.06-10.63-21.26" marker-end="url(#TriangleOutS)"/>
   <path d="m63.96 131.48-12.485-20.146" marker-end="url(#TriangleOutS)"/>
   <path d="m113.57 124.39v-14.173" marker-end="url(#TriangleOutS)"/>
   <path d="m170.26 142.11 3.5433-14.173" marker-end="url(#TriangleOutS)"/>
  </g>
  <path d="m141.91 57.066 17.717-7.0866" marker-end="url(#Arrow1Mend)" stroke="#000" stroke-width="1.063"/>
  <path d="m141.91 85.412 17.717 3.5433" marker-end="url(#Arrow1Mend)" stroke="#000" stroke-width="1.063"/>
 </g>
 <text x="138.18898" y="251.5748" fill="#000000" font-family="FoundrySterling-Demi" stroke-width="1px" style="line-height:0%" xml:space="preserve"><tspan x="138.18898" y="251.5748" font-size="11px" style="line-height:1.25">...</tspan></text>
 <text x="73.751411" y="84.409447" fill="#000000" font-family="FoundrySterling-Demi" stroke-width="1px" style="line-height:0%" xml:space="preserve"><tspan x="73.751411" y="84.409447" font-size="11px" style="line-height:1.25">...</tspan></text>
</svg>
