<?xml version="1.0" encoding="UTF-8" standalone="no"?>
<!-- Created with Inkscape (http://www.inkscape.org/) -->

<svg
   xmlns:dc="http://purl.org/dc/elements/1.1/"
   xmlns:cc="http://creativecommons.org/ns#"
   xmlns:rdf="http://www.w3.org/1999/02/22-rdf-syntax-ns#"
   xmlns:svg="http://www.w3.org/2000/svg"
   xmlns="http://www.w3.org/2000/svg"
   xmlns:sodipodi="http://sodipodi.sourceforge.net/DTD/sodipodi-0.dtd"
   xmlns:inkscape="http://www.inkscape.org/namespaces/inkscape"
   width="245.66928"
   height="302.36221"
   id="svg2290"
   sodipodi:version="0.32"
   inkscape:version="0.92.1 r15371"
   version="1.0"
   sodipodi:docname="lvm.svg"
   viewBox="0 0 230.31496 283.46457">
  <defs
     id="defs2292">
    <marker
       inkscape:stockid="Arrow1Mend"
       orient="auto"
       refY="0"
       refX="0"
       id="Arrow1Mend"
       style="overflow:visible">
      <path
         id="path6080"
         d="M 0,0 5,-5 -12.5,0 5,5 Z"
         style="fill-rule:evenodd;stroke:#000000;stroke-width:1.00000003pt;marker-start:none"
         transform="matrix(-0.4,0,0,-0.4,-4,0)"
         inkscape:connector-curvature="0" />
    </marker>
    <marker
       inkscape:stockid="Arrow2Mend"
       orient="auto"
       refY="0"
       refX="0"
       id="Arrow2Mend"
       style="overflow:visible">
      <path
         id="path6062"
         style="font-size:12px;fill-rule:evenodd;stroke-width:0.625;stroke-linejoin:round"
         d="M 8.7185878,4.0337352 -2.2072895,0.01601326 8.7185884,-4.0017078 c -1.7454984,2.3720609 -1.7354408,5.6174519 -6e-7,8.035443 z"
         transform="scale(-0.6)"
         inkscape:connector-curvature="0" />
    </marker>
    <marker
       inkscape:stockid="TriangleOutS"
       orient="auto"
       refY="0"
       refX="0"
       id="TriangleOutS"
       style="overflow:visible">
      <path
         id="path5985"
         d="M 5.77,0 -2.88,5 V -5 Z"
         style="fill-rule:evenodd;stroke:#000000;stroke-width:1.00000003pt;marker-start:none"
         transform="scale(0.2)"
         inkscape:connector-curvature="0" />
    </marker>
    <marker
       inkscape:stockid="TriangleOutM"
       orient="auto"
       refY="0"
       refX="0"
       id="TriangleOutM"
       style="overflow:visible">
      <path
         id="path5988"
         d="M 5.77,0 -2.88,5 V -5 Z"
         style="fill-rule:evenodd;stroke:#000000;stroke-width:1.00000003pt;marker-start:none"
         transform="scale(0.4)"
         inkscape:connector-curvature="0" />
    </marker>
    <marker
       inkscape:stockid="TriangleOutL"
       orient="auto"
       refY="0"
       refX="0"
       id="TriangleOutL"
       style="overflow:visible">
      <path
         id="path5991"
         d="M 5.77,0 -2.88,5 V -5 Z"
         style="fill-rule:evenodd;stroke:#000000;stroke-width:1.00000003pt;marker-start:none"
         transform="scale(0.8)"
         inkscape:connector-curvature="0" />
    </marker>
  </defs>
  <sodipodi:namedview
     id="base"
     pagecolor="#ffffff"
     bordercolor="#666666"
     borderopacity="1.0"
     inkscape:pageopacity="0.0"
     inkscape:pageshadow="2"
     inkscape:zoom="1.4"
     inkscape:cx="227.62018"
     inkscape:cy="196.03329"
     inkscape:document-units="mm"
     inkscape:current-layer="layer1"
     showgrid="true"
     inkscape:object-paths="false"
     inkscape:object-nodes="true"
     inkscape:grid-points="true"
     inkscape:grid-bbox="true"
     inkscape:guide-points="true"
     inkscape:guide-bbox="false"
     gridtolerance="2.3"
     width="65mm"
     height="80mm"
     units="mm"
     inkscape:window-width="1046"
     inkscape:window-height="534"
     inkscape:window-x="0"
     inkscape:window-y="955"
     inkscape:window-maximized="0" />
  <metadata
     id="metadata2295">
    <rdf:RDF>
      <cc:Work
         rdf:about="">
        <dc:format>image/svg+xml</dc:format>
        <dc:type
           rdf:resource="http://purl.org/dc/dcmitype/StillImage" />
      </cc:Work>
    </rdf:RDF>
  </metadata>
  <g
     inkscape:label="Layer 1"
     inkscape:groupmode="layer"
     id="layer1">
    <path
       style="fill:#fbfca0;fill-opacity:0.85542166;stroke:#000000;stroke-width:0.99999982;stroke-opacity:1"
       d="m 108.23361,116.47544 c -8.0129,-0.1037 -15.251504,5.36121 -18.525744,12.38083 -9.657923,-4.55761 -23.331863,-5.83296 -30.911283,2.99134 -2.97327,3.26449 -4.16929,7.91494 -4.56309,11.92382 -9.45914,1.91986 -18.06569,11.59381 -15.07714,21.45872 1.34939,5.42952 5.88449,9.20327 10.45096,12.02768 -2.06958,10.96199 8.33881,21.17659 19.26172,20.71089 4.43375,0.45741 9.34282,-1.66977 13.12152,-1.51644 4.578003,11.91284 21.005697,16.27135 31.590507,9.43236 3.00541,-1.69448 5.74335,-3.94273 7.85819,-6.66953 8.33887,7.46354 22.34324,11.2446 31.8996,3.80149 3.45939,-2.64479 5.75094,-6.54692 7.02338,-10.63587 10.35446,1.68952 23.396,-2.35845 26.60053,-13.19099 1.28492,-4.2608 -0.61238,-8.64952 -1.45095,-12.69243 7.16278,-7.29164 5.63289,-21.01604 -3.72197,-25.90418 -4.30307,-2.78956 -9.82788,-2.83668 -14.61451,-3.69764 -1.76897,-11.97831 -16.24893,-18.61628 -27.27343,-14.60356 -3.8344,0.89917 -7.604,3.32863 -10.72432,4.94403 -4.28496,-6.97473 -12.69878,-11.13602 -20.94397,-10.76052 z"
       id="path5767"
       inkscape:connector-curvature="0" />
    <path
       style="fill:none;fill-opacity:1;fill-rule:evenodd;stroke:#3927cb;stroke-width:7.08661413;stroke-linecap:butt;stroke-linejoin:miter;stroke-miterlimit:4;stroke-dasharray:none;stroke-opacity:0.66666667;marker-end:url(#TriangleOutS)"
       d="M 152.54219,127.93188 166.71542,71.238963"
       id="path7006"
       sodipodi:nodetypes="cc"
       inkscape:connector-curvature="0" />
    <path
       sodipodi:nodetypes="cscsc"
       id="path5791"
       d="m 21.896752,232.25485 c 0,4.58888 10.13286,8.31318 22.803041,8.31318 12.67018,0 22.80302,-3.7243 22.80302,-8.31318 0,-4.58887 -10.13283,-8.31318 -22.80302,-8.31318 -12.670171,0 -22.803041,3.72431 -22.803041,8.31318 z"
       style="fill:#52da6f;fill-opacity:0.65243895;stroke:#000000;stroke-width:0.7133289;stroke-linecap:butt;stroke-linejoin:miter;stroke-miterlimit:4;stroke-opacity:1"
       inkscape:connector-curvature="0" />
    <path
       style="fill:#52da6f;fill-opacity:0.65243895;stroke:#000000;stroke-width:0.7133289;stroke-linecap:butt;stroke-linejoin:miter;stroke-miterlimit:4;stroke-opacity:1"
       d="m 67.502813,232.25485 c 0,4.69292 -10.13284,8.31318 -22.80303,8.31318 -12.670171,0 -22.803041,-3.64707 -22.803041,-8.31318 m 0,0 c 0,8.31318 -10e-6,24.50725 -10e-6,29.09613 0,4.58889 10.13284,8.31319 22.803041,8.31319 12.67017,0 22.80303,-3.7243 22.80303,-8.31319 0,-4.58888 1e-5,-24.50725 1e-5,-29.09613"
       id="path1399"
       sodipodi:nodetypes="cscccscc"
       inkscape:connector-curvature="0" />
    <path
       sodipodi:nodetypes="cscsc"
       id="path5832"
       d="m 81.534613,231.91436 c 0,4.58888 10.132863,8.31318 22.803047,8.31318 12.67018,0 22.80302,-3.7243 22.80302,-8.31318 0,-4.58887 -10.13283,-8.31318 -22.80302,-8.31318 -12.670174,0 -22.803047,3.72431 -22.803047,8.31318 z"
       style="fill:#52da6f;fill-opacity:0.65243895;stroke:#000000;stroke-width:0.7133289;stroke-linecap:butt;stroke-linejoin:miter;stroke-miterlimit:4;stroke-opacity:1"
       inkscape:connector-curvature="0" />
    <path
       style="fill:#52da6f;fill-opacity:0.65243895;stroke:#000000;stroke-width:0.7133289;stroke-linecap:butt;stroke-linejoin:miter;stroke-miterlimit:4;stroke-opacity:1"
       d="m 127.14068,231.91436 c 0,4.69292 -10.13284,8.31318 -22.80303,8.31318 -12.670174,0 -22.803047,-3.64707 -22.803047,-8.31318 m 0,0 c 0,8.31318 -1e-5,24.50725 -1e-5,29.09613 0,4.58889 10.132843,8.31319 22.803047,8.31319 12.67017,0 22.80303,-3.7243 22.80303,-8.31319 0,-4.58888 1e-5,-24.50725 1e-5,-29.09613"
       id="path5834"
       sodipodi:nodetypes="cscccscc"
       inkscape:connector-curvature="0" />
    <path
       sodipodi:nodetypes="cscsc"
       id="path5838"
       d="m 160.52091,232.27102 c 0,4.58888 10.13286,8.31318 22.80304,8.31318 12.67018,0 22.80302,-3.7243 22.80302,-8.31318 0,-4.58887 -10.13283,-8.31318 -22.80302,-8.31318 -12.67017,0 -22.80304,3.72431 -22.80304,8.31318 z"
       style="fill:#52da6f;fill-opacity:0.65243895;stroke:#000000;stroke-width:0.7133289;stroke-linecap:butt;stroke-linejoin:miter;stroke-miterlimit:4;stroke-opacity:1"
       inkscape:connector-curvature="0" />
    <path
       style="fill:#52da6f;fill-opacity:0.65243895;stroke:#000000;stroke-width:0.7133289;stroke-linecap:butt;stroke-linejoin:miter;stroke-miterlimit:4;stroke-opacity:1"
       d="m 206.12697,232.27102 c 0,4.69292 -10.13284,8.31318 -22.80303,8.31318 -12.67017,0 -22.80304,-3.64707 -22.80304,-8.31318 m 0,0 c 0,8.31318 -1e-5,24.50725 -1e-5,29.09613 0,4.58889 10.13284,8.31319 22.80304,8.31319 12.67017,0 22.80303,-3.7243 22.80303,-8.31319 0,-4.58888 1e-5,-24.50725 1e-5,-29.09613"
       id="path5840"
       sodipodi:nodetypes="cscccscc"
       inkscape:connector-curvature="0" />
    <g
       id="g5842"
       transform="translate(-67.2645,-290.1782)">
      <path
         style="fill:#ffc74c;fill-opacity:1;stroke:#000000;stroke-width:0.7133289;stroke-linecap:butt;stroke-linejoin:miter;stroke-miterlimit:4;stroke-opacity:1"
         d="m 89.16126,352.35441 c 0,4.58888 10.13286,8.31318 22.80304,8.31318 12.67018,0 22.80302,-3.7243 22.80302,-8.31318 0,-4.58887 -10.13283,-8.31318 -22.80302,-8.31318 -12.67017,0 -22.80304,3.72431 -22.80304,8.31318 z"
         id="path5844"
         sodipodi:nodetypes="cscsc"
         inkscape:connector-curvature="0" />
      <path
         sodipodi:nodetypes="cscccscc"
         id="path5846"
         d="m 134.76732,352.35441 c 0,4.69292 -10.13284,8.31318 -22.80303,8.31318 -12.67017,0 -22.80304,-3.64707 -22.80304,-8.31318 m 0,0 c 0,8.31318 -10e-6,24.50725 -10e-6,29.09613 0,4.58889 10.13284,8.31319 22.80304,8.31319 12.67017,0 22.80303,-3.7243 22.80303,-8.31319 0,-4.58888 1e-5,-24.50725 1e-5,-29.09613"
         style="fill:#ffc74c;fill-opacity:1;stroke:#000000;stroke-width:0.7133289;stroke-linecap:butt;stroke-linejoin:miter;stroke-miterlimit:4;stroke-opacity:1"
         inkscape:connector-curvature="0" />
    </g>
    <g
       id="g5848"
       transform="translate(3.640506,-290.1782)">
      <path
         style="fill:#ffc74c;fill-opacity:1;stroke:#000000;stroke-width:0.7133289;stroke-linecap:butt;stroke-linejoin:miter;stroke-miterlimit:4;stroke-opacity:1"
         d="m 89.16126,352.35441 c 0,4.58888 10.13286,8.31318 22.80304,8.31318 12.67018,0 22.80302,-3.7243 22.80302,-8.31318 0,-4.58887 -10.13283,-8.31318 -22.80302,-8.31318 -12.67017,0 -22.80304,3.72431 -22.80304,8.31318 z"
         id="path5850"
         sodipodi:nodetypes="cscsc"
         inkscape:connector-curvature="0" />
      <path
         sodipodi:nodetypes="cscccscc"
         id="path5852"
         d="m 134.76732,352.35441 c 0,4.69292 -10.13284,8.31318 -22.80303,8.31318 -12.67017,0 -22.80304,-3.64707 -22.80304,-8.31318 m 0,0 c 0,8.31318 -10e-6,24.50725 -10e-6,29.09613 0,4.58889 10.13284,8.31319 22.80304,8.31319 12.67017,0 22.80303,-3.7243 22.80303,-8.31319 0,-4.58888 1e-5,-24.50725 1e-5,-29.09613"
         style="fill:#ffc74c;fill-opacity:1;stroke:#000000;stroke-width:0.7133289;stroke-linecap:butt;stroke-linejoin:miter;stroke-miterlimit:4;stroke-opacity:1"
         inkscape:connector-curvature="0" />
    </g>
    <g
       id="g5854"
       transform="translate(74.36755,-325.968)">
      <path
         style="fill:#ffc74c;fill-opacity:1;stroke:#000000;stroke-width:0.7133289;stroke-linecap:butt;stroke-linejoin:miter;stroke-miterlimit:4;stroke-opacity:1"
         d="m 89.16126,352.35441 c 0,4.58888 10.13286,8.31318 22.80304,8.31318 12.67018,0 22.80302,-3.7243 22.80302,-8.31318 0,-4.58887 -10.13283,-8.31318 -22.80302,-8.31318 -12.67017,0 -22.80304,3.72431 -22.80304,8.31318 z"
         id="path5856"
         sodipodi:nodetypes="cscsc"
         inkscape:connector-curvature="0" />
      <path
         sodipodi:nodetypes="cscccscc"
         id="path5858"
         d="m 134.76732,352.35441 c 0,4.69292 -10.13284,8.31318 -22.80303,8.31318 -12.67017,0 -22.80304,-3.64707 -22.80304,-8.31318 m 0,0 c 0,8.31318 -10e-6,24.50725 -10e-6,29.09613 0,4.58889 10.13284,8.31319 22.80304,8.31319 12.67017,0 22.80303,-3.7243 22.80303,-8.31319 0,-4.58888 1e-5,-24.50725 1e-5,-29.09613"
         style="fill:#ffc74c;fill-opacity:1;stroke:#000000;stroke-width:0.7133289;stroke-linecap:butt;stroke-linejoin:miter;stroke-miterlimit:4;stroke-opacity:1"
         inkscape:connector-curvature="0" />
    </g>
    <g
       id="g5860"
       transform="translate(74.01085,-272.4384)">
      <path
         style="fill:#ffc74c;fill-opacity:1;stroke:#000000;stroke-width:0.7133289;stroke-linecap:butt;stroke-linejoin:miter;stroke-miterlimit:4;stroke-opacity:1"
         d="m 89.16126,352.35441 c 0,4.58888 10.13286,8.31318 22.80304,8.31318 12.67018,0 22.80302,-3.7243 22.80302,-8.31318 0,-4.58887 -10.13283,-8.31318 -22.80302,-8.31318 -12.67017,0 -22.80304,3.72431 -22.80304,8.31318 z"
         id="path5862"
         sodipodi:nodetypes="cscsc"
         inkscape:connector-curvature="0" />
      <path
         sodipodi:nodetypes="cscccscc"
         id="path5864"
         d="m 134.76732,352.35441 c 0,4.69292 -10.13284,8.31318 -22.80303,8.31318 -12.67017,0 -22.80304,-3.64707 -22.80304,-8.31318 m 0,0 c 0,8.31318 -10e-6,24.50725 -10e-6,29.09613 0,4.58889 10.13284,8.31319 22.80304,8.31319 12.67017,0 22.80303,-3.7243 22.80303,-8.31319 0,-4.58888 1e-5,-24.50725 1e-5,-29.09613"
         style="fill:#ffc74c;fill-opacity:1;stroke:#000000;stroke-width:0.7133289;stroke-linecap:butt;stroke-linejoin:miter;stroke-miterlimit:4;stroke-opacity:1"
         inkscape:connector-curvature="0" />
    </g>
    <text
       xml:space="preserve"
       style="font-style:normal;font-weight:normal;line-height:0%;font-family:FoundrySterling-Demi;fill:#000000;fill-opacity:1;stroke:none;stroke-width:1px;stroke-linecap:butt;stroke-linejoin:miter;stroke-opacity:1"
       x="38.076763"
       y="85.412186"
       id="text5868"><tspan
         sodipodi:role="line"
         id="tspan5870"
         x="38.076763"
         y="85.412186"
         style="font-size:11px;line-height:1.25">LV</tspan></text>
    <text
       xml:space="preserve"
       style="font-style:normal;font-weight:normal;line-height:0%;font-family:FoundrySterling-Demi;fill:#000000;fill-opacity:1;stroke:none;stroke-width:1px;stroke-linecap:butt;stroke-linejoin:miter;stroke-opacity:1"
       x="176.97202"
       y="104.06113"
       id="text5872"><tspan
         sodipodi:role="line"
         id="tspan5874"
         x="176.97202"
         y="104.06113"
         style="font-size:11px;line-height:1.25">sLV</tspan></text>
    <text
       xml:space="preserve"
       style="font-style:normal;font-weight:normal;line-height:0%;font-family:FoundrySterling-Demi;fill:#000000;fill-opacity:1;stroke:none;stroke-width:1px;stroke-linecap:butt;stroke-linejoin:miter;stroke-opacity:1"
       x="65.141052"
       y="164.63576"
       id="text5876"><tspan
         sodipodi:role="line"
         x="65.141052"
         y="164.63576"
         id="tspan5884"
         style="font-size:11px;line-height:1.25">Volume Group (VG)</tspan></text>
    <text
       xml:space="preserve"
       style="font-style:normal;font-weight:normal;line-height:0%;font-family:FoundrySterling-Demi;fill:#000000;fill-opacity:1;stroke:none;stroke-width:1px;stroke-linecap:butt;stroke-linejoin:miter;stroke-opacity:1"
       x="38.076763"
       y="255.49094"
       id="text5888"><tspan
         sodipodi:role="line"
         id="tspan5890"
         x="38.076763"
         y="255.49094"
         style="font-size:11px;line-height:1.25">PV</tspan></text>
    <text
       xml:space="preserve"
       style="font-style:normal;font-weight:normal;line-height:0%;font-family:FoundrySterling-Demi;fill:#000000;fill-opacity:1;stroke:none;stroke-width:1px;stroke-linecap:butt;stroke-linejoin:miter;stroke-opacity:1"
       x="108.2989"
       y="86.34462"
       id="text5892"><tspan
         sodipodi:role="line"
         id="tspan5894"
         x="108.2989"
         y="86.34462"
         style="font-size:11px;line-height:1.25">LV</tspan></text>
    <text
       xml:space="preserve"
       style="font-style:normal;font-weight:normal;line-height:0%;font-family:FoundrySterling-Demi;fill:#000000;fill-opacity:1;stroke:none;stroke-width:1px;stroke-linecap:butt;stroke-linejoin:miter;stroke-opacity:1"
       x="176.97202"
       y="50.911549"
       id="text5896"><tspan
         sodipodi:role="line"
         id="tspan5898"
         x="176.97202"
         y="50.911549"
         style="font-size:11px;line-height:1.25">sLV</tspan></text>
    <text
       xml:space="preserve"
       style="font-style:normal;font-weight:normal;line-height:0%;font-family:FoundrySterling-Demi;fill:#000000;fill-opacity:1;stroke:none;stroke-width:1px;stroke-linecap:butt;stroke-linejoin:miter;stroke-opacity:1"
       x="98.312988"
       y="255.49094"
       id="text5904"><tspan
         sodipodi:role="line"
         id="tspan5906"
         x="98.312988"
         y="255.49094"
         style="font-size:11px;line-height:1.25">PV</tspan></text>
    <text
       xml:space="preserve"
       style="font-style:normal;font-weight:normal;line-height:0%;font-family:FoundrySterling-Demi;fill:#000000;fill-opacity:1;stroke:none;stroke-width:1px;stroke-linecap:butt;stroke-linejoin:miter;stroke-opacity:1"
       x="177.44629"
       y="256.42337"
       id="text5908"><tspan
         sodipodi:role="line"
         id="tspan5910"
         x="177.44629"
         y="256.42337"
         style="font-size:11px;line-height:1.25">PV</tspan></text>
    <path
       style="fill:none;fill-opacity:1;fill-rule:evenodd;stroke:#3927cb;stroke-width:7.08661413;stroke-linecap:butt;stroke-linejoin:miter;stroke-miterlimit:4;stroke-dasharray:none;stroke-opacity:0.66666667;marker-end:url(#TriangleOutS)"
       d="m 46.242973,220.05787 10.62992,-17.71654"
       id="path6100"
       sodipodi:nodetypes="cc"
       inkscape:connector-curvature="0" />
    <path
       style="fill:none;fill-opacity:1;fill-rule:evenodd;stroke:#3927cb;stroke-width:7.08661413;stroke-linecap:butt;stroke-linejoin:miter;stroke-miterlimit:4;stroke-dasharray:none;stroke-opacity:0.66666667;marker-end:url(#TriangleOutS)"
       d="M 106.4792,220.05787 V 209.42795"
       id="path6998"
       sodipodi:nodetypes="cc"
       inkscape:connector-curvature="0" />
    <path
       style="fill:none;fill-opacity:1;fill-rule:evenodd;stroke:#3927cb;stroke-width:7.08661413;stroke-linecap:butt;stroke-linejoin:miter;stroke-miterlimit:4;stroke-dasharray:none;stroke-opacity:0.66666667;marker-end:url(#TriangleOutS)"
       d="M 180.88865,220.05787 170.25872,198.79803"
       id="path7000"
       sodipodi:nodetypes="cc"
       inkscape:connector-curvature="0" />
    <path
       style="fill:none;fill-opacity:1;fill-rule:evenodd;stroke:#3927cb;stroke-width:7.08661413;stroke-linecap:butt;stroke-linejoin:miter;stroke-miterlimit:4;stroke-dasharray:none;stroke-opacity:0.66666667;marker-end:url(#TriangleOutS)"
       d="M 63.959503,131.47519 51.474083,111.32915"
       id="path7002"
       sodipodi:nodetypes="cc"
       inkscape:connector-curvature="0" />
    <path
       style="fill:none;fill-opacity:1;fill-rule:evenodd;stroke:#3927cb;stroke-width:7.08661413;stroke-linecap:butt;stroke-linejoin:miter;stroke-miterlimit:4;stroke-dasharray:none;stroke-opacity:0.66666667;marker-end:url(#TriangleOutS)"
       d="M 113.56581,124.38858 V 110.21535"
       id="path7004"
       sodipodi:nodetypes="cc"
       inkscape:connector-curvature="0" />
    <path
       style="fill:none;fill-opacity:1;fill-rule:evenodd;stroke:#3927cb;stroke-width:7.08661413;stroke-linecap:butt;stroke-linejoin:miter;stroke-miterlimit:4;stroke-dasharray:none;stroke-opacity:0.66666667;marker-end:url(#TriangleOutS)"
       d="m 170.25872,142.10511 3.54331,-14.17323"
       id="path7008"
       sodipodi:nodetypes="cc"
       inkscape:connector-curvature="0" />
    <path
       style="fill:none;fill-opacity:1;fill-rule:evenodd;stroke:#000000;stroke-width:1.0629921;stroke-linecap:butt;stroke-linejoin:miter;stroke-miterlimit:4;stroke-dasharray:none;stroke-opacity:1;marker-end:url(#Arrow1Mend)"
       d="m 141.91227,57.065733 17.71653,-7.08661"
       id="path9671"
       sodipodi:nodetypes="cc"
       inkscape:connector-curvature="0" />
    <path
       style="fill:none;fill-opacity:1;fill-rule:evenodd;stroke:#000000;stroke-width:1.0629921;stroke-linecap:butt;stroke-linejoin:miter;stroke-miterlimit:4;stroke-dasharray:none;stroke-opacity:1;marker-end:url(#Arrow1Mend)"
       d="m 141.91227,85.412198 17.71653,3.54331"
       id="path11447"
       sodipodi:nodetypes="cc"
       inkscape:connector-curvature="0" />
    <text
       xml:space="preserve"
       style="font-style:normal;font-weight:normal;line-height:0%;font-family:FoundrySterling-Demi;fill:#000000;fill-opacity:1;stroke:none;stroke-width:1px;stroke-linecap:butt;stroke-linejoin:miter;stroke-opacity:1"
       x="138.18898"
       y="251.5748"
       id="text11467"><tspan
         sodipodi:role="line"
         id="tspan11469"
         x="138.18898"
         y="251.5748"
         style="font-size:11px;line-height:1.25">...</tspan></text>
    <text
       xml:space="preserve"
       style="font-style:normal;font-weight:normal;line-height:0%;font-family:FoundrySterling-Demi;fill:#000000;fill-opacity:1;stroke:none;stroke-width:1px;stroke-linecap:butt;stroke-linejoin:miter;stroke-opacity:1"
       x="73.751411"
       y="84.409447"
       id="text11475"><tspan
         sodipodi:role="line"
         id="tspan11477"
         x="73.751411"
         y="84.409447"
         style="font-size:11px;line-height:1.25">...</tspan></text>
  </g>
</svg>
