<?xml version="1.0" encoding="utf-8"?>
<!-- Generator: Adobe Illustrator 18.1.0, SVG Export Plug-In . SVG Version: 6.00 Build 0)  -->
<svg version="1.1" id="图层_1" xmlns="http://www.w3.org/2000/svg" xmlns:xlink="http://www.w3.org/1999/xlink" x="0px" y="0px"
	 viewBox="0 0 150 50" enable-background="new 0 0 150 50" xml:space="preserve">
<g id="XMLID_299_">
	<path id="XMLID_313_" d="M31.5,19c0.3,4-0.3,8.1,0,12.1c0.3,2.9-0.9,3.8-3.8,3.5c-3.2-0.2-5.5-1.6-6.8-4.5c-1.3-3-4.2-5-5.5-8.1
		c-0.2-0.3-0.5-0.7-1-0.5c-0.5,0.2-0.7,0.7-0.7,1c0,3.4-0.7,6.9-0.5,10.3c0,0.5,0,1-0.5,1.3c-1.5,0.9-3,0.7-4.5,0.3
		c-1.3-0.3-1.8-1.3-1.8-2.7c0-2.5-0.9-5,1.5-7.3c0.7-0.5,0.7-1.5,0-2.3c-2.9-3.8-1-8-1.5-12.1c0-0.2,0-0.3,0.2-0.5
		c1.6-1.5,3.8-0.7,5.5-1.5c0.9-0.3,1.5,0.7,2,1.5c3.2,3.2,5.5,7.5,8.5,11.2c0.3,0.3,0.7,0.9,1.3,0.5c0.5-0.2,0.5-0.9,0.5-1.3
		c0-2.9,0-5.5,0.2-8.5c0-1.3-0.2-2.7,1.8-3c2.9-0.3,4.5,0.2,5,2.3C31.8,13.5,31.1,16.3,31.5,19z"/>
	<path id="XMLID_312_" d="M134.4,15.2c2.5-0.2,4.8,0,7.1,1.3c0.9,0.5,1.8,1.5,1.5,2.5c-0.2,1-1.5,1-2.2,1.3
		c-1.3,0.2-2.3,0.2-3.5-0.5c-0.7-0.3-1.6-0.9-2.5-0.9c-1-0.2-2.3,0.2-2.5,1.5c-0.3,1.3,0.9,1.6,1.8,2c2.7,0.9,5.7,0.5,8.5,2.3
		c1.5,1,2.7,2,2.3,4c-0.2,2-0.7,4-2.9,4.5c-4.2,1.3-8.3,2.9-12.6,1c-0.7-0.3-1.5-0.5-2-0.9c-0.9-0.5-1.5-1.3-1.3-2.5
		c0.2-1,1.3-1.3,2.2-1.5c1.6-0.2,3.4-0.5,4.8,1c0.5,0.7,1.6,1,2.5,0.9c1.3,0,2.9,0.2,3-1.6c0.2-1.6-1.3-1.6-2.2-2.2
		c-2-1-4.2-1.8-6.5-1.6c-2,0-3.2-1.5-3.7-3.4s0-3.8,1.6-5C129.4,15.5,131.9,15,134.4,15.2L134.4,15.2z"/>
	<path id="XMLID_311_" d="M95.2,20.8c-0.7,2.7,0.2,6,0.2,9.6s-0.7,4.3-3.2,4.3c-2.5-0.2-4.7-2.5-3.8-4.8c1.5-3.4,0.2-6.5,0-9.8
		c-0.2-1.5-0.3-2.9,0.9-3.8c1.3-0.8,3-0.5,4.5-0.2C95,16.3,95,17.1,95.2,20.8z"/>
	<path id="XMLID_310_" d="M26.6,41.6c-6-0.9-12.3,0.5-18.5,0c-1-0.2-2.9,0.5-2.9-1.5c0-1.6,1.6-2.2,2.9-2c6.9,0.9,13.9-0.7,20.8,0.3
		c1,0.2,2.5,0.2,2.5,1.5c0,1.5-1.5,1.6-2.5,1.6C28,41.5,27.3,41.6,26.6,41.6z"/>
	<path id="XMLID_309_" d="M91.8,8.3c1.8-0.2,3,0,2.9,2.3c0,2.2-1.3,2.3-3,2.3c-1.6,0-3-0.3-3-2.3C88.7,8.5,89.9,8,91.8,8.3z"/>
	<path id="XMLID_306_" d="M82.9,30.9c-0.5-3.2-1.5-6.8-0.5-10.1c0.5-1.6,1-3.4-0.7-4.5c-1.6-1-3.5-1.3-5.2,0.2
		c-0.9,0.9-1.6,0.5-2.3,0C67.7,13,62.8,16,62.8,23.8c-0.9,2.5,1.3,4.5,2.3,6.9c1.3,3,4.3,4,7.5,2.5c0.9-0.5,2-1.6,2.9-0.7
		c1,0.9,0.7,2.3,0.3,3.4c-0.7,2.2-2.7,3-4.8,2c-1.8-0.9-4-0.9-5.7-2c-0.7-0.5-1.5-0.2-2,0.3c-0.7,0.5-0.3,1.3-0.2,2
		c0.7,2.3,3.2,4,6.2,3.8c2.7-0.2,5.2-1.6,8-0.2c0.3,0.2,1-0.2,1.6-0.5C82.4,39.3,83.7,35.8,82.9,30.9z M72.4,29.1
		c-2.2,0-3.5-1.8-3.5-4.7c0-2.5,1.8-4.7,3.5-4.5c2,0,3.5,2.3,3.5,4.8C76.1,27.3,74.6,29.1,72.4,29.1z"/>
	<path id="XMLID_303_" d="M56.8,22.9c0.5-3.4-1-6.9-4.5-7.3c-4.2-0.3-8.7-1.3-12.6,1.3c-0.5,0.3-1,0.7-1.6,1.3
		c-0.7,0.9-0.7,2,0.3,2.5c1.8,0.9,3.8,1.5,5.5,0c1.3-0.9,2.5-1.5,4-1.6c1.3-0.2,2.9-0.9,3.4,1.3c0.3,2-1,2.7-2.7,2.9
		c-1.8,0.2-3.5,0.5-5,1.6c-0.3,0.3-1,0.3-1.6,0.3c-4-0.2-4.8,0.5-4.8,4.5c0,3.8,1.8,5.9,5.5,5.5c2.2-0.2,4.3-0.5,6.5-1.5
		c0.7-0.3,1.3-0.7,1.8-0.2c1.3,1.3,2.7,0.7,4,0.7c2,0.2,2.5-0.7,2.5-2.9C57.1,28.3,56.3,25.6,56.8,22.9L56.8,22.9z M49.8,29.9
		c-1.3,0.3-2.2,1.5-3.5,1.5s-2.9-0.2-3-2c-0.2-1.8,0.7-2.7,2.5-2.9h1.8c0.5,0,1-0.2,1.6-0.2c1.3,0.2,2.2,0.9,2.5,2
		C51.9,29.3,50.8,29.4,49.8,29.9z"/>
	<path id="XMLID_300_" d="M121.8,24.3c-0.2-3.2-1.5-6.9-4.8-7.6c-4.7-0.9-10-3.4-13.8,2.2l-0.5,0.5c-3.2,2.2-3.5,9.6-0.3,12
		c2,1.6,4,3,6.9,2.9c1.8-0.2,3.5,0.5,5-0.9c0.3-0.3,1-0.2,1.6,0c0.9,0,1.6,0,2.2-0.3C121.1,31.1,122,27.8,121.8,24.3z M113.8,28.8
		c-1.3,1.6-3,1.8-4.7,0.9c-2.3-1-2.3-3.4-2.2-5.5c0.1-2.1,1-4,3.2-4.5c2-0.5,3.2,0.7,4,2.3c0.5,1,0.3,2.2,0.5,2.9
		C114.5,26.5,114.5,27.8,113.8,28.8z"/>
</g>
</svg>
