<?xml version="1.0" encoding="UTF-8" standalone="no"?>
<!-- Created with Inkscape (http://www.inkscape.org/) -->

<svg
   xmlns:dc="http://purl.org/dc/elements/1.1/"
   xmlns:cc="http://creativecommons.org/ns#"
   xmlns:rdf="http://www.w3.org/1999/02/22-rdf-syntax-ns#"
   xmlns:svg="http://www.w3.org/2000/svg"
   xmlns="http://www.w3.org/2000/svg"
   xmlns:xlink="http://www.w3.org/1999/xlink"
   xmlns:sodipodi="http://sodipodi.sourceforge.net/DTD/sodipodi-0.dtd"
   xmlns:inkscape="http://www.inkscape.org/namespaces/inkscape"
   width="108.00001mm"
   height="100.00002mm"
   viewBox="0 0 382.67719 354.33077"
   id="svg4217"
   version="1.1"
   inkscape:version="0.92.1 r15371"
   sodipodi:docname="satellitecluster.svg">
  <defs
     id="defs4219">
    <linearGradient
       inkscape:collect="always"
       id="linearGradient7975">
      <stop
         style="stop-color:#afd2ad;stop-opacity:1;"
         offset="0"
         id="stop7963" />
      <stop
         id="stop7979"
         offset="0.60000002"
         style="stop-color:#afd2ad;stop-opacity:1" />
      <stop
         style="stop-color:#afd2ad;stop-opacity:0;"
         offset="1"
         id="stop7965" />
    </linearGradient>
    <radialGradient
       inkscape:collect="always"
       xlink:href="#linearGradient7975"
       id="radialGradient7987"
       cx="247.60991"
       cy="478.34659"
       fx="247.60991"
       fy="478.34659"
       r="125.53691"
       gradientTransform="matrix(1.1869644,0,0,1.1039402,-45.872681,-67.832351)"
       gradientUnits="userSpaceOnUse"
       spreadMethod="reflect" />
  </defs>
  <sodipodi:namedview
     id="base"
     pagecolor="#ffffff"
     bordercolor="#666666"
     borderopacity="1.0"
     inkscape:pageopacity="0.0"
     inkscape:pageshadow="2"
     inkscape:zoom="1.4"
     inkscape:cx="98.830943"
     inkscape:cy="247.29447"
     inkscape:document-units="px"
     inkscape:current-layer="layer1"
     showgrid="true"
     inkscape:snap-bbox="true"
     inkscape:bbox-nodes="true"
     inkscape:bbox-paths="true"
     inkscape:snap-bbox-edge-midpoints="true"
     inkscape:snap-bbox-midpoints="true"
     inkscape:snap-object-midpoints="true"
     inkscape:object-nodes="true"
     inkscape:snap-intersection-paths="true"
     inkscape:object-paths="true"
     inkscape:snap-smooth-nodes="true"
     inkscape:snap-center="false"
     inkscape:window-width="1046"
     inkscape:window-height="534"
     inkscape:window-x="0"
     inkscape:window-y="955"
     inkscape:window-maximized="0"
     inkscape:snap-global="true"
     showguides="false"
     fit-margin-top="0"
     fit-margin-left="0"
     fit-margin-right="0"
     fit-margin-bottom="0">
    <inkscape:grid
       type="xygrid"
       id="grid4264"
       originx="-56.692909"
       originy="-453.54328" />
  </sodipodi:namedview>
  <metadata
     id="metadata4222">
    <rdf:RDF>
      <cc:Work
         rdf:about="">
        <dc:format>image/svg+xml</dc:format>
        <dc:type
           rdf:resource="http://purl.org/dc/dcmitype/StillImage" />
        <dc:title />
      </cc:Work>
    </rdf:RDF>
  </metadata>
  <g
     inkscape:label="Ebene 1"
     inkscape:groupmode="layer"
     id="layer1"
     transform="translate(-56.692904,-244.48817)">
    <ellipse
       style="opacity:0.88800001;fill:url(#radialGradient7987);fill-opacity:1;stroke:none;stroke-width:2;stroke-linecap:round;stroke-linejoin:round;stroke-miterlimit:4;stroke-dasharray:none;stroke-dashoffset:0;stroke-opacity:1"
       id="path7955"
       cx="248.03146"
       cy="460.23367"
       inkscape:transform-center-x="1.6992137"
       inkscape:transform-center-y="5.9028679e-05"
       rx="149.00784"
       ry="138.58524" />
    <g
       style="font-style:normal;font-variant:normal;font-weight:normal;font-stretch:normal;font-size:12.49999809px;line-height:110.00000238%;font-family:FoundrySterling-Medium;-inkscape-font-specification:'FoundrySterling-Medium, Normal';text-align:center;letter-spacing:0px;word-spacing:0px;writing-mode:lr-tb;text-anchor:middle;fill:#000000;fill-opacity:1;stroke:none;stroke-width:1px;stroke-linecap:butt;stroke-linejoin:miter;stroke-opacity:1"
       id="text4231"
       transform="translate(-138.98313,-36.784501)">
      <path
         d="m 216.98467,562.26315 q -0.2,0.2125 -0.8,0.475 -0.925,0.4 -2,0.4 -1.725,0 -2.8375,-1.125 -1.1625,-1.175 -1.1625,-3.1375 0,-2.025 1.225,-3.25 1.15,-1.1625 2.9375,-1.1625 1.05,0 1.8625,0.35 0.4875,0.2125 0.7,0.425 l -0.4875,0.775 q -0.9,-0.5625 -2.0125,-0.5625 -1.3125,0 -2.175,0.8875 -0.9,0.9125 -0.9,2.4375 0,1.5375 0.8,2.45 0.8125,0.9125 2.1875,0.9125 0.9875,0 2.175,-0.65 l 0.4875,0.775 z"
         id="path4183"
         inkscape:connector-curvature="0" />
      <path
         d="m 223.40127,559.95065 q 0,1.425 -0.7875,2.3 -0.7875,0.8625 -2.1,0.8625 -1.2625,0 -2.0375,-0.8625 -0.775,-0.875 -0.775,-2.3 0,-1.425 0.7875,-2.3 0.8,-0.8875 2.1125,-0.8875 1.2625,0 2.025,0.875 0.775,0.8625 0.775,2.3125 z m -1.0625,0.0125 q 0,-1.0375 -0.5125,-1.675 -0.5,-0.65 -1.2875,-0.65 -0.8125,0 -1.3,0.625 -0.475,0.625 -0.475,1.65 0,1.0375 0.5125,1.675 0.5125,0.6375 1.3,0.6375 0.8375,0 1.3,-0.6 0.4625,-0.6125 0.4625,-1.6625 z"
         id="path4185"
         inkscape:connector-curvature="0" />
      <path
         d="m 229.63955,562.97565 -1.0625,0 0,-3.4375 q 0,-0.6875 -0.05,-0.9625 -0.0625,-0.4 -0.275,-0.6125 -0.3,-0.3 -0.85,-0.3 -0.4875,0 -1.0625,0.25 -0.375,0.1625 -0.525,0.275 l 0,4.7875 -1.0625,0 0,-6.05 0.95,0 0,0.45 q 0.9125,-0.6125 1.8875,-0.6125 0.925,0 1.45,0.525 0.3875,0.3875 0.5125,0.9375 0.0875,0.3875 0.0875,1.2375 l 0,3.5125 z"
         id="path4187"
         inkscape:connector-curvature="0" />
      <path
         d="m 234.77178,562.80065 q -0.5875,0.325 -1.3,0.325 -0.9,0 -1.3625,-0.4625 -0.2875,-0.2875 -0.3625,-0.7875 -0.0375,-0.225 -0.0375,-0.9875 l 0,-3.0875 -1.0625,0 0,-0.875 1.0625,0 0,-1.7 1.0625,0 0,1.7 1.8625,0 0,0.875 -1.8625,0 0,3.2625 q 0,0.5875 0.125,0.8 0.1875,0.35 0.7625,0.35 0.3,0 0.8375,-0.1625 l 0.275,0.75 z"
         id="path4189"
         inkscape:connector-curvature="0" />
      <path
         d="m 239.41045,556.87565 -0.25,0.85 q -0.2125,-0.0375 -0.45,-0.0375 -1.0375,0 -1.7875,0.9875 l 0,4.3 -1.0625,0 0,-6.05 0.95,0 0,0.7875 q 0.2,-0.2625 0.5375,-0.5 0.6375,-0.45 1.4125,-0.45 0.35,0 0.65,0.1125 z"
         id="path4191"
         inkscape:connector-curvature="0" />
      <path
         d="m 245.43496,559.95065 q 0,1.425 -0.7875,2.3 -0.7875,0.8625 -2.1,0.8625 -1.2625,0 -2.0375,-0.8625 -0.775,-0.875 -0.775,-2.3 0,-1.425 0.7875,-2.3 0.8,-0.8875 2.1125,-0.8875 1.2625,0 2.025,0.875 0.775,0.8625 0.775,2.3125 z m -1.0625,0.0125 q 0,-1.0375 -0.5125,-1.675 -0.5,-0.65 -1.2875,-0.65 -0.8125,0 -1.3,0.625 -0.475,0.625 -0.475,1.65 0,1.0375 0.5125,1.675 0.5125,0.6375 1.3,0.6375 0.8375,0 1.3,-0.6 0.4625,-0.6125 0.4625,-1.6625 z"
         id="path4193"
         inkscape:connector-curvature="0" />
      <path
         d="m 247.86045,562.97565 -1.0625,0 0,-9.0125 1.0625,0 0,9.0125 z"
         id="path4195"
         inkscape:connector-curvature="0" />
      <path
         d="m 257.39834,562.97565 -1.0625,0 0,-3.4375 q 0,-0.6875 -0.05,-0.9625 -0.0625,-0.4 -0.275,-0.6125 -0.3,-0.3 -0.85,-0.3 -0.4875,0 -1.0625,0.25 -0.375,0.1625 -0.525,0.275 l 0,4.7875 -1.0625,0 0,-6.05 0.95,0 0,0.45 q 0.9125,-0.6125 1.8875,-0.6125 0.925,0 1.45,0.525 0.3875,0.3875 0.5125,0.9375 0.0875,0.3875 0.0875,1.2375 l 0,3.5125 z"
         id="path4197"
         inkscape:connector-curvature="0" />
      <path
         d="m 264.36806,559.95065 q 0,1.425 -0.7875,2.3 -0.7875,0.8625 -2.1,0.8625 -1.2625,0 -2.0375,-0.8625 -0.775,-0.875 -0.775,-2.3 0,-1.425 0.7875,-2.3 0.8,-0.8875 2.1125,-0.8875 1.2625,0 2.025,0.875 0.775,0.8625 0.775,2.3125 z m -1.0625,0.0125 q 0,-1.0375 -0.5125,-1.675 -0.5,-0.65 -1.2875,-0.65 -0.8125,0 -1.3,0.625 -0.475,0.625 -0.475,1.65 0,1.0375 0.5125,1.675 0.5125,0.6375 1.3,0.6375 0.8375,0 1.3,-0.6 0.4625,-0.6125 0.4625,-1.6625 z"
         id="path4199"
         inkscape:connector-curvature="0" />
      <path
         d="m 270.73134,562.97565 -0.95,0 0,-0.475 q -0.7125,0.6125 -1.69999,0.6125 -1.2,0 -1.9375,-0.85 -0.7375,-0.8625 -0.7375,-2.2375 0,-1.45 0.8375,-2.35 0.8375,-0.9125 2.1125,-0.9125 0.71249,0 1.31249,0.3625 l 0,-3.1625 1.0625,0 0,9.0125 z m -1.0625,-1.2875 0,-3.625 q -0.5625,-0.4 -1.21249,-0.4 -0.8875,0 -1.4375,0.6375 -0.5375,0.6375 -0.5375,1.725 0,0.975 0.5,1.5875 0.5125,0.6 1.2875,0.6 0.6375,0 1.39999,-0.525 z"
         id="path4201"
         inkscape:connector-curvature="0" />
      <path
         d="m 277.3958,559.78815 q 0,0.0625 -0.0125,0.2375 -0.0125,0.1625 -0.0125,0.2125 l -4.2125,0 q -0.0125,0.8375 0.45,1.375 0.525,0.6 1.45,0.6 0.7625,0 1.7125,-0.475 l 0.4,0.725 q -0.975,0.65 -2.2,0.65 -1.35,0 -2.125,-0.8875 -0.75,-0.85 -0.75,-2.2375 0,-1.45 0.775,-2.3375 0.775,-0.8875 2.0375,-0.8875 1.15,0 1.8125,0.8125 0.675,0.8 0.675,2.2125 z m -1.025,-0.3875 q 0,-0.675 -0.3,-1.1625 -0.3875,-0.625 -1.15,-0.625 -0.7125,0 -1.2,0.4875 -0.4875,0.4875 -0.55,1.3 l 3.2,0 z"
         id="path4203"
         inkscape:connector-curvature="0" />
      <path
         d="m 282.58095,561.28815 q 0,0.85 -0.65,1.35 -0.6375,0.5 -1.5625,0.5 -0.7625,0 -1.4625,-0.275 -0.425,-0.175 -0.6125,-0.325 l 0.4,-0.7375 q 0.85,0.4625 1.6125,0.4625 0.5,0 0.825,-0.25 0.3375,-0.25 0.3375,-0.65 0,-0.5 -0.775,-0.875 -0.7125,-0.3375 -1.4375,-0.6875 -0.775,-0.5 -0.775,-1.325 0,-0.7625 0.5875,-1.2375 0.6,-0.475 1.525,-0.475 1.2375,0 1.9125,0.5375 l -0.4,0.7125 q -0.725,-0.4125 -1.4375,-0.4125 -0.5375,0 -0.825,0.2375 -0.2875,0.225 -0.2875,0.575 0,0.4625 0.7875,0.8375 1.4,0.6625 1.45,0.7 0.7875,0.5125 0.7875,1.3375 z"
         id="path4205"
         inkscape:connector-curvature="0" />
    </g>
    <rect
       style="opacity:1;fill:#85ff80;fill-opacity:0.76862745;stroke:#000000;stroke-width:0.31450194;stroke-linecap:round;stroke-linejoin:round;stroke-miterlimit:4;stroke-dasharray:none;stroke-dashoffset:0;stroke-opacity:1"
       id="rect4193-1"
       width="56.378414"
       height="42.20517"
       x="283.62183"
       y="499.76358"
       ry="1.5847715" />
    <rect
       style="opacity:1;fill:#85ff80;fill-opacity:0.76862745;stroke:#ff0000;stroke-width:2.99999952;stroke-linecap:round;stroke-linejoin:round;stroke-miterlimit:4;stroke-dasharray:none;stroke-dashoffset:0;stroke-opacity:1"
       id="rect4193-1-4"
       width="56.378422"
       height="42.20517"
       x="219.84229"
       y="379.29114"
       ry="1.5847714" />
    <rect
       style="opacity:1;fill:#85ff80;fill-opacity:0.76862745;stroke:#000000;stroke-width:0.31450194;stroke-linecap:round;stroke-linejoin:round;stroke-miterlimit:4;stroke-dasharray:none;stroke-dashoffset:0;stroke-opacity:1"
       id="rect4193-1-8"
       width="56.37841"
       height="42.20517"
       x="156.06276"
       y="499.76355"
       ry="1.5847716" />
    <g
       id="g7814">
      <path
         inkscape:connector-curvature="0"
         id="path4293"
         d="m 255.11811,421.65352 42.51969,77.95276"
         style="fill:none;fill-rule:evenodd;stroke:#097800;stroke-width:2;stroke-linecap:butt;stroke-linejoin:round;stroke-miterlimit:4;stroke-dasharray:none;stroke-opacity:1"
         sodipodi:nodetypes="cc" />
      <path
         sodipodi:nodetypes="cc"
         inkscape:connector-curvature="0"
         id="path4293-0"
         d="M 240.94488,421.65352 198.4252,499.60628"
         style="fill:none;fill-rule:evenodd;stroke:#097800;stroke-width:2;stroke-linecap:butt;stroke-linejoin:round;stroke-miterlimit:4;stroke-dasharray:none;stroke-opacity:1" />
      <path
         sodipodi:nodetypes="cc"
         inkscape:connector-curvature="0"
         id="path4293-0-2"
         d="m 283.46457,513.27953 -70.86614,0"
         style="fill:none;fill-rule:evenodd;stroke:#097800;stroke-width:2;stroke-linecap:butt;stroke-linejoin:round;stroke-miterlimit:4;stroke-dasharray:none;stroke-opacity:1" />
    </g>
    <rect
       style="opacity:1;fill:#9ad0ff;fill-opacity:0.76862745;stroke:#0012df;stroke-width:0.35157299;stroke-linecap:round;stroke-linejoin:round;stroke-miterlimit:4;stroke-dasharray:none;stroke-dashoffset:0;stroke-opacity:1"
       id="rect4193-1-4-9-5"
       width="70.514572"
       height="42.168098"
       x="212.7742"
       y="244.66396"
       ry="1.5833794"
       inkscape:transform-center-y="-211.42856" />
    <rect
       style="opacity:1;fill:#9ad0ff;fill-opacity:0.76862745;stroke:#0012df;stroke-width:0.35157299;stroke-linecap:round;stroke-linejoin:round;stroke-miterlimit:4;stroke-dasharray:none;stroke-dashoffset:0;stroke-opacity:1"
       id="rect4193-1-4-9-5-5"
       width="70.514572"
       height="42.168098"
       x="297.63779"
       y="272.83466"
       ry="1.5833794"
       inkscape:transform-center-x="-57.142853"
       inkscape:transform-center-y="-155.71427" />
    <rect
       style="opacity:1;fill:#9ad0ff;fill-opacity:0.76862745;stroke:#0012df;stroke-width:0.35157299;stroke-linecap:round;stroke-linejoin:round;stroke-miterlimit:4;stroke-dasharray:none;stroke-dashoffset:0;stroke-opacity:1"
       id="rect4193-1-4-9-5-5-3"
       width="70.514572"
       height="42.168098"
       x="56.86869"
       y="343.87662"
       ry="1.5833794"
       inkscape:transform-center-x="-57.142853"
       inkscape:transform-center-y="-155.71427" />
    <rect
       style="opacity:1;fill:#9ad0ff;fill-opacity:0.76862745;stroke:#0012df;stroke-width:0.35157299;stroke-linecap:round;stroke-linejoin:round;stroke-miterlimit:4;stroke-dasharray:none;stroke-dashoffset:0;stroke-opacity:1"
       id="rect4193-1-4-9-5-5-2"
       width="70.514572"
       height="42.168098"
       x="127.91062"
       y="272.83466"
       ry="1.5833794"
       inkscape:transform-center-x="-57.142853"
       inkscape:transform-center-y="-155.71427" />
    <rect
       style="opacity:1;fill:#9ad0ff;fill-opacity:0.76862745;stroke:#0012df;stroke-width:0.35157299;stroke-linecap:round;stroke-linejoin:round;stroke-miterlimit:4;stroke-dasharray:none;stroke-dashoffset:0;stroke-opacity:1"
       id="rect4193-1-4-9-5-5-3-2"
       width="70.514572"
       height="42.168098"
       x="368.67969"
       y="343.87662"
       ry="1.5833794"
       inkscape:transform-center-x="-57.142853"
       inkscape:transform-center-y="-155.71427" />
    <g
       id="g7819"
       style="stroke:#00009f;stroke-width:2;stroke-miterlimit:4;stroke-dasharray:none;stroke-opacity:1">
      <path
         inkscape:connector-curvature="0"
         id="path7722"
         d="m 198.4252,315.35433 35.43307,63.77953"
         style="fill:none;fill-rule:evenodd;stroke:#00009f;stroke-width:2;stroke-linecap:butt;stroke-linejoin:miter;stroke-miterlimit:4;stroke-dasharray:none;stroke-opacity:1"
         sodipodi:nodetypes="cc" />
      <path
         sodipodi:nodetypes="cc"
         inkscape:connector-curvature="0"
         id="path7722-0"
         d="m 297.6378,315.35433 -35.43308,63.77953"
         style="fill:none;fill-rule:evenodd;stroke:#00009f;stroke-width:2;stroke-linecap:butt;stroke-linejoin:miter;stroke-miterlimit:4;stroke-dasharray:none;stroke-opacity:1" />
      <path
         sodipodi:nodetypes="cc"
         inkscape:connector-curvature="0"
         id="path7722-0-6"
         d="m 248.0315,287.00785 0,92.12599"
         style="fill:none;fill-rule:evenodd;stroke:#00009f;stroke-width:2;stroke-linecap:butt;stroke-linejoin:miter;stroke-miterlimit:4;stroke-dasharray:none;stroke-opacity:1" />
      <path
         sodipodi:nodetypes="cc"
         inkscape:connector-curvature="0"
         id="path7722-0-6-0-6"
         d="m 368.5039,372.04727 -92.12598,21.25984"
         style="fill:none;fill-rule:evenodd;stroke:#00009f;stroke-width:2;stroke-linecap:butt;stroke-linejoin:miter;stroke-miterlimit:4;stroke-dasharray:none;stroke-opacity:1" />
      <path
         sodipodi:nodetypes="cc"
         inkscape:connector-curvature="0"
         id="path7722-0-6-0-6-3"
         d="m 127.55904,372.04727 92.12598,21.25984"
         style="fill:none;fill-rule:evenodd;stroke:#00009f;stroke-width:2;stroke-linecap:butt;stroke-linejoin:miter;stroke-miterlimit:4;stroke-dasharray:none;stroke-opacity:1" />
      <path
         inkscape:connector-curvature="0"
         id="path7722-8"
         d="m 262.2047,421.65356 42.51968,77.95275"
         style="fill:none;fill-rule:evenodd;stroke:#00009f;stroke-width:2;stroke-linecap:butt;stroke-linejoin:miter;stroke-miterlimit:4;stroke-dasharray:none;stroke-opacity:1"
         sodipodi:nodetypes="cc" />
      <path
         inkscape:connector-curvature="0"
         id="path7722-8-3"
         d="m 233.85824,421.65356 -42.51968,77.95275"
         style="fill:none;fill-rule:evenodd;stroke:#00009f;stroke-width:2;stroke-linecap:butt;stroke-linejoin:miter;stroke-miterlimit:4;stroke-dasharray:none;stroke-opacity:1"
         sodipodi:nodetypes="cc" />
    </g>
    <g
       style="font-style:normal;font-variant:normal;font-weight:normal;font-stretch:normal;font-size:12.49999809px;line-height:110.00000238%;font-family:FoundrySterling-Medium;-inkscape-font-specification:'FoundrySterling-Medium, Normal';text-align:center;letter-spacing:0px;word-spacing:0px;writing-mode:lr-tb;text-anchor:middle;fill:#000000;fill-opacity:1;stroke:none;stroke-width:1px;stroke-linecap:butt;stroke-linejoin:miter;stroke-opacity:1"
       id="text4231-7">
      <path
         d="m 123.24815,261.05894 q 0,1.0625 -0.7375,1.75 -0.7375,0.6875 -2,0.6875 -0.9375,0 -1.8,-0.4125 -0.525,-0.25 -0.7625,-0.4875 l 0.5375,-0.775 q 1.0625,0.7125 1.975,0.7125 0.75,0 1.1875,-0.3875 0.4375,-0.4 0.4375,-0.9875 0,-0.6 -0.65,-1.075 -0.3,-0.225 -1.3125,-0.725 -0.9625,-0.475 -1.3625,-0.875 -0.575,-0.575 -0.575,-1.4125 0,-0.9875 0.725,-1.6125 0.7375,-0.6375 1.8875,-0.6375 0.975,0 1.7375,0.3875 0.4375,0.2375 0.6375,0.4625 l -0.5625,0.725 q -0.775,-0.625 -1.7375,-0.625 -0.7,0 -1.1375,0.325 -0.425,0.325 -0.425,0.875 0,0.5125 0.475,0.8625 0.1375,0.1125 1.0875,0.6 1.1625,0.6 1.4625,0.8375 0.9125,0.7375 0.9125,1.7875 z"
         id="path4355"
         inkscape:connector-curvature="0" />
      <path
         d="m 129.19112,263.32144 -0.95,0 0,-0.45 q -0.975,0.575 -1.85,0.575 -0.875,0 -1.4125,-0.5125 -0.5375,-0.525 -0.5375,-1.3625 0,-2.05 3.45,-2.05 l 0.275,0 0,-0.3875 q 0,-0.6 -0.25,-0.85 -0.3125,-0.3125 -1.0625,-0.3125 -0.825,0 -1.6625,0.475 l -0.3875,-0.7125 q 0.175,-0.15 0.6125,-0.3375 0.7125,-0.2875 1.5375,-0.2875 1.1375,0 1.75,0.6125 0.3125,0.3125 0.4125,0.7625 0.075,0.325 0.075,1.0375 l 0,3.8 z m -1.025,-1.1875 0,-1.8125 -0.3125,0 q -1.6,0 -2.125,0.525 -0.275,0.275 -0.275,0.7 0,0.4625 0.3125,0.75 0.325,0.2875 0.8875,0.2875 0.6,0 1.5125,-0.45 z"
         id="path4357"
         inkscape:connector-curvature="0" />
      <path
         d="m 134.32256,263.14644 q -0.5875,0.325 -1.3,0.325 -0.9,0 -1.3625,-0.4625 -0.2875,-0.2875 -0.3625,-0.7875 -0.0375,-0.225 -0.0375,-0.9875 l 0,-3.0875 -1.0625,0 0,-0.875 1.0625,0 0,-1.7 1.0625,0 0,1.7 1.8625,0 0,0.875 -1.8625,0 0,3.2625 q 0,0.5875 0.125,0.8 0.1875,0.35 0.7625,0.35 0.3,0 0.8375,-0.1625 l 0.275,0.75 z"
         id="path4359"
         inkscape:connector-curvature="0" />
      <path
         d="m 140.15459,260.13394 q 0,0.0625 -0.0125,0.2375 -0.0125,0.1625 -0.0125,0.2125 l -4.2125,0 q -0.0125,0.8375 0.45,1.375 0.525,0.6 1.45,0.6 0.7625,0 1.7125,-0.475 l 0.4,0.725 q -0.975,0.65 -2.2,0.65 -1.35,0 -2.125,-0.8875 -0.75,-0.85 -0.75,-2.2375 0,-1.45 0.775,-2.3375 0.775,-0.8875 2.0375,-0.8875 1.15,0 1.8125,0.8125 0.675,0.8 0.675,2.2125 z m -1.025,-0.3875 q 0,-0.675 -0.3,-1.1625 -0.3875,-0.625 -1.15,-0.625 -0.7125,0 -1.2,0.4875 -0.4875,0.4875 -0.55,1.3 l 3.2,0 z"
         id="path4361"
         inkscape:connector-curvature="0" />
      <path
         d="m 142.57725,263.32144 -1.0625,0 0,-9.0125 1.0625,0 0,9.0125 z"
         id="path4363"
         inkscape:connector-curvature="0" />
      <path
         d="m 145.31162,263.32144 -1.0625,0 0,-9.0125 1.0625,0 0,9.0125 z"
         id="path4365"
         inkscape:connector-curvature="0" />
      <path
         d="m 148.1585,255.34644 q 0,0.275 -0.1875,0.4625 -0.1875,0.1875 -0.4625,0.1875 -0.275,0 -0.4625,-0.1875 -0.1875,-0.1875 -0.1875,-0.4625 0,-0.275 0.1875,-0.4625 0.1875,-0.1875 0.4625,-0.1875 0.275,0 0.4625,0.1875 0.1875,0.1875 0.1875,0.4625 z m -0.1125,7.975 -1.0625,0 0,-6.05 1.0625,0 0,6.05 z"
         id="path4367"
         inkscape:connector-curvature="0" />
      <path
         d="m 153.26787,263.14644 q -0.5875,0.325 -1.3,0.325 -0.9,0 -1.3625,-0.4625 -0.2875,-0.2875 -0.3625,-0.7875 -0.0375,-0.225 -0.0375,-0.9875 l 0,-3.0875 -1.0625,0 0,-0.875 1.0625,0 0,-1.7 1.0625,0 0,1.7 1.8625,0 0,0.875 -1.8625,0 0,3.2625 q 0,0.5875 0.125,0.8 0.1875,0.35 0.7625,0.35 0.3,0 0.8375,-0.1625 l 0.275,0.75 z"
         id="path4369"
         inkscape:connector-curvature="0" />
      <path
         d="m 159.0999,260.13394 q 0,0.0625 -0.0125,0.2375 -0.0125,0.1625 -0.0125,0.2125 l -4.2125,0 q -0.0125,0.8375 0.45,1.375 0.525,0.6 1.45,0.6 0.7625,0 1.7125,-0.475 l 0.4,0.725 q -0.975,0.65 -2.2,0.65 -1.35,0 -2.125,-0.8875 -0.75,-0.85 -0.75,-2.2375 0,-1.45 0.775,-2.3375 0.775,-0.8875 2.0375,-0.8875 1.15,0 1.8125,0.8125 0.675,0.8 0.675,2.2125 z m -1.025,-0.3875 q 0,-0.675 -0.3,-1.1625 -0.3875,-0.625 -1.15,-0.625 -0.7125,0 -1.2,0.4875 -0.4875,0.4875 -0.55,1.3 l 3.2,0 z"
         id="path4371"
         inkscape:connector-curvature="0" />
      <path
         d="m 168.32607,263.32144 -1.0625,0 0,-3.4375 q 0,-0.6875 -0.05,-0.9625 -0.0625,-0.4 -0.275,-0.6125 -0.3,-0.3 -0.85,-0.3 -0.4875,0 -1.0625,0.25 -0.375,0.1625 -0.525,0.275 l 0,4.7875 -1.0625,0 0,-6.05 0.95,0 0,0.45 q 0.9125,-0.6125 1.8875,-0.6125 0.925,0 1.45,0.525 0.3875,0.3875 0.5125,0.9375 0.0875,0.3875 0.0875,1.2375 l 0,3.5125 z"
         id="path4373"
         inkscape:connector-curvature="0" />
      <path
         d="m 175.2958,260.29644 q 0,1.425 -0.7875,2.3 -0.7875,0.8625 -2.1,0.8625 -1.2625,0 -2.0375,-0.8625 -0.775,-0.875 -0.775,-2.3 0,-1.425 0.7875,-2.3 0.8,-0.8875 2.1125,-0.8875 1.2625,0 2.025,0.875 0.775,0.8625 0.775,2.3125 z m -1.0625,0.0125 q 0,-1.0375 -0.5125,-1.675 -0.5,-0.65 -1.2875,-0.65 -0.8125,0 -1.3,0.625 -0.475,0.625 -0.475,1.65 0,1.0375 0.5125,1.675 0.5125,0.6375 1.3,0.6375 0.8375,0 1.3,-0.6 0.4625,-0.6125 0.4625,-1.6625 z"
         id="path4375"
         inkscape:connector-curvature="0" />
      <path
         d="m 181.65908,263.32144 -0.95,0 0,-0.475 q -0.7125,0.6125 -1.7,0.6125 -1.2,0 -1.9375,-0.85 -0.7375,-0.8625 -0.7375,-2.2375 0,-1.45 0.8375,-2.35 0.8375,-0.9125 2.1125,-0.9125 0.7125,0 1.3125,0.3625 l 0,-3.1625 1.0625,0 0,9.0125 z m -1.0625,-1.2875 0,-3.625 q -0.5625,-0.4 -1.2125,-0.4 -0.8875,0 -1.4375,0.6375 -0.5375,0.6375 -0.5375,1.725 0,0.975 0.5,1.5875 0.5125,0.6 1.2875,0.6 0.6375,0 1.4,-0.525 z"
         id="path4377"
         inkscape:connector-curvature="0" />
      <path
         d="m 188.32353,260.13394 q 0,0.0625 -0.0125,0.2375 -0.0125,0.1625 -0.0125,0.2125 l -4.2125,0 q -0.0125,0.8375 0.45,1.375 0.525,0.6 1.45,0.6 0.7625,0 1.7125,-0.475 l 0.4,0.725 q -0.975,0.65 -2.2,0.65 -1.35,0 -2.125,-0.8875 -0.75,-0.85 -0.75,-2.2375 0,-1.45 0.775,-2.3375 0.775,-0.8875 2.0375,-0.8875 1.15,0 1.8125,0.8125 0.675,0.8 0.675,2.2125 z m -1.025,-0.3875 q 0,-0.675 -0.3,-1.1625 -0.3875,-0.625 -1.15,-0.625 -0.7125,0 -1.2,0.4875 -0.4875,0.4875 -0.55,1.3 l 3.2,0 z"
         id="path4379"
         inkscape:connector-curvature="0" />
      <path
         d="m 193.50869,261.63394 q 0,0.85 -0.65,1.35 -0.6375,0.5 -1.5625,0.5 -0.7625,0 -1.4625,-0.275 -0.425,-0.175 -0.6125,-0.325 l 0.4,-0.7375 q 0.85,0.4625 1.6125,0.4625 0.5,0 0.825,-0.25 0.3375,-0.25 0.3375,-0.65 0,-0.5 -0.775,-0.875 -0.7125,-0.3375 -1.4375,-0.6875 -0.775,-0.5 -0.775,-1.325 0,-0.7625 0.5875,-1.2375 0.6,-0.475 1.525,-0.475 1.2375,0 1.9125,0.5375 l -0.4,0.7125 q -0.725,-0.4125 -1.4375,-0.4125 -0.5375,0 -0.825,0.2375 -0.2875,0.225 -0.2875,0.575 0,0.4625 0.7875,0.8375 1.4,0.6625 1.45,0.7 0.7875,0.5125 0.7875,1.3375 z"
         id="path4381"
         inkscape:connector-curvature="0" />
    </g>
    <g
       style="font-style:normal;font-variant:normal;font-weight:normal;font-stretch:normal;font-size:12.49999809px;line-height:110.00000238%;font-family:FoundrySterling-Medium;-inkscape-font-specification:'FoundrySterling-Medium, Normal';text-align:center;letter-spacing:0px;word-spacing:0px;writing-mode:lr-tb;text-anchor:middle;fill:#000000;fill-opacity:1;stroke:none;stroke-width:1px;stroke-linecap:butt;stroke-linejoin:miter;stroke-opacity:1"
       id="text4231-7-7"
       transform="translate(-85.353125,-186.65531)">
      <path
         d="m 413.79933,518.42665 q 0,1.0625 -0.7375,1.75 -0.7375,0.6875 -2,0.6875 -0.9375,0 -1.8,-0.4125 -0.525,-0.25 -0.7625,-0.4875 l 0.5375,-0.775 q 1.0625,0.7125 1.975,0.7125 0.75,0 1.1875,-0.3875 0.4375,-0.4 0.4375,-0.9875 0,-0.6 -0.65,-1.075 -0.3,-0.225 -1.3125,-0.725 -0.9625,-0.475 -1.3625,-0.875 -0.575,-0.575 -0.575,-1.4125 0,-0.9875 0.725,-1.6125 0.7375,-0.6375 1.8875,-0.6375 0.975,0 1.7375,0.3875 0.4375,0.2375 0.6375,0.4625 l -0.5625,0.725 q -0.775,-0.625 -1.7375,-0.625 -0.7,0 -1.1375,0.325 -0.425,0.325 -0.425,0.875 0,0.5125 0.475,0.8625 0.1375,0.1125 1.0875,0.6 1.1625,0.6 1.4625,0.8375 0.9125,0.7375 0.9125,1.7875 z"
         id="path4384"
         inkscape:connector-curvature="0" />
      <path
         d="m 419.7423,520.68915 -0.95,0 0,-0.45 q -0.975,0.575 -1.85,0.575 -0.875,0 -1.4125,-0.5125 -0.5375,-0.525 -0.5375,-1.3625 0,-2.05 3.45,-2.05 l 0.275,0 0,-0.3875 q 0,-0.6 -0.25,-0.85 -0.3125,-0.3125 -1.0625,-0.3125 -0.825,0 -1.6625,0.475 l -0.3875,-0.7125 q 0.175,-0.15 0.6125,-0.3375 0.7125,-0.2875 1.5375,-0.2875 1.1375,0 1.75,0.6125 0.3125,0.3125 0.4125,0.7625 0.075,0.325 0.075,1.0375 l 0,3.8 z m -1.025,-1.1875 0,-1.8125 -0.3125,0 q -1.6,0 -2.125,0.525 -0.275,0.275 -0.275,0.7 0,0.4625 0.3125,0.75 0.325,0.2875 0.8875,0.2875 0.6,0 1.5125,-0.45 z"
         id="path4386"
         inkscape:connector-curvature="0" />
      <path
         d="m 424.87374,520.51415 q -0.5875,0.325 -1.3,0.325 -0.9,0 -1.3625,-0.4625 -0.2875,-0.2875 -0.3625,-0.7875 -0.0375,-0.225 -0.0375,-0.9875 l 0,-3.0875 -1.0625,0 0,-0.875 1.0625,0 0,-1.7 1.0625,0 0,1.7 1.8625,0 0,0.875 -1.8625,0 0,3.2625 q 0,0.5875 0.125,0.8 0.1875,0.35 0.7625,0.35 0.3,0 0.8375,-0.1625 l 0.275,0.75 z"
         id="path4388"
         inkscape:connector-curvature="0" />
      <path
         d="m 430.70577,517.50165 q 0,0.0625 -0.0125,0.2375 -0.0125,0.1625 -0.0125,0.2125 l -4.2125,0 q -0.0125,0.8375 0.45,1.375 0.525,0.6 1.45,0.6 0.7625,0 1.7125,-0.475 l 0.4,0.725 q -0.975,0.65 -2.2,0.65 -1.35,0 -2.125,-0.8875 -0.75,-0.85 -0.75,-2.2375 0,-1.45 0.775,-2.3375 0.775,-0.8875 2.0375,-0.8875 1.15,0 1.8125,0.8125 0.675,0.8 0.675,2.2125 z m -1.025,-0.3875 q 0,-0.675 -0.3,-1.1625 -0.3875,-0.625 -1.15,-0.625 -0.7125,0 -1.2,0.4875 -0.4875,0.4875 -0.55,1.3 l 3.2,0 z"
         id="path4390"
         inkscape:connector-curvature="0" />
      <path
         d="m 433.12843,520.68915 -1.0625,0 0,-9.0125 1.0625,0 0,9.0125 z"
         id="path4392"
         inkscape:connector-curvature="0" />
      <path
         d="m 435.8628,520.68915 -1.0625,0 0,-9.0125 1.0625,0 0,9.0125 z"
         id="path4394"
         inkscape:connector-curvature="0" />
      <path
         d="m 438.70968,512.71415 q 0,0.275 -0.1875,0.4625 -0.1875,0.1875 -0.4625,0.1875 -0.275,0 -0.4625,-0.1875 -0.1875,-0.1875 -0.1875,-0.4625 0,-0.275 0.1875,-0.4625 0.1875,-0.1875 0.4625,-0.1875 0.275,0 0.4625,0.1875 0.1875,0.1875 0.1875,0.4625 z m -0.1125,7.975 -1.0625,0 0,-6.05 1.0625,0 0,6.05 z"
         id="path4396"
         inkscape:connector-curvature="0" />
      <path
         d="m 443.81905,520.51415 q -0.5875,0.325 -1.3,0.325 -0.9,0 -1.3625,-0.4625 -0.2875,-0.2875 -0.3625,-0.7875 -0.0375,-0.225 -0.0375,-0.9875 l 0,-3.0875 -1.0625,0 0,-0.875 1.0625,0 0,-1.7 1.0625,0 0,1.7 1.8625,0 0,0.875 -1.8625,0 0,3.2625 q 0,0.5875 0.125,0.8 0.1875,0.35 0.7625,0.35 0.3,0 0.8375,-0.1625 l 0.275,0.75 z"
         id="path4398"
         inkscape:connector-curvature="0" />
      <path
         d="m 449.65108,517.50165 q 0,0.0625 -0.0125,0.2375 -0.0125,0.1625 -0.0125,0.2125 l -4.2125,0 q -0.0125,0.8375 0.45,1.375 0.525,0.6 1.45,0.6 0.7625,0 1.7125,-0.475 l 0.4,0.725 q -0.975,0.65 -2.2,0.65 -1.35,0 -2.125,-0.8875 -0.75,-0.85 -0.75,-2.2375 0,-1.45 0.775,-2.3375 0.775,-0.8875 2.0375,-0.8875 1.15,0 1.8125,0.8125 0.675,0.8 0.675,2.2125 z m -1.025,-0.3875 q 0,-0.675 -0.3,-1.1625 -0.3875,-0.625 -1.15,-0.625 -0.7125,0 -1.2,0.4875 -0.4875,0.4875 -0.55,1.3 l 3.2,0 z"
         id="path4400"
         inkscape:connector-curvature="0" />
      <path
         d="m 458.87725,520.68915 -1.0625,0 0,-3.4375 q 0,-0.6875 -0.05,-0.9625 -0.0625,-0.4 -0.275,-0.6125 -0.3,-0.3 -0.85,-0.3 -0.4875,0 -1.0625,0.25 -0.375,0.1625 -0.525,0.275 l 0,4.7875 -1.0625,0 0,-6.05 0.95,0 0,0.45 q 0.9125,-0.6125 1.8875,-0.6125 0.925,0 1.45,0.525 0.3875,0.3875 0.5125,0.9375 0.0875,0.3875 0.0875,1.2375 l 0,3.5125 z"
         id="path4402"
         inkscape:connector-curvature="0" />
      <path
         d="m 465.84698,517.66415 q 0,1.425 -0.7875,2.3 -0.7875,0.8625 -2.1,0.8625 -1.2625,0 -2.0375,-0.8625 -0.775,-0.875 -0.775,-2.3 0,-1.425 0.7875,-2.3 0.8,-0.8875 2.1125,-0.8875 1.2625,0 2.025,0.875 0.775,0.8625 0.775,2.3125 z m -1.0625,0.0125 q 0,-1.0375 -0.5125,-1.675 -0.5,-0.65 -1.2875,-0.65 -0.8125,0 -1.3,0.625 -0.475,0.625 -0.475,1.65 0,1.0375 0.5125,1.675 0.5125,0.6375 1.3,0.6375 0.8375,0 1.3,-0.6 0.4625,-0.6125 0.4625,-1.6625 z"
         id="path4404"
         inkscape:connector-curvature="0" />
      <path
         d="m 472.21026,520.68915 -0.95,0 0,-0.475 q -0.7125,0.6125 -1.7,0.6125 -1.2,0 -1.9375,-0.85 -0.7375,-0.8625 -0.7375,-2.2375 0,-1.45 0.8375,-2.35 0.8375,-0.9125 2.1125,-0.9125 0.7125,0 1.3125,0.3625 l 0,-3.1625 1.0625,0 0,9.0125 z m -1.0625,-1.2875 0,-3.625 q -0.5625,-0.4 -1.2125,-0.4 -0.8875,0 -1.4375,0.6375 -0.5375,0.6375 -0.5375,1.725 0,0.975 0.5,1.5875 0.5125,0.6 1.2875,0.6 0.6375,0 1.4,-0.525 z"
         id="path4406"
         inkscape:connector-curvature="0" />
      <path
         d="m 478.87471,517.50165 q 0,0.0625 -0.0125,0.2375 -0.0125,0.1625 -0.0125,0.2125 l -4.2125,0 q -0.0125,0.8375 0.45,1.375 0.525,0.6 1.45,0.6 0.7625,0 1.7125,-0.475 l 0.4,0.725 q -0.975,0.65 -2.2,0.65 -1.35,0 -2.125,-0.8875 -0.75,-0.85 -0.75,-2.2375 0,-1.45 0.775,-2.3375 0.775,-0.8875 2.0375,-0.8875 1.15,0 1.8125,0.8125 0.675,0.8 0.675,2.2125 z m -1.025,-0.3875 q 0,-0.675 -0.3,-1.1625 -0.3875,-0.625 -1.15,-0.625 -0.7125,0 -1.2,0.4875 -0.4875,0.4875 -0.55,1.3 l 3.2,0 z"
         id="path4408"
         inkscape:connector-curvature="0" />
      <path
         d="m 484.05987,519.00165 q 0,0.85 -0.65,1.35 -0.6375,0.5 -1.5625,0.5 -0.7625,0 -1.4625,-0.275 -0.425,-0.175 -0.6125,-0.325 l 0.4,-0.7375 q 0.85,0.4625 1.6125,0.4625 0.5,0 0.825,-0.25 0.3375,-0.25 0.3375,-0.65 0,-0.5 -0.775,-0.875 -0.7125,-0.3375 -1.4375,-0.6875 -0.775,-0.5 -0.775,-1.325 0,-0.7625 0.5875,-1.2375 0.6,-0.475 1.525,-0.475 1.2375,0 1.9125,0.5375 l -0.4,0.7125 q -0.725,-0.4125 -1.4375,-0.4125 -0.5375,0 -0.825,0.2375 -0.2875,0.225 -0.2875,0.575 0,0.4625 0.7875,0.8375 1.4,0.6625 1.45,0.7 0.7875,0.5125 0.7875,1.3375 z"
         id="path4410"
         inkscape:connector-curvature="0" />
    </g>
    <g
       style="font-style:normal;font-variant:normal;font-weight:normal;font-stretch:normal;font-size:9.99999905px;line-height:110.00000238%;font-family:FoundrySterling-Medium;-inkscape-font-specification:'FoundrySterling-Medium, Normal';text-align:center;letter-spacing:0px;word-spacing:0px;writing-mode:lr-tb;text-anchor:middle;fill:#000000;fill-opacity:1;stroke:none;stroke-width:1px;stroke-linecap:butt;stroke-linejoin:miter;stroke-opacity:1"
       id="text4231-8-3"
       transform="translate(22.657705,69.824292)">
      <path
         d="m 104.76544,331.01943 -1.95,0 0,5.93 -0.9,0 0,-5.93 -1.959995,0 0,-0.74 4.809995,0 0,0.74 z"
         id="path4290"
         inkscape:connector-curvature="0" />
      <path
         d="m 110.59591,336.37943 q -0.16,0.17 -0.64,0.38 -0.74,0.32 -1.6,0.32 -1.38,0 -2.27,-0.9 -0.93,-0.94 -0.93,-2.51 0,-1.62 0.98,-2.6 0.92,-0.93 2.35,-0.93 0.84,0 1.49,0.28 0.39,0.17 0.56,0.34 l -0.39,0.62 q -0.72,-0.45 -1.61,-0.45 -1.05,0 -1.74,0.71 -0.72,0.73 -0.72,1.95 0,1.23 0.64,1.96 0.65,0.73 1.75,0.73 0.79,0 1.74,-0.52 l 0.39,0.62 z"
         id="path4292"
         inkscape:connector-curvature="0" />
      <path
         d="m 115.88732,332.24943 q 0,0.9 -0.55,1.45 -0.43,0.43 -1.05,0.54 -0.33,0.06 -1.29,0.06 l -0.47,0 0,2.65 -0.89,0 0,-6.67 1.67,0 q 0.75,0 1.13,0.08 0.55,0.12 0.89,0.46 0.56,0.56 0.56,1.43 z m -0.9,-0.01 q 0,-0.58 -0.37,-0.95 -0.3,-0.3 -1.38,-0.3 l -0.71,0 0,2.58 0.45,0 q 0.71,0 0.94,-0.03 0.45,-0.07 0.69,-0.31 0.38,-0.38 0.38,-0.99 z"
         id="path4294"
         inkscape:connector-curvature="0" />
      <path
         d="m 123.28607,336.51943 q -0.09,0.11 -0.5,0.29 -0.59,0.25 -1.22,0.25 -1.05,0 -1.7,-0.67 -0.65,-0.67 -0.65,-1.78 0,-1.16 0.69,-1.89 0.69,-0.74 1.77,-0.74 0.58,0 1.09,0.24 0.35,0.16 0.45,0.28 l -0.36,0.55 q -0.56,-0.35 -1.16,-0.35 -0.72,0 -1.17,0.53 -0.45,0.53 -0.45,1.3 0,0.81 0.43,1.3 0.43,0.49 1.14,0.49 0.55,0 1.29,-0.38 l 0.35,0.58 z"
         id="path4296"
         inkscape:connector-curvature="0" />
      <path
         d="m 128.35615,334.52943 q 0,1.14 -0.63,1.84 -0.63,0.69 -1.68,0.69 -1.01,0 -1.63,-0.69 -0.62,-0.7 -0.62,-1.84 0,-1.14 0.63,-1.84 0.64,-0.71 1.69,-0.71 1.01,0 1.62,0.7 0.62,0.69 0.62,1.85 z m -0.85,0.01 q 0,-0.83 -0.41,-1.34 -0.4,-0.52 -1.03,-0.52 -0.65,0 -1.04,0.5 -0.38,0.5 -0.38,1.32 0,0.83 0.41,1.34 0.41,0.51 1.04,0.51 0.67,0 1.04,-0.48 0.37,-0.49 0.37,-1.33 z"
         id="path4298"
         inkscape:connector-curvature="0" />
      <path
         d="m 133.35654,336.94943 -0.85,0 0,-2.75 q 0,-0.55 -0.04,-0.77 -0.05,-0.32 -0.22,-0.49 -0.24,-0.24 -0.68,-0.24 -0.39,0 -0.85,0.2 -0.3,0.13 -0.42,0.22 l 0,3.83 -0.85,0 0,-4.84 0.76,0 0,0.36 q 0.73,-0.49 1.51,-0.49 0.74,0 1.16,0.42 0.31,0.31 0.41,0.75 0.07,0.31 0.07,0.99 l 0,2.81 z"
         id="path4300"
         inkscape:connector-curvature="0" />
      <path
         d="m 138.53232,336.94943 -0.85,0 0,-2.75 q 0,-0.55 -0.04,-0.77 -0.05,-0.32 -0.22,-0.49 -0.24,-0.24 -0.68,-0.24 -0.39,0 -0.85,0.2 -0.3,0.13 -0.42,0.22 l 0,3.83 -0.85,0 0,-4.84 0.76,0 0,0.36 q 0.73,-0.49 1.51,-0.49 0.74,0 1.16,0.42 0.31,0.31 0.41,0.75 0.07,0.31 0.07,0.99 l 0,2.81 z"
         id="path4302"
         inkscape:connector-curvature="0" />
      <path
         d="m 143.7881,334.39943 q 0,0.05 -0.01,0.19 -0.01,0.13 -0.01,0.17 l -3.37,0 q -0.01,0.67 0.36,1.1 0.42,0.48 1.16,0.48 0.61,0 1.37,-0.38 l 0.32,0.58 q -0.78,0.52 -1.76,0.52 -1.08,0 -1.7,-0.71 -0.6,-0.68 -0.6,-1.79 0,-1.16 0.62,-1.87 0.62,-0.71 1.63,-0.71 0.92,0 1.45,0.65 0.54,0.64 0.54,1.77 z m -0.82,-0.31 q 0,-0.54 -0.24,-0.93 -0.31,-0.5 -0.92,-0.5 -0.57,0 -0.96,0.39 -0.39,0.39 -0.44,1.04 l 2.56,0 z"
         id="path4304"
         inkscape:connector-curvature="0" />
      <path
         d="m 148.69622,336.51943 q -0.09,0.11 -0.5,0.29 -0.59,0.25 -1.22,0.25 -1.05,0 -1.7,-0.67 -0.65,-0.67 -0.65,-1.78 0,-1.16 0.69,-1.89 0.69,-0.74 1.77,-0.74 0.58,0 1.09,0.24 0.35,0.16 0.45,0.28 l -0.36,0.55 q -0.56,-0.35 -1.16,-0.35 -0.72,0 -1.17,0.53 -0.45,0.53 -0.45,1.3 0,0.81 0.43,1.3 0.43,0.49 1.14,0.49 0.55,0 1.29,-0.38 l 0.35,0.58 z"
         id="path4306"
         inkscape:connector-curvature="0" />
      <path
         d="m 152.68692,336.80943 q -0.47,0.26 -1.04,0.26 -0.71999,0 -1.08999,-0.37 -0.23,-0.23 -0.29,-0.63 -0.03,-0.18 -0.03,-0.79 l 0,-2.47 -0.85,0 0,-0.7 0.85,0 0,-1.36 0.85,0 0,1.36 1.48999,0 0,0.7 -1.48999,0 0,2.61 q 0,0.47 0.1,0.64 0.15,0.28 0.61,0.28 0.24,0 0.67,-0.13 l 0.22,0.6 z"
         id="path4308"
         inkscape:connector-curvature="0" />
      <path
         d="m 154.50763,330.56943 q 0,0.22 -0.15,0.37 -0.15,0.15 -0.37,0.15 -0.22,0 -0.37,-0.15 -0.15,-0.15 -0.15,-0.37 0,-0.22 0.15,-0.37 0.15,-0.15 0.37,-0.15 0.22,0 0.37,0.15 0.15,0.15 0.15,0.37 z m -0.09,6.38 -0.85,0 0,-4.84 0.85,0 0,4.84 z"
         id="path4310"
         inkscape:connector-curvature="0" />
      <path
         d="m 160.06513,334.52943 q 0,1.14 -0.63,1.84 -0.63,0.69 -1.68,0.69 -1.01,0 -1.63,-0.69 -0.62,-0.7 -0.62,-1.84 0,-1.14 0.63,-1.84 0.64,-0.71 1.69,-0.71 1.01,0 1.62,0.7 0.62,0.69 0.62,1.85 z m -0.85,0.01 q 0,-0.83 -0.41,-1.34 -0.4,-0.52 -1.03,-0.52 -0.65,0 -1.04,0.5 -0.38,0.5 -0.38,1.32 0,0.83 0.41,1.34 0.41,0.51 1.04,0.51 0.67,0 1.04,-0.48 0.37,-0.49 0.37,-1.33 z"
         id="path4312"
         inkscape:connector-curvature="0" />
      <path
         d="m 165.05575,336.94943 -0.85,0 0,-2.75 q 0,-0.55 -0.04,-0.77 -0.05,-0.32 -0.22,-0.49 -0.24,-0.24 -0.68,-0.24 -0.39,0 -0.85,0.2 -0.3,0.13 -0.42,0.22 l 0,3.83 -0.85,0 0,-4.84 0.76,0 0,0.36 q 0.73,-0.49 1.51,-0.49 0.74,0 1.16,0.42 0.31,0.31 0.41,0.75 0.07,0.31 0.07,0.99 l 0,2.81 z"
         id="path4314"
         inkscape:connector-curvature="0" />
      <path
         d="m 169.38153,335.59943 q 0,0.68 -0.52,1.08 -0.51,0.4 -1.25,0.4 -0.61,0 -1.17,-0.22 -0.34,-0.14 -0.49,-0.26 l 0.32,-0.59 q 0.68,0.37 1.29,0.37 0.4,0 0.66,-0.2 0.27,-0.2 0.27,-0.52 0,-0.4 -0.62,-0.7 -0.57,-0.27 -1.15,-0.55 -0.62,-0.4 -0.62,-1.06 0,-0.61 0.47,-0.99 0.48,-0.38 1.22,-0.38 0.99,0 1.53,0.43 l -0.32,0.57 q -0.58,-0.33 -1.15,-0.33 -0.43,0 -0.66,0.19 -0.23,0.18 -0.23,0.46 0,0.37 0.63,0.67 1.12,0.53 1.16,0.56 0.63,0.41 0.63,1.07 z"
         id="path4316"
         inkscape:connector-curvature="0" />
      <path
         d="m 93.740289,340.97943 -0.33,0.57 q -0.32,-0.21 -0.71,-0.21 -0.41,0 -0.64,0.24 -0.23,0.24 -0.23,0.93 l 0,0.6 1.51,0 0,0.7 -1.51,0 0,4.14 -0.85,0 0,-4.14 -0.83,0 0,-0.7 0.83,0 0,-0.59 q 0,-1.02 0.47,-1.49 0.41,-0.41 1.14,-0.41 0.43,0 0.81,0.16 0.25,0.11 0.34,0.2 z"
         id="path4318"
         inkscape:connector-curvature="0" />
      <path
         d="m 97.208413,343.06943 -0.199999,0.68 q -0.17,-0.03 -0.36,-0.03 -0.83,0 -1.43,0.79 l 0,3.44 -0.85,0 0,-4.84 0.76,0 0,0.63 q 0.16,-0.21 0.43,-0.4 0.51,-0.36 1.13,-0.36 0.28,0 0.519999,0.09 z"
         id="path4320"
         inkscape:connector-curvature="0" />
      <path
         d="m 102.02802,345.52943 q 0,1.14 -0.63,1.84 -0.63,0.69 -1.679997,0.69 -1.01,0 -1.63,-0.69 -0.62,-0.7 -0.62,-1.84 0,-1.14 0.63,-1.84 0.64,-0.71 1.69,-0.71 1.009997,0 1.619997,0.7 0.62,0.69 0.62,1.85 z m -0.85,0.01 q 0,-0.83 -0.41,-1.34 -0.4,-0.52 -1.029997,-0.52 -0.65,0 -1.04,0.5 -0.38,0.5 -0.38,1.32 0,0.83 0.41,1.34 0.41,0.51 1.04,0.51 0.669997,0 1.039997,-0.48 0.37,-0.49 0.37,-1.33 z"
         id="path4322"
         inkscape:connector-curvature="0" />
      <path
         d="m 109.86841,347.94943 -0.85,0 0,-2.83 q 0,-0.91 -0.24,-1.16 -0.23,-0.26 -0.66,-0.26 -0.62,0 -1.28,0.41 0.08,0.19 0.08,1.13 l 0,2.71 -0.84,0 0,-2.68 q 0,-0.62 -0.03,-0.82 -0.04,-0.36 -0.21,-0.53 -0.22,-0.22 -0.63,-0.22 -0.64,0 -1.24,0.4 l 0,3.85 -0.85,0 0,-4.84 0.76,0 0,0.36 q 0.72,-0.49 1.48,-0.49 0.77,0 1.19,0.56 0.89,-0.56 1.68,-0.56 0.74,0 1.16,0.42 0.31,0.31 0.41,0.75 0.07,0.31 0.07,0.99 l 0,2.81 z"
         id="path4324"
         inkscape:connector-curvature="0" />
      <path
         d="m 114.61576,341.27943 -3.05,8.16 -0.71,-0.26 3.05,-8.16 0.71,0.26 z"
         id="path4326"
         inkscape:connector-curvature="0" />
      <path
         d="m 118.59513,347.80943 q -0.47,0.26 -1.04,0.26 -0.72,0 -1.09,-0.37 -0.23,-0.23 -0.29,-0.63 -0.03,-0.18 -0.03,-0.79 l 0,-2.47 -0.85,0 0,-0.7 0.85,0 0,-1.36 0.85,0 0,1.36 1.49,0 0,0.7 -1.49,0 0,2.61 q 0,0.47 0.1,0.64 0.15,0.28 0.61,0.28 0.24,0 0.67,-0.13 l 0.22,0.6 z"
         id="path4328"
         inkscape:connector-curvature="0" />
      <path
         d="m 123.58076,345.52943 q 0,1.14 -0.63,1.84 -0.63,0.69 -1.68,0.69 -1.01,0 -1.63,-0.69 -0.62,-0.7 -0.62,-1.84 0,-1.14 0.63,-1.84 0.64,-0.71 1.69,-0.71 1.01,0 1.62,0.7 0.62,0.69 0.62,1.85 z m -0.85,0.01 q 0,-0.83 -0.41,-1.34 -0.4,-0.52 -1.03,-0.52 -0.65,0 -1.04,0.5 -0.38,0.5 -0.38,1.32 0,0.83 0.41,1.34 0.41,0.51 1.04,0.51 0.67,0 1.04,-0.48 0.37,-0.49 0.37,-1.33 z"
         id="path4330"
         inkscape:connector-curvature="0" />
      <path
         d="m 130.86419,347.51943 q -0.09,0.11 -0.5,0.29 -0.59,0.25 -1.22,0.25 -1.05,0 -1.7,-0.67 -0.65,-0.67 -0.65,-1.78 0,-1.16 0.69,-1.89 0.69,-0.74 1.77,-0.74 0.58,0 1.09,0.24 0.35,0.16 0.45,0.28 l -0.36,0.55 q -0.56,-0.35 -1.16,-0.35 -0.72,0 -1.17,0.53 -0.45,0.53 -0.45,1.3 0,0.81 0.43,1.3 0.43,0.49 1.14,0.49 0.55,0 1.29,-0.38 l 0.35,0.58 z"
         id="path4332"
         inkscape:connector-curvature="0" />
      <path
         d="m 135.93427,345.52943 q 0,1.14 -0.63,1.84 -0.63,0.69 -1.68,0.69 -1.01,0 -1.63,-0.69 -0.62,-0.7 -0.62,-1.84 0,-1.14 0.63,-1.84 0.64,-0.71 1.69,-0.71 1.01,0 1.62,0.7 0.62,0.69 0.62,1.85 z m -0.85,0.01 q 0,-0.83 -0.41,-1.34 -0.4,-0.52 -1.03,-0.52 -0.65,0 -1.04,0.5 -0.38,0.5 -0.38,1.32 0,0.83 0.41,1.34 0.41,0.51 1.04,0.51 0.67,0 1.04,-0.48 0.37,-0.49 0.37,-1.33 z"
         id="path4334"
         inkscape:connector-curvature="0" />
      <path
         d="m 140.93466,347.94943 -0.85,0 0,-2.75 q 0,-0.55 -0.04,-0.77 -0.05,-0.32 -0.22,-0.49 -0.24,-0.24 -0.68,-0.24 -0.39,0 -0.85,0.2 -0.3,0.13 -0.42,0.22 l 0,3.83 -0.85,0 0,-4.84 0.76,0 0,0.36 q 0.73,-0.49 1.51,-0.49 0.74,0 1.16,0.42 0.31,0.31 0.41,0.75 0.07,0.31 0.07,0.99 l 0,2.81 z"
         id="path4336"
         inkscape:connector-curvature="0" />
      <path
         d="m 145.04044,347.80943 q -0.47,0.26 -1.04,0.26 -0.72,0 -1.09,-0.37 -0.23,-0.23 -0.29,-0.63 -0.03,-0.18 -0.03,-0.79 l 0,-2.47 -0.85,0 0,-0.7 0.85,0 0,-1.36 0.85,0 0,1.36 1.49,0 0,0.7 -1.49,0 0,2.61 q 0,0.47 0.1,0.64 0.15,0.28 0.61,0.28 0.24,0 0.67,-0.13 l 0.22,0.6 z"
         id="path4338"
         inkscape:connector-curvature="0" />
      <path
         d="m 148.75138,343.06943 -0.2,0.68 q -0.17,-0.03 -0.36,-0.03 -0.83,0 -1.43,0.79 l 0,3.44 -0.85,0 0,-4.84 0.76,0 0,0.63 q 0.16,-0.21 0.43,-0.4 0.51,-0.36 1.13,-0.36 0.28,0 0.52,0.09 z"
         id="path4340"
         inkscape:connector-curvature="0" />
      <path
         d="m 153.57099,345.52943 q 0,1.14 -0.63,1.84 -0.63,0.69 -1.68,0.69 -1.01,0 -1.63,-0.69 -0.62,-0.7 -0.62,-1.84 0,-1.14 0.63,-1.84 0.64,-0.71 1.69,-0.71 1.01,0 1.62,0.7 0.62,0.69 0.62,1.85 z m -0.85,0.01 q 0,-0.83 -0.41,-1.34 -0.4,-0.52 -1.03,-0.52 -0.65,0 -1.04,0.5 -0.38,0.5 -0.38,1.32 0,0.83 0.41,1.34 0.41,0.51 1.04,0.51 0.67,0 1.04,-0.48 0.37,-0.49 0.37,-1.33 z"
         id="path4342"
         inkscape:connector-curvature="0" />
      <path
         d="m 155.51138,347.94943 -0.85,0 0,-7.21 0.85,0 0,7.21 z"
         id="path4344"
         inkscape:connector-curvature="0" />
      <path
         d="m 163.14169,347.94943 -0.85,0 0,-2.75 q 0,-0.55 -0.04,-0.77 -0.05,-0.32 -0.22,-0.49 -0.24,-0.24 -0.68,-0.24 -0.39,0 -0.85,0.2 -0.3,0.13 -0.42,0.22 l 0,3.83 -0.85,0 0,-4.84 0.76,0 0,0.36 q 0.73,-0.49 1.51,-0.49 0.74,0 1.16,0.42 0.31,0.31 0.41,0.75 0.07,0.31 0.07,0.99 l 0,2.81 z"
         id="path4346"
         inkscape:connector-curvature="0" />
      <path
         d="m 168.71747,345.52943 q 0,1.14 -0.63,1.84 -0.63,0.69 -1.68,0.69 -1.01,0 -1.63,-0.69 -0.62,-0.7 -0.62,-1.84 0,-1.14 0.63,-1.84 0.64,-0.71 1.69,-0.71 1.01,0 1.62,0.7 0.62,0.69 0.62,1.85 z m -0.85,0.01 q 0,-0.83 -0.41,-1.34 -0.4,-0.52 -1.03,-0.52 -0.65,0 -1.04,0.5 -0.38,0.5 -0.38,1.32 0,0.83 0.41,1.34 0.41,0.51 1.04,0.51 0.67,0 1.04,-0.48 0.37,-0.49 0.37,-1.33 z"
         id="path4348"
         inkscape:connector-curvature="0" />
      <path
         d="m 173.80809,347.94943 -0.76,0 0,-0.38 q -0.57,0.49 -1.36,0.49 -0.96,0 -1.55,-0.68 -0.59,-0.69 -0.59,-1.79 0,-1.16 0.67,-1.88 0.67,-0.73 1.69,-0.73 0.57,0 1.05,0.29 l 0,-2.53 0.85,0 0,7.21 z m -0.85,-1.03 0,-2.9 q -0.45,-0.32 -0.97,-0.32 -0.71,0 -1.15,0.51 -0.43,0.51 -0.43,1.38 0,0.78 0.4,1.27 0.41,0.48 1.03,0.48 0.51,0 1.12,-0.42 z"
         id="path4350"
         inkscape:connector-curvature="0" />
      <path
         d="m 179.13966,345.39943 q 0,0.05 -0.01,0.19 -0.01,0.13 -0.01,0.17 l -3.37,0 q -0.01,0.67 0.36,1.1 0.42,0.48 1.16,0.48 0.61,0 1.37,-0.38 l 0.32,0.58 q -0.78,0.52 -1.76,0.52 -1.08,0 -1.7,-0.71 -0.6,-0.68 -0.6,-1.79 0,-1.16 0.62,-1.87 0.62,-0.71 1.63,-0.71 0.92,0 1.45,0.65 0.54,0.64 0.54,1.77 z m -0.82,-0.31 q 0,-0.54 -0.24,-0.93 -0.31,-0.5 -0.92,-0.5 -0.57,0 -0.96,0.39 -0.39,0.39 -0.44,1.04 l 2.56,0 z"
         id="path4352"
         inkscape:connector-curvature="0" />
    </g>
    <text
       xml:space="preserve"
       style="font-style:normal;font-variant:normal;font-weight:normal;font-stretch:normal;line-height:0%;font-family:'DejaVu Serif';-inkscape-font-specification:'DejaVu Serif, Normal';text-align:center;letter-spacing:0px;word-spacing:0px;writing-mode:lr-tb;text-anchor:middle;fill:#000000;fill-opacity:1;stroke:none;stroke-width:1px;stroke-linecap:butt;stroke-linejoin:miter;stroke-opacity:1"
       x="538.5827"
       y="386.22046"
       id="text7909"><tspan
         sodipodi:role="line"
         id="tspan7911"
         x="540.57245"
         y="386.22046"
         style="font-size:12.5px;line-height:1.10000002"> </tspan></text>
    <text
       xml:space="preserve"
       style="font-style:normal;font-variant:normal;font-weight:normal;font-stretch:normal;line-height:0%;font-family:'DejaVu Serif';-inkscape-font-specification:'DejaVu Serif, Normal';text-align:start;letter-spacing:0px;word-spacing:0px;writing-mode:lr-tb;text-anchor:start;fill:#000000;fill-opacity:1;stroke:none;stroke-width:1px;stroke-linecap:butt;stroke-linejoin:miter;stroke-opacity:1"
       x="282.90302"
       y="418.29498"
       id="text4480"><tspan
         sodipodi:role="line"
         id="tspan4482"
         x="282.90302"
         y="418.29498"
         style="font-style:normal;font-variant:normal;font-weight:normal;font-stretch:normal;font-size:9.99999905px;line-height:110.00000238%;font-family:'DejaVu Serif';-inkscape-font-specification:'DejaVu Serif, Normal';text-align:start;writing-mode:lr-tb;text-anchor:start">Current leader</tspan></text>
    <text
       xml:space="preserve"
       style="font-style:normal;font-variant:normal;font-weight:normal;font-stretch:normal;line-height:0%;font-family:'DejaVu Serif';-inkscape-font-specification:'DejaVu Serif, Normal';text-align:center;letter-spacing:0px;word-spacing:0px;writing-mode:lr-tb;text-anchor:middle;fill:#000000;fill-opacity:1;stroke:none;stroke-width:1px;stroke-linecap:butt;stroke-linejoin:miter;stroke-opacity:1"
       x="248.03879"
       y="465.4866"
       id="text4514"><tspan
         sodipodi:role="line"
         id="tspan4516"
         x="248.03879"
         y="465.4866"
         style="font-size:9.99999905px;line-height:1.10000002">DRBD 9</tspan><tspan
         sodipodi:role="line"
         x="248.03879"
         y="476.4866"
         id="tspan4518"
         style="font-size:9.99999905px;line-height:1.10000002">protocol</tspan><tspan
         sodipodi:role="line"
         x="248.03879"
         y="487.4866"
         id="tspan4520"
         style="font-size:9.99999905px;line-height:1.10000002">control</tspan><tspan
         sodipodi:role="line"
         x="248.03879"
         y="498.4866"
         id="tspan4522"
         style="font-size:9.99999905px;line-height:1.10000002">volume</tspan></text>
  </g>
</svg>
